<?xml version="1.0" encoding="UTF-8"?><svg version="1.1" width="40px" height="40px" viewBox="0 0 40.0 40.0" xmlns="http://www.w3.org/2000/svg" xmlns:xlink="http://www.w3.org/1999/xlink"><defs><clipPath id="i0"><path d="M1440,0 L1440,1194 L0,1194 L0,0 L1440,0 Z"></path></clipPath><clipPath id="i1"><path d="M40,0 L40,40 L0,40 L0,0 L40,0 Z"></path></clipPath><clipPath id="i2"><path d="M32,0 C36.418278,-8.11624501e-16 40,3.581722 40,8 L40,32 C40,36.418278 36.418278,40 32,40 L8,40 C3.581722,40 5.41083001e-16,36.418278 0,32 L0,8 C-5.41083001e-16,3.581722 3.581722,8.11624501e-16 8,0 L32,0 Z"></path></clipPath><clipPath id="i3"><path d="M22.1384829,0 C22.612879,0 22.999424,0.448979592 22.999424,1 C23.0169942,1.55102041 22.6304492,2 22.1384829,2 L0.860941004,2 C0.38654494,2 0,1.55102041 0,1 C0,0.448979592 0.38654494,0 0.860941004,0 L22.1384829,0 Z"></path></clipPath><clipPath id="i4"><path d="M1,0 C1.55102041,0 2,0.386554622 2,0.860962567 L2,22.1390374 C2,22.6134454 1.55102041,23 1,23 C0.448979592,23 0,22.6134454 0,22.1390374 L0,0.860962567 C0,0.386554622 0.448979592,0 1,0 Z"></path></clipPath><clipPath id="i5"><path d="M12.5,0 C19.3892045,0 25,5.61079545 25,12.5 C25,19.3892045 19.3892045,25 12.5,25 C5.61079545,25 0,19.3892045 0,12.5 C0,5.61079545 5.61079545,0 12.5,0 Z M12.5,1.70454545 C6.55184659,1.70454545 1.70454545,6.55184659 1.70454545,12.5 C1.70454545,18.4481534 6.55184659,23.2954545 12.5,23.2954545 C18.4481534,23.2954545 23.2954545,18.4481534 23.2954545,12.5 C23.2954545,6.55184659 18.4481534,1.70454545 12.5,1.70454545 Z"></path></clipPath><clipPath id="i6"><path d="M5.09591893,0 L6.22951138,1.26500732 C5.80441421,1.63396779 -3.90197113,10.4714495 6.31807329,22.9458272 L5.00735702,24 C-6.25771793,10.2606149 4.98964464,0.105417277 5.09591893,0 Z M8.90408107,0 C9.01035536,0.105417277 20.2577179,10.2781845 8.99264298,24 L7.68192671,22.9458272 C16.8799667,11.7346999 9.93759856,3.45522694 8.1472487,1.62966325 L7.98617571,1.46875037 C7.87548053,1.36053119 7.80024542,1.29206442 7.77048862,1.26500732 L8.90408107,0 Z"></path></clipPath></defs><g transform="translate(-292.0 -1061.0)"><g clip-path="url(#i0)"><g transform="translate(264.0 749.0)"><g transform="translate(28.0 309.9999738605877)"><g transform="translate(0.0 1.9999869302939715)"><g clip-path="url(#i1)"><g clip-path="url(#i2)"><polygon points="0,0 40,0 40,40 0,40 0,0" stroke="none" fill="#1A67E3"></polygon></g><g transform="translate(8.0 7.000039209118313)"><g transform="translate(1.0 11.0)"><g clip-path="url(#i3)"><polygon points="0,0 23,0 23,2 0,2 0,0" stroke="none" fill="#FFFFFF"></polygon></g></g><g transform="translate(12.0 1.0)"><g clip-path="url(#i4)"><polygon points="0,0 2,0 2,23 0,23 0,0" stroke="none" fill="#FFFFFF"></polygon></g></g><g clip-path="url(#i5)"><polygon points="0,0 25,0 25,25 0,25 0,0" stroke="none" fill="#FFFFFF"></polygon></g><g transform="translate(6.0 1.0)"><g clip-path="url(#i6)"><polygon points="0,0 14,0 14,24 0,24 0,0" stroke="none" fill="#FFFFFF"></polygon></g></g></g></g></g></g></g></g></g></svg>