<?xml version="1.0" encoding="UTF-8"?><svg version="1.1" width="13px" height="18px" viewBox="0 0 13.0 18.0" xmlns="http://www.w3.org/2000/svg" xmlns:xlink="http://www.w3.org/1999/xlink"><defs><clipPath id="i0"><path d="M1440,0 L1440,1194 L0,1194 L0,0 L1440,0 Z"></path></clipPath><clipPath id="i1"><path d="M13,0 L13,18 L0,18 L0,0 L13,0 Z"></path></clipPath><clipPath id="i2"><path d="M9.62499022,0 C10.3844283,0 10.9999934,0.650971431 10.9999934,1.45462857 L10.9999934,3.02537142 C10.9999934,4.08731428 10.5617478,5.09622856 9.79966977,5.78651428 L7.35899608,8 L9.79966977,10.2130286 C10.5643969,10.91043 11.0019661,11.91699 10.9999934,12.9741714 L10.9999934,14.5453714 C10.9999934,15.3485714 10.3839883,16 9.62499022,16 L1.37501153,16 C1.00895621,15.9994422 0.65850989,15.8458937 0.402614051,15.5739429 C0.143963911,15.2990805 -0.000589272216,14.9297719 7.51606603e-06,14.5453714 L7.51606603e-06,12.9746286 C7.51606603e-06,11.9131429 0.438693951,10.9046857 1.20033199,10.2134857 L3.64100568,8 L1.20033199,5.78697143 C0.435489106,5.08946492 -0.00209136813,4.08271226 7.51606603e-06,3.02537142 L7.51606603e-06,1.45462857 C7.51606603e-06,0.650971431 0.616013506,0 1.37501153,0 L9.62499022,0 Z M9.62499404,1.45462857 L1.37500851,1.45462857 L1.37500851,3.02537142 C1.37398025,3.65976196 1.63671625,4.26370261 2.09572967,4.68205715 L4.53596337,6.89508571 C4.84200392,7.17396441 5.01716811,7.57660726 5.01644214,7.99954286 C5.01644214,8.42422857 4.84088259,8.82742857 4.53596337,9.104 L2.09572967,11.3179429 C1.63671625,11.7362974 1.37398025,12.340238 1.37500851,12.9746286 L1.37500851,14.5453714 L9.62499404,14.5453714 L9.62499404,12.9746286 C9.62602151,12.340238 9.36328551,11.7362974 8.90427209,11.3179429 L6.46403839,9.104 C6.15799784,8.8251213 5.98283365,8.42247845 5.98355962,7.99954286 C5.98355962,7.57485714 6.15911916,7.17165714 6.46403839,6.89508571 L8.90427209,4.68251428 C9.36340122,4.26405471 9.62614855,3.65992137 9.62499404,3.02537142 L9.62499404,1.45462857 Z"></path></clipPath><clipPath id="i3"><path d="M2.50038298,0 C2.72369368,0 2.9369806,0.105987767 3.08930946,0.292652753 L4.75610139,2.29291717 C4.99407169,2.57924075 5.06556275,3.00958334 4.93657887,3.38277555 C4.80759496,3.75653925 4.50413286,4 4.16667497,4 L0.833591064,4 C0.496633122,4 0.193171019,3.75653925 0.0636871852,3.38277555 C-0.0653870123,3.0100448 0.00508623831,2.58565001 0.244664577,2.29291717 L1.9114565,0.292652753 C2.06378537,0.105987767 2.27707228,0 2.50038298,0 Z"></path></clipPath></defs><g transform="translate(-1009.0 -354.0)"><g clip-path="url(#i0)"><g transform="translate(1009.0 342.0)"><g transform="translate(0.0 12.0)"><g clip-path="url(#i1)"><g transform="translate(2.0 2.0)"><g opacity="10.0000001%"><g clip-path="url(#i2)"><polygon points="1.19193544e-12,0 11,0 11,16 1.19193544e-12,16 1.19193544e-12,0" stroke="none" fill="#1A67E3"></polygon></g><g transform="translate(3.0 10.0)"><g clip-path="url(#i3)"><polygon points="1.80411242e-16,0 5,0 5,4 1.80411242e-16,4 1.80411242e-16,0" stroke="none" fill="#1A67E3"></polygon></g></g></g></g><g clip-path="url(#i2)"><polygon points="1.19193544e-12,0 11,0 11,16 1.19193544e-12,16 1.19193544e-12,0" stroke="none" fill="#1A67E3"></polygon></g><g transform="translate(3.0 10.0)"><g clip-path="url(#i3)"><polygon points="1.80411242e-16,0 5,0 5,4 1.80411242e-16,4 1.80411242e-16,0" stroke="none" fill="#1A67E3"></polygon></g></g></g></g></g></g></g></svg>