<?xml version="1.0" encoding="UTF-8"?><svg version="1.1" width="15px" height="18px" viewBox="0 0 15.0 18.0" xmlns="http://www.w3.org/2000/svg" xmlns:xlink="http://www.w3.org/1999/xlink"><defs><clipPath id="i0"><path d="M1440,0 L1440,1194 L0,1194 L0,0 L1440,0 Z"></path></clipPath><clipPath id="i1"><path d="M15,0 L15,18 L0,18 L0,0 L15,0 Z"></path></clipPath><clipPath id="i2"><path d="M6.16963226,3.33333333 C6.6282317,3.33333333 7,3.70642938 7,4.16666667 C7,4.62690396 6.6282317,5 6.16963226,5 L0.830367708,5 C0.371768281,5 0,4.62690394 0,4.16666667 C0,3.70642939 0.371768281,3.33333333 0.830367708,3.33333333 Z M6.16963224,0 C6.46629407,0 6.7404209,0.158832425 6.88875181,0.416666659 C7.03708273,0.674500894 7.03708273,0.992165773 6.88875181,1.25000001 C6.7404209,1.50783424 6.46629407,1.66666667 6.16963224,1.66666667 L0.830367758,1.66666667 C0.533705934,1.66666667 0.2595791,1.50783424 0.111248186,1.25000001 C-0.0370827286,0.992165773 -0.0370827286,0.674500894 0.111248186,0.416666659 C0.2595791,0.158832425 0.533705934,0 0.830367758,0 Z"></path></clipPath><clipPath id="i3"><path d="M10.5152162,0 C11.8848184,0 12.9961743,1.27733094 13,2.8558868 L13,11.0875606 C12.9961872,12.6629994 11.8890494,13.9390528 10.522157,13.9434474 L8.57875067,13.9434474 L6.97544047,15.7673751 C6.70472574,16.0775416 6.26751131,16.0775416 5.99679658,15.7673751 L4.41430859,13.9434474 L2.47784303,13.9434474 C1.11095055,13.9390528 0.00381283414,12.6629994 0,11.0875606 L0,2.8558868 C0.00381283414,1.28044795 1.11095055,0.00439455711 2.47784303,0 Z M10.5152162,1.59993658 L2.47784303,1.59993658 C1.87602072,1.59993658 1.38814735,2.16224465 1.38814735,2.8558868 L1.38814735,11.0875606 C1.38814735,11.7812027 1.87602072,12.3435108 2.47784303,12.3435108 L4.71276027,12.3435108 C4.89724713,12.3422814 5.07456782,12.4257583 5.20555259,12.5755016 L6.49652963,14.0714423 L7.78750667,12.5755016 C7.91849144,12.4257583 8.09581213,12.3422814 8.28029899,12.3435108 L10.5152162,12.3435108 C11.1170385,12.3435108 11.6049119,11.7812027 11.6049119,11.0875606 L11.6049119,2.8558868 C11.6049119,2.16224465 11.1170385,1.59993658 10.5152162,1.59993658 Z"></path></clipPath></defs><g transform="translate(-1272.0 -354.0)"><g clip-path="url(#i0)"><g transform="translate(1009.0 342.0)"><g transform="translate(263.0 12.0)"><g clip-path="url(#i1)"><g transform="translate(2.0 2.0)"><g opacity="10.0000001%"><g transform="translate(3.0 5.0)"><g clip-path="url(#i2)"><polygon points="0,0 7,0 7,5 0,5 0,0" stroke="none" fill="#1A68E3"></polygon></g></g><g clip-path="url(#i3)"><polygon points="0,0 13,0 13,16 0,16 0,0" stroke="none" fill="#1A68E3"></polygon></g></g></g><g transform="translate(3.0 5.0)"><g clip-path="url(#i2)"><polygon points="0,0 7,0 7,5 0,5 0,0" stroke="none" fill="#1A68E3"></polygon></g></g><g clip-path="url(#i3)"><polygon points="0,0 13,0 13,16 0,16 0,0" stroke="none" fill="#1A68E3"></polygon></g></g></g></g></g></g></svg>