<?xml version="1.0" encoding="UTF-8"?><svg version="1.1" width="16px" height="18px" viewBox="0 0 16.0 18.0" xmlns="http://www.w3.org/2000/svg" xmlns:xlink="http://www.w3.org/1999/xlink"><defs><clipPath id="i0"><path d="M1440,0 L1440,1194 L0,1194 L0,0 L1440,0 Z"></path></clipPath><clipPath id="i1"><path d="M16,0 L16,18 L0,18 L0,0 L16,0 Z"></path></clipPath><clipPath id="i2"><path d="M11.5945946,0.00052639153 C11.9580464,-0.0102187154 12.3103502,0.14390881 12.5739414,0.428975677 C12.8375326,0.714042543 12.9908001,1.10667689 13,1.52043488 L13,5.84017476 C13,6.28197596 12.6853893,6.6401266 12.2972973,6.6401266 C11.9092053,6.6401266 11.5945946,6.28197596 11.5945946,5.84017476 L11.5945946,1.60043007 L1.40540542,1.60043007 L1.40540542,14.3996593 L11.5945946,14.3996593 L11.5945946,12.3997798 C11.5945946,11.9579786 11.9092053,11.5998279 12.2972973,11.5998279 C12.6853893,11.5998279 13,11.9579786 13,12.3997798 L13,14.4796545 C12.9789294,15.3403224 12.3507185,16.0197157 11.5945946,15.999563 L1.40540542,15.999563 C0.649281477,16.0197157 0.0210706484,15.3403224 0,14.4796545 L0,1.52043488 C0.00919987564,1.10667689 0.162467393,0.714042543 0.426058604,0.428975677 C0.689649815,0.14390881 1.04195359,-0.0102187154 1.40540542,0.00052639153 Z"></path></clipPath><clipPath id="i3"><path d="M10.3071148,3.19688605 C10.4908684,3.19688605 10.6670846,3.27659424 10.7969457,3.41845211 C10.9269514,3.56015224 11,3.75243356 11,3.95293938 C11,4.1534452 10.9269514,4.34572652 10.7969457,4.48742665 L6.88175962,8.77843394 C6.7518985,8.92029181 6.57568224,9 6.39192864,9 C6.20817503,9 6.03195877,8.92029181 5.90209765,8.77843394 L4.43433558,7.1768608 C4.16380941,6.88167164 4.16380941,6.40307544 4.43433558,6.10788628 C4.70486176,5.81269712 5.14347135,5.81269712 5.41399753,6.10788628 L6.39019778,7.1768608 L9.81728377,3.41845211 C9.94714489,3.27659424 10.1233612,3.19688605 10.3071148,3.19688605 Z M4.15393763,3.77729516 C4.5362654,3.77735902 4.84617225,4.11557084 4.84617225,4.53275418 C4.84617225,4.94993752 4.5362654,5.28814935 4.15393763,5.28821321 L0.692234617,5.28821321 C0.309906853,5.28814935 0,4.94993752 0,4.53275418 C0,4.11557084 0.309906853,3.77735902 0.692234617,3.77729516 Z M6.23095945,0 C6.6133286,0 6.92330006,0.338230521 6.92330006,0.75545902 C6.92330006,1.17268753 6.61332861,1.51091806 6.23095945,1.51091806 L0.692234617,1.51091806 C0.309906853,1.51085419 0,1.17264237 0,0.755459029 C0,0.338275689 0.309906853,6.38678931e-05 0.692234617,0 Z"></path></clipPath></defs><g transform="translate(-1144.0 -354.0)"><g clip-path="url(#i0)"><g transform="translate(1009.0 342.0)"><g transform="translate(135.0000000000001 12.0)"><g clip-path="url(#i1)"><g transform=""><g transform="translate(2.0 2.0)"><g opacity="10.0000001%"><g clip-path="url(#i2)"><polygon points="0,1.28044277e-16 13,1.28044277e-16 13,16 0,16 0,1.28044277e-16" stroke="none" fill="#1A67E3"></polygon></g><g transform="translate(3.0 4.0)"><g clip-path="url(#i3)"><polygon points="0,0 11,0 11,9 0,9 0,0" stroke="none" fill="#1A67E3"></polygon></g></g></g></g><g clip-path="url(#i2)"><polygon points="0,1.28044277e-16 13,1.28044277e-16 13,16 0,16 0,1.28044277e-16" stroke="none" fill="#1A67E3"></polygon></g><g transform="translate(3.0 4.0)"><g clip-path="url(#i3)"><polygon points="0,0 11,0 11,9 0,9 0,0" stroke="none" fill="#1A67E3"></polygon></g></g></g></g></g></g></g></g></svg>