<?xml version="1.0" encoding="UTF-8"?><svg version="1.1" width="40px" height="40px" viewBox="0 0 40.0 40.0" xmlns="http://www.w3.org/2000/svg" xmlns:xlink="http://www.w3.org/1999/xlink"><defs><clipPath id="i0"><path d="M1440,0 L1440,1194 L0,1194 L0,0 L1440,0 Z"></path></clipPath><clipPath id="i1"><path d="M40,0 L40,40 L0,40 L0,0 L40,0 Z"></path></clipPath><clipPath id="i2"><path d="M32,0 C36.418278,-8.11624501e-16 40,3.581722 40,8 L40,32 C40,36.418278 36.418278,40 32,40 L8,40 C3.581722,40 5.41083001e-16,36.418278 0,32 L0,8 C-5.41083001e-16,3.581722 3.581722,8.11624501e-16 8,0 L32,0 Z"></path></clipPath></defs><g transform="translate(-658.0 -845.0)"><g clip-path="url(#i0)"><g transform="translate(264.0 749.0)"><g transform="translate(394.0 94.0000130697058)"><g transform="translate(0.0 1.9999869302939715)"><g clip-path="url(#i1)"><g clip-path="url(#i2)"><polygon points="0,0 40,0 40,40 0,40 0,0" stroke="none" fill="#1A67E3"></polygon></g><g transform="translate(9.0 10.000013069706029)"><text transform="translate(0.0 15.0)" font-family="PingFangSC-Semibold, PingFang SC" font-size="14.0" font-weight="500" fill="#FFFFFF" text-anchor="left">OA</text></g></g></g></g></g></g></g></svg>