<?xml version="1.0" encoding="UTF-8"?><svg version="1.1" width="40px" height="40px" viewBox="0 0 40.0 40.0" xmlns="http://www.w3.org/2000/svg" xmlns:xlink="http://www.w3.org/1999/xlink"><defs><clipPath id="i0"><path d="M1440,0 L1440,1194 L0,1194 L0,0 L1440,0 Z"></path></clipPath><clipPath id="i1"><path d="M40,0 L40,40 L0,40 L0,0 L40,0 Z"></path></clipPath><clipPath id="i2"><path d="M32,0 C36.418278,-8.11624501e-16 40,3.581722 40,8 L40,32 C40,36.418278 36.418278,40 32,40 L8,40 C3.581722,40 5.41083001e-16,36.418278 0,32 L0,8 C-5.41083001e-16,3.581722 3.581722,8.11624501e-16 8,0 L32,0 Z"></path></clipPath><clipPath id="i3"><path d="M22.9092524,0 C24.0655702,0.00154545455 25,0.942727273 25,2.10181818 L25,14.9012727 C25,16.0619091 24.0655702,17 22.9076898,17 L2.09240619,17 C0.93765095,17 4.76783962e-05,16.0603636 4.76783962e-05,14.9012727 L4.76783962e-05,2.10027273 C-0.00769896867,0.94859475 0.92952583,0.00850533561 2.09396878,0 L22.9092524,0 Z M15.8494632,9.70081818 L14.7822131,10.6389091 C14.1618642,11.1829091 13.4024447,11.4610909 12.5008293,11.4610909 C11.6039017,11.4610909 10.8397943,11.1813636 10.221008,10.6389091 L9.15375792,9.70081818 L2.64556364,15.4962727 L22.3576575,15.4962727 L15.8494632,9.70081818 Z M23.4467839,2.86836364 L16.9620285,8.57109091 L23.4467839,14.4345455 L23.4467839,2.86836364 Z M1.55643725,2.86681818 L1.556,14.432 L8.03963007,8.56954545 L1.55643725,2.86681818 Z M22.409223,1.50372727 L2.59243552,1.50372727 L10.894485,8.88636364 C11.617965,9.53390909 12.1554965,9.85536364 12.5008293,9.85536364 C12.846162,9.85536364 13.3836936,9.53390909 14.1071735,8.88636364 L22.409223,1.50372727 Z"></path></clipPath></defs><g transform="translate(-292.0 -989.0)"><g clip-path="url(#i0)"><g transform="translate(264.0 749.0)"><g transform="translate(28.0 237.99998693029397)"><g transform="translate(0.0 1.9999869302939715)"><g clip-path="url(#i1)"><g clip-path="url(#i2)"><polygon points="0,0 40,0 40,40 0,40 0,0" stroke="none" fill="#1A67E3"></polygon></g><g transform="translate(8.0 12.0)"><g clip-path="url(#i3)"><polygon points="2.44693155e-13,0 25,0 25,17 2.44693155e-13,17 2.44693155e-13,0" stroke="none" fill="#FFFFFF"></polygon></g></g></g></g></g></g></g></g></svg>