<?xml version="1.0" encoding="UTF-8"?><svg version="1.1" width="40px" height="40px" viewBox="0 0 40.0 40.0" xmlns="http://www.w3.org/2000/svg" xmlns:xlink="http://www.w3.org/1999/xlink"><defs><clipPath id="i0"><path d="M1440,0 L1440,1194 L0,1194 L0,0 L1440,0 Z"></path></clipPath><clipPath id="i1"><path d="M40,0 L40,40 L0,40 L0,0 L40,0 Z"></path></clipPath><clipPath id="i2"><path d="M32,0 C36.418278,-8.11624501e-16 40,3.581722 40,8 L40,32 C40,36.418278 36.418278,40 32,40 L8,40 C3.581722,40 5.41083001e-16,36.418278 0,32 L0,8 C-5.41083001e-16,3.581722 3.581722,8.11624501e-16 8,0 L32,0 Z"></path></clipPath><clipPath id="i3"><path d="M4.81293625,0 C7.47206054,0 9.62587247,2.16921052 9.62613498,4.8436842 C9.62613498,6.7268421 8.53466026,8.28078946 6.8664732,9.03263157 C7.43017919,9.94309074 8.10767,10.7775734 8.88247266,11.5157895 C9.77890994,12.3694737 10.7732597,13.06 11.8159094,13.5423684 C12.4658592,11.6555263 14.1427088,10.3631579 16.1870582,10.3631579 C18.84592,10.3631579 21,12.5326316 21,15.2068421 C21.001353,16.1071678 20.7520802,16.990012 20.2802197,17.7560526 C20.0569658,18.0970697 19.6034844,18.1979339 19.2573182,17.9835685 C18.911152,17.769203 18.7981262,17.317526 19.00237,16.9647368 C19.3249824,16.4410527 19.4982324,15.8378948 19.4982324,15.2068421 C19.4982323,13.3628947 18.0148452,11.8692105 16.1870582,11.8692105 C14.5918462,11.8692105 13.332634,13.0271053 13.0753841,14.6823684 C13.0410734,14.9038901 12.9100465,15.0985482 12.7179759,15.2133467 C12.5259052,15.3281452 12.2927856,15.3511334 12.0820843,15.2760526 C10.5535472,14.7321053 9.10953511,13.8089474 7.84796045,12.6076316 C6.72734822,11.5402632 5.78077347,10.2792105 5.10221115,8.96394736 C4.99644671,8.75914937 4.99014161,8.51705327 5.08510178,8.3070014 C5.18006196,8.09694954 5.36581202,7.94211348 5.58914853,7.88684211 C7.11768563,7.50789472 8.12411036,6.33157893 8.12411036,4.8436842 C8.12411036,2.99947367 6.64098577,1.50605262 4.81293625,1.50605262 C2.90403673,1.50605262 1.5017621,2.8673684 1.5017621,4.8436842 C1.5017621,8.30657895 3.34739911,12.1226316 5.96609843,14.5936842 C8.16689784,16.67 11.7439844,18.1984211 15.2058335,18.4939474 L16.1870582,18.4939474 C16.6019034,18.4939474 16.9382018,18.8310887 16.9382018,19.2469737 C16.9382018,19.6628586 16.6019034,20 16.1870582,20 L15.174071,20 C15.1533335,20 15.132596,19.9992106 15.112121,19.9973684 C11.310597,19.6807895 7.39829806,18.0126316 4.93709871,15.6905263 C2.03174946,12.9494737 0,8.74789474 0,4.8436842 C0,2.025 2.08503697,0 4.81293625,0 Z"></path></clipPath></defs><g transform="translate(-292.0 -917.0)"><g clip-path="url(#i0)"><g transform="translate(264.0 749.0)"><g transform="translate(28.0 165.9999999999998)"><g transform="translate(0.0 1.9999869302939715)"><g clip-path="url(#i1)"><g clip-path="url(#i2)"><polygon points="0,0 40,0 40,40 0,40 0,0" stroke="none" fill="#1A67E3"></polygon></g><g transform="translate(10.0 10.0)"><g clip-path="url(#i3)"><polygon points="0,0 21.0000055,0 21.0000055,20 0,20 0,0" stroke="none" fill="#FFFFFF"></polygon></g></g></g></g></g></g></g></g></svg>