<?xml version="1.0" encoding="UTF-8"?><svg version="1.1" width="40px" height="40px" viewBox="0 0 40.0 40.0" xmlns="http://www.w3.org/2000/svg" xmlns:xlink="http://www.w3.org/1999/xlink"><defs><clipPath id="i0"><path d="M1440,0 L1440,1194 L0,1194 L0,0 L1440,0 Z"></path></clipPath><clipPath id="i1"><path d="M40,0 L40,40 L0,40 L0,0 L40,0 Z"></path></clipPath><clipPath id="i2"><path d="M32,0 C36.418278,-8.11624501e-16 40,3.581722 40,8 L40,32 C40,36.418278 36.418278,40 32,40 L8,40 C3.581722,40 5.41083001e-16,36.418278 0,32 L0,8 C-5.41083001e-16,3.581722 3.581722,8.11624501e-16 8,0 L32,0 Z"></path></clipPath><clipPath id="i3"><path d="M18.8571429,0 C19.8857143,0 20.5714286,0.685714286 20.5714286,1.71428571 L20.5714286,3.42857143 L22.2857143,3.42857143 C23.3142857,3.42857143 24,4.11428571 24,5.14285714 L24,17.1428571 C24,18.1714286 23.3142857,18.8571429 22.2857143,18.8571429 L20.5714286,18.8571429 L20.5714286,22.2857143 C20.5714286,23.3142857 19.8857143,24 18.8571429,24 L5.14285714,24 C4.11428571,24 3.42857143,23.3142857 3.42857143,22.2857143 L3.42857143,18.8571429 L1.71428571,18.8571429 C0.685714286,18.8571429 0,18.1714286 0,17.1428571 L0,5.14285714 C0,4.11428571 0.685714286,3.42857143 1.71428571,3.42857143 L3.42857143,3.42857143 L3.42857143,1.71428571 C3.42857143,0.685714286 4.11428571,0 5.14285714,0 L18.8571429,0 Z M18.8571429,13.7142857 L5.14285714,13.7142857 L5.14285714,22.2857143 L18.8571429,22.2857143 L18.8571429,13.7142857 Z M22.2857143,5.14285714 L1.71428571,5.14285714 L1.71428571,17.1428571 L3.42857143,17.1428571 L3.42857143,13.7142857 C3.42857143,12.6857143 4.11428571,12 5.14285714,12 L18.8571429,12 C19.8857143,12 20.5714286,12.6857143 20.5714286,13.7142857 L20.5714286,17.1428571 L22.2857143,17.1428571 L22.2857143,5.14285714 Z M20.5714286,6.85714286 L20.5714286,8.57142857 L18.8571429,8.57142857 L18.8571429,6.85714286 L20.5714286,6.85714286 Z M18.8571429,1.71428571 L5.14285714,1.71428571 L5.14285714,3.42857143 L18.8571429,3.42857143 L18.8571429,1.71428571 Z"></path></clipPath></defs><g transform="translate(-292.0 -845.0)"><g clip-path="url(#i0)"><g transform="translate(264.0 749.0)"><g transform="translate(28.0 94.00001306970603)"><g transform="translate(0.0 1.9999869302939715)"><g clip-path="url(#i1)"><g clip-path="url(#i2)"><polygon points="0,0 40,0 40,40 0,40 0,0" stroke="none" fill="#1A67E3"></polygon></g><g transform="translate(8.0 8.0)"><g clip-path="url(#i3)"><polygon points="0,0 24,0 24,24 0,24 0,0" stroke="none" fill="#FFFFFF"></polygon></g></g></g></g></g></g></g></g></svg>