<?xml version="1.0" encoding="UTF-8"?><svg version="1.1" width="40px" height="40px" viewBox="0 0 40.0 40.0" xmlns="http://www.w3.org/2000/svg" xmlns:xlink="http://www.w3.org/1999/xlink"><defs><clipPath id="i0"><path d="M1440,0 L1440,1194 L0,1194 L0,0 L1440,0 Z"></path></clipPath><clipPath id="i1"><path d="M40,0 L40,40 L0,40 L0,0 L40,0 Z"></path></clipPath><clipPath id="i2"><path d="M32,0 C36.418278,-8.11624501e-16 40,3.581722 40,8 L40,32 C40,36.418278 36.418278,40 32,40 L8,40 C3.581722,40 5.41083001e-16,36.418278 0,32 L0,8 C-5.41083001e-16,3.581722 3.581722,8.11624501e-16 8,0 L32,0 Z"></path></clipPath><clipPath id="i3"><path d="M0.556742068,0.0208053071 C0.556742068,0.0208053071 4.29264728,1.70226798 8.0989836,3.24420733 L8.65608574,3.46864961 C9.7695937,3.9146967 10.8738181,4.34118241 11.8768575,4.70245065 C16.4741216,6.3582634 20.4709526,7.20135253 19.954998,9.34479946 C19.9104879,9.52788556 19.8023918,9.79581642 19.6497855,10.1191197 L19.6352516,10.1485921 C19.3563299,10.7369172 18.9360019,11.5029108 18.4907023,12.2767834 L18.2460348,12.6986565 C17.3449725,14.2409062 16.428703,15.6911886 16.428703,15.6911886 C16.428703,15.6911886 16.4250696,15.6822576 16.4159859,15.668861 L15.7383413,16.8298948 L19.0048423,16.8298948 L12.7661524,25 L14.1823023,19.4422207 L11.6107049,19.4422207 L12.5036333,15.7671023 C11.7814786,15.9385781 10.9276102,16.1752504 9.91568523,16.4949812 C9.91568523,16.4949812 8.54767898,17.2844841 5.97335646,14.9767063 C5.97335646,14.9767063 4.23836845,13.4718279 5.24484317,13.0949385 C5.57201692,12.9726885 6.61364464,12.8253698 7.66617743,12.685332 L8.15017427,12.621334 C8.31005675,12.6002522 8.46763549,12.5794605 8.62034864,12.5590768 C10.3744124,12.32687 11.4544652,12.2018356 11.4544652,12.2018356 C11.4544652,12.2018356 10.6363849,12.2139917 9.56107364,12.2171358 L8.58946403,12.21713 C7.07679975,12.2123296 5.40380804,12.1826339 4.76249834,12.0830529 C3.47897056,11.8847841 1.85207866,9.77616816 1.50508106,7.92297967 L1.49093202,7.89310662 C1.41801357,7.72855297 1.14392541,6.95553366 2.65871183,7.38711793 C3.33453962,7.58002816 4.85871296,7.91869277 6.44442296,8.25564263 L6.9741928,8.36769345 C9.18206937,8.8326215 11.3400105,9.262634 11.3400105,9.262634 C11.3400105,9.262634 9.06658574,8.57628443 6.71753914,7.80620646 L6.1534413,7.62008871 C3.99412756,6.90284039 1.91962511,6.15552905 1.64133667,5.84740855 C1.03636179,5.17758139 -0.139069877,2.19104533 0.0135363982,0.35571889 C0.0135363982,0.35571889 0.0798474582,-0.101549789 0.556742068,0.0208053071 Z"></path></clipPath></defs><g transform="translate(-658.0 -989.0)"><g clip-path="url(#i0)"><g transform="translate(264.0 749.0)"><g transform="translate(394.0 237.99998693029397)"><g transform="translate(0.0 1.9999869302939715)"><g clip-path="url(#i1)"><g clip-path="url(#i2)"><polygon points="0,0 40,0 40,40 0,40 0,0" stroke="none" fill="#1A67E3"></polygon></g><g transform="translate(10.0 7.000026139412057)"><g clip-path="url(#i3)"><polygon points="-2.22044605e-16,5.55111512e-17 20,5.55111512e-17 20,25 -2.22044605e-16,25 -2.22044605e-16,5.55111512e-17" stroke="none" fill="#FFFFFF"></polygon></g></g></g></g></g></g></g></g></svg>