<?xml version="1.0" encoding="UTF-8"?>
<svg width="30px" height="32px" viewBox="0 0 30 32" version="1.1" xmlns="http://www.w3.org/2000/svg" xmlns:xlink="http://www.w3.org/1999/xlink">
    <title>编组备份 2</title>
    <defs>
        <linearGradient x1="50%" y1="0%" x2="50%" y2="100%" id="linearGradient-1">
            <stop stop-color="#A0C4FD" offset="0%"></stop>
            <stop stop-color="#1A68E3" offset="100%"></stop>
        </linearGradient>
    </defs>
    <g id="页面-2" stroke="none" stroke-width="1" fill="none" fill-rule="evenodd">
        <g id="编组备份-2" fill-rule="nonzero">
            <g id="编组-42">
                <path d="M26.2088434,5.73861301 C26.4417538,5.8734941 26.6648654,6.02297748 26.8781781,6.18706316 C27.0914909,6.35114199 27.2932232,6.5284321 27.4833751,6.71893347 C27.6734585,6.909428 27.8503512,7.11149952 28.0140531,7.32514804 C28.1776866,7.53880341 28.3267245,7.76221307 28.4611671,7.995377 C28.5955411,8.22854778 28.7141548,8.46948224 28.8170081,8.71818038 C28.91993,8.96687852 29.0061664,9.2212127 29.0757175,9.48118291 C29.1452686,9.74115997 29.197586,10.0045632 29.2326699,10.2713926 C29.2677538,10.5382905 29.2852957,10.8062848 29.2852957,11.0753754 L29.2852957,20.9246277 C29.2852957,21.1937183 29.2677538,21.4617126 29.2326699,21.7286105 C29.197586,21.9954399 29.1452686,22.2588431 29.0757175,22.5188202 C29.0061664,22.7787972 28.91993,23.0331211 28.8170081,23.2817919 C28.7141548,23.5305311 28.5955411,23.771493 28.4611671,24.0046775 C28.3267245,24.2377934 28.1776866,24.4611791 28.0140531,24.6748345 C27.8503512,24.8884899 27.6734585,25.0905648 27.4833751,25.2810593 C27.2932232,25.4715539 27.0914909,25.6488577 26.8781781,25.8129708 C26.6648654,25.9770153 26.4417538,26.1264987 26.2088434,26.2614209 L17.7332074,31.1697043 C17.6164439,31.2373367 17.4975904,31.3010632 17.3766469,31.360884 C17.2557034,31.4207048 17.1329441,31.4764827 17.0083689,31.5282177 C16.8837252,31.5799527 16.7575397,31.6275763 16.6298124,31.6710886 C16.5020852,31.7145323 16.3730559,31.7537618 16.2427248,31.7887772 C16.1124622,31.8237926 15.9811374,31.854491 15.8487506,31.8808724 C15.7164323,31.9072538 15.5833945,31.929284 15.4496372,31.946963 C15.3158799,31.964642 15.1816771,31.9779013 15.047029,31.9867408 C14.9123809,31.9955803 14.7775958,32 14.6426736,32 C14.5077514,32 14.3729662,31.9955803 14.2383181,31.9867408 C14.10367,31.9779013 13.9694673,31.964642 13.83571,31.946963 C13.7018841,31.929284 13.5688121,31.9072538 13.4364937,31.8808724 C13.3041754,31.854491 13.1728507,31.8237926 13.0425195,31.7887772 C12.9122569,31.7537618 12.783262,31.7145323 12.6555347,31.6710886 C12.5277389,31.6275763 12.4015534,31.5799527 12.2769782,31.5282177 C12.1523345,31.4764827 12.0295409,31.4207048 11.9085974,31.360884 C11.787654,31.3010632 11.6688005,31.2373367 11.5520369,31.1697043 L3.07649346,26.2614209 C2.84359677,26.1264987 2.62048519,25.9770153 2.40715873,25.8129708 C2.19382542,25.6488577 1.99209994,25.4715539 1.80198229,25.2810593 C1.61186464,25.0905648 1.4349754,24.8884899 1.27131456,24.6748345 C1.10765372,24.4611791 0.958615739,24.2377934 0.824200608,24.0046775 C0.689785477,23.771493 0.57114439,23.5305311 0.468277345,23.2817919 C0.365410301,23.0331211 0.279190971,22.7787972 0.209619355,22.5188202 C0.140047739,22.2588431 0.0877199885,21.9954399 0.0526361045,21.7286105 C0.0175453682,21.4617126 0,21.1937183 0,20.9246277 L0,11.0753754 C0,10.8062848 0.017541942,10.5382905 0.052625826,10.2713926 C0.0877165624,10.0045632 0.140047739,9.74115997 0.209619355,9.48118291 C0.279190971,9.2212127 0.365410301,8.96687852 0.468277345,8.71818038 C0.57114439,8.46948224 0.689785477,8.22854778 0.824200608,7.995377 C0.958615739,7.76221307 1.10765372,7.53880341 1.27131456,7.32514804 C1.4349754,7.11149952 1.61186464,6.909428 1.80198229,6.71893347 C1.99209994,6.5284321 2.19382542,6.35114199 2.40715873,6.18706316 C2.62048519,6.02297748 2.84359677,5.87349752 3.07649346,5.73862329 L11.5520369,0.83030911 C11.6688005,0.762690405 11.787654,0.698970671 11.9085974,0.639149908 C12.0295409,0.579329145 12.1523345,0.523540972 12.2769782,0.471785391 C12.4015534,0.420022958 12.5277389,0.372402752 12.6555347,0.328924775 C12.783262,0.285446797 12.9122569,0.246203554 13.0425195,0.211195046 C13.1728507,0.176186537 13.3041754,0.145488139 13.4364937,0.11909985 C13.5688121,0.0927047095 13.7018841,0.0706799791 13.83571,0.053025659 C13.9694673,0.0353692832 14.10367,0.0221175794 14.2383181,0.0132705477 C14.3729662,0.00442351589 14.5077514,0 14.6426736,0 C14.7775958,0 14.9123809,0.00442351589 15.047029,0.0132705477 C15.1816771,0.0221175794 15.3158799,0.0353692832 15.4496372,0.053025659 C15.5833945,0.0706799791 15.7164323,0.0927047095 15.8487506,0.11909985 C15.9811374,0.145488139 16.1124622,0.176186537 16.2427248,0.211195046 C16.3730559,0.246203554 16.5020852,0.285446797 16.6298124,0.328924775 C16.7575397,0.372402752 16.8837252,0.420022958 17.0083689,0.471785391 C17.1329441,0.523540972 17.2557034,0.579329145 17.3766469,0.639149908 C17.4975904,0.698970671 17.6164439,0.762690405 17.7332074,0.83030911 L26.2088434,5.73861301 Z" id="路径" fill="url(#linearGradient-1)"></path>
                <path d="M13.8734101,7.31090484 C13.0639263,7.46380313 11.9644464,8.23090187 11.5687028,8.65335581 L11.2822908,8.97554359 L10.8496607,9.48671598 L9.92584416,10.608608 C9.86534167,10.6827919 9.8033076,10.7589537 9.73974109,10.8370944 L9.50460559,11.0083809 L9.08742746,11.3222815 C8.70593222,11.616806 8.43206093,11.8526799 8.2709911,12.0252023 C7.49527534,12.8560739 7.19493715,13.6731531 7.19493715,14.7252953 C7.19493715,16.7390031 8.36370152,18.3835187 9.82762801,18.3835187 C11.2915545,18.3835187 12.4603189,16.7390031 12.4603189,14.7252953 C12.4603189,13.7821884 12.2036397,12.978902 11.5963321,12.229494 L11.3656127,11.9657842 L11.2472393,11.8377614 C11.1694841,11.7513952 11.1021184,11.6696966 11.0381468,11.5817596 C10.8832712,11.3688638 10.7633328,11.1385552 10.6824815,10.8753247 C10.6844789,10.8109747 10.7745753,10.6446232 10.9308046,10.4201632 L11.1082646,10.1779594 C11.1412442,10.1349057 11.1758573,10.0906443 11.2120024,10.0453785 L11.4464428,9.76335485 C11.613907,9.56947067 11.8026281,9.36601713 12.0060974,9.16599956 C13.1109436,8.0798966 13.874676,7.8098893 14.9355761,7.95968134 C15.6688037,8.06320819 16.2273827,8.28992897 16.747453,8.64010199 L16.8940824,8.74255788 L17.310384,9.06079929 C18.1703673,9.72339938 19.0193501,10.8572733 19.5647469,11.9911194 C20.1865214,13.28375 20.3900845,15.4507942 19.9788616,16.8478251 C19.8724242,17.2094204 19.6691154,17.3245834 19.0594833,17.3671063 L18.2660458,17.4016339 L18.0413512,17.4194695 L17.8275921,17.4463623 C16.9020048,17.5823795 16.1811285,17.992663 15.6580432,18.7199594 C14.9723789,19.6733053 14.8583503,21.2019993 15.6615697,22.2054949 C15.7836633,22.7562987 15.6163686,23.1444192 15.1756606,23.3855184 C14.7945294,23.5940247 14.2226917,23.6864999 13.4853332,23.6874773 C13.18055,23.6878813 12.8739221,23.673956 12.5052444,23.6460087 L11.9368283,23.5975516 C10.9478163,23.5085544 10.6389986,23.2974874 10.390397,22.6898581 L10.2228028,22.2541463 L10.1743156,22.1484115 C10.0172972,21.8225182 9.79987669,21.5696011 9.45197862,21.3519318 C9.26347483,21.1785316 8.70293252,20.9483405 8.30175215,20.9137307 C7.71392418,20.8630188 7.432605,21.1943081 7.66634994,21.8872881 C8.1432865,23.3012545 9.70134741,24.1085956 12.334783,24.3948137 C13.0565284,24.4732575 14.6798588,24.3459953 15.6554543,24.1652237 L15.8865033,24.1186647 L16.0640841,24.0772036 L16.4126273,23.9836338 L16.7418725,23.882527 L17.0392511,23.7818747 L17.488135,23.6139003 L17.6587316,23.5436437 L17.6847305,23.5468805 C18.4539068,23.7044851 19.2117544,23.5768271 19.7989715,23.2637056 C20.4076063,22.9391636 21.0755218,22.1560435 21.2713525,21.4028876 C21.4067879,20.8820092 21.4121565,20.3845351 21.3149326,19.6423011 L21.2613098,19.2625458 L21.2448137,19.0863392 C21.2412178,19.0270344 21.2395604,18.9663904 21.2399491,18.9020977 L21.2473604,18.695964 C21.2496544,18.6590142 21.2524868,18.6205748 21.255871,18.5803571 L21.2829047,18.3154021 L21.3496951,17.8076342 L21.4126552,17.3753564 C21.5642294,16.3543879 21.6148658,15.7571446 21.5679178,15.0676869 C21.460244,13.4864373 21.2503353,12.652066 20.6702985,11.340221 C20.1720191,10.2132834 19.2448367,9.07535483 18.2743126,8.31904419 C17.0996345,7.40364035 15.6795617,6.96975222 13.8734101,7.31090484 Z" id="椭圆形备份-3" fill="#FFFFFF"></path>
            </g>
        </g>
    </g>
</svg>