<?xml version="1.0" encoding="UTF-8"?>
<svg width="120px" height="16px" viewBox="0 0 120 16" version="1.1" xmlns="http://www.w3.org/2000/svg" xmlns:xlink="http://www.w3.org/1999/xlink">
    <title>Employee Portal</title>
    <g id="页面-2" stroke="none" stroke-width="1" fill="none" fill-rule="evenodd">
        <g id="画板" transform="translate(-55.000000, -19.000000)" fill="#000000" fill-rule="nonzero">
            <g id="side-nav" transform="translate(0.000000, -8.000000)">
                <g id="logo" transform="translate(24.000000, 20.000000)">
                    <g id="Employee-Portal" transform="translate(31.120000, 7.080000)">
                        <polygon id="路径" points="0 12.256 0 0.512 7.696 0.512 7.696 2.544 2.48 2.544 2.48 5.104 7.328 5.104 7.328 7.104 2.48 7.104 2.48 10.24 7.696 10.24 7.696 12.256"></polygon>
                        <path d="M10.7078711,3.504 C10.7398711,3.64266667 10.7718711,3.984 10.8038711,4.528 C11.1132044,4.13333333 11.4918711,3.832 11.9398711,3.624 C12.3878711,3.416 12.9105378,3.312 13.5078711,3.312 C14.1265378,3.312 14.6572044,3.42666667 15.0998711,3.656 C15.5425378,3.88533333 15.8865378,4.224 16.1318711,4.672 C16.4625378,4.23466667 16.8678711,3.89866667 17.3478711,3.664 C17.8278711,3.42933333 18.3772044,3.312 18.9958711,3.312 C19.9665378,3.312 20.7158711,3.592 21.2438711,4.152 C21.7718711,4.712 22.0358711,5.536 22.0358711,6.624 L22.0358711,12.256 L19.7318711,12.256 L19.7318711,7.024 C19.7318711,6.36266667 19.6038711,5.888 19.3478711,5.6 C19.0918711,5.312 18.7292044,5.168 18.2598711,5.168 C17.8865378,5.168 17.5718711,5.248 17.3158711,5.408 C17.0598711,5.568 16.8678711,5.808 16.7398711,6.128 C16.6118711,6.448 16.5478711,6.84266667 16.5478711,7.312 L16.5478711,12.256 L14.2278711,12.256 L14.2278711,7.024 C14.2278711,6.36266667 14.1025378,5.888 13.8518711,5.6 C13.6012044,5.312 13.2412044,5.168 12.7718711,5.168 C12.3985378,5.168 12.0838711,5.248 11.8278711,5.408 C11.5718711,5.568 11.3798711,5.808 11.2518711,6.128 C11.1238711,6.448 11.0598711,6.84266667 11.0598711,7.312 L11.0598711,12.256 L8.75587109,12.256 L8.75587109,5.504 C8.75587109,4.93866667 8.73453776,4.272 8.69187109,3.504 L10.7078711,3.504 Z" id="路径"></path>
                        <path d="M24.0718047,7.872 C24.0718047,6.96533333 24.237138,6.168 24.5678047,5.48 C24.8984714,4.792 25.365138,4.25866667 25.9678047,3.88 C26.5704714,3.50133333 27.261138,3.312 28.0398047,3.312 C28.829138,3.312 29.5438047,3.50133333 30.1838047,3.88 C30.8238047,4.25866667 31.325138,4.79466667 31.6878047,5.488 C32.0504714,6.18133333 32.2318047,6.976 32.2318047,7.872 C32.2318047,8.768 32.0504714,9.56266667 31.6878047,10.256 C31.325138,10.9493333 30.8238047,11.488 30.1838047,11.872 C29.5438047,12.256 28.829138,12.448 28.0398047,12.448 C27.261138,12.448 26.5704714,12.2586667 25.9678047,11.88 C25.365138,11.5013333 24.8984714,10.9653333 24.5678047,10.272 C24.237138,9.57866667 24.0718047,8.77866667 24.0718047,7.872 Z M25.6078047,7.888 C25.6078047,8.432 25.693138,8.90666667 25.8638047,9.312 C26.0344714,9.71733333 26.277138,10.032 26.5918047,10.256 C26.9064714,10.48 27.2718047,10.592 27.6878047,10.592 C28.1038047,10.592 28.4718047,10.48 28.7918047,10.256 C29.1118047,10.032 29.3598047,9.71733333 29.5358047,9.312 C29.7118047,8.90666667 29.7998047,8.432 29.7998047,7.888 C29.7998047,7.35466667 29.7118047,6.88 29.5358047,6.464 C29.3598047,6.048 29.1118047,5.728 28.7918047,5.504 C28.4718047,5.28 28.1038047,5.168 27.6878047,5.168 C27.2718047,5.168 26.9064714,5.28 26.5918047,5.504 C26.277138,5.728 26.0344714,6.048 25.8638047,6.464 C25.693138,6.88 25.6078047,7.35466667 25.6078047,7.888 Z M25.2558047,3.504 C25.2878047,3.632 25.3144714,3.87733333 25.3358047,4.24 C25.357138,4.60266667 25.3678047,5.01333333 25.3678047,5.472 L25.6078047,5.888 L25.6078047,15.76 L23.2878047,15.76 L23.2878047,5.52 C23.2878047,5.17866667 23.2718047,4.608 23.2398047,3.808 L23.2238047,3.504 L25.2558047,3.504 Z" id="形状"></path>
                        <polygon id="路径" points="33.2916016 0 35.5956016 0 35.5956016 12.256 33.2916016 12.256"></polygon>
                        <path d="M43.2795469,7.872 C43.2795469,7.33866667 43.1915469,6.86933333 43.0155469,6.464 C42.8395469,6.05866667 42.5915469,5.744 42.2715469,5.52 C41.9515469,5.296 41.5835469,5.184 41.1675469,5.184 C40.7622135,5.184 40.4022135,5.296 40.0875469,5.52 C39.7728802,5.744 39.5275469,6.05866667 39.3515469,6.464 C39.1755469,6.86933333 39.0875469,7.33866667 39.0875469,7.872 C39.0875469,8.40533333 39.1755469,8.87733333 39.3515469,9.288 C39.5275469,9.69866667 39.7728802,10.016 40.0875469,10.24 C40.4022135,10.464 40.7622135,10.576 41.1675469,10.576 C41.5835469,10.576 41.9515469,10.464 42.2715469,10.24 C42.5915469,10.016 42.8395469,9.69866667 43.0155469,9.288 C43.1915469,8.87733333 43.2795469,8.40533333 43.2795469,7.872 Z M36.6555469,7.888 C36.6555469,6.992 36.8502135,6.19733333 37.2395469,5.504 C37.6288802,4.81066667 38.1675469,4.272 38.8555469,3.888 C39.5435469,3.504 40.3142135,3.312 41.1675469,3.312 C42.0315469,3.312 42.8075469,3.504 43.4955469,3.888 C44.1835469,4.272 44.7248802,4.81066667 45.1195469,5.504 C45.5142135,6.19733333 45.7115469,6.992 45.7115469,7.888 C45.7115469,8.79466667 45.5168802,9.59466667 45.1275469,10.288 C44.7382135,10.9813333 44.1968802,11.5146667 43.5035469,11.888 C42.8102135,12.2613333 42.0315469,12.448 41.1675469,12.448 C40.3035469,12.448 39.5302135,12.2613333 38.8475469,11.888 C38.1648802,11.5146667 37.6288802,10.9813333 37.2395469,10.288 C36.8502135,9.59466667 36.6555469,8.79466667 36.6555469,7.888 Z" id="形状"></path>
                        <polygon id="路径" points="52.1314844 3.504 54.5794844 3.504 49.7154844 15.76 47.1874844 15.76 48.7234844 12.592 45.3314844 3.504 47.9554844 3.504 50.0354844 9.824"></polygon>
                        <path d="M54.2154688,7.888 C54.2154688,6.98133333 54.4101354,6.18133333 54.7994688,5.488 C55.1888021,4.79466667 55.7301354,4.25866667 56.4234688,3.88 C57.1168021,3.50133333 57.9061354,3.312 58.7914688,3.312 C60.1248021,3.312 61.1488021,3.72266667 61.8634688,4.544 C62.5781354,5.36533333 62.9354688,6.48533333 62.9354688,7.904 C62.9354688,8.02133333 62.9328021,8.13333333 62.9274688,8.24 C62.9221354,8.34666667 62.9141354,8.44266667 62.9034688,8.528 L56.6474688,8.528 C56.7328021,9.21066667 56.9834688,9.72266667 57.3994688,10.064 C57.8154688,10.4053333 58.3274688,10.576 58.9354688,10.576 C59.3514688,10.576 59.7034688,10.4933333 59.9914688,10.328 C60.2794688,10.1626667 60.5248021,9.904 60.7274688,9.552 L62.7114688,10.416 C62.4128021,11.056 61.9621354,11.5546667 61.3594688,11.912 C60.7568021,12.2693333 59.9754688,12.448 59.0154688,12.448 C58.0341354,12.448 57.1808021,12.256 56.4554688,11.872 C55.7301354,11.488 55.1754688,10.952 54.7914688,10.264 C54.4074688,9.576 54.2154688,8.784 54.2154688,7.888 Z M60.5034688,6.944 C60.4181354,6.35733333 60.2181354,5.91733333 59.9034688,5.624 C59.5888021,5.33066667 59.1861354,5.184 58.6954688,5.184 C58.1941354,5.184 57.7621354,5.33333333 57.3994688,5.632 C57.0368021,5.93066667 56.7968021,6.368 56.6794688,6.944 L60.5034688,6.944 Z" id="形状"></path>
                        <path d="M63.4034082,7.888 C63.4034082,6.98133333 63.5980749,6.18133333 63.9874082,5.488 C64.3767415,4.79466667 64.9180749,4.25866667 65.6114082,3.88 C66.3047415,3.50133333 67.0940749,3.312 67.9794082,3.312 C69.3127415,3.312 70.3367415,3.72266667 71.0514082,4.544 C71.7660749,5.36533333 72.1234082,6.48533333 72.1234082,7.904 C72.1234082,8.02133333 72.1207415,8.13333333 72.1154082,8.24 C72.1100749,8.34666667 72.1020749,8.44266667 72.0914082,8.528 L65.8354082,8.528 C65.9207415,9.21066667 66.1714082,9.72266667 66.5874082,10.064 C67.0034082,10.4053333 67.5154082,10.576 68.1234082,10.576 C68.5394082,10.576 68.8914082,10.4933333 69.1794082,10.328 C69.4674082,10.1626667 69.7127415,9.904 69.9154082,9.552 L71.8994082,10.416 C71.6007415,11.056 71.1500749,11.5546667 70.5474082,11.912 C69.9447415,12.2693333 69.1634082,12.448 68.2034082,12.448 C67.2220749,12.448 66.3687415,12.256 65.6434082,11.872 C64.9180749,11.488 64.3634082,10.952 63.9794082,10.264 C63.5954082,9.576 63.4034082,8.784 63.4034082,7.888 Z M69.6914082,6.944 C69.6060749,6.35733333 69.4060749,5.91733333 69.0914082,5.624 C68.7767415,5.33066667 68.3740749,5.184 67.8834082,5.184 C67.3820749,5.184 66.9500749,5.33333333 66.5874082,5.632 C66.2247415,5.93066667 65.9847415,6.368 65.8674082,6.944 L69.6914082,6.944 Z" id="形状"></path>
                        <path d="M76.3713477,12.256 L76.3713477,0.512 L80.9313477,0.512 C81.8060143,0.512 82.568681,0.672 83.2193477,0.992 C83.8700143,1.312 84.3713477,1.76266667 84.7233477,2.344 C85.0753477,2.92533333 85.2513477,3.6 85.2513477,4.368 C85.2513477,5.136 85.0753477,5.81333333 84.7233477,6.4 C84.3713477,6.98666667 83.8700143,7.44 83.2193477,7.76 C82.568681,8.08 81.8060143,8.24 80.9313477,8.24 L78.8513477,8.24 L78.8513477,12.256 L76.3713477,12.256 Z M80.5313477,6.368 C81.2140143,6.368 81.7393477,6.19733333 82.1073477,5.856 C82.4753477,5.51466667 82.6593477,5.01866667 82.6593477,4.368 C82.6593477,3.728 82.4753477,3.24 82.1073477,2.904 C81.7393477,2.568 81.2140143,2.4 80.5313477,2.4 L78.8513477,2.4 L78.8513477,6.368 L80.5313477,6.368 Z" id="形状"></path>
                        <path d="M92.039293,7.872 C92.039293,7.33866667 91.951293,6.86933333 91.775293,6.464 C91.599293,6.05866667 91.351293,5.744 91.031293,5.52 C90.711293,5.296 90.343293,5.184 89.927293,5.184 C89.5219596,5.184 89.1619596,5.296 88.847293,5.52 C88.5326263,5.744 88.287293,6.05866667 88.111293,6.464 C87.935293,6.86933333 87.847293,7.33866667 87.847293,7.872 C87.847293,8.40533333 87.935293,8.87733333 88.111293,9.288 C88.287293,9.69866667 88.5326263,10.016 88.847293,10.24 C89.1619596,10.464 89.5219596,10.576 89.927293,10.576 C90.343293,10.576 90.711293,10.464 91.031293,10.24 C91.351293,10.016 91.599293,9.69866667 91.775293,9.288 C91.951293,8.87733333 92.039293,8.40533333 92.039293,7.872 Z M85.415293,7.888 C85.415293,6.992 85.6099596,6.19733333 85.999293,5.504 C86.3886263,4.81066667 86.927293,4.272 87.615293,3.888 C88.303293,3.504 89.0739596,3.312 89.927293,3.312 C90.791293,3.312 91.567293,3.504 92.255293,3.888 C92.943293,4.272 93.4846263,4.81066667 93.879293,5.504 C94.2739596,6.19733333 94.471293,6.992 94.471293,7.888 C94.471293,8.79466667 94.2766263,9.59466667 93.887293,10.288 C93.4979596,10.9813333 92.9566263,11.5146667 92.263293,11.888 C91.5699596,12.2613333 90.791293,12.448 89.927293,12.448 C89.063293,12.448 88.2899596,12.2613333 87.607293,11.888 C86.9246263,11.5146667 86.3886263,10.9813333 85.999293,10.288 C85.6099596,9.59466667 85.415293,8.79466667 85.415293,7.888 Z" id="形状"></path>
                        <path d="M97.3392305,3.504 C97.3925638,3.78133333 97.4245638,4.23466667 97.4352305,4.864 C97.7125638,4.36266667 98.0698971,3.97866667 98.5072305,3.712 C98.9445638,3.44533333 99.4352305,3.312 99.9792305,3.312 C100.10723,3.312 100.224564,3.31733333 100.33123,3.328 C100.437897,3.33866667 100.52323,3.35466667 100.58723,3.376 L100.58723,5.36 C100.49123,5.34933333 100.392564,5.34133333 100.29123,5.336 C100.189897,5.33066667 100.085897,5.328 99.9792305,5.328 C99.2965638,5.328 98.7525638,5.51466667 98.3472305,5.888 C97.9418971,6.26133333 97.7392305,6.81066667 97.7392305,7.536 L97.7392305,12.256 L95.4192305,12.256 L95.4192305,5.52 C95.4192305,4.944 95.3978971,4.272 95.3552305,3.504 L97.3392305,3.504 Z" id="路径"></path>
                        <path d="M106.175123,5.264 L104.143123,5.264 L104.143123,9.168 C104.143123,9.68 104.252456,10.0426667 104.471123,10.256 C104.68979,10.4693333 105.044456,10.576 105.535123,10.576 C105.73779,10.576 105.951123,10.5546667 106.175123,10.512 L106.175123,12.288 C105.812456,12.3946667 105.396456,12.448 104.927123,12.448 C103.94579,12.448 103.18579,12.1866667 102.647123,11.664 C102.108456,11.1413333 101.839123,10.4053333 101.839123,9.456 L101.839123,5.264 L100.623123,5.264 L100.623123,3.504 L101.839123,3.504 L101.839123,1.472 L104.143123,1.472 L104.143123,3.504 L106.175123,3.504 L106.175123,5.264 Z" id="路径"></path>
                        <path d="M115.330947,10.256 C115.330947,11.3333333 115.352281,12 115.394947,12.256 L113.346947,12.256 C113.325614,12.0853333 113.301614,11.824 113.274947,11.472 C113.248281,11.12 113.234947,10.7306667 113.234947,10.304 L113.026947,9.872 L113.026947,5.872 L113.234947,5.456 C113.234947,5.01866667 113.248281,4.624 113.274947,4.272 C113.301614,3.92 113.325614,3.664 113.346947,3.504 L115.394947,3.504 C115.352281,3.76 115.330947,4.42666667 115.330947,5.504 L115.330947,10.256 Z M114.482947,7.888 C114.482947,8.79466667 114.317614,9.59466667 113.986947,10.288 C113.656281,10.9813333 113.192281,11.5146667 112.594947,11.888 C111.997614,12.2613333 111.309614,12.448 110.530947,12.448 C109.741614,12.448 109.026947,12.2586667 108.386947,11.88 C107.746947,11.5013333 107.242947,10.968 106.874947,10.28 C106.506947,9.592 106.322947,8.79466667 106.322947,7.888 C106.322947,6.992 106.506947,6.19733333 106.874947,5.504 C107.242947,4.81066667 107.746947,4.272 108.386947,3.888 C109.026947,3.504 109.741614,3.312 110.530947,3.312 C111.309614,3.312 111.997614,3.50133333 112.594947,3.88 C113.192281,4.25866667 113.656281,4.79466667 113.986947,5.488 C114.317614,6.18133333 114.482947,6.98133333 114.482947,7.888 Z M112.962947,7.872 C112.962947,7.31733333 112.874947,6.82666667 112.698947,6.4 C112.522947,5.97333333 112.277614,5.64266667 111.962947,5.408 C111.648281,5.17333333 111.282947,5.056 110.866947,5.056 C110.450947,5.056 110.082947,5.17333333 109.762947,5.408 C109.442947,5.64266667 109.194947,5.97333333 109.018947,6.4 C108.842947,6.82666667 108.754947,7.31733333 108.754947,7.872 C108.754947,8.43733333 108.842947,8.93333333 109.018947,9.36 C109.194947,9.78666667 109.442947,10.1173333 109.762947,10.352 C110.082947,10.5866667 110.450947,10.704 110.866947,10.704 C111.282947,10.704 111.648281,10.5866667 111.962947,10.352 C112.277614,10.1173333 112.522947,9.78666667 112.698947,9.36 C112.874947,8.93333333 112.962947,8.43733333 112.962947,7.872 Z" id="形状"></path>
                        <polygon id="路径" points="116.74284 0 119.04684 0 119.04684 12.256 116.74284 12.256"></polygon>
                    </g>
                </g>
            </g>
        </g>
    </g>
</svg>