<?xml version="1.0" encoding="UTF-8"?>
<svg width="29px" height="32px" viewBox="0 0 29 32" version="1.1" xmlns="http://www.w3.org/2000/svg" xmlns:xlink="http://www.w3.org/1999/xlink">
    <title>编组</title>
    <defs>
        <linearGradient x1="50%" y1="0%" x2="50%" y2="100%" id="linearGradient-1">
            <stop stop-color="#66C763" offset="0%"></stop>
            <stop stop-color="#018816" offset="100%"></stop>
        </linearGradient>
    </defs>
    <g id="页面-1" stroke="none" stroke-width="1" fill="none" fill-rule="evenodd">
        <g id="事件管理/对话" transform="translate(-26.000000, -33.000000)" fill-rule="nonzero">
            <g id="编组-42" transform="translate(26.000000, 33.000000)">
                <path d="M25.49875,5.583133 C25.72535,5.71435967 25.9424167,5.859793 26.14995,6.019433 C26.3574833,6.17906633 26.55375,6.351553 26.73875,6.536893 C26.9236833,6.72222633 27.0957833,6.918823 27.25505,7.126683 C27.41425,7.33454967 27.55925,7.55190633 27.69005,7.778753 C27.8207833,8.00560633 27.9361833,8.240013 28.03625,8.481973 C28.1363833,8.723933 28.2202833,8.97137633 28.28795,9.224303 C28.3556167,9.47723633 28.4065167,9.733503 28.44065,9.993103 C28.4747833,10.2527697 28.49185,10.513503 28.49185,10.775303 L28.49185,20.357703 C28.49185,20.619503 28.4747833,20.8802363 28.44065,21.139903 C28.4065167,21.399503 28.3556167,21.6557697 28.28795,21.908703 C28.2202833,22.1616363 28.1363833,22.4090697 28.03625,22.651003 C27.9361833,22.893003 27.8207833,23.1274363 27.69005,23.354303 C27.55925,23.581103 27.41425,23.7984363 27.25505,24.006303 C27.0957833,24.2141697 26.9236833,24.4107697 26.73875,24.596103 C26.55375,24.7814363 26.3574833,24.9539363 26.14995,25.113603 C25.9424167,25.273203 25.72535,25.4186363 25.49875,25.549903 L17.25275,30.325203 C17.13915,30.391003 17.0235167,30.453003 16.90585,30.511203 C16.7881833,30.569403 16.66875,30.6236697 16.54755,30.674003 C16.4262833,30.7243363 16.3035167,30.7706697 16.17925,30.813003 C16.0549833,30.8552697 15.92945,30.8934363 15.80265,30.927503 C15.6759167,30.9615697 15.54815,30.9914363 15.41935,31.017103 C15.2906167,31.0427697 15.1611833,31.064203 15.03105,31.081403 C14.9009167,31.098603 14.77035,31.111503 14.63935,31.120103 C14.50835,31.128703 14.3772167,31.133003 14.24595,31.133003 C14.1146833,31.133003 13.98355,31.128703 13.85255,31.120103 C13.72155,31.111503 13.5909833,31.098603 13.46085,31.081403 C13.33065,31.064203 13.2011833,31.0427697 13.07245,31.017103 C12.9437167,30.9914363 12.81595,30.9615697 12.68915,30.927503 C12.5624167,30.8934363 12.4369167,30.8552697 12.31265,30.813003 C12.1883167,30.7706697 12.06555,30.7243363 11.94435,30.674003 C11.8230833,30.6236697 11.7036167,30.569403 11.58595,30.511203 C11.4682833,30.453003 11.35265,30.391003 11.23905,30.325203 L2.99314,25.549903 C2.76655333,25.4186363 2.54948667,25.273203 2.34194,25.113603 C2.13438667,24.9539363 1.93812667,24.7814363 1.75316,24.596103 C1.56819333,24.4107697 1.39609667,24.2141697 1.23687,24.006303 C1.07764333,23.7984363 0.932643333,23.581103 0.80187,23.354303 C0.671096667,23.1274363 0.55567,22.893003 0.45559,22.651003 C0.35551,22.4090697 0.271626667,22.1616363 0.20394,21.908703 C0.136253333,21.6557697 0.0853433333,21.399503 0.05121,21.139903 C0.01707,20.8802363 0,20.619503 0,20.357703 L0,10.775303 C0,10.513503 0.0170666667,10.2527697 0.0512,9.993103 C0.08534,9.733503 0.136253333,9.47723633 0.20394,9.224303 C0.271626667,8.97137633 0.35551,8.723933 0.45559,8.481973 C0.55567,8.240013 0.671096667,8.00560633 0.80187,7.778753 C0.932643333,7.55190633 1.07764333,7.33454967 1.23687,7.126683 C1.39609667,6.918823 1.56819333,6.72222633 1.75316,6.536893 C1.93812667,6.351553 2.13438667,6.17906633 2.34194,6.019433 C2.54948667,5.859793 2.76655333,5.714363 2.99314,5.583143 L11.23905,0.807813 C11.35265,0.742026333 11.4682833,0.680033 11.58595,0.621833 C11.7036167,0.563633 11.8230833,0.509356333 11.94435,0.459003 C12.06555,0.408643 12.1883167,0.362313 12.31265,0.320013 C12.4369167,0.277713 12.5624167,0.239533 12.68915,0.205473 C12.81595,0.171413 12.9437167,0.141546333 13.07245,0.115873 C13.2011833,0.090193 13.33065,0.068765 13.46085,0.051589 C13.5909833,0.034411 13.72155,0.0215183333 13.85255,0.012911 C13.98355,0.00430366667 14.1146833,0 14.24595,0 C14.3772167,0 14.50835,0.00430366667 14.63935,0.012911 C14.77035,0.0215183333 14.9009167,0.034411 15.03105,0.051589 C15.1611833,0.068765 15.2906167,0.090193 15.41935,0.115873 C15.54815,0.141546333 15.6759167,0.171413 15.80265,0.205473 C15.92945,0.239533 16.0549833,0.277713 16.17925,0.320013 C16.3035167,0.362313 16.4262833,0.408643 16.54755,0.459003 C16.66875,0.509356333 16.7881833,0.563633 16.90585,0.621833 C17.0235167,0.680033 17.13915,0.742026333 17.25275,0.807813 L25.49875,5.583133 Z" id="路径" fill="url(#linearGradient-1)"></path>
                <path d="M13.4975287,7.1128257 C12.7099768,7.26158141 11.6402858,8.00789665 11.2552643,8.41890476 L10.9766123,8.7323633 L10.5557037,9.22968615 L9.65691675,10.321182 C9.5980535,10.393356 9.53770015,10.4674543 9.4758559,10.5434779 L9.24709107,10.7101236 L8.84121582,11.0155195 C8.47005669,11.3020642 8.20360557,11.5315475 8.04689971,11.6993956 C7.29220093,12.5077559 7,13.3026974 7,14.3263332 C7,16.2854823 8.13709827,17.885442 9.56136164,17.885442 C10.985625,17.885442 12.1227233,16.2854823 12.1227233,14.3263332 C12.1227233,13.4087785 11.8729985,12.6272561 11.282145,11.8981523 L11.0576767,11.6415873 L10.9425105,11.5170332 C10.866862,11.4330069 10.8013214,11.3535219 10.739083,11.2679674 C10.5884036,11.0608397 10.4717148,10.836771 10.393054,10.5806724 C10.3949973,10.5180658 10.4826527,10.3562214 10.6346492,10.1378429 L10.8073011,9.90220124 C10.8393871,9.86031406 10.8730625,9.81725188 10.9082283,9.77321242 L11.1363168,9.49882987 C11.2992438,9.31019872 11.4828518,9.11225748 11.6808084,8.91765912 C12.7557202,7.86098266 13.4987603,7.59829085 14.5309167,7.74402447 C15.2442785,7.8447464 15.7877236,8.06532448 16.2937033,8.40601004 L16.4363599,8.50569002 L16.8413824,8.8153091 C17.6780656,9.45995694 18.5040463,10.5631101 19.0346664,11.6662361 C19.6395947,12.9238447 19.8376425,15.0321757 19.4375611,16.3913559 C19.3340076,16.7431543 19.1362072,16.8551971 18.5430922,16.8965679 L17.7711518,16.93016 L17.552545,16.9475124 L17.3445774,16.9736766 C16.4440677,17.1060086 15.7427226,17.5051759 15.2338096,18.2127673 C14.5667224,19.1402835 14.4557832,20.6275596 15.2372405,21.6038669 C15.3560262,22.1397474 15.1932641,22.5173523 14.7644965,22.7519192 C14.3936915,22.9547764 13.837347,23.044746 13.1199662,23.0456969 C12.8234407,23.04609 12.5251205,23.0325419 12.1664316,23.0053519 L11.613416,22.9582076 C10.6511999,22.8716217 10.3507492,22.6662733 10.1088831,22.0751069 L9.94582966,21.6512001 L9.89865623,21.54833 C9.74589196,21.2312664 9.5343622,20.9852017 9.19588996,20.7734299 C9.01249343,20.6047277 8.46713826,20.3807734 8.07682734,20.3471013 C7.50492577,20.2977633 7.23122855,20.6200768 7.45864049,21.2942814 C7.9226551,22.6699383 9.43850244,23.4554056 12.0005886,23.733869 C12.7027793,23.8101875 14.2821278,23.6863733 15.2312908,23.5104994 L15.4560799,23.4652019 L15.6288493,23.4248641 L15.9679492,23.3338295 L16.2882739,23.235462 L16.5775955,23.1375368 L17.0143175,22.9741134 L17.180292,22.9057603 L17.2055865,22.9089094 C17.953923,23.062244 18.6912378,22.9380446 19.262545,22.6334068 C19.8546897,22.3176578 20.5045089,21.5557552 20.6950337,20.8230052 C20.8267997,20.3162393 20.8320229,19.8322435 20.7374332,19.1101193 L20.6852632,18.740653 L20.669214,18.5692205 C20.6657155,18.5115224 20.6641031,18.4525215 20.6644812,18.3899708 L20.6716917,18.189422 C20.6739236,18.1534733 20.6766792,18.1160753 20.6799717,18.0769473 L20.706273,17.8191709 L20.7712538,17.3251603 L20.8325081,16.9045945 C20.9799755,15.9112878 21.02924,15.3302259 20.983564,14.6594482 C20.8788076,13.1210404 20.674586,12.3092752 20.1102645,11.0329729 C19.6254854,9.93656818 18.7234237,8.82947028 17.7791947,8.09365086 C16.6363429,7.20304867 15.254745,6.78091615 13.4975287,7.1128257 Z" id="椭圆形备份-3" fill="#FFFFFF"></path>
            </g>
        </g>
    </g>
</svg>