<svg xmlns="http://www.w3.org/2000/svg" width="20" height="20"><g fill="currentColor" fill-rule="nonzero"><path d="M12.917 9.583c-.709 0-1.25.542-1.25 1.25 0 .709.541 1.25 1.25 1.25.708 0 1.25-.541 1.25-1.25 0-.708-.542-1.25-1.25-1.25m-5.834 0c-.708 0-1.25.542-1.25 1.25 0 .709.542 1.25 1.25 1.25.709 0 1.25-.541 1.25-1.25 0-.708-.541-1.25-1.25-1.25"/><path d="M2.5 6.25c0-.458.375-.833.833-.833h3.334L5.458 2.375a.846.846 0 0 1 .459-1.083A.846.846 0 0 1 7 1.75l1.458 3.625H11.5l1.458-3.625a.846.846 0 0 1 1.084-.458.846.846 0 0 1 .458 1.083l-1.167 3.042h3.334c.458 0 .833.375.833.833v11.667a.836.836 0 0 1-.833.833H3.333a.836.836 0 0 1-.833-.833V6.25Zm1.667.833v10h11.666v-10H4.167ZM20 14.167V10a.836.836 0 0 0-.833-.833.836.836 0 0 0-.834.833v4.167c0 .458.375.833.834.833a.836.836 0 0 0 .833-.833M.833 15a.836.836 0 0 0 .834-.833V10a.836.836 0 0 0-.834-.833A.836.836 0 0 0 0 10v4.167c0 .458.375.833.833.833"/></g></svg>