<svg xmlns="http://www.w3.org/2000/svg" width="18" height="18"><path fill="currentColor" fill-rule="nonzero" d="M13.91 16.364a.818.818 0 0 1 0 1.636H4.09a.818.818 0 0 1 0-1.636h9.82ZM16.104 0C17.153 0 18 .83 18 1.855v10.2c0 1.024-.848 1.854-1.895 1.854H1.895C.848 13.91 0 13.08 0 12.054v-10.2C0 .83.85 0 1.894 0h14.212Zm-.608 1.636H2.503c-.479 0-.867.368-.867.82v8.998c0 .452.388.819.868.819h12.992c.48 0 .868-.367.868-.82V2.456c0-.451-.388-.819-.868-.819h.001Zm-9.77 2.455 4.95.55-1.65 1.65 2.2 2.2a.778.778 0 1 1-1.1 1.1l-2.2-2.201-1.65 1.65-.55-4.95Z"/></svg>