<?xml version="1.0" encoding="UTF-8"?>
<svg width="25px" height="24px" viewBox="0 0 25 24" version="1.1" xmlns="http://www.w3.org/2000/svg" xmlns:xlink="http://www.w3.org/1999/xlink">
    <title>编组</title>
    <g id="页面-4" stroke="none" stroke-width="1" fill="none" fill-rule="evenodd">
        <g id="画板备份-3" transform="translate(-630.000000, -678.000000)" fill="#FA6400" fill-rule="nonzero">
            <g id="编组-2" transform="translate(341.577107, 66.000000)">
                <g id="编组-10" transform="translate(276.000000, 595.000000)">
                    <g id="编组" transform="translate(13.000000, 17.000000)">
                        <path d="M12.0555955,0 C13.5210624,0 14.7089874,1.18224923 14.7089874,2.64147283 C14.7089874,4.09956132 13.5210624,5.28237812 12.0555955,5.28237812 C10.5901286,5.28237812 9.4022037,4.09956132 9.4022037,2.64147283 C9.4022037,1.18224923 10.5901286,0 12.0555955,0 L12.0555955,0 Z M12.0555955,6.43551098 C8.49352343,6.43551098 5.60686014,9.80006857 5.60686014,13.9507112 L18.5037634,13.9507112 C18.5037634,9.799501 15.6176676,6.43551098 12.0555955,6.43551098 L12.0555955,6.43551098 Z M18.5581366,15.6720389 C17.3026708,15.6941741 11.5673714,15.6726064 11.5673714,15.6726064 C9.91006575,15.665228 7.9235692,15.773634 6.1833982,15.9024725 C5.42001597,15.958662 4.84960768,16.5892327 4.90920257,17.3117499 C4.96879746,18.0342671 5.63909816,18.5768644 6.39850741,18.5178371 C8.04956982,18.396377 9.91233603,18.3135117 11.3471541,18.3015927 C12.2904562,18.698892 13.7979233,19.4168687 14.0998708,20.0661692 C14.0998708,20.0661692 13.5198138,20.4986579 12.8347562,20.873822 C9.91006575,21.6462854 7.55010783,21.522555 5.81334229,20.4969552 C3.25132931,18.9855151 2.77173227,15.9126888 2.76094844,15.8428776 C2.66275875,15.1271712 1.97372822,14.6180606 1.21318384,14.7111421 C0.45320701,14.8019534 -0.0848497731,15.4580648 0.0110696286,16.1760414 C0.0343400146,16.3525558 0.628018714,20.5088742 4.31665901,22.7059394 C5.76396366,23.5680789 7.45362086,24 9.37087382,24 C10.9504224,24 12.6837825,23.7065661 14.5641434,23.1208334 C16.498991,22.7365882 21.7053147,21.8466377 23.7763793,22.1043147 C23.8904609,22.118504 24.0017047,22.1156661 24.1106782,22.1037471 L24.1106782,17.3202634 C22.7916445,16.8264772 19.5502497,15.6550118 18.5581366,15.6720389 L18.5581366,15.6720389 Z" id="形状"></path>
                    </g>
                </g>
            </g>
        </g>
    </g>
</svg>