<svg xmlns="http://www.w3.org/2000/svg" width="17" height="20"><path fill="currentColor" fill-rule="nonzero" d="M6.667 6.667v1.666c-2.667.167-5 2.334-5 5 0 2.834 2.333 5 5.333 5s5.333-2.166 5.333-5c0-.833-.166-1.666-.666-2.5v-2.5c1.666 1.167 3.333 2.834 5 5C13.167 17.833 10 20 6.833 20 2.5 20 0 17 0 13.333c0-3.5 3-6.5 6.667-6.666Zm1.5-6.5C8.167 0 8.5 0 8.667 0c.166 0 .166.167.166.167S8.833.5 9.5 1c.667.5 4.167 1.667 4.833 3 .334 1 0 1.833-1 2.667.167-1-.333-1.834-1.333-2.5-1.333-.834-1.5-1-1.833-1v9.666c0 .667-1.167 2-2.667 2.167-1.833.333-3.167-.667-3.167-1.667C4.167 12.5 5 11.5 6 11.167 6.833 10.833 7.667 11 8.167 11V.167Z"/></svg>