<svg xmlns="http://www.w3.org/2000/svg" width="19" height="20"><g fill="currentColor" fill-rule="evenodd" transform="translate(.577)"><path fill-rule="nonzero" d="M15.317 0a2.316 2.316 0 0 1 2.314 2.316l.001 11.648a4.4 4.4 0 0 0-1.764-.241V2.316a.552.552 0 0 0-.551-.553H2.316a.554.554 0 0 0-.553.553v14.827c0 .305.248.552.553.553h9.458a4.462 4.462 0 0 0 .187 1.764H2.316A2.316 2.316 0 0 1 0 17.142V2.316A2.316 2.316 0 0 1 2.316 0Z"/><rect width="3.918" height="3.918" x="14.103" y="16.082" fill-rule="nonzero" rx="1.959"/><path fill-rule="nonzero" d="M.302 4.93h17.026v1.763H.302z"/><path d="M12.117 9.362a.784.784 0 0 1 0 1.108l-3.74 3.74a.785.785 0 0 1-.165.126l.077-.069a.784.784 0 0 1-1.108 0L5.52 12.605a.784.784 0 0 1 1.108-1.108L7.75 12.62l3.259-3.258a.784.784 0 0 1 1.108 0Z"/></g></svg>