<svg xmlns="http://www.w3.org/2000/svg" width="24" height="24"><path fill="none" fill-rule="nonzero" stroke="currentColor" stroke-width="1.5" d="M2.497 13.515a1.942 1.942 0 0 1 1.384.357c.394.288.668.72.739 1.222.01.058.08.485.3 1.037l.005.012.024-.155c.054-.269.17-.518.333-.734l.103-.126a1.923 1.923 0 0 1 1.29-.624c1.469-.109 3.146-.2 4.544-.193l1.929.005 2.377.002c.663 0 1.221-.003 1.504-.008 1.072-.018 5.137 1.49 5.39 1.612v5.386a7.785 7.785 0 0 0-.83-.142c-1.932-.207-6.097.515-7.692.83-1.632.505-3.138.754-4.51.754-1.746 0-3.28-.4-4.596-1.184C1.408 19.551.864 15.74.843 15.579a1.792 1.792 0 0 1 .397-1.381 1.915 1.915 0 0 1 1.257-.683Zm8.39 4.488c-1.16.014-2.62.08-3.92.176a1.951 1.951 0 0 1-.503-.026l-.104-.023.078.062c.057.043.116.084.177.125l.188.118c1.29.762 3.043.811 5.189.258-.207-.327-.717-.53-1.105-.69Zm.736-11.39c1.703 0 3.252.793 4.37 2.096 1.218 1.42 1.92 3.449 1.72 5.667H5.533c-.2-2.218.503-4.247 1.721-5.667 1.118-1.303 2.667-2.096 4.37-2.096Zm0-5.363a2.957 2.957 0 0 1 2.962 2.951 2.957 2.957 0 0 1-2.961 2.95 2.957 2.957 0 0 1-2.962-2.95 2.957 2.957 0 0 1 2.961-2.951Z"/></svg>