<svg xmlns="http://www.w3.org/2000/svg" width="15" height="15"><path fill="currentColor" fill-rule="nonzero" d="M3.655 1.358H1.702a.338.338 0 0 0-.338.341v11.535a.34.34 0 0 0 .338.342h9.674a1.358 1.358 0 0 0 1.357-1.358V2.715a1.358 1.358 0 0 0-1.357-1.357h-2.97v6.109a.679.679 0 0 1-1.028.582l-1.348-.81-1.347.81a.679.679 0 0 1-1.028-.582v-6.11ZM.09 1.699C.09 1.25.294.817.659.5 1.023.178 1.518 0 2.034 0h8.946c1.718 0 3.11 1.216 3.11 2.715v9.503c0 1.5-1.392 2.715-3.11 2.715H2.034c-.516 0-1.01-.18-1.375-.498a1.594 1.594 0 0 1-.568-1.201V1.699Zm5.59 4.167a.679.679 0 0 1 .699 0l.668.402v-4.91H5.012v4.91l.67-.402Z"/></svg>