<svg xmlns="http://www.w3.org/2000/svg" width="14" height="14"><path fill="currentColor" fill-rule="nonzero" d="M4.15 0h5.698a2 2 0 0 1 1.744 1.022l.04.073 2.356 4.643H14v5.667a2 2 0 0 1-2 2H2a2 2 0 0 1-2-2V5.738h.002L0 5.737l2.368-4.645A2 2 0 0 1 4.067.002L4.15 0h5.698H4.15Zm.01 7.071H1.333v4.334c0 .368.299.666.667.666h10a.667.667 0 0 0 .667-.666V7.07H9.84C9.253 8.075 8.2 8.738 7 8.738c-1.163 0-2.189-.624-2.786-1.576l-.054-.09Zm5.688-5.737H4.15a.667.667 0 0 0-.568.317l-.026.047-2.06 4.04h3.557C5.262 6.694 6.054 7.405 7 7.405c.945 0 1.738-.711 1.946-1.667h3.546l-2.05-4.04a.667.667 0 0 0-.54-.362l-.054-.002Z"/></svg>