<?xml version="1.0" encoding="UTF-8"?>
<svg width="17px" height="15px" viewBox="0 0 17 15" version="1.1" xmlns="http://www.w3.org/2000/svg" xmlns:xlink="http://www.w3.org/1999/xlink">
    <title>编组</title>
    <g id="页面-2" stroke="none" stroke-width="1" fill="none" fill-rule="evenodd">
        <g id="画板备份-5" transform="translate(-266.000000, -83.000000)" fill="#2B2C42" fill-rule="nonzero">
            <g id="tree" transform="translate(62.000000, 60.000000)">
                <g id="编组-4" transform="translate(10.500000, 21.000000)">
                    <g id="编组" transform="translate(194.000000, 2.000000)">
                        <path d="M8.27098675,0.942562597 L15.3402062,0.942562597 C15.7172312,0.942562597 16,1.22533138 16,1.60235641 C16,1.97938145 15.7172312,2.26215022 15.3402062,2.26215022 L8.27098675,2.26215022 C7.8939617,2.26215022 7.61119293,1.97938143 7.61119292,1.60235641 C7.51693666,1.22533137 7.8939617,0.942562597 8.27098675,0.942562597 L8.27098675,0.942562597 Z M8.27098675,9.04860089 L15.3402062,9.04860089 C15.7172312,9.04860089 16,9.33136968 16,9.70839471 C16,10.0854197 15.7172312,10.3681885 15.3402062,10.3681885 L8.27098675,10.3681885 C7.8939617,10.3681885 7.61119293,10.0854197 7.61119292,9.70839471 C7.51693666,9.42562592 7.8939617,9.04860089 8.27098675,9.04860089 L8.27098675,9.04860089 Z M8.27098675,3.95876288 L15.3402062,3.95876288 C15.7172312,3.95876288 16,4.24153167 16,4.61855671 C16,4.99558176 15.7172312,5.27835052 15.3402062,5.27835052 L8.27098675,5.27835052 C7.8939617,5.27835052 7.61119293,4.99558174 7.61119292,4.61855671 C7.51693666,4.33578793 7.8939617,3.95876288 8.27098675,3.95876288 L8.27098675,3.95876288 Z M8.27098675,12.1590574 L15.3402062,12.1590574 C15.7172312,12.1590574 16,12.4418262 16,12.8188512 C16,13.1958763 15.7172312,13.4786451 15.3402062,13.4786451 L8.27098675,13.4786451 C7.8939617,13.4786451 7.61119293,13.1958763 7.61119292,12.8188512 C7.51693666,12.4418262 7.8939617,12.1590574 8.27098675,12.1590574 L8.27098675,12.1590574 Z M3.08689248,2.82768777 L1.57879233,2.82768777 L1.57879233,5.65537555 C1.57879233,5.7496318 1.67304858,5.84388806 1.76730486,5.84388808 C1.86156111,5.93814433 2.05007364,5.93814433 2.14432988,5.93814433 L2.42709867,5.93814433 C2.61561118,5.93814433 2.70986745,5.93814433 2.80412371,5.84388808 L2.99263622,5.65537555 L2.99263622,2.82768777 L3.08689248,2.82768777 Z" id="形状"></path>
                        <path d="M4.59499263,2.35640648 L2.70986744,0.188512512 C2.70986744,0.0942562561 2.52135492,0 2.33284241,0 C2.1443299,0 2.05007362,0.0942562561 1.95581737,0.188512512 L0.0706921921,2.35640648 C-0.023564064,2.45066273 -0.023564064,2.54491899 0.0706921921,2.73343152 C0.164948448,2.92194403 0.259204704,2.92194403 0.447717216,2.92194403 L4.21796759,2.92194403 C4.4064801,2.92194403 4.50073637,2.82768777 4.59499263,2.73343152 C4.68924889,2.63917526 4.68924889,2.45066273 4.59499263,2.35640648 L4.59499263,2.35640648 Z M3.08689248,11.3107511 L1.57879233,11.3107511 L1.57879233,8.48306334 C1.57879233,8.38880708 1.67304858,8.29455083 1.76730486,8.29455081 C1.86156111,8.20029455 2.05007364,8.20029455 2.14432988,8.20029455 L2.42709867,8.20029455 C2.61561118,8.20029455 2.70986745,8.20029455 2.80412371,8.29455081 L2.99263622,8.48306334 L2.99263622,11.3107511 L3.08689248,11.3107511 Z" id="形状"></path>
                        <path d="M4.59499263,11.7820324 L2.70986744,13.9499264 C2.61561118,14.0441826 2.52135492,14.1384389 2.33284241,14.1384389 C2.1443299,14.1384389 2.05007362,14.0441826 1.95581737,13.9499264 L0.0706921921,11.7820324 C-0.023564064,11.6877762 -0.023564064,11.5935199 0.0706921921,11.4050074 C0.164948448,11.3107511 0.259204704,11.2164949 0.447717216,11.2164949 L4.21796759,11.2164949 C4.4064801,11.2164949 4.50073637,11.3107511 4.59499263,11.4050074 C4.68924889,11.5935199 4.68924889,11.6877762 4.59499263,11.7820324 Z" id="路径"></path>
                    </g>
                </g>
            </g>
        </g>
    </g>
</svg>