<?xml version="1.0" encoding="UTF-8"?><svg version="1.1" width="24px" height="24px" viewBox="0 0 24.0 24.0" xmlns="http://www.w3.org/2000/svg" xmlns:xlink="http://www.w3.org/1999/xlink"><defs><clipPath id="i0"><path d="M1440,0 L1440,1183 L0,1183 L0,0 L1440,0 Z"></path></clipPath><clipPath id="i1"><path d="M10.9214743,0 C11.306608,0 11.564214,0.257606002 11.564214,0.642739728 C11.564214,1.02787345 11.306608,1.28547946 10.9214743,1.28547946 L0.642739728,1.28547946 C0.257606002,1.28547946 0,1.02787345 0,0.642739728 C0,0.257606002 0.257606002,0 0.642739728,0 L10.9214743,0 Z"></path></clipPath><clipPath id="i2"><path d="M0.642739728,0 C1.02787345,0 1.28547946,0.257606002 1.28547946,0.642739728 L1.28547946,10.9214743 C1.28547946,11.306608 1.02787345,11.564214 0.642739728,11.564214 C0.257606002,11.564214 0,11.306608 0,10.9214743 L0,0.642739728 C0,0.257606002 0.257606002,0 0.642739728,0 Z"></path></clipPath></defs><g transform="translate(-472.0 -265.0)"><g clip-path="url(#i0)"><g transform="translate(472.0 265.0)"><g transform="translate(6.9999999999999964 5.999999999999995)"><g transform="translate(0.0 5.139367271724607)"><g clip-path="url(#i1)"><polygon points="0,0 11.564214,0 11.564214,1.28547946 0,1.28547946 0,0" stroke="none" fill="#000000"></polygon></g></g><g transform="translate(5.139367271724884 0.0)"><g clip-path="url(#i2)"><polygon points="0,0 1.28547946,0 1.28547946,11.564214 0,11.564214 0,0" stroke="none" fill="#000000"></polygon></g></g></g></g></g></g></svg>