<?xml version="1.0" encoding="UTF-8"?><svg version="1.1" width="24px" height="25px" viewBox="0 0 24.0 25.0" xmlns="http://www.w3.org/2000/svg" xmlns:xlink="http://www.w3.org/1999/xlink"><defs><clipPath id="i0"><path d="M1440,0 L1440,1069 L0,1069 L0,0 L1440,0 Z"></path></clipPath><clipPath id="i1"><path d="M20,0 C22.209139,-4.05812251e-16 24,1.790861 24,4 L24,20 C24,22.209139 22.209139,24 20,24 L4,24 C1.790861,24 2.705415e-16,22.209139 0,20 L0,4 C-2.705415e-16,1.790861 1.790861,4.05812251e-16 4,0 L20,0 Z"></path></clipPath><clipPath id="i2"><path d="M1.35833647,5.58295979 L6.45360979,8.00065244 C6.76073784,8.1683871 6.95722348,8.49036052 6.97057687,8.8431817 L6.97057687,15.0204443 C6.96676162,15.3655535 6.78744462,15.683671 6.4955776,15.8629735 C6.35822841,15.9458769 6.20180295,15.9940765 6.04156223,15.9998604 C5.89658253,15.9998604 5.75351046,15.9632287 5.62569941,15.8938213 L0.520887956,13.4742006 C0.196591264,13.30261 -0.00370963421,12.9632847 5.20705169e-05,12.5950397 L5.20705169e-05,6.42548905 C0.00201324859,6.07845183 0.185145498,5.76033437 0.478920149,5.58295979 C0.751710895,5.42679304 1.08554573,5.42679304 1.35833647,5.58295979 Z M14.5209669,5.58681576 C14.8166492,5.76226236 14.9978738,6.08230779 14.9997814,6.42934502 L14.9997814,12.5950397 C15.007412,12.9594288 14.8147416,13.298754 14.499983,13.4742006 L9.37609528,15.8957493 C9.2463766,15.9651567 9.10330453,16.0017884 8.95832483,15.9999328 C8.79999174,15.9999328 8.64356628,15.9574448 8.50430946,15.8783974 C8.21244244,15.6990948 8.03312545,15.3809774 8.02931019,15.0358681 L8.02931019,8.84125372 C8.0369407,8.49036052 8.22770346,8.17031509 8.52910862,7.99872446 L13.6587192,5.56560793 C13.9296024,5.42100909 14.2577143,5.42872102 14.5209669,5.58681576 Z M8.22388821,0.163395159 L13.5957675,2.73147061 C14.0707668,2.9454769 14.2844211,3.50844839 14.0726744,3.98851655 C13.977293,4.20445082 13.8075142,4.37604145 13.5957675,4.47051269 L7.94537458,7.1561952 C7.80802539,7.22945861 7.65541518,7.26994629 7.50089735,7.27573024 C7.34447188,7.26994629 7.1937693,7.22945861 7.05451249,7.15812319 L1.40411953,4.47051269 C0.929120262,4.25650641 0.715465971,3.69353491 0.927212635,3.21346675 C1.02259401,2.99753248 1.19237287,2.82594185 1.40411953,2.73147061 L6.77409123,0.163395159 C7.23331935,-0.0544650531 7.76466009,-0.0544650531 8.22388821,0.163395159 Z"></path></clipPath></defs><g transform="translate(-896.0 -640.0)"><g clip-path="url(#i0)"><g transform="translate(256.0 624.5)"><g transform="translate(624.0 0.0)"><g transform="translate(16.0 16.0)"><g clip-path="url(#i1)"><polygon points="0,0 24,0 24,24 0,24 0,0" stroke="none" fill="#FF3E3E"></polygon></g><g transform="translate(5.0 4.0)"><g clip-path="url(#i2)"><polygon points="-1.08801856e-14,0 15,0 15,16 -1.08801856e-14,16 -1.08801856e-14,0" stroke="none" fill="#FFFFFF"></polygon></g></g></g></g></g></g></g></svg>