<?xml version="1.0" encoding="UTF-8"?><svg version="1.1" width="25px" height="24px" viewBox="0 0 25.0 24.0" xmlns="http://www.w3.org/2000/svg" xmlns:xlink="http://www.w3.org/1999/xlink"><defs><clipPath id="i0"><path d="M1440,0 L1440,1069 L0,1069 L0,0 L1440,0 Z"></path></clipPath><clipPath id="i1"><path d="M4.92458292,0 C6.20035192,0 7.34377867,0.787321786 7.79895149,1.97912892 C8.25412431,3.17093606 7.92661805,4.52001163 6.97565984,5.37046153 C9.04614068,6.31832524 10.1960846,8.5627267 9.75596753,10.7969231 C9.69054302,11.1305031 9.36708598,11.347886 9.03350599,11.2824615 C8.699926,11.217037 8.48254302,10.89358 8.54796753,10.56 C8.76105078,9.47867433 8.47994774,8.35869309 7.78148589,7.50615528 C7.08302405,6.65361746 6.0402353,6.15766532 4.93812139,6.15384616 L4.92458292,6.15384616 C3.82009736,6.15362503 2.77351277,6.64785714 2.07198483,7.50093799 C1.37045689,8.35401884 1.08766441,9.47635261 1.30119831,10.56 C1.36662281,10.89358 1.14923984,11.217037 0.815659846,11.2824615 C0.482079857,11.347886 0.158622809,11.1305031 0.0931983072,10.7969231 C-0.346835549,8.56241749 0.80299735,6.31772377 2.87350599,5.36923077 C1.92349644,4.51860337 1.59661941,3.17013153 2.05167324,1.97890899 C2.50672708,0.787686454 3.64940262,0.000592126166 4.92458292,0 Z M4.93073676,1.23077949 C3.91233555,1.23077949 3.08628282,2.05545662 3.08458286,3.07385641 C3.08288814,4.0922562 3.90618737,4.91968225 4.92458292,4.92307692 L4.9368906,4.92307692 C5.95528615,4.91968225 6.77858538,4.0922562 6.77689066,3.07385641 C6.7751907,2.05545662 5.94913797,1.23077949 4.93073676,1.23077949 Z"></path></clipPath><clipPath id="i2"><path d="M8,0 C12.4184615,0 16,3.58153847 16,8 C16,12.4184615 12.4184615,16 8,16 C3.58153847,16 0,12.4184615 0,8 C0,3.58153847 3.58153847,0 8,0 Z M8,1.23076923 C4.26153847,1.23076923 1.23076923,4.26153847 1.23076923,8 C1.23076923,11.7384615 4.26153847,14.7692308 8,14.7692308 C11.7384615,14.7692308 14.7692308,11.7384615 14.7692308,8 C14.7692308,4.26153847 11.7384615,1.23076923 8,1.23076923 Z"></path></clipPath></defs><g transform="translate(-712.0 -351.0)"><g clip-path="url(#i0)"><g transform="translate(712.0 313.5126050420166)"><g transform="translate(0.33333333333303017 37.48739495798395)"><g transform="translate(4.0 3.9999999999994316)"><g transform="translate(3.0754170833888548 3.0769230781249908)"><g clip-path="url(#i1)"><polygon points="0,0 9.84919057,0 9.84919057,11.294085 0,11.294085 0,0" stroke="none" fill="#4D4D4D"></polygon></g></g><g clip-path="url(#i2)"><polygon points="0,0 16,0 16,16 0,16 0,0" stroke="none" fill="#4D4D4D"></polygon></g></g></g></g></g></g></svg>