<?xml version="1.0" encoding="UTF-8"?><svg version="1.1" width="24px" height="25px" viewBox="0 0 24.0 25.0" xmlns="http://www.w3.org/2000/svg" xmlns:xlink="http://www.w3.org/1999/xlink"><defs><clipPath id="i0"><path d="M1440,0 L1440,1069 L0,1069 L0,0 L1440,0 Z"></path></clipPath><clipPath id="i1"><path d="M20,0 C22.209139,-4.05812251e-16 24,1.790861 24,4 L24,20 C24,22.209139 22.209139,24 20,24 L4,24 C1.790861,24 2.705415e-16,22.209139 0,20 L0,4 C-2.705415e-16,1.790861 1.790861,4.05812251e-16 4,0 L20,0 Z"></path></clipPath><clipPath id="i2"><path d="M7.05225864,0 C9.40301153,0 11.3081849,1.91300344 11.3081849,4.27341772 C11.3081849,5.70034523 10.6113939,6.96340622 9.54053608,7.74039126 L9.54053608,8.03314155 C12.1498351,9.09919448 14.0018323,11.7542002 14,14.8529344 C14,15.4863061 13.3637184,16 12.5789117,16 L1.42108696,16 C0.636280218,16 0,15.4863061 0,14.8529344 C0,11.7136939 1.90150604,9.02922898 4.56398122,7.9926352 L4.56398122,7.74039126 C3.49312343,6.96340622 2.7963324,5.70034523 2.7963324,4.27341772 C2.7963324,1.91300344 4.70150575,0 7.05225864,0 Z"></path></clipPath></defs><g transform="translate(-688.0 -640.0)"><g clip-path="url(#i0)"><g transform="translate(256.0 624.5)"><g transform="translate(416.0 0.0)"><g transform="translate(16.0 16.0)"><g clip-path="url(#i1)"><polygon points="0,0 24,0 24,24 0,24 0,0" stroke="none" fill="#50D600"></polygon></g><g transform="translate(5.0 4.0)"><g clip-path="url(#i2)"><polygon points="0,0 14.0000014,0 14.0000014,16 0,16 0,0" stroke="none" fill="#FFFFFF"></polygon></g></g></g></g></g></g></g></svg>