<?xml version="1.0" encoding="UTF-8"?><svg version="1.1" width="24px" height="25px" viewBox="0 0 24.0 25.0" xmlns="http://www.w3.org/2000/svg" xmlns:xlink="http://www.w3.org/1999/xlink"><defs><clipPath id="i0"><path d="M1440,0 L1440,1069 L0,1069 L0,0 L1440,0 Z"></path></clipPath><clipPath id="i1"><path d="M20,0 C22.209139,-4.05812251e-16 24,1.790861 24,4 L24,20 C24,22.209139 22.209139,24 20,24 L4,24 C1.790861,24 2.705415e-16,22.209139 0,20 L0,4 C-2.705415e-16,1.790861 1.790861,4.05812251e-16 4,0 L20,0 Z"></path></clipPath><clipPath id="i2"><path d="M10.456,0.0254667273 C11.5373732,0.391705505 12.5301612,0.992888088 13.3674994,1.78852451 C13.4774994,1.89278026 13.5374994,2.04142213 13.5319994,2.19625742 L13.4354994,4.71387914 L15.5644989,5.88443389 C15.6969989,5.95772259 15.7919989,6.08778422 15.8229989,6.24003894 C15.9404988,6.81447784 16.0000012,7.40336803 16.0000012,8 C16.0000012,8.59663194 15.9399988,9.18552216 15.8229989,9.75996106 C15.7920554,9.91214101 15.6973982,10.0423561 15.5644989,10.1155661 L13.4354994,11.2861209 L13.5319994,13.8042587 C13.5374994,13.9580617 13.4774994,14.1072197 13.3674994,14.2114755 C12.5300153,15.0071751 11.5370509,15.6083612 10.4555001,15.9745333 C10.3145661,16.0221258 10.160375,16.0018516 10.0355001,15.9193087 L8.00000117,14.5722417 L5.96400104,15.9193087 C5.83900107,16.0018875 5.6850011,16.0225322 5.54400113,15.9745333 C4.46295023,15.6083612 3.46998585,15.0071751 2.63250177,14.2114755 C2.5225018,14.1072197 2.46250181,13.9585779 2.46800179,13.8037426 L2.56450177,11.2861209 L0.435502238,10.1155661 C0.302603022,10.0423561 0.207945813,9.91214101 0.177002303,9.75996106 C0.0590161796,9.18123379 -0.000303303179,8.59140326 1.16609354e-06,8 C1.16609354e-06,7.40336803 0.0600023281,6.81447782 0.177002303,6.24003894 C0.208002304,6.08778425 0.303002275,5.95772261 0.435502238,5.88443389 L2.56450177,4.71387914 L2.46800179,2.19574131 C2.46222313,2.04164949 2.52238081,1.89273021 2.63250177,1.78852451 C3.46998585,0.992824909 4.46295023,0.391638797 5.54450112,0.0254667273 C5.6854351,-0.0221257842 5.83962616,-0.00185163984 5.96450103,0.0806913201 L8.00000117,1.4277583 L10.0360001,0.0806913201 C10.1610001,-0.00188749021 10.3150001,-0.0225322109 10.456,0.0254667273 Z M8.00000124,4.8589082 C6.34300094,4.8589082 5.00000124,6.26532869 5.00000124,7.99999999 C5.00000124,9.73467128 6.34300094,11.1410918 8.00000124,11.1410918 C9.65700023,11.1410918 11.0000012,9.73467131 11.0000012,7.99999999 C11.0000012,6.26532867 9.65700023,4.8589082 8.00000124,4.8589082 Z M8.00000103,5.90559472 C9.10500033,5.90559472 10.000001,6.84389652 10.000001,7.99999999 C10.000001,9.15661956 9.10500035,10.0944053 8.00000103,10.0944053 C6.89500084,10.0944053 6.00000103,9.15610345 6.00000103,7.99999999 C6.00000103,6.84338044 6.89500084,5.90559472 8.00000103,5.90559472 Z"></path></clipPath></defs><g transform="translate(-272.0 -640.0)"><g clip-path="url(#i0)"><g transform="translate(256.0 624.5)"><g transform="translate(16.0 16.0)"><g clip-path="url(#i1)"><polygon points="0,0 24,0 24,24 0,24 0,0" stroke="none" fill="#0062CE"></polygon></g><g transform="translate(4.0 4.0)"><g clip-path="url(#i2)"><polygon points="3.08919557e-14,1.38777878e-17 16.0000012,1.38777878e-17 16.0000012,16 3.08919557e-14,16 3.08919557e-14,1.38777878e-17" stroke="none" fill="#FFFFFF"></polygon></g></g></g></g></g></g></svg>