<?xml version="1.0" encoding="UTF-8"?><svg version="1.1" width="24px" height="25px" viewBox="0 0 24.0 25.0" xmlns="http://www.w3.org/2000/svg" xmlns:xlink="http://www.w3.org/1999/xlink"><defs><clipPath id="i0"><path d="M1440,0 L1440,1069 L0,1069 L0,0 L1440,0 Z"></path></clipPath><clipPath id="i1"><path d="M20,0 C22.209139,-4.05812251e-16 24,1.790861 24,4 L24,20 C24,22.209139 22.209139,24 20,24 L4,24 C1.790861,24 2.705415e-16,22.209139 0,20 L0,4 C-2.705415e-16,1.790861 1.790861,4.05812251e-16 4,0 L20,0 Z"></path></clipPath><clipPath id="i2"><path d="M8,14.5 C8,15.3285 7.3285,16 6.5,16 C5.6715,16 5,15.3285 5,14.5 L8,14.5 Z M6.5,0 C7.0525,0 7.5,0.4475 7.5,1 L7.5,1.6 C9.782,2.0635 11.5,4.081 11.5,6.5 L11.5,11.5 L12.0015,11.5 C12.553,11.5 13,11.944 13,12.5 C13,13.0525 12.5525,13.5 12.0015,13.5 L0.9985,13.5 C0.447,13.5 0,13.056 0,12.5 C0,11.9475 0.4475,11.5 0.9985,11.5 L1.5,11.5 L1.5,6.5 C1.5,4.081 3.218,2.0635 5.5,1.6 L5.5,1 C5.5,0.4475 5.9475,0 6.5,0 Z"></path></clipPath></defs><g transform="translate(-272.0 -785.0)"><g clip-path="url(#i0)"><g transform="translate(256.0 624.5)"><g transform="translate(0.0 145.0)"><g transform="translate(16.0 16.0)"><g clip-path="url(#i1)"><polygon points="0,0 24,0 24,24 0,24 0,0" stroke="none" fill="#FFA817"></polygon></g><g transform="translate(5.0 4.0)"><g clip-path="url(#i2)"><polygon points="0,0 13,0 13,16 0,16 0,0" stroke="none" fill="#FFFFFF"></polygon></g></g></g></g></g></g></g></svg>