<?xml version="1.0" encoding="UTF-8"?><svg version="1.1" width="24px" height="25px" viewBox="0 0 24.0 25.0" xmlns="http://www.w3.org/2000/svg" xmlns:xlink="http://www.w3.org/1999/xlink"><defs><clipPath id="i0"><path d="M1440,0 L1440,1069 L0,1069 L0,0 L1440,0 Z"></path></clipPath><clipPath id="i1"><path d="M20,0 C22.209139,-4.05812251e-16 24,1.790861 24,4 L24,20 C24,22.209139 22.209139,24 20,24 L4,24 C1.790861,24 2.705415e-16,22.209139 0,20 L0,4 C-2.705415e-16,1.790861 1.790861,4.05812251e-16 4,0 L20,0 Z"></path></clipPath><clipPath id="i2"><path d="M8,0 C12.4181818,0 16,3.58181818 16,8 C16,12.4181818 12.4181818,16 8,16 C3.58181818,16 0,12.4181818 0,8 C0,3.58181818 3.58181818,0 8,0 Z M8,1.45454545 C5.6615343,1.45454545 3.50070286,2.702102 2.33147,4.7272727 C1.16223714,6.7524434 1.16223714,9.2475566 2.33147,11.2727273 C3.50070286,13.297898 5.6615343,14.5454546 8,14.5454546 C11.6149547,14.5454546 14.5454546,11.6149547 14.5454546,8 C14.5454546,4.38504527 11.6149547,1.45454545 8,1.45454545 Z"></path></clipPath><clipPath id="i3"><path d="M3.63636363,0 C6.06036363,2.38763637 7.27272727,5.05454545 7.27272727,8 C7.27272727,10.9454545 6.06036363,13.6123636 3.63636363,16 C1.21236363,13.6123636 0,10.9454545 0,8 C0,5.05454545 1.21236363,2.38763635 3.63636363,0 Z M3.63636363,2.15563637 L3.46036364,2.37818182 C2.112,4.12290909 1.45454545,5.98545454 1.45454545,8 C1.45454545,10.0145455 2.112,11.8770909 3.46036364,13.6218182 L3.63636363,13.8436364 L3.81236363,13.6218182 C5.10181817,11.9527273 5.75999999,10.1752727 5.81454546,8.26181818 L5.81818182,8 C5.81818182,5.98618182 5.16072727,4.12290909 3.81236363,2.37818182 L3.63636363,2.15563637 Z"></path></clipPath><clipPath id="i4"><path d="M14.5454546,0 L14.5454546,1.45454547 L0,1.45454547 L0,0 L14.5454546,0 Z"></path></clipPath></defs><g transform="translate(-272.0 -930.0)"><g clip-path="url(#i0)"><g transform="translate(256.0 624.5)"><g transform="translate(0.0 290.0)"><g transform="translate(16.0 16.0)"><g clip-path="url(#i1)"><polygon points="0,0 24,0 24,24 0,24 0,0" stroke="none" fill="#AFDD00"></polygon></g><g transform="translate(4.0 4.0)"><g clip-path="url(#i2)"><polygon points="0,0 16,0 16,16 0,16 0,0" stroke="none" fill="#FFFFFF"></polygon></g><g transform="translate(4.363636366735536 0.0)"><g clip-path="url(#i3)"><polygon points="0,0 7.27272727,0 7.27272727,16 0,16 0,0" stroke="none" fill="#FFFFFF"></polygon></g></g><g transform="translate(0.7272727164256203 7.272727266528926)"><g clip-path="url(#i4)"><polygon points="0,0 14.5454546,0 14.5454546,1.45454547 0,1.45454547 0,0" stroke="none" fill="#FFFFFF"></polygon></g></g></g></g></g></g></g></g></svg>