<?xml version="1.0" encoding="UTF-8"?><svg version="1.1" width="24px" height="25px" viewBox="0 0 24.0 25.0" xmlns="http://www.w3.org/2000/svg" xmlns:xlink="http://www.w3.org/1999/xlink"><defs><clipPath id="i0"><path d="M1440,0 L1440,1069 L0,1069 L0,0 L1440,0 Z"></path></clipPath><clipPath id="i1"><path d="M20,0 C22.209139,-4.05812251e-16 24,1.790861 24,4 L24,20 C24,22.209139 22.209139,24 20,24 L4,24 C1.790861,24 2.705415e-16,22.209139 0,20 L0,4 C-2.705415e-16,1.790861 1.790861,4.05812251e-16 4,0 L20,0 Z"></path></clipPath><clipPath id="i2"><path d="M6.38518342,5.97278411 C6.44654768,5.91200351 6.54540164,5.91200351 6.6067659,5.97278411 L7.320536,6.68677209 C7.38132411,6.74757876 7.38132411,6.84761555 7.320536,6.90842221 L6.01261111,8.21674636 L7.78331001,9.98798579 L9.08927399,8.68162315 C9.15063825,8.62084255 9.24949221,8.62084255 9.31085647,8.68162315 L10.0285484,9.39168811 C10.0893365,9.45249478 10.0893365,9.55253157 10.0285484,9.61333824 L8.7206235,10.9216624 L9.56381345,11.7651097 C9.62460156,11.8259164 9.62460156,11.9259532 9.56381345,11.9867598 L7.56564935,13.9855339 C6.79893476,14.7524825 5.79495046,15.1349761 4.79096614,15.1349761 C4.02229066,15.1349761 3.25361517,14.9113645 2.59278956,14.4621797 L1.10053943,15.9548854 C1.06916491,15.984308 1.02994676,16 0.98876773,16 C0.947588703,16 0.908370554,15.9862694 0.876996051,15.9548854 L0.0455715388,15.1232071 C-0.0151905129,15.0618241 -0.0151905129,14.9629399 0.0455715388,14.9015569 L1.53782165,13.4088513 C0.504423742,11.8828001 0.663257201,9.78791223 2.01432203,8.43643497 L4.01052521,6.43766091 C4.04189973,6.40823833 4.08307877,6.39254628 4.12229691,6.39254628 C4.16413568,6.39176217 4.20449048,6.40805066 4.2340686,6.43766091 L5.07725855,7.28110826 Z M15.0112127,0 C15.0523918,0 15.0916099,0.0137305553 15.1229844,0.0451146353 L15.9544089,0.87679295 C16.015197,0.937599617 16.015197,1.03763639 15.9544089,1.10040456 L14.4621588,2.59311022 C15.4955567,4.11916145 15.3367233,6.21208777 13.9856584,7.56552654 L11.9874943,9.5643006 C11.9561198,9.59372318 11.9149408,9.60941523 11.8757226,9.60941523 C11.8345436,9.60941523 11.7953254,9.59568468 11.7639509,9.5643006 L6.43616701,4.23489029 C6.37540496,4.1735073 6.37540496,4.07462316 6.43616701,4.01324017 L8.4343311,2.01446611 C9.20104568,1.24751746 10.20503,0.865023905 11.2090143,0.865023905 C11.9926042,0.863743212 12.7584791,1.0981547 13.4071909,1.53782028 L14.899441,0.0451146353 C14.9308155,0.0156920485 14.9700337,0 15.0112127,0 Z"></path></clipPath></defs><g transform="translate(-480.0 -930.0)"><g clip-path="url(#i0)"><g transform="translate(256.0 624.5)"><g transform="translate(0.0 290.0)"><g transform="translate(208.0 0.0)"><g transform="translate(16.0 16.0)"><g clip-path="url(#i1)"><polygon points="0,0 24,0 24,24 0,24 0,0" stroke="none" fill="#18D93B"></polygon></g><g transform="translate(4.0 4.0)"><g clip-path="url(#i2)"><polygon points="0,0 16,0 16,16 0,16 0,0" stroke="none" fill="#FFFFFF"></polygon></g></g></g></g></g></g></g></g></svg>