<?xml version="1.0" encoding="UTF-8"?><svg version="1.1" width="24px" height="25px" viewBox="0 0 24.0 25.0" xmlns="http://www.w3.org/2000/svg" xmlns:xlink="http://www.w3.org/1999/xlink"><defs><clipPath id="i0"><path d="M1440,0 L1440,1069 L0,1069 L0,0 L1440,0 Z"></path></clipPath><clipPath id="i1"><path d="M20,0 C22.209139,-4.05812251e-16 24,1.790861 24,4 L24,20 C24,22.209139 22.209139,24 20,24 L4,24 C1.790861,24 2.705415e-16,22.209139 0,20 L0,4 C-2.705415e-16,1.790861 1.790861,4.05812251e-16 4,0 L20,0 Z"></path></clipPath><clipPath id="i2"><path d="M8.32135438,0.923394935 C8.73001397,1.50171963 8.83284876,2.24232211 8.59721655,2.91011764 L11.6295336,2.91011764 C12.0149204,2.91011764 12.3845228,3.06321972 12.6570325,3.33574318 C12.9295421,3.60826663 13.0826365,3.97788776 13.0826364,4.36329412 L13.0826364,7.39670589 C13.988011,7.07354921 14.9982128,7.38058814 15.5706626,8.15291216 C16.1431125,8.92523617 16.1431125,9.98111677 15.5706626,10.7534408 C14.9982128,11.5257648 13.988011,11.8328037 13.0826364,11.5096471 L13.0826364,14.5430588 C13.0836366,14.9291171 12.9309838,15.2997061 12.6583657,15.5730443 C12.3857476,15.8463825 12.0155736,16 11.6295336,16 L8.60192219,16 C8.92296881,15.094936 8.61503328,14.0863446 7.84321458,13.5149798 C7.07139588,12.9436151 6.01689222,12.9436151 5.24507352,13.5149798 C4.47325482,14.0863446 4.16531929,15.094936 4.48636591,16 L1.45310776,16 C1.06706778,16 0.696893732,15.8463825 0.424275608,15.5730443 C0.151657484,15.2997061 -0.0009952222,14.9291171 0,14.5430588 L0,11.5237647 C0.902287199,11.839622 1.90506564,11.5303763 2.4727671,10.7611922 C3.04046857,9.99200818 3.04046857,8.94258006 2.4727671,8.17339602 C1.90506564,7.40421199 0.902287199,7.09496622 0,7.41082353 L0,4.37741176 C0,3.57484456 0.6505812,2.9242353 1.45310776,2.9242353 L4.48542478,2.9242353 C4.24977574,2.25639069 4.35309801,1.5156975 4.76251438,0.937844763 C5.17193075,0.359992032 5.83644736,0.0169527955 6.54461462,0.0178823548 L6.541,0 L6.71683234,0.00730298226 C7.35781579,0.0598464381 7.94674975,0.393263968 8.32135438,0.923394935 Z"></path></clipPath></defs><g transform="translate(-480.0 -785.0)"><g clip-path="url(#i0)"><g transform="translate(256.0 624.5)"><g transform="translate(0.0 145.0)"><g transform="translate(208.0 0.0)"><g transform="translate(16.0 16.0)"><g clip-path="url(#i1)"><polygon points="0,0 24,0 24,24 0,24 0,0" stroke="none" fill="#DB008C"></polygon></g><g transform="translate(5.0 4.0)"><g clip-path="url(#i2)"><polygon points="-4.83590193e-06,0 16,0 16,16 -4.83590193e-06,16 -4.83590193e-06,0" stroke="none" fill="#FFFFFF"></polygon></g></g></g></g></g></g></g></g></svg>