<?xml version="1.0" encoding="UTF-8"?><svg version="1.1" width="24px" height="25px" viewBox="0 0 24.0 25.0" xmlns="http://www.w3.org/2000/svg" xmlns:xlink="http://www.w3.org/1999/xlink"><defs><clipPath id="i0"><path d="M1440,0 L1440,1069 L0,1069 L0,0 L1440,0 Z"></path></clipPath><clipPath id="i1"><path d="M20,0 C22.209139,-4.05812251e-16 24,1.790861 24,4 L24,20 C24,22.209139 22.209139,24 20,24 L4,24 C1.790861,24 2.705415e-16,22.209139 0,20 L0,4 C-2.705415e-16,1.790861 1.790861,4.05812251e-16 4,0 L20,0 Z"></path></clipPath><clipPath id="i2"><path d="M6.02023919,0 C6.299908,0.0110404048 6.57589696,0.0870965269 6.85065931,0.226941655 C7.12419503,0.366786782 7.3449862,0.543433259 7.51303281,0.755654374 L8.16681999,1.51008204 C8.26740264,1.67814153 8.38147807,1.80939968 8.51027292,1.90385647 C8.63906777,1.99953998 8.80956762,2.04615503 9.02177246,2.04615503 L13.8521926,2.04615503 C14.4569151,2.05719543 14.9487887,2.24488231 15.3290402,2.60798896 C15.7092916,2.97109561 15.932536,3.42743234 16,3.97454573 L16,13.953845 C15.9779209,14.5573871 15.7706225,15.0468451 15.3793315,15.4209921 C14.9880405,15.7951392 14.5133395,15.9877329 13.9540018,16 L2.04599816,16 C1.4425023,15.9779192 0.953081877,15.7706049 0.578963508,15.3792839 C0.20484514,14.9879629 0.0110395584,14.5132255 0,13.953845 L0,2.04615503 C0.0220791168,1.4426129 0.229377492,0.953154949 0.620668507,0.579007897 C1.01195952,0.204860845 1.48666053,0.0122671165 2.04599816,0 L6.02023919,0 Z M8.58754983,5.58521812 L7.31186753,5.58521812 C7.14382091,5.59625853 6.99540018,5.66618109 6.86783195,5.79498582 C6.73903711,5.92379054 6.6691199,6.07222265 6.65808034,6.23905543 L6.65808034,8.16744614 L5.26586937,8.16744614 C5.15424716,8.16744614 5.04998467,8.19320708 4.95553511,8.24350226 C4.85985894,8.29379744 4.78503527,8.37476041 4.72861086,8.48639117 C4.67218645,8.59802193 4.65010733,8.70719926 4.66114689,8.81392318 C4.67218645,8.92064709 4.72861086,9.02369087 4.8291935,9.12428122 L7.51303281,11.9248639 C7.56945722,11.9812926 7.6307881,12.0279077 7.69702545,12.0671625 C7.76448942,12.1064172 7.84789942,12.1321782 7.94848206,12.1432186 C8.0490647,12.1886069 8.1324747,12.1935138 8.19993867,12.1603925 C8.26740264,12.1272713 8.32873352,12.081883 8.38393131,12.026681 L11.0677706,9.12550794 C11.2247777,8.94518132 11.2554431,8.7317335 11.1609936,8.48639117 C11.0653174,8.24104884 10.8567924,8.13432493 10.5317387,8.16744614 L9.24133701,8.16744614 L9.24133701,6.23905543 C9.24133701,5.8035728 9.02299908,5.58521812 8.58754983,5.58521812 Z"></path></clipPath></defs><g transform="translate(-896.0 -785.0)"><g clip-path="url(#i0)"><g transform="translate(256.0 624.5)"><g transform="translate(0.0 145.0)"><g transform="translate(624.0 0.0)"><g transform="translate(16.0 16.0)"><g clip-path="url(#i1)"><polygon points="0,0 24,0 24,24 0,24 0,0" stroke="none" fill="#7642FF"></polygon></g><g transform="translate(4.0 4.0)"><g clip-path="url(#i2)"><polygon points="0,0 16,0 16,16 0,16 0,0" stroke="none" fill="#FFFFFF"></polygon></g></g></g></g></g></g></g></g></svg>