<?xml version="1.0" encoding="UTF-8"?><svg version="1.1" width="24px" height="25px" viewBox="0 0 24.0 25.0" xmlns="http://www.w3.org/2000/svg" xmlns:xlink="http://www.w3.org/1999/xlink"><defs><clipPath id="i0"><path d="M1440,0 L1440,1069 L0,1069 L0,0 L1440,0 Z"></path></clipPath><clipPath id="i1"><path d="M20,0 C22.209139,-4.05812251e-16 24,1.790861 24,4 L24,20 C24,22.209139 22.209139,24 20,24 L4,24 C1.790861,24 2.705415e-16,22.209139 0,20 L0,4 C-2.705415e-16,1.790861 1.790861,4.05812251e-16 4,0 L20,0 Z"></path></clipPath><clipPath id="i2"><path d="M1.71435829,9.23618867 C2.02986291,9.23618867 2.28566459,9.49423147 2.28566459,9.81247747 L2.28566459,11.5417317 C2.28566459,12.1784637 2.79728628,12.6945124 3.4284969,12.6945124 L12.5714848,12.6945124 C13.2027137,12.6945124 13.7143171,12.1784638 13.7143171,11.5417317 L13.7143171,9.81247747 C13.7143171,9.49423145 13.9701371,9.23618867 14.2858248,9.23618867 L15.4286754,9.23618867 C15.74418,9.23618867 16,9.49423147 16,9.81247747 L16,12.6945124 C16,13.967995 14.976775,15 13.7143171,15 L2.28566459,15 C1.02342643,15 0,13.967995 0,12.6944939 L0,9.81247747 C0,9.49423145 0.256003083,9.23618867 0.5713063,9.23618867 L1.71435829,9.23618867 Z M8.57149852,0 C8.88705807,0 9.14304283,0.258301337 9.14304283,0.576547348 L9.14304283,6.38013713 L11.8083089,3.6916943 C12.0394861,3.45854535 12.4143824,3.45854535 12.6455596,3.6916943 L13.4831216,4.53660762 C13.7142988,4.76981197 13.7142988,5.14792877 13.4831216,5.3813178 L8.7635695,10.1419331 C8.7431559,10.1624686 8.37596732,10.388877 8.00649024,10.3890434 C7.63298536,10.3892279 7.25722858,10.1627087 7.23679666,10.1419331 L2.51704319,5.3813178 C2.28584767,5.14791031 2.28584767,4.76981197 2.51704319,4.53660762 L3.35466005,3.6916943 C3.58583724,3.45854535 3.96089832,3.45854535 4.19209384,3.6916943 L6.85735994,6.38013713 L6.85735994,0.576547348 C6.85735994,0.258301337 7.11321654,0 7.42868454,0 L8.57149852,0 Z"></path></clipPath></defs><g transform="translate(-417.0 -970.0)"><g clip-path="url(#i0)"><g transform="translate(256.0 624.5)"><g transform="translate(0.0 290.0)"><g transform="translate(161.0 56.0)"><g clip-path="url(#i1)"><polygon points="0,0 24,0 24,24 0,24 0,0" stroke="none" fill="#00BED1"></polygon></g><g transform="translate(4.0 4.0)"><g clip-path="url(#i2)"><polygon points="0,0 16,0 16,15 0,15 0,0" stroke="none" fill="#FFFFFF"></polygon></g></g></g></g></g></g></g></svg>