<?xml version="1.0" encoding="UTF-8"?><svg version="1.1" width="24px" height="25px" viewBox="0 0 24.0 25.0" xmlns="http://www.w3.org/2000/svg" xmlns:xlink="http://www.w3.org/1999/xlink"><defs><clipPath id="i0"><path d="M1440,0 L1440,1069 L0,1069 L0,0 L1440,0 Z"></path></clipPath><clipPath id="i1"><path d="M20,0 C22.209139,-4.05812251e-16 24,1.790861 24,4 L24,20 C24,22.209139 22.209139,24 20,24 L4,24 C1.790861,24 2.705415e-16,22.209139 0,20 L0,4 C-2.705415e-16,1.790861 1.790861,4.05812251e-16 4,0 L20,0 Z"></path></clipPath><clipPath id="i2"><path d="M1.43544304,0 L1.43544304,10.3646659 C1.43651721,11.2949011 2.17376842,12.0487318 3.0835443,12.0498301 L11.7670886,12.0498301 L11.7670886,12.2129105 C11.7670886,12.9934897 11.1482215,13.6262741 10.3848101,13.6262741 L1.38227848,13.6262741 C0.618867156,13.6262741 0,12.9934897 0,12.2129105 L0,1.41336353 C0,0.632784408 0.618867156,0 1.38227848,0 L1.43544304,0 Z"></path></clipPath><clipPath id="i3"><path d="M8.18734177,0 L11.7670886,3.66024915 L11.7670886,12.2129105 C11.7670886,12.9934897 11.1482215,13.6262741 10.3848101,13.6262741 L1.38227848,13.6262741 C0.618867156,13.6262741 0,12.9934897 0,12.2129105 L0,1.41336353 C0,0.632784408 0.618867156,0 1.38227848,0 L8.18734177,0 Z M9.00253165,9.06002265 L2.76455696,9.06002265 C2.47093722,9.06002265 2.23291139,9.30340127 2.23291139,9.60362401 C2.23291139,9.90384675 2.47093722,10.1472254 2.76455696,10.1472254 L9.00253165,10.1472254 C9.29615139,10.1472254 9.53417722,9.90384675 9.53417722,9.60362401 C9.53417722,9.30340127 9.29615139,9.06002265 9.00253165,9.06002265 Z M9.00253165,6.83125708 L2.76455696,6.83125708 C2.47093722,6.83125708 2.23291139,7.0746357 2.23291139,7.37485844 C2.23291139,7.67508118 2.47093722,7.9184598 2.76455696,7.9184598 L9.00253165,7.9184598 C9.29615139,7.9184598 9.53417722,7.67508118 9.53417722,7.37485844 C9.53417722,7.0746357 9.29615139,6.83125708 9.00253165,6.83125708 Z M9.00253165,4.60249151 L2.76455696,4.60249151 C2.47093722,4.60249151 2.23291139,4.84587012 2.23291139,5.14609287 C2.23291139,5.44631561 2.47093722,5.68969422 2.76455696,5.68969422 L9.00253165,5.68969422 C9.29615139,5.68969422 9.53417722,5.44631561 9.53417722,5.14609287 C9.53417722,4.84587012 9.29615139,4.60249151 9.00253165,4.60249151 Z"></path></clipPath></defs><g transform="translate(-480.0 -640.0)"><g clip-path="url(#i0)"><g transform="translate(256.0 624.5)"><g transform="translate(208.0 0.0)"><g transform="translate(16.0 16.0)"><g clip-path="url(#i1)"><polygon points="0,0 24,0 24,24 0,24 0,0" stroke="none" fill="#7533FF"></polygon></g><g transform="translate(5.0 4.0)"><g transform="translate(0.0 2.373725934314832)"><g clip-path="url(#i2)"><polygon points="0,0 11.7670886,0 11.7670886,13.6262741 0,13.6262741 0,0" stroke="none" fill="#FFFFFF"></polygon></g></g><g transform="translate(2.2329113924050636 0.0)"><g clip-path="url(#i3)"><polygon points="0,0 11.7670886,0 11.7670886,13.6262741 0,13.6262741 0,0" stroke="none" fill="#FFFFFF"></polygon></g></g></g></g></g></g></g></g></svg>