<?xml version="1.0" encoding="UTF-8"?><svg version="1.1" width="23px" height="23px" viewBox="0 0 23.0 23.0" xmlns="http://www.w3.org/2000/svg" xmlns:xlink="http://www.w3.org/1999/xlink"><defs><clipPath id="i0"><path d="M1440,0 L1440,1255 L0,1255 L0,0 L1440,0 Z"></path></clipPath><clipPath id="i1"><path d="M5.99240331,0 C6.54468806,-2.12475365e-16 6.99240331,0.44771525 6.99240331,1 L6.99240331,5.8877551 C6.99240331,6.44003985 6.54468806,6.8877551 5.99240331,6.8877551 L1,6.8877551 C0.44771525,6.8877551 1.14073562e-16,6.44003985 0,5.8877551 L0,1 C-6.76353751e-17,0.44771525 0.44771525,1.01453063e-16 1,0 L5.99240331,0 Z"></path></clipPath><clipPath id="i2"><path d="M5.99240331,0 C6.54468806,-1.01453063e-16 6.99240331,0.44771525 6.99240331,1 L6.99240331,5.8877551 C6.99240331,6.44003985 6.54468806,6.8877551 5.99240331,6.8877551 L1,6.8877551 C0.44771525,6.8877551 -2.65431532e-16,6.44003985 0,5.8877551 L0,1 C-6.76353751e-17,0.44771525 0.44771525,1.01453063e-16 1,0 L5.99240331,0 Z"></path></clipPath><clipPath id="i3"><path d="M5.99240331,0 C6.54468806,-2.12475365e-16 6.99240331,0.44771525 6.99240331,1 L6.99240331,5.8877551 C6.99240331,6.44003985 6.54468806,6.8877551 5.99240331,6.8877551 L1,6.8877551 C0.44771525,6.8877551 -4.33869274e-17,6.44003985 0,5.8877551 L0,1 C-1.78657678e-16,0.44771525 0.44771525,-9.5692398e-18 1,0 L5.99240331,0 Z"></path></clipPath></defs><g transform="translate(-1325.0 -223.0)"><g clip-path="url(#i0)"><g transform="translate(1325.0 223.0)"><g transform="translate(3.999999999998181 3.9999999999997726)"><g transform=""><g clip-path="url(#i1)"><path d="M1,0 L5.99240331,0 C6.54468806,-2.12475365e-16 6.99240331,0.44771525 6.99240331,1 L6.99240331,5.8877551 C6.99240331,6.44003985 6.54468806,6.8877551 5.99240331,6.8877551 L1,6.8877551 C0.44771525,6.8877551 1.14073562e-16,6.44003985 0,5.8877551 L0,1 C-6.76353751e-17,0.44771525 0.44771525,1.01453063e-16 1,0 Z" stroke="#000000" stroke-width="2" fill="none" stroke-miterlimit="5"></path></g></g><g transform="translate(8.007596685083143 0.0)"><g clip-path="url(#i1)"><path d="M1,0 L5.99240331,0 C6.54468806,-2.12475365e-16 6.99240331,0.44771525 6.99240331,1 L6.99240331,5.8877551 C6.99240331,6.44003985 6.54468806,6.8877551 5.99240331,6.8877551 L1,6.8877551 C0.44771525,6.8877551 1.14073562e-16,6.44003985 0,5.8877551 L0,1 C-6.76353751e-17,0.44771525 0.44771525,1.01453063e-16 1,0 Z" stroke="#000000" stroke-width="2" fill="none" stroke-miterlimit="5"></path></g></g><g transform="translate(0.0 8.112244897959044)"><g clip-path="url(#i2)"><path d="M1,0 L5.99240331,0 C6.54468806,-1.01453063e-16 6.99240331,0.44771525 6.99240331,1 L6.99240331,5.8877551 C6.99240331,6.44003985 6.54468806,6.8877551 5.99240331,6.8877551 L1,6.8877551 C0.44771525,6.8877551 -2.65431532e-16,6.44003985 0,5.8877551 L0,1 C-6.76353751e-17,0.44771525 0.44771525,1.01453063e-16 1,0 Z" stroke="#000000" stroke-width="2" fill="none" stroke-miterlimit="5"></path></g></g><g transform="translate(8.007596685081296 8.112244897959044)"><g clip-path="url(#i3)"><path d="M1,0 L5.99240331,0 C6.54468806,-2.12475365e-16 6.99240331,0.44771525 6.99240331,1 L6.99240331,5.8877551 C6.99240331,6.44003985 6.54468806,6.8877551 5.99240331,6.8877551 L1,6.8877551 C0.44771525,6.8877551 -4.33869274e-17,6.44003985 0,5.8877551 L0,1 C-1.78657678e-16,0.44771525 0.44771525,-9.5692398e-18 1,0 Z" stroke="#000000" stroke-width="2" fill="none" stroke-miterlimit="5"></path></g></g></g></g></g></g></svg>