<?xml version="1.0" encoding="UTF-8"?><svg version="1.1" width="23px" height="23px" viewBox="0 0 23.0 23.0" xmlns="http://www.w3.org/2000/svg" xmlns:xlink="http://www.w3.org/1999/xlink"><defs><clipPath id="i0"><path d="M1440,0 L1440,1255 L0,1255 L0,0 L1440,0 Z"></path></clipPath><clipPath id="i1"><path d="M1440,0 L1440,1548 L0,1548 L0,0 L1440,0 Z"></path></clipPath><clipPath id="i2"><path d="M1149,0 C1154.52285,-1.01453063e-15 1159,4.4771525 1159,10 L1159,1079 C1159,1084.52285 1154.52285,1089 1149,1089 L10,1089 C4.4771525,1089 6.76353751e-16,1084.52285 0,1079 L0,10 C-6.76353751e-16,4.4771525 4.4771525,1.01453063e-15 10,0 L1149,0 Z"></path></clipPath><clipPath id="i3"><path d="M5.27472527,0 C5.67528344,3.74409603e-17 6,0.324716555 6,0.725274725 C6,1.1258329 5.67528344,1.45054945 5.27472527,1.45054945 L0.725274725,1.45054945 C0.324716555,1.45054945 4.90542281e-17,1.1258329 0,0.725274725 C-4.90542281e-17,0.324716555 0.324716555,7.35813422e-17 0.725274725,0 L5.27472527,0 Z"></path></clipPath><clipPath id="i4"><path d="M5.27472527,0 C5.67528344,-7.35813422e-17 6,0.324716555 6,0.725274725 C6,1.1258329 5.67528344,1.45054945 5.27472527,1.45054945 L0.725274725,1.45054945 C0.324716555,1.45054945 4.90542281e-17,1.1258329 0,0.725274725 C-4.90542281e-17,0.324716555 0.324716555,7.35813422e-17 0.725274725,0 L5.27472527,0 Z"></path></clipPath><clipPath id="i5"><path d="M5.27472527,0 C5.67528344,-4.0664825e-16 6,0.324716555 6,0.725274725 C6,1.1258329 5.67528344,1.45054945 5.27472527,1.45054945 L0.725274725,1.45054945 C0.324716555,1.45054945 4.90542281e-17,1.1258329 0,0.725274725 C-4.90542281e-17,0.324716555 0.324716555,7.35813422e-17 0.725274725,0 L5.27472527,0 Z"></path></clipPath><clipPath id="i6"><path d="M5.27472527,0 C5.67528344,-2.81809117e-17 6,0.324716555 6,0.725274725 C6,1.1258329 5.67528344,1.45054945 5.27472527,1.45054945 L0.725274725,1.45054945 C0.324716555,1.45054945 4.90542281e-17,1.1258329 0,0.725274725 C-4.90542281e-17,0.324716555 0.324716555,7.35813422e-17 0.725274725,0 L5.27472527,0 Z"></path></clipPath><clipPath id="i7"><path d="M6,0 C6.55228475,-5.91980459e-16 7,0.44771525 7,1 L7,14 C7,14.5522847 6.55228475,15 6,15 L1,15 C0.44771525,15 6.76353751e-17,14.5522847 0,14 L0,1 C-6.76353751e-17,0.44771525 0.44771525,1.01453063e-16 1,0 L6,0 Z"></path></clipPath></defs><g transform="translate(-1356.0 -223.0)"><g clip-path="url(#i0)"><g clip-path="url(#i1)"><polygon points="0,0 1440,0 1440,1255 0,1255 0,0" stroke="none" fill="#FAFAFA"></polygon></g><g transform="translate(243.0 134.0)"><g clip-path="url(#i2)"><polygon points="0,0 1159,0 1159,1089 0,1089 0,0" stroke="none" fill="#FFFFFF"></polygon></g></g><g transform="translate(1356.0 223.0)"><g transform="translate(4.0 4.0)"><g transform="translate(0.0 0.9999999999999999)"><g clip-path="url(#i3)"><polygon points="0,0 6,0 6,1.45054945 0,1.45054945 0,0" stroke="none" fill="#000000"></polygon></g></g><g transform="translate(0.0 8.648351648351763)"><g clip-path="url(#i4)"><polygon points="0,0 6,0 6,1.45054945 0,1.45054945 0,0" stroke="none" fill="#000000"></polygon></g></g><g transform="translate(0.0 4.901098901098976)"><g clip-path="url(#i5)"><polygon points="0,0 6,0 6,1.45054945 0,1.45054945 0,0" stroke="none" fill="#000000"></polygon></g></g><g transform="translate(0.0 12.54945054945051)"><g clip-path="url(#i6)"><polygon points="0,0 6,0 6,1.45054945 0,1.45054945 0,0" stroke="none" fill="#000000"></polygon></g></g><g transform="translate(8.0 0.0)"><g clip-path="url(#i7)"><path d="M1,0 L6,0 C6.55228475,-5.91980459e-16 7,0.44771525 7,1 L7,14 C7,14.5522847 6.55228475,15 6,15 L1,15 C0.44771525,15 6.76353751e-17,14.5522847 0,14 L0,1 C-6.76353751e-17,0.44771525 0.44771525,1.01453063e-16 1,0 Z" stroke="#000000" stroke-width="2" fill="none" stroke-miterlimit="5"></path></g></g></g></g></g></g></svg>