<?xml version="1.0" encoding="UTF-8"?><svg version="1.1" width="23px" height="23px" viewBox="0 0 23.0 23.0" xmlns="http://www.w3.org/2000/svg" xmlns:xlink="http://www.w3.org/1999/xlink"><defs><clipPath id="i0"><path d="M1440,0 L1440,1255 L0,1255 L0,0 L1440,0 Z"></path></clipPath><clipPath id="i1"><path d="M6.27472527,0 C6.67528344,-1.39203214e-16 7,0.324716555 7,0.725274725 C7,1.1258329 6.67528344,1.45054945 6.27472527,1.45054945 L0.725274725,1.45054945 C0.324716555,1.45054945 4.90542281e-17,1.1258329 0,0.725274725 C-4.90542281e-17,0.324716555 0.324716555,7.35813422e-17 0.725274725,0 L6.27472527,0 Z"></path></clipPath><clipPath id="i2"><path d="M6.27472527,0 C6.67528344,-7.82636814e-16 7,0.324716555 7,0.725274725 C7,1.1258329 6.67528344,1.45054945 6.27472527,1.45054945 L0.725274725,1.45054945 C0.324716555,1.45054945 4.90542281e-17,1.1258329 0,0.725274725 C-4.90542281e-17,0.324716555 0.324716555,7.35813422e-17 0.725274725,0 L6.27472527,0 Z"></path></clipPath><clipPath id="i3"><path d="M6.27472527,0 C6.67528344,-4.0664825e-16 7,0.324716555 7,0.725274725 C7,1.1258329 6.67528344,1.45054945 6.27472527,1.45054945 L0.725274725,1.45054945 C0.324716555,1.45054945 4.90542281e-17,1.1258329 0,0.725274725 C-4.90542281e-17,0.324716555 0.324716555,7.35813422e-17 0.725274725,0 L6.27472527,0 Z"></path></clipPath><clipPath id="i4"><path d="M6.27472527,0 C6.67528344,-2.81809117e-17 7,0.324716555 7,0.725274725 C7,1.1258329 6.67528344,1.45054945 6.27472527,1.45054945 L0.725274725,1.45054945 C0.324716555,1.45054945 4.90542281e-17,1.1258329 0,0.725274725 C-4.90542281e-17,0.324716555 0.324716555,7.35813422e-17 0.725274725,0 L6.27472527,0 Z"></path></clipPath><clipPath id="i5"><path d="M5.8877551,0 C6.44003985,-1.01453063e-16 6.8877551,0.44771525 6.8877551,1 L6.8877551,5.8877551 C6.8877551,6.44003985 6.44003985,6.8877551 5.8877551,6.8877551 L1,6.8877551 C0.44771525,6.8877551 6.76353751e-17,6.44003985 0,5.8877551 L0,1 C-6.76353751e-17,0.44771525 0.44771525,1.01453063e-16 1,0 L5.8877551,0 Z"></path></clipPath><clipPath id="i6"><path d="M5.8877551,0 C6.44003985,-1.01453063e-16 6.8877551,0.44771525 6.8877551,1 L6.8877551,5.8877551 C6.8877551,6.44003985 6.44003985,6.8877551 5.8877551,6.8877551 L1,6.8877551 C0.44771525,6.8877551 6.76353751e-17,6.44003985 0,5.8877551 L0,1 C-6.76353751e-17,0.44771525 0.44771525,1.01453063e-16 1,0 L5.8877551,0 Z"></path></clipPath></defs><g transform="translate(-1294.0 -223.0)"><g clip-path="url(#i0)"><g transform="translate(1294.0 223.0)"><g transform="translate(12.00000000000091 4.999999999999905)"><g clip-path="url(#i1)"><polygon points="0,0 7,0 7,1.45054945 0,1.45054945 0,0" stroke="none" fill="#000000"></polygon></g></g><g transform="translate(12.00000000000091 12.64835164835167)"><g clip-path="url(#i2)"><polygon points="0,0 7,0 7,1.45054945 0,1.45054945 0,0" stroke="none" fill="#000000"></polygon></g></g><g transform="translate(12.00000000000091 8.901098901098882)"><g clip-path="url(#i3)"><polygon points="0,0 7,0 7,1.45054945 0,1.45054945 0,0" stroke="none" fill="#000000"></polygon></g></g><g transform="translate(12.00000000000091 16.549450549450416)"><g clip-path="url(#i4)"><polygon points="0,0 7,0 7,1.45054945 0,1.45054945 0,0" stroke="none" fill="#000000"></polygon></g></g><g transform="translate(4.000000000001197 4.000000000000062)"><g clip-path="url(#i5)"><path d="M1,0 L5.8877551,0 C6.44003985,-1.01453063e-16 6.8877551,0.44771525 6.8877551,1 L6.8877551,5.8877551 C6.8877551,6.44003985 6.44003985,6.8877551 5.8877551,6.8877551 L1,6.8877551 C0.44771525,6.8877551 6.76353751e-17,6.44003985 0,5.8877551 L0,1 C-6.76353751e-17,0.44771525 0.44771525,1.01453063e-16 1,0 Z" stroke="#000000" stroke-width="2" fill="none" stroke-miterlimit="5"></path></g></g><g transform="translate(4.000000000000288 12.112244897959105)"><g clip-path="url(#i6)"><path d="M1,0 L5.8877551,0 C6.44003985,-1.01453063e-16 6.8877551,0.44771525 6.8877551,1 L6.8877551,5.8877551 C6.8877551,6.44003985 6.44003985,6.8877551 5.8877551,6.8877551 L1,6.8877551 C0.44771525,6.8877551 6.76353751e-17,6.44003985 0,5.8877551 L0,1 C-6.76353751e-17,0.44771525 0.44771525,1.01453063e-16 1,0 Z" stroke="#000000" stroke-width="2" fill="none" stroke-miterlimit="5"></path></g></g></g></g></g></svg>