<?xml version="1.0" encoding="UTF-8"?><svg version="1.1" width="24px" height="24px" viewBox="0 0 24.0 24.0" xmlns="http://www.w3.org/2000/svg" xmlns:xlink="http://www.w3.org/1999/xlink"><defs><clipPath id="i0"><path d="M1440,0 L1440,1255 L0,1255 L0,0 L1440,0 Z"></path></clipPath><clipPath id="i1"><path d="M24,0 L24,24 L0,24 L0,0 L24,0 Z"></path></clipPath><clipPath id="i2"><path d="M0,0 C5.15465511,0 9.33328404,4.17867374 9.33328404,9.33328404 L0,9.33328404 L0,0 Z"></path></clipPath><clipPath id="i3"><path d="M8.66666891,0 C8.89158514,0 9.11266986,0.0166928262 9.33326163,0.0336993432 L9.33326163,8.00003137 L17.3333826,8.00003137 L17.3333826,9.33332885 L17.2996833,9.33328404 C16.9580517,13.8072976 13.2280677,17.333293 8.66666891,17.333293 C3.88033148,17.333293 0,13.4529839 0,8.66662409 C0,3.87995057 3.88030907,0 8.66666891,0 Z"></path></clipPath><clipPath id="i4"><path d="M6.66662185,0 L6.66662185,7.96633203 L14.6330435,7.96633203 C14.2956468,11.7037102 11.1583589,14.6330435 7.33334902,14.6330435 C3.28333328,14.6330435 0,11.3497102 0,7.29969449 C0,3.47461738 2.92928852,0.337307122 6.66662185,0 Z"></path></clipPath></defs><g transform="translate(-786.0 -663.0)"><g clip-path="url(#i0)"><g transform="translate(785.9999999125776 663.0)"><g clip-path="url(#i1)"><g transform="translate(2.0 2.0)"><g transform="translate(10.66671596091862 0.0)"><g clip-path="url(#i2)"><polygon points="0,0 9.33328404,0 9.33328404,9.33328404 0,9.33328404 0,0" stroke="none" fill="#44B044"></polygon></g></g><g transform="translate(0.0 2.6666845918491617)"><g clip-path="url(#i3)"><polygon points="0,0 17.3333826,0 17.3333826,17.333293 0,17.333293 0,0" stroke="none" fill="#44B044"></polygon></g></g><g transform="translate(1.333409515359107 4.033636605015203)"><g clip-path="url(#i4)"><polygon points="0,0 14.6330435,0 14.6330435,14.6330435 0,14.6330435 0,0" stroke="none" fill="#44B044"></polygon></g></g></g></g></g></g></g></svg>