<?xml version="1.0" encoding="UTF-8"?><svg version="1.1" width="24px" height="24px" viewBox="0 0 24.0 24.0" xmlns="http://www.w3.org/2000/svg" xmlns:xlink="http://www.w3.org/1999/xlink"><defs><clipPath id="i0"><path d="M1440,0 L1440,1255 L0,1255 L0,0 L1440,0 Z"></path></clipPath><clipPath id="i1"><path d="M24,0 L24,24 L0,24 L0,0 L24,0 Z"></path></clipPath><clipPath id="i2"><path d="M8.66666891,2.66668459 C8.89158514,2.66668459 9.11266986,2.68337742 9.33326163,2.70038394 L9.33326163,10.666716 L17.3333826,10.666716 L17.3333826,11.9999686 L17.2996833,11.9999686 C16.9580517,16.4739822 13.2280677,19.9999776 8.66666891,19.9999776 C3.88033148,19.9999776 0,16.1196685 0,11.3333087 C0,6.54663516 3.88030907,2.66668459 8.66666891,2.66668459 Z M8.00003137,4.03363661 C4.26269803,4.37094373 1.33340952,7.50825399 1.33340952,11.3333311 C1.33340952,15.3833468 4.61674279,18.6666801 8.66675853,18.6666801 C12.4917684,18.6666801 15.6290563,15.7373468 15.966453,11.9999686 L8.00003137,11.9999686 L8.00003137,4.03363661 Z M10.666716,0 C15.8213711,0 20,4.17867374 20,9.33328404 L10.666716,9.33328404 L10.666716,0 Z"></path></clipPath></defs><g transform="translate(-45.0 -609.0)"><g clip-path="url(#i0)"><g transform="translate(45.0 609.0)"><g clip-path="url(#i1)"><g transform="translate(2.0 2.000000000000009)"><g clip-path="url(#i2)"><polygon points="0,0 20,0 20,19.9999776 0,19.9999776 0,0" stroke="none" fill="#505050"></polygon></g></g></g></g></g></g></svg>