<?xml version="1.0" encoding="UTF-8"?><svg version="1.1" width="17px" height="19px" viewBox="0 0 17.0 19.0" xmlns="http://www.w3.org/2000/svg" xmlns:xlink="http://www.w3.org/1999/xlink"><defs><clipPath id="i0"><path d="M1440,0 L1440,1024 L0,1024 L0,0 L1440,0 Z"></path></clipPath><clipPath id="i1"><path d="M8.42403932,0 C9.24694668,0 10.0546619,0.177238808 10.8269288,0.524120478 C11.5586834,0.853278258 12.194221,1.31916312 12.7689902,1.90911514 C13.9362526,3.10674306 14.5793864,4.70695628 14.5793864,6.29450959 L14.5793864,6.73760661 L14.9515937,6.73760661 C16.0808758,6.73760661 17,7.65418443 17,8.77838485 L17,16.9566898 C17,18.0834222 16.0808758,19 14.9515937,19 L2.04840631,19 C0.919124211,19 0,18.0834222 0,16.9566898 L0,8.77838485 C0,7.65165243 0.919124211,6.73507461 2.04840631,6.73507461 L2.29907656,6.73507461 L2.29907656,6.29197759 C2.29907656,5.48174306 2.458594,4.68416842 2.76243671,3.92204157 C3.05868335,3.18017058 3.48406315,2.50413113 4.02338398,1.92177505 C5.1678582,0.683635396 6.68960383,0 8.30503427,0 Z M14.9262735,8.10487737 L2.07879057,8.10487737 C1.70405121,8.10487737 1.4002085,8.40871534 1.4002085,8.78091682 L1.4002085,16.9592217 C1.4002085,17.3314232 1.70405121,17.6352612 2.07879057,17.6352612 L14.9262735,17.6352612 C15.3010128,17.6352612 15.6048555,17.3314232 15.6048555,16.9592217 L15.6048555,8.78091682 C15.6048555,8.40871532 15.3010128,8.10487737 14.9262735,8.10487737 Z M8.4240393,1.36727079 L8.30503424,1.36727079 C7.0820673,1.36727079 5.91227284,1.89392324 5.03366099,2.84594882 C4.17277329,3.78025052 3.66636876,5.03611406 3.66636876,6.29450959 L3.66636876,6.73760661 L13.2120941,6.73760661 L13.2120941,6.29450959 C13.2120941,5.05636993 12.7031576,3.80303838 11.7815013,2.85860874 C10.8598451,1.91164713 9.64700624,1.36727079 8.4240393,1.36727079 Z"></path></clipPath><clipPath id="i2"><path d="M2.48658798,0 C3.87339054,0 5,1.10246783 5,2.48658798 C5,3.87070815 3.87339054,5 2.48658798,5 C1.10246781,5 0,3.87339054 0,2.48658798 C0,1.10246781 1.09978541,0 2.48658798,0 Z M2.48658798,1.41094421 C1.89109442,1.41094421 1.40826179,1.89377684 1.40826179,2.4892704 C1.40826179,3.08476396 1.89109442,3.56759658 2.48658798,3.56759658 C3.07939914,3.56759658 3.56491416,3.08208156 3.56491416,2.4892704 C3.56491416,1.89377684 3.08208154,1.41094421 2.48658798,1.41094421 Z"></path></clipPath></defs><g transform="translate(-1269.0 -145.0)"><g clip-path="url(#i0)"><g transform="translate(1269.0 145.0)"><g clip-path="url(#i1)"><polygon points="0,0 17,0 17,19 0,19 0,0" stroke="none" fill="#1A67E3"></polygon></g><g transform="translate(6.0 11.0)"><g clip-path="url(#i2)"><polygon points="0,0 5,0 5,5 0,5 0,0" stroke="none" fill="#1A67E3"></polygon></g></g></g></g></g></svg>