<?xml version="1.0" encoding="UTF-8"?><svg version="1.1" width="24px" height="24px" viewBox="0 0 24.0 24.0" xmlns="http://www.w3.org/2000/svg" xmlns:xlink="http://www.w3.org/1999/xlink"><defs><clipPath id="i0"><path d="M1440,0 L1440,1255 L0,1255 L0,0 L1440,0 Z"/></clipPath><clipPath id="i1"><path d="M24,0 L24,24 L0,24 L0,0 L24,0 Z"/></clipPath><clipPath id="i2"><path d="M15.9135867,0 C17.065227,0 18,0.942857142 18,2.10357143 L18,8.76428571 C18,9.15357143 17.6709599,9.46428571 17.267138,9.46428571 C16.8595769,9.46428571 16.5342759,9.14999999 16.5342759,8.76428571 L16.5342759,2.10357143 C16.5342759,1.71785715 16.2575831,1.40357143 15.9173258,1.40357143 L2.08642447,1.40357143 C1.74616709,1.40357143 1.46947429,1.71785715 1.46947429,2.10357143 L1.46947429,17.8928571 C1.46947429,18.2785714 1.74616709,18.5928571 2.08642447,18.5928571 L8.40175085,18.5928571 C8.80931189,18.5928571 9.13461289,18.9071429 9.13461287,19.2928571 C9.13461287,19.6857143 8.80557276,20 8.39801175,20 L2.08642447,20 C0.934784141,20 0,19.0571429 0,17.8964286 L0,2.10357143 C-0.0037279653,0.942857142 0.934784119,0 2.08642447,0 L15.9135867,0 Z"/></clipPath><clipPath id="i3"><path d="M7.28945129,3.91121235 C7.54387806,3.91121235 7.77739302,4.0540695 7.89589317,4.28621235 C8.01439331,4.5183552 7.99696681,4.79692663 7.85406959,5.01121234 L6.91303909,6.4183552 C6.77711246,6.61121235 6.56450927,6.7183552 6.34493548,6.7183552 C6.21249416,6.7183552 6.07656753,6.67906949 5.95806739,6.59692662 C5.64439055,6.37906947 5.56771399,5.93978376 5.78031718,5.62192662 L5.98594976,5.31121234 L0.684811269,5.31121234 C0.304913763,5.31121234 0.00169284427,4.99692662 0.00169284427,4.61121235 C0.00169284427,4.22549809 0.308399089,3.91121235 0.684811269,3.91121235 L7.28945129,3.91121235 Z M2.01270987,0.121926642 C2.3263867,0.339783792 2.40306327,0.779069506 2.19046007,1.09692664 L1.98482749,1.40764093 L7.28945129,1.40764093 C7.66934879,1.40764093 7.97256971,1.72192665 7.97256971,2.10764091 C7.97256971,2.49335518 7.66586347,2.81121235 7.28945129,2.81121235 L0.684811269,2.81121235 C0.430384497,2.81121235 0.196869534,2.66835521 0.0783693901,2.43621236 C-0.040130754,2.20406951 -0.0227042496,1.92549808 0.120192968,1.71121234 L1.06122347,0.304069499 C1.27382666,-0.0137876363 1.70251834,-0.0959305073 2.01270987,0.121926642 Z"/></clipPath><clipPath id="i4"><path d="M1.00376585,0.275604894 C1.62489834,-0.0918682979 2.39016513,-0.0918682979 3.01129762,0.275604894 C3.63243011,0.643078085 4.01506348,1.32219655 4.01506348,2.05714292 C4.01506348,3.19327154 3.1162609,4.11428577 2.00753174,4.11428577 C0.898802574,4.11428577 0,3.19327154 0,2.05714292 C0,1.32219655 0.382633362,0.643078085 1.00376585,0.275604894 Z"/></clipPath><clipPath id="i5"><path d="M4.44915041,0 C6.65534414,0 8.49558157,1.62142858 8.88942025,3.76428572 C8.97306743,4.21428572 8.6210523,4.62857143 8.17493414,4.62857143 L0.726851976,4.62857143 C0.280733798,4.62857143 -0.0712813086,4.21428572 0.0123658471,3.76428572 C0.406204552,1.62142858 2.24295667,0 4.44915041,0 Z"/></clipPath></defs><g transform="translate(-45.0 -369.0)"><g clip-path="url(#i0)"><g transform="translate(45.0 369.0)"><g clip-path="url(#i1)"><g transform="translate(3.0 2.0)"><g clip-path="url(#i2)"><polygon points="-1.10679001e-05,0 18,0 18,20 -1.10679001e-05,20 -1.10679001e-05,0" stroke="none"/></g><path d="M8.39801175,20 L2.08642447,20 C0.934784141,20 0,19.0571429 0,17.8964286 L0,2.10357143 C-0.0037279653,0.942857142 0.934784119,0 2.08642447,0 L15.9135867,0 C17.065227,0 18,0.942857142 18,2.10357143 L18,8.76428571 C18,9.15357143 17.6709599,9.46428571 17.267138,9.46428571 C16.8595769,9.46428571 16.5342759,9.14999999 16.5342759,8.76428571 L16.5342759,2.10357143 C16.5342759,1.71785715 16.2575831,1.40357143 15.9173258,1.40357143 L2.08642447,1.40357143 C1.74616709,1.40357143 1.46947429,1.71785715 1.46947429,2.10357143 L1.46947429,17.8928571 C1.46947429,18.2785714 1.74616709,18.5928571 2.08642447,18.5928571 L8.40175085,18.5928571 C8.80931189,18.5928571 9.13461289,18.9071429 9.13461287,19.2928571 C9.13461287,19.6857143 8.80557276,20 8.39801175,20 Z" stroke="#505050" stroke-width="0.2" stroke-miterlimit="10"/><g transform="translate(2.3404378948500826 3.549501940471294)"><g clip-path="url(#i3)"><polygon points="1.38777878e-17,5.55111512e-17 7.97426256,5.55111512e-17 7.97426256,6.7183552 1.38777878e-17,6.7183552 1.38777878e-17,5.55111512e-17" stroke="none"/></g></g><g transform="translate(11.539832566066504 9.97857136727871)"><g clip-path="url(#i4)"><polygon points="0,-3.33066907e-16 4.01506348,-3.33066907e-16 4.01506348,4.11428577 0,4.11428577 0,-3.33066907e-16" stroke="none"/></g></g><g transform="translate(9.09821389739769 14.092857140002192)"><g clip-path="url(#i5)"><polygon points="8.29197822e-16,0 8.9017861,0 8.9017861,4.62857143 8.29197822e-16,4.62857143 8.29197822e-16,0" stroke="none"/></g></g></g></g></g></g></g></svg>