<?xml version="1.0" encoding="UTF-8"?><svg version="1.1" width="24px" height="24px" viewBox="0 0 24.0 24.0" xmlns="http://www.w3.org/2000/svg" xmlns:xlink="http://www.w3.org/1999/xlink"><defs><clipPath id="i0"><path d="M1440,0 L1440,1255 L0,1255 L0,0 L1440,0 Z"></path></clipPath><clipPath id="i1"><path d="M24,0 L24,24 L0,24 L0,0 L24,0 Z"></path></clipPath><clipPath id="i2"><path d="M16,0 C17.1045695,-2.02906125e-16 18,0.8954305 18,2 L18,18 C18,19.1045695 17.1045695,20 16,20 L2,20 C0.8954305,20 1.3527075e-16,19.1045695 0,18 L0,2 C-1.3527075e-16,0.8954305 0.8954305,2.02906125e-16 2,0 L16,0 Z M13.5473643,14.0928571 C11.3411706,14.0928571 9.50441845,15.7142857 9.11057974,17.8571429 C9.02693259,18.3071429 9.3789477,18.7214286 9.82506587,18.7214286 L17.273148,18.7214286 C17.7192662,18.7214286 18.0712813,18.3071429 17.9876341,17.8571429 C17.5937955,15.7142857 15.753558,14.0928571 13.5473643,14.0928571 Z M12.5435984,10.2541763 C11.9224659,10.6216495 11.5398326,11.3007679 11.5398326,12.0357143 C11.5398326,13.1718429 12.4386351,14.0928571 13.5473643,14.0928571 C14.6560935,14.0928571 15.554896,13.1718429 15.554896,12.0357143 C15.554896,11.3007679 15.1722627,10.6216495 14.5511302,10.2541763 C13.9299977,9.88670307 13.1647309,9.88670307 12.5435984,10.2541763 Z M9.62988918,7.46071429 L3.02524916,7.46071429 C2.64883698,7.46071429 2.34213074,7.77500003 2.34213074,8.16071429 C2.34213074,8.54642856 2.64535166,8.86071428 3.02524916,8.86071428 L8.32638766,8.86071428 L8.12075508,9.17142857 C7.90815188,9.4892857 7.98482845,9.92857141 8.29850528,10.1464286 C8.41700543,10.2285714 8.55293205,10.2678571 8.68537338,10.2678571 C8.90494716,10.2678571 9.11755035,10.1607143 9.25347698,9.96785714 L10.1945075,8.56071428 C10.3374047,8.34642857 10.3548312,8.06785714 10.2363311,7.83571429 C10.1178309,7.60357144 9.88431596,7.46071429 9.62988918,7.46071429 Z M3.40166136,3.85357144 L2.46063086,5.26071428 C2.31773365,5.47500002 2.30030714,5.75357145 2.41880728,5.9857143 C2.53730743,6.21785715 2.77082239,6.3607143 3.02524916,6.3607143 L9.62988918,6.3607143 C10.0063014,6.3607143 10.3130076,6.04285712 10.3130076,5.65714285 C10.3130076,5.27142859 10.0097867,4.95714287 9.62988918,4.95714287 L4.32526538,4.95714287 L4.53089797,4.64642858 C4.74350116,4.32857145 4.6668246,3.88928573 4.35314776,3.67142858 C4.04295623,3.45357143 3.61426456,3.5357143 3.40166136,3.85357144 Z"></path></clipPath></defs><g transform="translate(-284.0 -323.0)"><g clip-path="url(#i0)"><g transform="translate(284.0 322.9999999999999)"><g clip-path="url(#i1)"><g transform="translate(2.9999999999999645 2.0)"><g clip-path="url(#i2)"><polygon points="0,0 18,0 18,20 0,20 0,0" stroke="none" fill="#44B044"></polygon></g></g></g></g></g></g></svg>