<?xml version="1.0" encoding="UTF-8"?><svg version="1.1" width="23px" height="23px" viewBox="0 0 23.0 23.0" xmlns="http://www.w3.org/2000/svg" xmlns:xlink="http://www.w3.org/1999/xlink"><defs><clipPath id="i0"><path d="M1440,0 L1440,1255 L0,1255 L0,0 L1440,0 Z"></path></clipPath><clipPath id="i1"><path d="M12.4727371,0.0244412626 C12.7183118,0.0903362149 12.9100778,0.28223887 12.9757987,0.527861352 C13.0415196,0.773483834 12.9712109,1.03551024 12.7913571,1.21523776 L7.50698672,6.5 L12.7913571,11.784746 C12.9712109,11.9644736 13.0415196,12.2265 12.9757987,12.4721224 C12.9100778,12.7177449 12.7183118,12.9096476 12.4727371,12.9755425 C12.2271625,13.0414375 11.9650878,12.9713137 11.7852341,12.7915862 L6.50015186,7.50647615 L1.21506963,12.7915862 C1.03521591,12.9713773 0.773107313,13.0415598 0.527477614,12.9756966 C0.281847915,12.9098335 0.0900141096,12.7179308 0.0242381351,12.4722765 C-0.0415378394,12.2266223 0.0287369525,11.9645371 0.208590677,11.784746 L5.49367291,6.5 L0.208590677,1.21523776 C-0.0694390914,0.937304807 -0.0695187618,0.486606787 0.208412728,0.208575555 C0.486344218,-0.0694556764 0.937039867,-0.0695353472 1.21506963,0.208397605 L6.50015186,5.49350764 L11.7852341,0.208397605 C11.9650878,0.0286700724 12.2271625,-0.0414536897 12.4727371,0.0244412626 Z"></path></clipPath></defs><g transform="translate(-1205.0 -223.0)"><g clip-path="url(#i0)"><g transform="translate(1205.0 223.0)"><g transform="translate(4.0 4.0)"><g transform="translate(1.0 1.0)"><g clip-path="url(#i1)"><polygon points="0,0 13,0 13,13 0,13 0,0" stroke="none" fill="#000000"></polygon></g></g></g></g></g></g></svg>