<?xml version="1.0" encoding="UTF-8"?><svg version="1.1" width="24px" height="24px" viewBox="0 0 24.0 24.0" xmlns="http://www.w3.org/2000/svg" xmlns:xlink="http://www.w3.org/1999/xlink"><defs><clipPath id="i0"><path d="M1440,0 L1440,1183 L0,1183 L0,0 L1440,0 Z"></path></clipPath><clipPath id="i1"><path d="M13.4075857,0.0272523531 C13.6834039,0.101157705 13.8988424,0.3165965 13.9727477,0.59241503 C14.0466529,0.868233559 13.967797,1.16252843 13.7658841,1.3644416 L8.13032388,7 L13.7658841,12.6355766 C14.0780144,12.9477073 14.0780144,13.4537712 13.7658841,13.765902 C13.4537537,14.0780327 12.9476905,14.0780327 12.6355602,13.765902 L7,8.13033446 L1.36443983,13.765902 C1.0523095,14.0780327 0.546246281,14.0780327 0.234115968,13.7659019 C-0.0780143451,13.4537712 -0.078014355,12.9477073 0.234115946,12.6355766 L5.86967612,7 L0.234115946,1.3644416 C0.032203031,1.16252843 -0.0466529384,0.868233559 0.0272523176,0.59241503 C0.101157574,0.3165965 0.316596089,0.101157705 0.592414259,0.0272523531 C0.86823243,-0.0466529991 1.16252691,0.0322030729 1.36443983,0.23411625 L7,5.86968375 L12.6355602,0.23411625 C12.8374731,0.0322030729 13.1317676,-0.0466529991 13.4075857,0.0272523531 Z"></path></clipPath></defs><g transform="translate(-929.0 -395.0)"><g clip-path="url(#i0)"><g transform="translate(929.0 395.0)"><g transform="translate(5.0 5.0)"><g clip-path="url(#i1)"><polygon points="5.55111512e-17,-1.66533454e-16 14,-1.66533454e-16 14,14 5.55111512e-17,14 5.55111512e-17,-1.66533454e-16" stroke="none" fill="#000000"></polygon></g></g></g></g></g></svg>