<?xml version="1.0" encoding="UTF-8"?><svg version="1.1" width="24px" height="24px" viewBox="0 0 24.0 24.0" xmlns="http://www.w3.org/2000/svg" xmlns:xlink="http://www.w3.org/1999/xlink"><defs><clipPath id="i0"><path d="M1440,0 L1440,1255 L0,1255 L0,0 L1440,0 Z"/></clipPath><clipPath id="i1"><path d="M24,0 L24,24 L0,24 L0,0 L24,0 Z"/></clipPath><clipPath id="i2"><path d="M15.6372,0 C16.9423325,0.00066251005 18,1.05886734 18,2.36400001 L18.0010919,14.2564447 C17.531615,14.0903714 17.0263612,14 16.5,14 C16.3992362,14 16.2992459,14.0033119 16.2001321,14.0098327 L16.2,2.36400001 C16.2,2.05297944 15.9482199,1.80066175 15.6372,1.8 L2.36400001,1.8 C2.05278522,1.80066005 1.80066005,2.05278522 1.8,2.36400001 L1.8,17.502 C1.80066005,17.8132148 2.05278522,18.0653399 2.36400001,18.066 L12.0206849,18.0657298 C12.0070004,18.2086407 12,18.3535028 12,18.5 C12,18.9761931 12.0739655,19.4351106 12.2110345,19.8658904 L2.36400001,19.866 C1.05839885,19.866 0,18.8076011 0,17.502 L0,2.36400001 C0,1.05839885 1.05839885,0 2.36400001,0 L15.6372,0 Z"/></clipPath><clipPath id="i3"><path d="M2,0 C3.1045695,-2.02906125e-16 4,0.8954305 4,2 C4,3.1045695 3.1045695,4 2,4 C0.8954305,4 1.3527075e-16,3.1045695 0,2 C-1.3527075e-16,0.8954305 0.8954305,2.02906125e-16 2,0 Z"/></clipPath><clipPath id="i4"><path d="M17.382,0 L17.382,1.8 L0,1.8 L0,0 L17.382,0 Z"/></clipPath><clipPath id="i5"><path d="M0.154672395,5.7740216 C0.635875396,6.28662862 2.17400645,6.65879535 3.99570354,6.65879535 C5.81740063,6.65879535 7.34693877,6.28662862 7.82814177,5.7740216 L7.83673469,5.78104362 C7.93984962,5.66869139 8,5.72486751 8,5.78104362 L8,6.52537708 C8,7.25566654 6.20408162,8 3.99570354,8 C1.78732546,8 0,7.22055647 0,6.51835508 L0,5.7740216 C0,5.7248675 0.051557465,5.66869139 0.154672395,5.7740216 Z M8,3.48812436 L8,4.43319286 C8,5.1402441 6.19742488,5.71428571 3.9914163,5.71428571 C1.78540773,5.71428571 0,5.1332436 0,4.43319286 L0,3.48812436 C0,3.4391208 0.051502166,3.38311675 0.14592276,3.48812436 C0.61802575,3.97115937 2.17167382,4.32818525 3.9914163,4.32818525 C5.81115878,4.32818525 7.35622316,3.97115937 7.82832617,3.48812436 L7.84549356,3.48812436 C7.93991416,3.38311675 8,3.4391208 8,3.48812436 Z M3.9914163,0 L4.0085837,0.026239067 C6.20600859,0.026239067 8,0.629737607 8,1.37317784 L8,1.99416909 C8,2.7813411 6.19742488,3.42857143 3.9914163,3.42857143 C1.78540773,3.42857143 0,2.7813411 0,1.99416909 L0,1.34693878 C0,0.60349854 1.78540773,0 3.9914163,0 Z"/></clipPath></defs><g transform="translate(-45.0 -474.0)"><g clip-path="url(#i0)"><g transform="translate(45.0 474.0)"><g clip-path="url(#i1)"><g transform="translate(3.0 2.0)"><g clip-path="url(#i2)"><polygon points="0,0 18.0010919,0 18.0010919,19.866 0,19.866 0,0" stroke="none"/></g><g transform="translate(14.397740125014018 16.41826045108382)"><g clip-path="url(#i3)"><polygon points="0,0 4,0 4,4 0,4 0,0" stroke="none"/></g></g><g transform="translate(0.30839999729687406 5.032799998991322)"><g clip-path="url(#i4)"><polygon points="0,0 17.382,0 17.382,1.8 0,1.8 0,0" stroke="none"/></g></g><g transform="translate(5.0 7.9999999999999964)"><g clip-path="url(#i5)"><polygon points="0,0 8,0 8,8 0,8 0,0" stroke="none"/></g></g></g></g></g></g></g></svg>