<?xml version="1.0" encoding="UTF-8"?><svg version="1.1" width="24px" height="24px" viewBox="0 0 24.0 24.0" xmlns="http://www.w3.org/2000/svg" xmlns:xlink="http://www.w3.org/1999/xlink"><defs><clipPath id="i0"><path d="M1440,0 L1440,1255 L0,1255 L0,0 L1440,0 Z"></path></clipPath><clipPath id="i1"><path d="M24,0 L24,24 L0,24 L0,0 L24,0 Z"></path></clipPath><clipPath id="i2"><path d="M18,0 L18.0005287,8.06939989 C17.516959,7.86192493 16.9842526,7.74703595 16.4247124,7.74703595 C14.2155734,7.74703595 12.4247124,9.53789695 12.4247124,11.7470359 L12.4247124,11.9315755 C12.4247124,12.4122835 12.509509,12.8731863 12.6649601,13.3001416 L2,13.2998768 C0.8954305,13.2998768 1.3527075e-16,12.4044463 0,11.2998768 L0,0 L18,0 Z M4.99999991,7.0740216 L4.99999991,7.81835508 C4.99999991,8.52055647 6.78732537,9.3 8.99570345,9.3 C11.2040815,9.3 12.9999999,8.55566654 12.9999999,7.82537708 L12.9999999,7.08104362 C12.9999999,7.02486751 12.9398495,6.96869139 12.8367346,7.08104362 L12.8281417,7.0740216 C12.3469387,7.58662862 10.8174005,7.95879535 8.99570345,7.95879535 C7.17400636,7.95879535 5.63587531,7.58662862 5.15467231,7.0740216 C5.05155738,6.96869139 4.99999991,7.0248675 4.99999991,7.0740216 Z M12.8454935,4.78812436 L12.8283261,4.78812436 C12.3562231,5.27115937 10.8111587,5.62818525 8.99141621,5.62818525 C7.17167374,5.62818525 5.61802566,5.27115937 5.14592267,4.78812436 C5.05150208,4.68311675 4.99999991,4.7391208 4.99999991,4.78812436 L4.99999991,5.73319286 C4.99999991,6.4332436 6.78540764,7.01428571 8.99141621,7.01428571 C11.1974248,7.01428571 12.9999999,6.4402441 12.9999999,5.73319286 L12.9999999,4.78812436 C12.9999999,4.7391208 12.9399141,4.68311675 12.8454935,4.78812436 Z M8.99141621,1.3 C6.78540764,1.3 4.99999991,1.90349854 4.99999991,2.64693878 L4.99999991,3.29416909 C4.99999991,4.0813411 6.78540764,4.72857143 8.99141621,4.72857143 C11.1974248,4.72857143 12.9999999,4.0813411 12.9999999,3.29416909 L12.9999999,2.67317784 C12.9999999,1.92973761 11.2060085,1.32623907 9.00858361,1.32623907 L8.99141621,1.3 Z"></path></clipPath><clipPath id="i3"><path d="M2,0 C3.1045695,-2.02906125e-16 4,0.8954305 4,2 C4,3.1045695 3.1045695,4 2,4 C0.8954305,4 1.3527075e-16,3.1045695 0,2 C-1.3527075e-16,0.8954305 0.8954305,2.02906125e-16 2,0 Z"></path></clipPath><clipPath id="i4"><path d="M16,0 C17.1045695,-2.02906125e-16 18,0.8954305 18,2 L18,5 L0,5 L0,2 C-1.3527075e-16,0.8954305 0.8954305,2.02906125e-16 2,0 L16,0 Z"></path></clipPath></defs><g transform="translate(-284.0 -426.0)"><g clip-path="url(#i0)"><g transform="translate(284.00000008742245 425.9999999999999)"><g clip-path="url(#i1)"><g transform="translate(3.0000000000000018 2.0000000000000018)"><g transform="translate(0.0 6.699999999999817)"><g clip-path="url(#i2)"><polygon points="0,0 18.0005287,0 18.0005287,13.3001416 0,13.3001416 0,0" stroke="none" fill="#44B044"></polygon></g></g><g transform="translate(14.397740125014018 16.41826045108382)"><g clip-path="url(#i3)"><polygon points="0,0 4,0 4,4 0,4 0,0" stroke="none" fill="#44B044"></polygon></g></g><g clip-path="url(#i4)"><polygon points="0,0 18,0 18,5 0,5 0,0" stroke="none" fill="#44B044"></polygon></g></g></g></g></g></g></svg>