<?xml version="1.0" encoding="UTF-8"?>
<svg version="1.1" width="36px" height="36px" viewBox="0 0 36.0 36.0"
  xmlns="http://www.w3.org/2000/svg" xmlns:xlink="http://www.w3.org/1999/xlink">
  <defs>
    <clipPath id="i0">
      <path d="M1440,0 L1440,1255 L0,1255 L0,0 L1440,0 Z"></path>
    </clipPath>
    <clipPath id="i1">
      <path
        d="M14,0 C19.5228475,-1.01453063e-15 24,4.4771525 24,10 L24,14 C24,19.5228475 19.5228475,24 14,24 L10,24 C4.4771525,24 6.76353751e-16,19.5228475 0,14 L0,10 C-6.76353751e-16,4.4771525 4.4771525,1.01453063e-15 10,0 L14,0 Z"></path>
    </clipPath>
    <clipPath id="i2">
      <path
        d="M5.30769231,0 C5.35315077,0 5.39817231,0.00417710145 5.44275692,0.0125313043 C5.48734154,0.0208855072 5.53063077,0.0332562319 5.57262462,0.0496434783 C5.61462462,0.0660313043 5.65452308,0.0861205797 5.69232,0.109911304 C5.73011692,0.133702029 5.76508615,0.160737391 5.79722769,0.191017391 C5.82936923,0.221297391 5.85806769,0.25424 5.88332308,0.289845217 C5.90857846,0.325451014 5.92990462,0.363035072 5.94730154,0.402597391 C5.96469846,0.44216029 5.97783077,0.482941449 5.98669846,0.52494087 C5.99556615,0.56694058 6,0.609351594 6,0.652173913 C6,0.694996232 5.99556615,0.737407246 5.98669846,0.779406957 C5.97783077,0.821406377 5.96469846,0.862187536 5.94730154,0.901750435 C5.92990462,0.941312754 5.90857846,0.978896812 5.88332308,1.01450261 C5.85806769,1.05010783 5.82936923,1.08305043 5.79722769,1.11333043 L1.671,4.999 L5.79722769,8.88666957 C5.82936923,8.91694783 5.85806769,8.94988986 5.88332308,8.98549565 C5.90857846,9.02110145 5.92990462,9.05868696 5.94730154,9.09825217 C5.96469846,9.13781159 5.97783077,9.1785913 5.98669846,9.2205913 C5.99556615,9.2625913 6,9.3050029 6,9.34782609 C6,9.39066667 5.99556615,9.43307246 5.98669846,9.47504348 C5.97783077,9.51707246 5.96469846,9.55785507 5.94730154,9.5973913 C5.92990462,9.63698551 5.90857846,9.67457971 5.88332308,9.71017391 C5.85806769,9.74576812 5.82936923,9.77869565 5.79722769,9.80895652 C5.76508615,9.83927536 5.73011692,9.86631884 5.69232,9.89008696 C5.65452308,9.91385507 5.61462462,9.93394203 5.57262462,9.95034783 C5.53063077,9.96675362 5.48734154,9.97913043 5.44275692,9.98747826 L5.37555231,9.99686957 L5.30769231,10 C5.26223385,10 5.21721231,9.99582609 5.17262769,9.98747826 C5.12804308,9.97913043 5.08475385,9.96675362 5.04276,9.95034783 C5.00076,9.93394203 4.96086154,9.91385507 4.92306462,9.89008696 C4.88526769,9.86631884 4.85029846,9.83927536 4.81815692,9.80895652 L0.202772308,5.46115652 C0.170628923,5.43087826 0.141929846,5.39793623 0.116675077,5.36233043 C0.0914203077,5.32672464 0.0700947692,5.28913913 0.0526984615,5.24957391 C0.0353027692,5.21001449 0.0221707692,5.16923478 0.0133024615,5.12723478 C0.00443415385,5.08523478 0,5.04282319 0,5 C0,4.95717681 0.00443415385,4.91476522 0.0133024615,4.87276522 C0.0221707692,4.83076522 0.0353027692,4.78998551 0.0526984615,4.75042609 C0.0700947692,4.71086087 0.0914203077,4.67327536 0.116675077,4.63766957 C0.141929846,4.60206377 0.170628923,4.56912174 0.202772308,4.53884348 L4.81815692,0.191017391 C4.85029846,0.160737391 4.88526769,0.133702029 4.92306462,0.109911304 C4.96086154,0.0861205797 5.00076,0.0660313043 5.04276,0.0496434783 C5.08475385,0.0332562319 5.12804308,0.0208855072 5.17262769,0.0125313043 C5.21721231,0.00417710145 5.26223385,0 5.30769231,0 Z"></path>
    </clipPath>
  </defs>
  <g transform="translate(-243.0 -116.0)">
    <g clip-path="url(#i0)">
      <g transform="translate(243.0 116.0)">
        <g transform="translate(6.0 6.0)">
          <g clip-path="url(#i1)">
            <polygon points="0,0 24,0 24,24 0,24 0,0" stroke="none" fill="#ECECEC"></polygon>
          </g>
        </g>
        <g transform="translate(15.0 13.0)">
          <g clip-path="url(#i2)">
            <polygon points="0,0 6,0 6,10 0,10 0,0" stroke="none" ></polygon>
          </g>
        </g>
      </g>
    </g>
  </g>
</svg>