<?xml version="1.0" encoding="UTF-8"?><svg version="1.1" width="24px" height="24px" viewBox="0 0 24.0 24.0" xmlns="http://www.w3.org/2000/svg" xmlns:xlink="http://www.w3.org/1999/xlink"><defs><clipPath id="i0"><path d="M1440,0 L1440,1183 L0,1183 L0,0 L1440,0 Z"></path></clipPath><clipPath id="i1"><path d="M9.5,0 L9.5,5 L7.5,5 L7.5,6.5 L12,6.5 L12,9 L14,9 L14,14 L9,14 L9,9 L11,9 L11,7.5 L3,7.5 L3,9 L5,9 L5,14 L0,14 L0,9 L2,9 L2,6.5 L6.5,6.5 L6.5,5 L4.5,5 L4.5,0 L9.5,0 Z M4,10 L1,10 L1,13 L4,13 L4,10 Z M13,10 L10,10 L10,13 L13,13 L13,10 Z M8.5,1 L5.5,1 L5.5,4 L8.5,4 L8.5,1 Z"></path></clipPath></defs><g transform="translate(-444.0 -265.0)"><g clip-path="url(#i0)"><g transform="translate(444.0 265.0)"><g transform="translate(5.0 5.0)"><g clip-path="url(#i1)"><polygon points="0,0 14,0 14,14 0,14 0,0" stroke="none" fill="#000000"></polygon></g></g></g></g></g></svg>