<?xml version="1.0" encoding="UTF-8"?><svg version="1.1" width="24px" height="24px" viewBox="0 0 24.0 24.0" xmlns="http://www.w3.org/2000/svg" xmlns:xlink="http://www.w3.org/1999/xlink"><defs><clipPath id="i0"><path d="M1440,0 L1440,1255 L0,1255 L0,0 L1440,0 Z"></path></clipPath><clipPath id="i1"><path d="M24,0 L24,24 L0,24 L0,0 L24,0 Z"></path></clipPath><clipPath id="i2"><path d="M9.89043537,0 C11.465758,0 12.7475438,1.28154498 12.7475438,2.85710846 C12.7475438,3.11139472 12.710942,3.35677134 12.6483337,3.59155269 L16.0780678,7.02128684 C16.4077249,6.88836448 16.766519,6.81323444 17.1431323,6.81323444 C18.718455,6.81323444 20.0002408,8.09502023 20,9.6705837 C20,11.2459064 18.7182142,12.5276922 17.1428915,12.5276922 C16.7479773,12.5276922 16.3716047,12.4470237 16.0291851,12.3015797 L12.5211905,15.8095743 C12.6666346,16.1519938 12.747303,16.5283664 12.747303,16.9232807 C12.747303,18.4986034 11.4655172,19.7803891 9.89019457,19.7803891 C8.31487189,19.7803891 7.03308611,18.4986034 7.03308611,16.9232807 C7.03308611,16.3306685 7.21465036,15.7794741 7.52504334,15.3224331 L4.32166249,12.119293 C3.89279522,12.3767097 3.39289154,12.5276922 2.85710846,12.5276922 C1.28178578,12.5276922 0,11.2459064 0,9.6705837 C0,8.09502023 1.28178578,6.81323444 2.85734926,6.81323444 C3.27827008,6.81323444 3.67679638,6.90714699 4.03703525,7.07137353 L7.22644962,3.88195916 C7.10364092,3.56337893 7.03332691,3.21855134 7.03332691,2.85710846 C7.03332691,1.28178578 8.31487189,0 9.89043537,0 Z M9.89019457,15.8242631 C9.28409748,15.8242631 8.79117704,16.3171836 8.79117704,16.9232807 C8.79117704,17.5293778 9.28433828,18.0222982 9.89019457,18.0222982 C10.4962917,18.0222982 10.9892121,17.5293778 10.9892121,16.9232807 C10.9892121,16.3171836 10.4960509,15.8242631 9.89019457,15.8242631 Z M11.6636968,5.09343094 C11.176074,5.48112117 10.5603448,5.71445772 9.89043537,5.71445772 C9.31925448,5.71445772 8.78780582,5.54421113 8.34087844,5.25428626 L5.33736274,8.25756116 C5.57599692,8.67462917 5.71445772,9.15623194 5.71445772,9.6703429 C5.71445772,10.0693508 5.63186284,10.4490946 5.48352919,10.794163 L8.92626662,14.2371412 C9.22799075,14.1285398 9.55162782,14.0661722 9.89019457,14.0661722 C10.4298305,14.0661722 10.9331054,14.2193219 11.3641399,14.4803506 L14.7002023,11.1442882 C14.4391736,10.7132537 14.2860239,10.2099788 14.2860239,9.6703429 C14.2860239,9.11336929 14.4488056,8.59492391 14.7254864,8.15497977 Z M2.85734926,8.57132537 C2.25125217,8.57132537 1.75833173,9.06424581 1.75833173,9.6703429 C1.75833173,10.27644 2.25149297,10.7693604 2.85734926,10.7693604 C3.46320555,10.7693604 3.95636679,10.27644 3.95636679,9.6703429 C3.95636679,9.06424581 3.46344635,8.57132537 2.85734926,8.57132537 Z M17.1431323,8.57132537 C16.5370353,8.57132537 16.0441148,9.06424581 16.0441148,9.6703429 C16.0441148,10.27644 16.5372761,10.7693604 17.1431323,10.7693604 C17.7489886,10.7693604 18.2421499,10.27644 18.2421499,9.6703429 C18.2421499,9.06424581 17.7492294,8.57132537 17.1431323,8.57132537 Z M9.89019457,1.75833173 C9.28433828,1.75833173 8.79117704,2.25125217 8.79117704,2.85734926 C8.79117704,3.46344635 9.28433828,3.95636679 9.89019457,3.95636679 C10.4962917,3.95636679 10.9892121,3.46344635 10.9892121,2.85734926 C10.9892121,2.25125217 10.4960509,1.75833173 9.89019457,1.75833173 Z"></path></clipPath></defs><g transform="translate(-786.0 -607.0)"><g clip-path="url(#i0)"><g transform="translate(785.9999999125776 606.9999999999999)"><g clip-path="url(#i1)"><g transform="translate(2.0 2.0)"><g clip-path="url(#i2)"><polygon points="0,0 20,0 20,19.7803891 0,19.7803891 0,0" stroke="none" fill="#44B044"></polygon></g><path d="M17.1431323,6.81323444 C16.766519,6.81323444 16.4077249,6.88836448 16.0780678,7.02128684 L12.6483337,3.59155269 C12.710942,3.35677134 12.7475438,3.11139472 12.7475438,2.85710846 C12.7475438,1.28154498 11.465758,0 9.89043537,0 C8.31487189,0 7.03332691,1.28178578 7.03332691,2.85710846 C7.03332691,3.21855134 7.10364092,3.56337893 7.22644962,3.88195916 L4.03703525,7.07137353 C3.67679638,6.90714699 3.27827008,6.81323444 2.85734926,6.81323444 C1.28178578,6.81323444 0,8.09502023 0,9.6705837 C0,11.2459064 1.28178578,12.5276922 2.85710846,12.5276922 C3.39289154,12.5276922 3.89279522,12.3767097 4.32166249,12.119293 L7.52504334,15.3224331 C7.21465036,15.7794741 7.03308611,16.3306685 7.03308611,16.9232807 C7.03308611,18.4986034 8.31487189,19.7803891 9.89019457,19.7803891 C11.4655172,19.7803891 12.747303,18.4986034 12.747303,16.9232807 C12.747303,16.5283664 12.6666346,16.1519938 12.5211905,15.8095743 L16.0291851,12.3015797 C16.3716047,12.4470237 16.7479773,12.5276922 17.1428915,12.5276922 C18.7182142,12.5276922 20,11.2459064 20,9.6705837 C20.0002408,8.09502023 18.718455,6.81323444 17.1431323,6.81323444 Z M9.89019457,14.0661722 C9.55162782,14.0661722 9.22799075,14.1285398 8.92626662,14.2371412 L5.48352919,10.794163 C5.63186284,10.4490946 5.71445772,10.0693508 5.71445772,9.6703429 C5.71445772,9.15623194 5.57599692,8.67462917 5.33736274,8.25756116 L8.34087844,5.25428626 C8.78780582,5.54421113 9.31925448,5.71445772 9.89043537,5.71445772 C10.5603448,5.71445772 11.176074,5.48112117 11.6636968,5.09343094 L14.7254864,8.15497977 C14.4488056,8.59492391 14.2860239,9.11336929 14.2860239,9.6703429 C14.2860239,10.2099788 14.4391736,10.7132537 14.7002023,11.1442882 L11.3641399,14.4803506 C10.9331054,14.2193219 10.4298305,14.0661722 9.89019457,14.0661722 Z M9.89019457,1.75833173 C10.4960509,1.75833173 10.9892121,2.25125217 10.9892121,2.85734926 C10.9892121,3.46344635 10.4962917,3.95636679 9.89019457,3.95636679 C9.28433828,3.95636679 8.79117704,3.46344635 8.79117704,2.85734926 C8.79117704,2.25125217 9.28433828,1.75833173 9.89019457,1.75833173 L9.89019457,1.75833173 Z M2.85734926,10.7693604 C2.25149297,10.7693604 1.75833173,10.27644 1.75833173,9.6703429 C1.75833173,9.06424581 2.25125217,8.57132537 2.85734926,8.57132537 C3.46344635,8.57132537 3.95636679,9.06424581 3.95636679,9.6703429 C3.95636679,10.27644 3.46320555,10.7693604 2.85734926,10.7693604 L2.85734926,10.7693604 Z M9.89019457,18.0222982 C9.28433828,18.0222982 8.79117704,17.5293778 8.79117704,16.9232807 C8.79117704,16.3171836 9.28409748,15.8242631 9.89019457,15.8242631 C10.4960509,15.8242631 10.9892121,16.3171836 10.9892121,16.9232807 C10.9892121,17.5293778 10.4962917,18.0222982 9.89019457,18.0222982 Z M17.1431323,10.7693604 C16.5372761,10.7693604 16.0441148,10.27644 16.0441148,9.6703429 C16.0441148,9.06424581 16.5370353,8.57132537 17.1431323,8.57132537 C17.7492294,8.57132537 18.2421499,9.06424581 18.2421499,9.6703429 C18.2421499,10.27644 17.7489886,10.7693604 17.1431323,10.7693604 Z" stroke="#FFFFFF" stroke-width="0.2" fill="none" stroke-miterlimit="10"></path></g></g></g></g></g></svg>