<?xml version="1.0" encoding="UTF-8"?><svg version="1.1" width="10px" height="10px" viewBox="0 0 10.0 10.0" xmlns="http://www.w3.org/2000/svg" xmlns:xlink="http://www.w3.org/1999/xlink"><defs><clipPath id="i0"><path d="M1440,0 L1440,1024 L0,1024 L0,0 L1440,0 Z"></path></clipPath><clipPath id="i1"><path d="M8.82688391,0 C9.47477803,0 10,0.525221965 10,1.17311609 L10,8.82688391 C10,9.47477803 9.47477803,10 8.82688391,10 L1.17311609,10 C0.525221965,10 0,9.47477803 0,8.82688391 L0,1.17311609 C0,0.525221965 0.525221965,0 1.17311609,0 Z M6.23217923,0.969450098 C5.43089741,0.640795503 4.53244272,0.640795503 3.7311609,0.969450098 C3.35130871,1.12202622 3.00424004,1.3460307 2.70875764,1.6293279 C2.42069872,1.9187649 2.19233787,2.26199818 2.03665987,2.6395112 C1.95247666,2.80415849 1.88296152,2.97590176 1.82892057,3.15274949 C1.68346134,3.20473379 1.54626896,3.27744575 1.42158859,3.36863544 C0.878325566,3.75313369 0.613619912,4.42234382 0.746861412,5.07443302 C0.880102912,5.72652222 1.38611031,6.23825242 2.03665987,6.37881874 L2.10590632,6.37881874 C2.1964165,6.3784125 2.28298437,6.34173119 2.34623218,6.27698574 C2.40987124,6.21332297 2.4451204,6.12666879 2.44399186,6.03665987 L2.44399186,3.86965377 C2.44173834,3.21311954 2.70638181,2.5838562 3.17718941,2.12627291 C4.18214339,1.15790495 5.77305009,1.15790495 6.77800407,2.12627291 C7.25180864,2.5824797 7.51946728,3.21191872 7.51934827,3.86965377 L7.51934827,6.10997963 C7.53042875,6.77376911 7.26827541,7.41295199 6.79429735,7.87780041 C6.59427374,8.07360049 6.36299507,8.23466957 6.10997963,8.35437882 C6.11618781,8.28527153 6.11618781,8.2157468 6.10997963,8.14663951 C6.11227734,7.53721166 5.62362345,7.03947498 5.01425662,7.0305499 L4.98574338,7.0305499 C4.39817432,7.06034137 3.93548127,7.54263894 3.93008403,8.13093801 C3.92468679,8.71923708 4.37845321,9.20994253 4.96537678,9.25050916 L5.01425662,9.25050916 C5.43351817,9.24841388 5.84843601,9.16543031 6.23625255,9.00610998 C6.61709075,8.84988602 6.9642296,8.62168716 7.2586558,8.33401222 C7.81494009,7.79595807 8.15046532,7.069713 8.19959267,6.29735234 C8.4220162,6.21428043 8.62359663,6.0836007 8.79022403,5.91446028 L8.79022403,5.90224032 C9.20283009,5.48904807 9.3703323,4.89072439 9.23223515,4.32336139 C9.09413799,3.75599839 8.67039753,3.30158421 8.11405295,3.12423625 C8.07296233,2.9540405 8.01708118,2.78776 7.94704685,2.62729124 C7.7837376,2.25253753 7.5484704,1.91347599 7.25458248,1.6293279 C6.9586648,1.34658202 6.6117083,1.12264994 6.23217923,0.969450098 Z"></path></clipPath></defs><g transform="translate(-316.0 -330.0)"><g clip-path="url(#i0)"><g transform="translate(264.0 127.0)"><g transform="translate(52.0 199.0000130697061)"><g transform="translate(0.0 3.9999869302939715)"><g clip-path="url(#i1)"><polygon points="0,0 10,0 10,10 0,10 0,0" stroke="none" fill="#000000"></polygon></g></g></g></g></g></g></svg>