<?xml version="1.0" encoding="UTF-8"?><svg version="1.1" width="24px" height="24px" viewBox="0 0 24.0 24.0" xmlns="http://www.w3.org/2000/svg" xmlns:xlink="http://www.w3.org/1999/xlink"><defs><clipPath id="i0"><path d="M1440,0 L1440,1255 L0,1255 L0,0 L1440,0 Z"/></clipPath><clipPath id="i1"><path d="M18,0 L18,16.5625 C18,18.4609788 16.1531746,20 13.875,20 L4.125,20 C1.84682541,20 0,18.4609788 0,16.5625 L0,3.4375 C0,1.53902117 1.84682541,0 4.125,0 L18,0 Z M15.75,1.875 L4.125,1.875 C3.09,1.875 2.25,2.575 2.25,3.4375 L2.25,16.5625 C2.25,17.425 3.09,18.125 4.125,18.125 L13.875,18.125 C14.91,18.125 15.75,17.425 15.75,16.5625 L15.75,1.875 Z"/></clipPath><clipPath id="i2"><path d="M1.125,0 C1.74632034,0 2.25,0.503679656 2.25,1.125 L2.25,4.875 C2.25,5.49632034 1.74632034,6 1.125,6 C0.503679656,6 0,5.49632034 0,4.875 L0,1.125 C0,0.503679656 0.503679656,0 1.125,0 Z"/></clipPath><clipPath id="i3"><path d="M1.5,0 C2.32842712,0 3,0.671572875 3,1.5 C3,2.32842712 2.32842712,3 1.5,3 C0.671572875,3 0,2.32842712 0,1.5 C0,0.671572875 0.671572875,0 1.5,0 Z"/></clipPath></defs><g transform="translate(-45.0 -692.0)"><g clip-path="url(#i0)"><g transform="translate(45.0 692.0)"><g transform="translate(3.0 2.0)"><g clip-path="url(#i1)"><polygon points="0,0 18,0 18,20 0,20 0,0" stroke="none"/></g><g clip-path="url(#i1)"><path d="M18,16.5625 L18,0 L4.125,0 C1.84682541,0 0,1.53902117 0,3.4375 L0,16.5625 C0,18.4609788 1.84682541,20 4.125,20 L13.875,20 C16.1531746,20 18,18.4609788 18,16.5625 L18,16.5625 Z M4.125,1.875 L15.75,1.875 L15.75,16.5625 C15.75,17.425 14.91,18.125 13.875,18.125 L4.125,18.125 C3.09,18.125 2.25,17.425 2.25,16.5625 L2.25,3.4375 C2.25,2.575 3.09,1.875 4.125,1.875 Z" stroke="#FFFFFF" stroke-width="0.4" stroke-miterlimit="5"/></g><g transform="translate(7.875 5.5)"><g clip-path="url(#i2)"><polygon points="0,0 2.25,0 2.25,6 0,6 0,0" stroke="none"/></g><g clip-path="url(#i2)"><path d="M1.125,0 C1.74632034,0 2.25,0.503679656 2.25,1.125 L2.25,4.875 C2.25,5.49632034 1.74632034,6 1.125,6 C0.503679656,6 0,5.49632034 0,4.875 L0,1.125 C0,0.503679656 0.503679656,0 1.125,0 L1.125,0 Z" stroke="#FFFFFF" stroke-width="0.2" stroke-miterlimit="5"/></g></g><g transform="translate(7.5 11.874999999999998)"><g clip-path="url(#i3)"><polygon points="0,0 3,0 3,3 0,3 0,0" stroke="none"/></g><g clip-path="url(#i3)"><path d="M0,1.5 C0,2.32842712 0.671572875,3 1.5,3 C2.32842712,3 3,2.32842712 3,1.5 C3,0.671572875 2.32842712,0 1.5,0 C0.671572875,0 0,0.671572875 0,1.5 L0,1.5 Z" stroke="#FFFFFF" stroke-width="0.2" stroke-miterlimit="5"/></g></g></g></g></g></g></svg>