<?xml version="1.0" encoding="UTF-8"?><svg version="1.1" width="24px" height="24px" viewBox="0 0 24.0 24.0" xmlns="http://www.w3.org/2000/svg" xmlns:xlink="http://www.w3.org/1999/xlink"><defs><clipPath id="i0"><path d="M1440,0 L1440,1255 L0,1255 L0,0 L1440,0 Z"></path></clipPath><clipPath id="i1"><path d="M18,0 L18,16.5625 C18,18.4609788 16.1531746,20 13.875,20 L4.125,20 C1.84682541,20 0,18.4609788 0,16.5625 L0,3.4375 C0,1.53902117 1.84682541,0 4.125,0 L18,0 Z M9,11.875 C8.17157288,11.875 7.5,12.5465729 7.5,13.375 C7.5,14.2034271 8.17157288,14.875 9,14.875 C9.82842712,14.875 10.5,14.2034271 10.5,13.375 C10.5,12.5465729 9.82842712,11.875 9,11.875 Z M9,5.5 C8.37867966,5.5 7.875,6.00367966 7.875,6.625 L7.875,10.375 C7.875,10.9963203 8.37867966,11.5 9,11.5 C9.62132034,11.5 10.125,10.9963203 10.125,10.375 L10.125,6.625 C10.125,6.00367966 9.62132034,5.5 9,5.5 Z"></path></clipPath></defs><g transform="translate(-283.0 -646.0)"><g clip-path="url(#i0)"><g transform="translate(283.0 646.0)"><g transform="translate(3.0 2.0)"><g clip-path="url(#i1)"><polygon points="0,0 18,0 18,20 0,20 0,0" stroke="none" fill="#44B044"></polygon></g></g></g></g></g></svg>