<?xml version="1.0" standalone="no"?><!DOCTYPE svg PUBLIC "-//W3C//DTD SVG 1.1//EN" "http://www.w3.org/Graphics/SVG/1.1/DTD/svg11.dtd"><svg t="1733627428814" class="icon" viewBox="0 0 1024 1024" version="1.1" xmlns="http://www.w3.org/2000/svg" p-id="1480" width="16" height="16" xmlns:xlink="http://www.w3.org/1999/xlink"><path d="M89.6 147.2v524.8h844.8V147.2H89.6zM64 57.6h896c38.4 0 64 25.6 64 64v576c0 38.4-25.6 64-64 64H64c-38.4 0-64-25.6-64-64v-576c0-38.4 25.6-64 64-64zM275.2 960c-25.6 0-44.8-19.2-44.8-44.8 0-25.6 19.2-44.8 44.8-44.8H768c25.6 0 44.8 19.2 44.8 44.8 0 25.6-19.2 44.8-44.8 44.8H275.2z" fill="#575D6C" p-id="1481"></path></svg>