<?xml version="1.0" encoding="UTF-8"?><svg version="1.1" width="24px" height="24px" viewBox="0 0 24.0 24.0" xmlns="http://www.w3.org/2000/svg" xmlns:xlink="http://www.w3.org/1999/xlink"><defs><clipPath id="i0"><path d="M1440,0 L1440,1168 L0,1168 L0,0 L1440,0 Z"></path></clipPath><clipPath id="i1"><path d="M2.69013489,6.53333333 C2.98727899,6.53333333 3.22816187,6.75719095 3.22816187,7.03333333 C3.22816187,7.3094757 2.98727899,7.53333333 2.69013489,7.53333333 L0.538026978,7.53333333 C0.240882883,7.53333333 0,7.3094757 0,7.03333333 C0,6.75719095 0.240882883,6.53333333 0.538026978,6.53333333 L2.69013489,6.53333333 Z M8.07040467,3.26666666 C8.36754877,3.26666666 8.60843165,3.49052429 8.60843165,3.76666666 C8.60843165,4.04280904 8.36754877,4.26666666 8.07040467,4.26666666 L0.538026978,4.26666666 C0.240882883,4.26666666 0,4.04280904 0,3.76666666 C0,3.49052429 0.240882883,3.26666666 0.538026978,3.26666666 L8.07040467,3.26666666 Z M8.07040467,0 C8.36754877,0 8.60843165,0.223857625 8.60843165,0.5 C8.60843165,0.776142375 8.36754877,1 8.07040467,1 L0.538026978,1 C0.240882883,1 0,0.776142375 0,0.5 C0,0.223857625 0.240882883,0 0.538026978,0 L8.07040467,0 Z"></path></clipPath><clipPath id="i2"><path d="M12.3235079,0 C13.2462242,0 13.9887014,0.756266666 13.9887014,1.68213333 L13.9887014,11.0874667 C13.9887014,11.3820185 13.7478186,11.6208 13.4506745,11.6208 C13.1535304,11.6208 12.9126475,11.3820185 12.9126475,11.0874667 L12.9126475,1.68213333 C12.9126475,1.33866666 12.6452481,1.06666667 12.3235079,1.06666667 L1.6651935,1.06666667 C1.34345336,1.06666667 1.07605396,1.33866666 1.07605396,1.68213333 L1.07605396,14.3178666 C1.07605396,14.6613333 1.34345336,14.9333333 1.6651935,14.9333333 L9.53545213,14.9333333 L11.9705622,12.8373333 C12.194906,12.6441073 12.5347918,12.6677467 12.7297183,12.8901333 C12.9246448,13.11252 12.9007974,13.4494406 12.6764536,13.6426666 L10.0896199,15.8693333 C9.99170362,15.9536327 9.86636469,16 9.73667422,16 L1.6651935,16 C0.74247723,16 0,15.2437333 0,14.3178666 L0,1.68213333 C0,0.756266666 0.74247723,0 1.6651935,0 L12.3235079,0 Z"></path></clipPath><clipPath id="i3"><path d="M4.31551439,0 C4.61265849,0 4.85354137,0.208933783 4.85354137,0.466666666 C4.85354137,0.724399549 4.61265849,0.933333332 4.31551439,0.933333332 L1.6651935,0.933333332 C1.34345336,0.933333332 1.07605396,1.17133333 1.07605396,1.47186666 L1.07605396,4.18786666 C1.07605396,4.44513288 0.835171073,4.65406666 0.538026978,4.65406666 C0.240882883,4.65406666 0,4.44513288 0,4.18739999 L0,1.4714 C0,0.662199999 0.74247723,0 1.6651935,0 L4.31551439,0 Z"></path></clipPath></defs><g transform="translate(-1070.0 -883.0)"><g clip-path="url(#i0)"><g transform="translate(1038.0 817.0)"><g transform="translate(32.0 66.0)"><g transform="translate(5.0 4.0)"><g transform="translate(2.6901348910495235 4.266666662540047)"><g clip-path="url(#i1)"><polygon points="0,0 8.60843165,0 8.60843165,7.53333333 0,7.53333333 0,0" stroke="none" fill="#000000"></polygon></g></g><g clip-path="url(#i2)"><polygon points="0,0 13.9887014,0 13.9887014,16 0,16 0,0" stroke="none" fill="#000000"></polygon></g><g clip-path="url(#i2)"><path d="M11.9705622,12.8373333 C12.194906,12.6441073 12.5347918,12.6677467 12.7297183,12.8901333 C12.9246448,13.11252 12.9007974,13.4494406 12.6764536,13.6426666 L10.0896199,15.8693333 C9.99170362,15.9536327 9.86636469,16 9.73667422,16 L1.6651935,16 C0.74247723,16 0,15.2437333 0,14.3178666 L0,1.68213333 C0,0.756266666 0.74247723,0 1.6651935,0 L12.3235079,0 C13.2462242,0 13.9887014,0.756266666 13.9887014,1.68213333 L13.9887014,11.0874667 C13.9887014,11.3820185 13.7478186,11.6208 13.4506745,11.6208 C13.1535304,11.6208 12.9126475,11.3820185 12.9126475,11.0874667 L12.9126475,1.68213333 C12.9126475,1.33866666 12.6452481,1.06666667 12.3235079,1.06666667 L1.6651935,1.06666667 C1.34345336,1.06666667 1.07605396,1.33866666 1.07605396,1.68213333 L1.07605396,14.3178666 C1.07605396,14.6613333 1.34345336,14.9333333 1.6651935,14.9333333 L9.53545213,14.9333333 L11.9705622,12.8373333 Z" stroke="#000000" stroke-width="0.2" fill="none" stroke-miterlimit="5"></path></g><g transform="translate(9.146458629568428 10.80000000000018)"><g clip-path="url(#i3)"><polygon points="0,0 4.85354137,0 4.85354137,4.65406666 0,4.65406666 0,0" stroke="none" fill="#000000"></polygon></g></g></g></g></g></g></g></svg>