<?xml version="1.0" encoding="UTF-8"?><svg version="1.1" width="24px" height="24px" viewBox="0 0 24.0 24.0" xmlns="http://www.w3.org/2000/svg" xmlns:xlink="http://www.w3.org/1999/xlink"><defs><clipPath id="i0"><path d="M1440,0 L1440,1255 L0,1255 L0,0 L1440,0 Z"/></clipPath><clipPath id="i1"><path d="M24,0 L24,24 L0,24 L0,0 L24,0 Z"/></clipPath><clipPath id="i2"><path d="M5.49707603,0 C6.66666667,0 7.71929825,0.701754379 8.18713452,1.75438596 L8.8888889,3.15789474 C9.12280703,3.625731 9.59064328,3.97660818 10.1754386,3.97660818 L16.7251462,3.97660818 C18.3625731,3.97660818 19.7660819,5.38011696 19.7660819,7.01754385 L19.7660819,16.7251462 C19.7660819,18.3625731 18.3625731,19.7660819 16.7251462,19.7660819 L3.04093567,19.7660819 C1.40350878,19.7660819 0,18.3625731 0,16.7251462 L0,3.04093567 C0,1.40350878 1.40350878,0 3.04093567,0 L5.49707603,0 Z M5.49707603,1.63742689 L3.04093567,1.63742689 C2.33918129,1.63742689 1.63742691,2.2222222 1.63742691,3.04093567 L1.63742691,16.7251462 C1.63742691,17.4269006 2.22222222,18.128655 3.04093567,18.128655 L16.7251462,18.128655 C17.4269006,18.128655 18.128655,17.5438597 18.128655,16.7251462 L18.128655,7.01754385 C18.128655,6.31578947 17.5438597,5.61403507 16.7251462,5.61403509 L10.0584795,5.61403509 C8.8888889,5.61403509 7.83625732,4.91228072 7.36842105,3.85964912 L6.66666667,2.45614036 C6.43274854,1.98830409 5.96491229,1.63742689 5.49707603,1.63742689 Z"/></clipPath><clipPath id="i3"><path d="M5.61403509,0 C6.78362574,0 7.95321639,0.701754379 8.42105263,1.87134502 L9.12280703,3.2748538 C9.35672516,3.74269007 9.82456141,3.97660818 10.2923977,3.97660818 L16.8421053,3.97660818 C18.4795322,3.97660818 20,5.38011696 20,7.13450292 L20,16.8421053 C20,18.4795322 18.4795322,20 16.8421053,20 L3.15789474,20 C1.40350878,20 0,18.5964912 0,16.8421053 L0,3.15789474 C0,1.40350878 1.40350878,0 3.15789474,0 L5.61403509,0 Z M5.61403509,0.233918133 L3.15789474,0.233918133 C1.52046785,0.233918133 0.233918133,1.52046785 0.233918133,3.15789474 L0.233918133,16.8421053 C0.233918133,18.4795322 1.52046785,19.7660819 3.15789474,19.7660819 L16.8421053,19.7660819 C18.4795322,19.7660819 19.7660819,18.4795322 19.7660819,16.8421053 L19.7660819,7.13450292 C19.7660819,5.49707603 18.4795322,4.21052632 16.8421053,4.21052632 L10.1754386,4.21052632 C9.5906433,4.21052632 9.12280703,3.85964912 8.77192983,3.39181287 L8.18713452,1.87134502 C7.71929825,0.935672512 6.66666667,0.233918133 5.61403509,0.233918133 Z M5.61403509,1.63742689 C6.19883041,1.63742689 6.66666667,1.98830409 7.01754387,2.45614036 L7.71929825,3.85964912 C8.18713452,4.91228069 9.2397661,5.49707601 10.4093567,5.49707603 L16.9590643,5.49707603 C17.7777778,5.49707603 18.4795322,6.19883041 18.4795322,7.01754385 L18.4795322,16.7251462 C18.245614,17.6608187 17.6608187,18.245614 16.8421053,18.245614 L3.15789474,18.245614 C2.33918129,18.245614 1.63742691,17.5438597 1.63742691,16.7251462 L1.63742691,3.15789474 C1.63742691,2.33918129 2.33918129,1.63742689 3.15789474,1.63742689 L5.61403509,1.63742689 Z M5.49707603,1.87134502 L3.15789474,1.87134502 C2.45614036,1.87134502 1.87134505,2.45614034 1.87134505,3.15789474 L1.87134505,16.8421053 C1.87134505,17.5438596 2.45614036,18.128655 3.15789474,18.128655 L16.8421053,18.128655 C17.5438596,18.128655 18.128655,17.5438597 18.128655,16.8421053 L18.128655,7.13450292 C18.128655,6.43274854 17.5438597,5.84795321 16.8421053,5.84795321 L10.1754386,5.84795321 C9.00584796,5.84795321 7.83625732,5.14619883 7.36842105,3.97660818 L6.66666667,2.57309942 C6.43274854,2.10526316 5.96491229,1.87134502 5.49707603,1.87134502 Z"/></clipPath><clipPath id="i4"><path d="M5.38011696,13.9181287 C5.84795323,13.9181287 6.19883041,14.2690059 6.19883041,14.7368421 C6.08187134,15.0877193 5.73099414,15.5555556 5.26315789,15.5555556 L0.818713446,15.5555556 C0.350877179,15.5555556 0,15.2046784 0,14.7368421 C0,14.2690059 0.3508772,13.9181287 0.818713446,13.9181287 L5.38011696,13.9181287 Z M10.6432749,0 C12.2807017,0 13.6842105,1.40350878 13.6842105,3.04093567 L13.6842105,3.85964912 L12.0467836,3.85964912 L12.0467836,3.04093567 C12.0467836,2.33918129 11.4619883,1.63742689 10.6432749,1.63742689 L3.50877192,1.63742689 L3.50877192,0 L10.6432749,0 Z"/></clipPath><clipPath id="i5"><path d="M5.49707603,13.9181287 C5.96491229,13.9181287 6.43274854,14.3859649 6.43274854,14.8538012 C6.31578947,15.3216374 5.96491227,15.7894737 5.38011696,15.7894737 L0.935672512,15.7894737 C0.467836246,15.7894737 0,15.3216374 0,14.8538012 C0,14.3859649 0.467836266,13.9181287 0.935672512,13.9181287 L5.49707603,13.9181287 Z M5.49707603,14.0350877 L0.935672512,14.0350877 C0.584795313,14.0350877 0.233918133,14.3859649 0.233918133,14.7368421 C0.233918133,15.0877193 0.584795333,15.4385965 0.935672512,15.4385965 L5.49707603,15.4385965 C5.84795323,15.4385965 6.19883041,15.0877193 6.19883041,14.7368421 C6.19883041,14.3859649 5.84795321,14.0350877 5.49707603,14.0350877 Z M10.7602339,0 C12.5146199,0 13.9181287,1.40350878 13.9181287,3.15789474 L13.9181287,4.09356725 L12.0467836,4.09356725 L12.0467836,3.15789474 C12.0467836,2.45614036 11.4619883,1.87134502 10.7602339,1.87134502 L3.50877194,1.87134502 L3.50877194,0 L10.7602339,0 Z M10.7602339,0.233918133 L3.74269005,0.233918133 L3.74269005,1.63742691 L10.7602339,1.63742691 C11.5789474,1.63742691 12.2807018,2.33918129 12.2807017,3.15789474 L12.2807017,3.85964912 L13.6842105,3.85964912 L13.6842105,3.15789474 C13.6842105,1.52046785 12.3976608,0.233918133 10.7602339,0.233918133 Z"/></clipPath></defs><g transform="translate(-44.0 -529.0)"><g clip-path="url(#i0)"><g transform="translate(44.0 529.0)"><g clip-path="url(#i1)"><g transform="translate(2.0 2.0)"><g transform="translate(0.11695906661179656 0.11695906661184452)"><g clip-path="url(#i2)"><polygon points="0,0 19.7660819,0 19.7660819,19.7660819 0,19.7660819 0,0" stroke="none"/></g></g><g clip-path="url(#i3)"><polygon points="0,0 20,0 20,20 0,20 0,0" stroke="none"/></g><g transform="translate(3.8596491365132124 1.0526315789473406)"><g clip-path="url(#i4)"><polygon points="0,0 13.6842105,0 13.6842105,15.5555556 0,15.5555556 0,0" stroke="none"/></g></g><g transform="translate(3.742690069901414 0.9356725123354863)"><g clip-path="url(#i5)"><polygon points="0,0 13.9181287,0 13.9181287,15.7894737 0,15.7894737 0,0" stroke="none"/></g></g></g></g></g></g></g></svg>