<?xml version="1.0" encoding="UTF-8"?><svg version="1.1" width="25px" height="25px" viewBox="0 0 25.0 25.0" xmlns="http://www.w3.org/2000/svg" xmlns:xlink="http://www.w3.org/1999/xlink"><defs><clipPath id="i0"><path d="M1440,0 L1440,1255 L0,1255 L0,0 L1440,0 Z"></path></clipPath><clipPath id="i1"><path d="M24,0 L24,24 L0,24 L0,0 L24,0 Z"></path></clipPath><clipPath id="i2"><path d="M7.21893492,0 C8.87573964,0 10.295858,1.42011835 10.295858,3.07692307 L10.295858,3.90532543 L8.63905325,3.90532543 L8.63905325,3.07692307 C8.63905325,2.36686391 8.04733728,1.65680472 7.21893492,1.65680472 L0,1.65680472 L0,0 L7.21893492,0 Z"></path></clipPath><clipPath id="i3"><path d="M5.56213018,0 C6.74556213,0 7.81065089,0.710059164 8.28402368,1.77514792 L8.99408284,3.19526627 C9.23076924,3.66863906 9.70414201,4.02366863 10.295858,4.02366863 L16.9230769,4.02366863 C18.5798816,4.02366863 20,5.44378698 20,7.1005917 L20,16.9230769 C20,18.5798816 18.5798817,20 16.9230769,20 L3.07692307,20 C1.42011835,20 0,18.5798816 0,16.9230769 L0,3.07692307 C0,1.42011835 1.42011835,0 3.07692307,0 L5.56213018,0 Z M9.23076924,15.0295858 L4.61538462,15.0295858 C4.14201185,15.0295858 3.78698226,15.3846154 3.78698226,15.8579882 C3.78698226,16.3313609 4.14201183,16.6863905 4.61538462,16.6863905 L9.11242604,16.6863905 C9.58579881,16.6863905 9.9408284,16.2130177 10.0591716,15.8579882 C10.0591716,15.3846154 9.70414203,15.0295858 9.23076924,15.0295858 Z"></path></clipPath></defs><g transform="translate(-284.0 -483.0)"><g clip-path="url(#i0)"><g transform="translate(284.10526315994866 483.1052631599507)"><g clip-path="url(#i1)"><g transform="translate(2.0 2.0)"><g transform="translate(7.337278098261812 0.9467455590528542)"><g clip-path="url(#i2)"><polygon points="0,0 10.295858,0 10.295858,3.90532543 0,3.90532543 0,0" stroke="none" fill="#44B044"></polygon></g></g><g clip-path="url(#i3)"><polygon points="0,0 20,0 20,20 0,20 0,0" stroke="none" fill="#44B044"></polygon></g></g></g></g></g></g></svg>