<?xml version="1.0" encoding="UTF-8"?><svg version="1.1" width="16px" height="17px" viewBox="0 0 16.0 17.0" xmlns="http://www.w3.org/2000/svg" xmlns:xlink="http://www.w3.org/1999/xlink"><defs><clipPath id="i0"><path d="M1440,0 L1440,1168 L0,1168 L0,0 L1440,0 Z"></path></clipPath><clipPath id="i1"><path d="M10.9088165,5.44801536e-06 C11.5809332,5.44801536e-06 12.5086153,0.360492362 12.9815118,0.803865251 L15.1447617,2.8356697 C15.6156458,3.27904259 15.9979877,4.5243421 16,5.14891956 L16,14.8645689 C16,15.4872187 15.4546598,15.9999946 14.7905924,15.9999946 L3.63828449,15.9999946 C2.97622941,16.0019168 2.43692617,15.4949295 2.42887687,14.8645689 L2.42887687,14.1050519 L3.55376682,14.1050519 L3.55376682,14.6949306 C3.55376682,14.7566173 3.57992705,14.8163762 3.62621054,14.8587858 C3.67249403,14.9031231 3.75902402,14.9995085 3.82341844,14.9975808 L14.6074708,14.9975808 C14.7422966,14.9956531 14.9515784,15.1248095 14.9556031,14.9975808 L14.9556031,5.33397955 C14.9556031,5.26458205 14.973714,4.75181167 14.9556031,4.6669925 L11.12816,4.6669925 L11.12816,1.00049149 L3.82341844,1.00049149 C3.68859263,1.0024192 3.47931078,1.20675627 3.47528613,1.33398501 L3.47528613,2.9995249 L2.4308892,2.9995249 L2.42887687,1.13543106 C2.43692617,0.505070478 2.97622941,-0.00191678113 3.63828449,5.44801536e-06 Z M8.69324613,4.6650648 L8.69324613,12.994692 L0,12.994692 L0,4.6650648 L8.69324613,4.6650648 Z M6.6064646,5.99903888 L2.43290152,5.99903888 L2.42887687,11.6395131 L6.61048925,11.6684287 L6.6064646,10.6660205 L3.47528613,10.6660205 L3.47528613,9.33397408 L6.25833229,9.33397408 L6.25833229,8.33349352 C6.37134448,8.32146462 5.61156765,8.31673325 4.85614388,8.3149626 L4.18561771,8.31404273 C4.03107111,8.31395982 3.89112917,8.31396352 3.7765715,8.31400053 L3.4652245,8.31421644 L3.47528613,6.99951944 L6.6064646,6.99951944 L6.6064646,5.99903888 Z M13.5670985,10.6698759 L13.5670985,11.6645733 L9.73965539,11.6645733 L9.73965539,10.6698759 L13.5670985,10.6698759 Z M13.5670985,8.33542123 L13.5670985,9.33011867 L9.73965539,9.33011867 L9.73965539,8.33542123 L13.5670985,8.33542123 Z M13.5670985,6.00096659 L13.5670985,6.99951944 L9.73965539,6.99951944 L9.73965539,6.00096659 L13.5670985,6.00096659 Z M12.1262734,1.57109312 L12.1262734,3.63759632 L14.3015973,3.63759632 L12.1262734,1.57109312 Z"></path></clipPath></defs><g transform="translate(-557.0 -437.0)"><g clip-path="url(#i0)"><g transform="translate(418.0 361.5)"><g transform="translate(0.0 18.5)"><g transform="translate(139.0 57.3571428571413)"><g clip-path="url(#i1)"><polygon points="0,-5.33607463e-15 16,-5.33607463e-15 16,16 0,16 0,-5.33607463e-15" stroke="none" fill="#505050"></polygon></g></g></g></g></g></g></svg>