<?xml version="1.0" encoding="UTF-8"?><svg version="1.1" width="40px" height="40px" viewBox="0 0 40.0 40.0" xmlns="http://www.w3.org/2000/svg" xmlns:xlink="http://www.w3.org/1999/xlink"><defs><clipPath id="i0"><path d="M1440,0 L1440,1024 L0,1024 L0,0 L1440,0 Z"></path></clipPath><clipPath id="i1"><path d="M32,0 C36.418278,-8.11624501e-16 40,3.581722 40,8 L40,32 C40,36.418278 36.418278,40 32,40 L8,40 C3.581722,40 5.41083001e-16,36.418278 0,32 L0,8 C-5.41083001e-16,3.581722 3.581722,8.11624501e-16 8,0 L32,0 Z"></path></clipPath><clipPath id="i2"><path d="M9.45454546,12.3636364 C10.6595304,12.3636364 11.6363636,13.3404696 11.6363636,14.5454545 L11.6363636,21.8181818 C11.6363636,23.0231667 10.6595304,24 9.45454546,24 L2.18181818,24 C0.976833271,24 0,23.0231667 0,21.8181818 L0,14.5454545 C0,13.3404696 0.976833271,12.3636364 2.18181818,12.3636364 L9.45454546,12.3636364 Z M21.8181818,12.3636364 C23.0231667,12.3636364 24,13.3404696 24,14.5454545 L24,21.8181818 C24,23.0231667 23.0231667,24 21.8181818,24 L14.5454545,24 C13.3404696,24 12.3636364,23.0231667 12.3636364,21.8181818 L12.3636364,14.5454545 C12.3636364,13.3404696 13.3404696,12.3636364 14.5454545,12.3636364 L21.8181818,12.3636364 Z M9.45454545,14.5454545 L2.18181818,14.5454545 L2.18181818,21.8181818 L9.45454545,21.8181818 L9.45454545,14.5454545 Z M21.8181818,14.5454545 L14.5454545,14.5454545 L14.5454545,21.8181818 L21.8181818,21.8181818 L21.8181818,14.5454545 Z M9.45454546,0 C10.6595304,0 11.6363636,0.976833271 11.6363636,2.18181818 L11.6363636,9.45454546 C11.6363636,10.6595304 10.6595304,11.6363636 9.45454546,11.6363636 L2.18181818,11.6363636 C0.976833271,11.6363636 0,10.6595304 0,9.45454546 L0,2.18181818 C0,0.976833271 0.976833271,0 2.18181818,0 L9.45454546,0 Z M18.1818182,0 C21.3951113,0 24,2.60488873 24,5.81818182 C24,9.03147491 21.3951113,11.6363636 18.1818182,11.6363636 C14.9685251,11.6363636 12.3636364,9.03147491 12.3636364,5.81818182 C12.3636364,2.60488873 14.9685251,0 18.1818182,0 Z M9.45454545,2.18181818 L2.18181818,2.18181818 L2.18181818,9.45454545 L9.45454545,9.45454545 L9.45454545,2.18181818 Z M18.1818182,2.18181818 C16.8826706,2.18181818 15.6822087,2.87490515 15.0326349,3.99999998 C14.3830611,5.12509482 14.3830611,6.51126882 15.0326349,7.63636365 C15.6822087,8.76145848 16.8826706,9.45454545 18.1818182,9.45454545 C20.1901264,9.45454545 21.8181818,7.82648998 21.8181818,5.81818182 C21.8181818,3.80987366 20.1901264,2.18181818 18.1818182,2.18181818 Z"></path></clipPath></defs><g transform="translate(-1072.0 -418.0)"><g clip-path="url(#i0)"><g transform="translate(264.0 178.0)"><g transform="translate(808.0 237.99998693029397)"><g transform="translate(0.0 1.9999869302939715)"><g clip-path="url(#i1)"><polygon points="0,0 40,0 40,40 0,40 0,0" stroke="none" fill="#1A67E3"></polygon></g><g transform="translate(8.0 8.000026139412057)"><g clip-path="url(#i2)"><polygon points="0,0 24,0 24,24 0,24 0,0" stroke="none" fill="#FFFFFF"></polygon></g></g></g></g></g></g></g></svg>