<?xml version="1.0" encoding="UTF-8"?><svg version="1.1" width="40px" height="40px" viewBox="0 0 40.0 40.0" xmlns="http://www.w3.org/2000/svg" xmlns:xlink="http://www.w3.org/1999/xlink"><defs><clipPath id="i0"><path d="M1440,0 L1440,1024 L0,1024 L0,0 L1440,0 Z"></path></clipPath><clipPath id="i1"><path d="M40,0 L40,40 L0,40 L0,0 L40,0 Z"></path></clipPath><clipPath id="i2"><path d="M32,0 C36.418278,-8.11624501e-16 40,3.581722 40,8 L40,32 C40,36.418278 36.418278,40 32,40 L8,40 C3.581722,40 5.41083001e-16,36.418278 0,32 L0,8 C-5.41083001e-16,3.581722 3.581722,8.11624501e-16 8,0 L32,0 Z"></path></clipPath><clipPath id="i3"><path d="M12.5,0 C19.4036011,0 25,5.59644235 25,12.5000122 C25,19.4035577 19.4036011,25 12.5,25 C5.59644782,25 0,19.4035821 0,12.5000122 C0,5.59644235 5.59644782,0 12.5,0 Z M12.5,1.71153999 C11.0428179,1.71153999 9.63011139,1.99656029 8.30117264,2.55865448 C7.01668509,3.10194618 5.86273924,3.88006114 4.87141432,4.87140955 C3.88006493,5.86273351 3.10194921,7.01667823 2.55865698,8.30116453 C1.99656227,9.63012643 1.71154167,11.0428315 1.71154167,12.5000122 C1.71154167,13.9571929 1.99656224,15.369898 2.55865698,16.6988599 C3.10194921,17.9833218 3.88006493,19.1372665 4.87141432,20.1286149 C5.86273924,21.1199389 7.01668509,21.8980783 8.30117264,22.44137 C9.63011141,23.0034886 11.0428179,23.2884845 12.5,23.2884845 C13.9572066,23.2884845 15.3698886,23.0034642 16.6988518,22.44137 C17.9833394,21.8980783 19.1372607,21.1199389 20.1286101,20.1286149 C21.1199595,19.1372909 21.8980752,17.9833218 22.4413675,16.6988599 C23.0034867,15.369898 23.2884828,13.9572174 23.2884828,12.5000122 C23.2884828,11.0428071 23.0034622,9.63012643 22.4413675,8.30116453 C21.8980752,7.01670266 21.119935,5.86275797 20.1286101,4.87140955 C19.1372852,3.88006114 17.9833393,3.10194618 16.6988518,2.55865448 C15.3698886,1.99656031 13.9572066,1.71153999 12.5,1.71153999 Z"></path></clipPath><clipPath id="i4"><path d="M5.5,0 C8.53759645,0 11,2.4624217 11,5.50001169 C11,8.5375783 8.53759645,11 5.5,11 C2.46245032,11 0,8.5375783 0,5.50001169 C0,2.4624217 2.46245032,0 5.5,0 Z M5.5,1.63665772 C4.46806175,1.63665772 3.49787236,2.03850394 2.76820202,2.76819611 C2.03853168,3.49788829 1.63666122,4.46805222 1.63666122,5.49998831 C1.63666122,6.53192437 2.03850832,7.50211169 2.76820202,8.23178048 C3.49789572,8.96144926 4.46806172,9.36331887 5.5,9.36331887 C6.53196167,9.36331887 7.50212766,8.96147263 8.231798,8.23178048 C8.96146834,7.50211171 9.3633388,6.53192439 9.3633388,5.49998831 C9.3633388,4.46805222 8.96149171,3.4978649 8.231798,2.76819611 C7.50212766,2.03852733 6.53196167,1.63665772 5.5,1.63665772 Z"></path></clipPath><clipPath id="i5"><path d="M12.7304865,0 C14.3671167,0 15.9140832,0.511068838 17.0864823,1.43905261 C17.6768216,1.90629958 18.1428953,2.45531173 18.4718055,3.07080972 C18.8222761,3.72672874 19,4.42620243 19,5.14979757 C19,5.61935223 18.6250017,6 18.1624457,6 C17.6998896,6 17.3249152,5.61935223 17.3249152,5.14979757 C17.3249152,4.26906073 16.8744435,3.42745747 16.0564634,2.77999188 C15.1769129,2.08379756 13.9957317,1.70040484 12.7304626,1.70040484 L6.26951353,1.70040484 C5.00424434,1.70040484 3.82306321,2.08379756 2.94353661,2.77999188 C2.12555653,3.42743317 1.67506087,4.2690607 1.67506087,5.14979757 C1.67506087,5.61935223 1.30008653,6 0.837530436,6 C0.374974338,6 0,5.61935223 0,5.14979757 C0,4.42620243 0.17772395,3.72672874 0.52821848,3.07080972 C0.857104726,2.45531175 1.32320236,1.90632388 1.91354169,1.43905261 C3.08594071,0.511068814 4.6329312,0 6.26953746,0 L12.7304865,0 Z"></path></clipPath></defs><g transform="translate(-658.0 -346.0)"><g clip-path="url(#i0)"><g transform="translate(264.0 178.0)"><g transform="translate(394.0 165.9999999999998)"><g transform="translate(0.0 1.9999869302939715)"><g clip-path="url(#i1)"><g clip-path="url(#i2)"><polygon points="0,0 40,0 40,40 0,40 0,0" stroke="none" fill="#1A67E3"></polygon></g><g transform="translate(8.0 7.000013069706256)"><g clip-path="url(#i3)"><polygon points="0,0 25,0 25,25 0,25 0,0" stroke="none" fill="#FFFFFF"></polygon></g><g transform="translate(7.0 5.0)"><g clip-path="url(#i4)"><polygon points="0,0 11,0 11,11 0,11 0,0" stroke="none" fill="#FFFFFF"></polygon></g></g><g transform="translate(3.0 15.0)"><g clip-path="url(#i5)"><polygon points="0,0 19,0 19,6 0,6 0,0" stroke="none" fill="#FFFFFF"></polygon></g></g></g></g></g></g></g></g></g></svg>