<?xml version="1.0" encoding="UTF-8"?><svg version="1.1" width="40px" height="40px" viewBox="0 0 40.0 40.0" xmlns="http://www.w3.org/2000/svg" xmlns:xlink="http://www.w3.org/1999/xlink"><defs><clipPath id="i0"><path d="M1440,0 L1440,1024 L0,1024 L0,0 L1440,0 Z"></path></clipPath><clipPath id="i1"><path d="M32,0 C36.418278,-8.11624501e-16 40,3.581722 40,8 L40,32 C40,36.418278 36.418278,40 32,40 L8,40 C3.581722,40 5.41083001e-16,36.418278 0,32 L0,8 C-5.41083001e-16,3.581722 3.581722,8.11624501e-16 8,0 L32,0 Z"></path></clipPath><clipPath id="i2"><path d="M9.15796863,0 C11.9002682,0 14.212225,1.77994943 14.9144168,4.20710493 C15.2096078,4.15430396 15.5091713,4.1277963 15.8093544,4.12791403 C18.4852907,4.12791403 20.6579683,6.20844501 20.6579683,8.77906448 C20.6579683,10.3051833 19.8922067,11.6585588 18.7100172,12.5064223 C21.2079842,13.6471808 22.9520942,16.1791656 22.9990341,19.1223515 L23,19.2441972 L23,20 L0.780669213,20 C0.479502366,20 0.218148231,19.8348925 0.0879541372,19.5930468 L0.060046079,19.5930468 L0.0604898928,19.5364349 C0.0204295307,19.443897 0,19.3445396 0,19.2441972 C0,19.1614328 0.0137382249,19.0817811 0.0391257374,19.0072576 L0.0854217877,18.899469 C0.356964898,15.2022263 2.7817097,12.1146963 6.08924542,10.9282523 L6.35217756,10.8388369 C4.46667364,9.87107459 3.18277243,7.95830594 3.18277243,5.75580278 C3.18277243,2.57597977 5.85896986,0 9.15796863,0 Z M15.0653607,13.0006425 L15,13 C16.3305271,14.3499876 17.2237621,16.0820114 17.4698291,17.9999259 L21,18 L20.9986123,17.9887818 C20.6367556,15.3636274 18.4010315,13.3047195 15.616472,13.0309859 C15.4631034,13.0455646 15.3076809,13.0539906 15.1505655,13.0562392 L15.0653607,13.0568569 L15.0653607,13.0006425 Z M15.7952056,6 C15.5711003,6 15.3504565,6.02257367 15.135514,6.06688117 L15.1359467,6.11704205 C15.1359467,8.26957962 13.9558183,10.1471863 12.2045673,11.1460541 L12,11.257094 C13.0972123,11.6346622 14.0994121,12.2322154 14.9592585,13 C14.9708138,12.5902638 15.3069335,12.2615331 15.719893,12.2615331 C15.9078309,12.2615331 16.094038,12.2691934 16.278209,12.2842341 C17.8203231,12.05468 19,10.7418189 19,9.1600589 C19,7.41669484 17.5670243,6 15.7952056,6 Z"></path></clipPath></defs><g transform="translate(-1072.0 -346.0)"><g clip-path="url(#i0)"><g transform="translate(264.0 178.0)"><g transform="translate(808.0 165.9999999999998)"><g transform="translate(0.0 1.9999869302939715)"><g clip-path="url(#i1)"><polygon points="0,0 40,0 40,40 0,40 0,0" stroke="none" fill="#1A67E3"></polygon></g><g transform="translate(9.0 10.00001306970626)"><g clip-path="url(#i2)"><polygon points="0,0 23,0 23,20 0,20 0,0" stroke="none" fill="#FFFFFF"></polygon></g></g></g></g></g></g></g></svg>