<?xml version="1.0" encoding="UTF-8"?><svg version="1.1" width="40px" height="40px" viewBox="0 0 40.0 40.0" xmlns="http://www.w3.org/2000/svg" xmlns:xlink="http://www.w3.org/1999/xlink"><defs><clipPath id="i0"><path d="M1440,0 L1440,1024 L0,1024 L0,0 L1440,0 Z"></path></clipPath><clipPath id="i1"><path d="M1216,0 L1216,2703 L0,2703 L0,0 L1216,0 Z"></path></clipPath><clipPath id="i2"><path d="M1120,0 C1128.83656,-1.623249e-15 1136,7.163444 1136,16 L1136,300 C1136,308.836556 1128.83656,316 1120,316 L16,316 C7.163444,316 1.082166e-15,308.836556 0,300 L0,16 C-1.082166e-15,7.163444 7.163444,1.623249e-15 16,0 L1120,0 Z"></path></clipPath><clipPath id="i3"><path d="M32,0 C36.418278,-8.11624501e-16 40,3.581722 40,8 L40,32 C40,36.418278 36.418278,40 32,40 L8,40 C3.581722,40 5.41083001e-16,36.418278 0,32 L0,8 C-5.41083001e-16,3.581722 3.581722,8.11624501e-16 8,0 L32,0 Z"></path></clipPath><clipPath id="i4"><path d="M17.1851824,0 C17.6713352,0 18.1202912,0.25562085 18.3858586,0.683603187 L21.7667251,6.13431612 C21.9198373,6.38117282 22.000286,6.6668839 22,6.96135912 L22,24.489646 C22,25.3225317 21.3566959,26 20.5657606,26 L1.43423711,26 C0.643301766,26 0,25.3225317 0,24.489646 L0,1.51035405 C0,0.677468286 0.643301766,0 1.43423711,0 Z M15.6431036,16.3384083 L6.35718245,16.3384083 C6.13342531,16.3384083 5.94426979,16.5966584 5.94426979,16.9022349 L5.94426979,24.1589456 L16.0560162,24.1589456 L16.0560162,16.9022349 C16.0560162,16.5963663 15.8671491,16.3384083 15.6431036,16.3384083 Z M3.40451096,1.84134653 L1.81745004,1.84134653 L1.81745004,24.1589456 L4.12681976,24.1589456 L4.12681976,16.9022349 C4.12681976,15.5759278 5.12709489,14.4970618 6.35718245,14.4970618 L15.6431036,14.4970618 C16.8731911,14.4970618 17.8734663,15.57622 17.8734663,16.9022349 L17.8734663,24.1589456 L20.1831244,24.1589456 L20.1831244,7.04140496 L16.9576768,1.84134653 L16.3103381,1.84134653 L16.3103381,6.70047978 C16.3103381,7.88509983 15.351585,8.84886347 14.1731115,8.84886347 L5.54173763,8.84886347 C4.36326415,8.84886347 3.40451096,7.88509983 3.40451096,6.70047978 L3.40451096,1.84134653 Z M7.04661971,1.84134653 L5.221961,1.84134653 L5.221961,6.70047978 C5.221961,6.86991989 5.36555772,7.00780908 5.54173763,7.00780908 L14.1728231,7.00780908 C14.349003,7.00780908 14.4925998,6.86991989 14.4925998,6.70047978 L14.4925998,1.84134653 L12.5546208,1.84134653 L12.5546208,5.21349678 C12.5546208,5.7218171 12.1477634,6.13402398 11.6460399,6.13402398 C11.1443164,6.13402398 10.7374591,5.72210924 10.7374591,5.21349678 L10.7374591,1.84134653 L8.8637814,1.84134653 L8.8637814,5.21349678 C8.8637814,5.7218171 8.45692403,6.13402398 7.95520055,6.13402398 C7.45347708,6.13402398 7.04661971,5.72210924 7.04661971,5.21349678 L7.04661971,1.84134653 Z"></path></clipPath><clipPath id="i5"><path d="M5.06565881,0 C5.58174003,0 6,0.447476991 6,1 C6,1.55220565 5.58203646,2 5.06595524,2 L0.934044761,2 C0.418259967,2 0,1.55252301 0,1 C0,0.447794351 0.417963539,0 0.934044761,0 Z"></path></clipPath></defs><g transform="translate(-1072.0 -274.0)"><rect x="0px" y="0px" width="1440px" height="1024px" fill="#FFFFFF"></rect><g clip-path="url(#i0)"><g clip-path="url(#i0)"><polygon points="0,0 1440,0 1440,1024 0,1024 0,0" stroke="none" fill="#FFFFFF"></polygon></g><g transform="translate(224.0 -11.0)"><g transform="translate(0.0 107.0)"><g clip-path="url(#i1)"><polygon points="0,0 1216,0 1216,928 0,928 0,0" stroke="none" fill="#FAFAFA"></polygon></g></g></g><g transform="translate(264.0 178.0)"><g clip-path="url(#i2)"><polygon points="0,0 1136,0 1136,316 0,316 0,0" stroke="none" fill="#FFFFFF"></polygon></g><g transform="translate(808.0 94.00001306970626)"><g transform="translate(0.0 1.9999869302939715)"><g clip-path="url(#i3)"><polygon points="0,0 40,0 40,40 0,40 0,0" stroke="none" fill="#1A67E3"></polygon></g><g transform="translate(9.00000000000029 6.999999999999773)"><g clip-path="url(#i4)"><polygon points="0,0 22.0000008,0 22.0000008,26 0,26 0,0" stroke="none" fill="#FFFFFF"></polygon></g><g transform="translate(8.0 19.0)"><g clip-path="url(#i5)"><polygon points="0,0 6,0 6,2 0,2 0,0" stroke="none" fill="#FFFFFF"></polygon></g></g></g></g><g transform="translate(0.0 1.9999869302939715)"><g clip-path="url(#i3)"><polygon points="0,0 40,0 40,40 0,40 0,0" stroke="none" fill="#1A67E3"></polygon></g><g transform="translate(9.00000000000029 6.999999999999773)"><g clip-path="url(#i4)"><polygon points="0,0 22.0000008,0 22.0000008,26 0,26 0,0" stroke="none" fill="#FFFFFF"></polygon></g><g transform="translate(8.0 19.0)"><g clip-path="url(#i5)"><polygon points="0,0 6,0 6,2 0,2 0,0" stroke="none" fill="#FFFFFF"></polygon></g></g></g></g></g></g></g></g></svg>