<?xml version="1.0" encoding="UTF-8"?><svg version="1.1" width="40px" height="40px" viewBox="0 0 40.0 40.0" xmlns="http://www.w3.org/2000/svg" xmlns:xlink="http://www.w3.org/1999/xlink"><defs><clipPath id="i0"><path d="M1440,0 L1440,1024 L0,1024 L0,0 L1440,0 Z"></path></clipPath><clipPath id="i1"><path d="M40,0 L40,40 L0,40 L0,0 L40,0 Z"></path></clipPath><clipPath id="i2"><path d="M32,0 C36.418278,-8.11624501e-16 40,3.581722 40,8 L40,32 C40,36.418278 36.418278,40 32,40 L8,40 C3.581722,40 5.41083001e-16,36.418278 0,32 L0,8 C-5.41083001e-16,3.581722 3.581722,8.11624501e-16 8,0 L32,0 Z"></path></clipPath><clipPath id="i3"><path d="M22.0884464,0 C23.694721,0 25,1.30409639 25,2.90891566 L25,21.0881928 C25,22.6959036 23.694721,24 22.0884464,24 L2.9115536,24 C1.305279,24 0,22.6959036 0,21.0910843 L0,2.90891566 C0,1.30409639 1.305279,0 2.9115536,0 Z M22.0884464,1.74650602 L2.9115536,1.74650602 C2.26904376,1.74650602 1.74808984,2.26987952 1.74808984,2.90891566 L1.74808984,21.0881928 C1.74808984,21.7301205 2.27193795,22.2506024 2.9115536,22.2506024 L22.0884464,22.2506024 C22.7309562,22.2506024 23.2519102,21.7272289 23.2519102,21.0881928 L23.2519102,17.8901205 L18.8845798,17.8901205 C18.4012503,17.8901205 18.0105348,17.499759 18.0105348,17.0168675 C18.0105348,16.5339759 18.4012503,16.1436145 18.8845798,16.1436145 L23.2519102,16.1436145 L23.2519102,12.653494 L18.8845798,12.653494 C18.4012503,12.653494 18.0105348,12.2631325 18.0105348,11.780241 C18.0105348,11.2973494 18.4012503,10.906988 18.8845798,10.906988 L23.2519102,10.906988 L23.2519102,7.41975904 L18.8845798,7.41975904 C18.4012503,7.41975904 18.0105348,7.02939759 18.0105348,6.54650602 C18.0105348,6.06361446 18.4012503,5.67325301 18.8845798,5.67325301 L23.2519102,5.67325301 L23.2519102,2.90891566 C23.2519102,2.26698795 22.7280621,1.74650602 22.0884464,1.74650602 Z"></path></clipPath><clipPath id="i4"><path d="M6.5,0 C8.85651368,0 10.7760779,1.89810275 10.7760779,4.23193349 C10.7760779,5.46152206 10.2457116,6.56874867 9.3989337,7.34171818 C11.529439,8.39820934 13,10.5828182 13,13.0986996 C13,13.5971008 12.593185,14 12.0899397,14 C11.5866945,14 11.1798795,13.5971008 11.1798795,13.0986996 C11.1798795,10.5440205 9.07950858,8.46386698 6.5,8.46386698 C3.92049142,8.46386698 1.82012054,10.541036 1.82012054,13.0986996 C1.82012054,13.5971008 1.41330552,14 0.910060269,14 C0.406815021,14 0,13.5971008 0,13.0986996 C0,10.5798337 1.46754752,8.3952249 3.6010663,7.33873375 C2.75730181,6.56576423 2.22693556,5.45853763 2.22693556,4.23193349 C2.22693556,1.89810275 4.14348632,0 6.5,0 Z M6.5,1.79961629 C5.14696338,1.79961629 4.04404265,2.8919207 4.04404265,4.23193349 C4.04404265,5.57194628 5.14696338,6.66425069 6.5,6.66425069 C7.85303662,6.66425069 8.95595735,5.57194628 8.95595735,4.23193349 C8.95595735,2.8919207 7.85605007,1.79961629 6.5,1.79961629 Z"></path></clipPath></defs><g transform="translate(-292.0 -346.0)"><g clip-path="url(#i0)"><g transform="translate(264.0 178.0)"><g transform="translate(28.0 165.9999999999998)"><g transform="translate(0.0 1.9999869302939715)"><g clip-path="url(#i1)"><g clip-path="url(#i2)"><polygon points="0,0 40,0 40,40 0,40 0,0" stroke="none" fill="#1A67E3"></polygon></g><g transform="translate(7.0 8.000013069706256)"><g clip-path="url(#i3)"><polygon points="0,0 25,0 25,24 0,24 0,0" stroke="none" fill="#FFFFFF"></polygon></g><g transform="translate(4.0 5.0)"><g clip-path="url(#i4)"><polygon points="0,0 13,0 13,14 0,14 0,0" stroke="none" fill="#FFFFFF"></polygon></g></g></g></g></g></g></g></g></g></svg>