<?xml version="1.0" encoding="UTF-8"?><svg version="1.1" width="40px" height="40px" viewBox="0 0 40.0 40.0" xmlns="http://www.w3.org/2000/svg" xmlns:xlink="http://www.w3.org/1999/xlink"><defs><clipPath id="i0"><path d="M1440,0 L1440,1024 L0,1024 L0,0 L1440,0 Z"></path></clipPath><clipPath id="i1"><path d="M32,0 C36.418278,-8.11624501e-16 40,3.581722 40,8 L40,32 C40,36.418278 36.418278,40 32,40 L8,40 C3.581722,40 5.41083001e-16,36.418278 0,32 L0,8 C-5.41083001e-16,3.581722 3.581722,8.11624501e-16 8,0 L32,0 Z"></path></clipPath><clipPath id="i2"><path d="M8,0 C11.4,0 14,2.59999999 14,6 L14,8 L15,8 C15.6,8 16,8.39999999 16,9 L16,19 C16,19.6 15.6,20 15,20 L1,20 C0.400000008,20 0,19.6 0,19 L0,9 C0,8.40000002 0.399999985,8 1,8 L2,8 L2,6 C2,2.60000001 4.59999999,0 8,0 Z M14,10 L1.99999999,10 L1.99999999,18 L14,18 L14,10 Z M7.99999999,2.00000001 C5.79999999,2.00000001 3.99999999,3.79999999 3.99999999,6.00000001 L3.99999999,8.00000001 L12,8.00000001 L12,6.00000001 C12,3.80000001 10.2,2.00000001 7.99999999,2.00000001 Z"></path></clipPath><clipPath id="i3"><path d="M1,0 C1.5,0 2,0.400000007 2,1 L2,3 C2,3.59999999 1.6,4 1,4 C0.400000005,4 0,3.59999999 0,3 L0,1 C0,0.5 0.400000005,0 1,0 Z"></path></clipPath></defs><g transform="translate(-292.0 -418.0)"><g clip-path="url(#i0)"><g transform="translate(264.0 178.0)"><g transform="translate(28.0 237.99998693029397)"><g transform="translate(0.0 1.9999869302939715)"><g clip-path="url(#i1)"><polygon points="0,0 40,0 40,40 0,40 0,0" stroke="none" fill="#1A67E3"></polygon></g><g transform="translate(12.0 10.00002613941206)"><g clip-path="url(#i2)"><polygon points="0,0 16,0 16,20 0,20 0,0" stroke="none" fill="#FFFFFF"></polygon></g><g transform="translate(7.0 12.0)"><g clip-path="url(#i3)"><polygon points="0,0 2,0 2,4 0,4 0,0" stroke="none" fill="#FFFFFF"></polygon></g></g></g></g></g></g></g></g></svg>