<?xml version="1.0" encoding="UTF-8"?><svg version="1.1" width="40px" height="40px" viewBox="0 0 40.0 40.0" xmlns="http://www.w3.org/2000/svg" xmlns:xlink="http://www.w3.org/1999/xlink"><defs><clipPath id="i0"><path d="M1440,0 L1440,1024 L0,1024 L0,0 L1440,0 Z"></path></clipPath><clipPath id="i1"><path d="M40,0 L40,40 L0,40 L0,0 L40,0 Z"></path></clipPath><clipPath id="i2"><path d="M32,0 C36.418278,-8.11624501e-16 40,3.581722 40,8 L40,32 C40,36.418278 36.418278,40 32,40 L8,40 C3.581722,40 5.41083001e-16,36.418278 0,32 L0,8 C-5.41083001e-16,3.581722 3.581722,8.11624501e-16 8,0 L32,0 Z"></path></clipPath><clipPath id="i3"><path d="M17.368421,0 C17.8916382,0 18.3157895,0.42415129 18.3157895,0.947368422 L18.3157895,1.89473684 L20.527579,1.89473684 C22.4463158,1.89473684 24,3.44968419 24,5.37126315 L24,20.5231579 C24,22.4434737 22.4456842,24 20.527579,24 L3.47242104,24 C1.55368421,24 0,22.4450527 0,20.5234737 L0,5.37157895 C0,3.45126316 1.55431578,1.89473684 3.47242104,1.89473684 L5.68421053,1.89473684 L5.68421053,0.947368422 C5.68421053,0.42415129 6.10836182,0 6.63157895,0 C7.15479608,0 7.57894737,0.42415129 7.57894737,0.947368422 L7.57894737,1.89473684 L16.4210526,1.89473684 L16.4210526,0.947368422 C16.4210526,0.42415129 16.8452039,0 17.368421,0 Z M5.75000331,4 L3.56125445,4 C3.14663384,4.00049352 2.74919706,4.16455981 2.456397,4.45609735 C2.16359694,4.74763489 1.99942476,5.14275597 2,5.55451723 L2,20.4451724 C1.99892615,20.8571131 2.16292792,21.2525536 2.45582697,21.5442479 C2.74872602,21.8359422 3.14645186,22 3.56125445,22 L20.4387456,22 C20.8533662,21.9995065 21.2508029,21.8354402 21.543603,21.5439026 C21.8364031,21.2523651 22.0005752,20.857244 22,20.4454828 L22,5.55482759 C22.0010739,5.14288688 21.8370721,4.74744644 21.544173,4.45575212 C21.251274,4.16405779 20.8535481,4 20.4387456,4 L18.2499967,4 L18.2499967,4.93103448 C18.2499967,5.44523063 17.8302639,5.86206897 17.3124972,5.86206897 C16.7947305,5.86206897 16.3749977,5.44523063 16.3749977,4.93103448 L16.3749977,4 L7.62500232,4 L7.62500232,4.93103448 C7.62500232,5.44523063 7.2052695,5.86206897 6.68750282,5.86206897 C6.16973614,5.86206897 5.75000331,5.44523063 5.75000331,4.93103448 L5.75000331,4 Z M14.0625,15 C14.580267,15 15,15.4477153 15,16 C15,16.5522847 14.580267,17 14.0625,17 L5.9375,17 C5.41973305,17 5,16.5522847 5,16 C5,15.4477153 5.41973305,15 5.9375,15 L14.0625,15 Z M18.0454545,10 C18.5726354,10 19,10.4477153 19,11 C19,11.5522847 18.5726354,12 18.0454545,12 L5.95454545,12 C5.42736456,12 5,11.5522847 5,11 C5,10.4477153 5.42736456,10 5.95454545,10 L18.0454545,10 Z"></path></clipPath></defs><g transform="translate(-658.0 -274.0)"><g clip-path="url(#i0)"><g transform="translate(264.0 178.0)"><g transform="translate(394.0 94.00001306970626)"><g transform="translate(0.0 1.9999869302939715)"><g clip-path="url(#i1)"><g clip-path="url(#i2)"><polygon points="0,0 40,0 40,40 0,40 0,0" stroke="none" fill="#1A67E3"></polygon></g><g transform="translate(8.0 7.999999999999773)"><g clip-path="url(#i3)"><polygon points="0,0 24,0 24,24 0,24 0,0" stroke="none" fill="#FFFFFF"></polygon></g></g></g></g></g></g></g></g></svg>