<?xml version="1.0" encoding="UTF-8"?><svg version="1.1" width="40px" height="40px" viewBox="0 0 40.0 40.0" xmlns="http://www.w3.org/2000/svg" xmlns:xlink="http://www.w3.org/1999/xlink"><defs><clipPath id="i0"><path d="M1440,0 L1440,1024 L0,1024 L0,0 L1440,0 Z"></path></clipPath><clipPath id="i1"><path d="M40,0 L40,40 L0,40 L0,0 L40,0 Z"></path></clipPath><clipPath id="i2"><path d="M32,0 C36.418278,-8.11624501e-16 40,3.581722 40,8 L40,32 C40,36.418278 36.418278,40 32,40 L8,40 C3.581722,40 5.41083001e-16,36.418278 0,32 L0,8 C-5.41083001e-16,3.581722 3.581722,8.11624501e-16 8,0 L32,0 Z"></path></clipPath><clipPath id="i3"><path d="M21.0227273,0 L25,5.30340909 L25,25 L0,25 L0,5.30340909 L3.97727272,0 L21.0227273,0 Z M22.7272727,6.81818182 L2.27272727,6.81818182 L2.27272727,22.7272727 L22.7272727,22.7272727 L22.7272727,6.81818182 Z M19.8863636,2.27272727 L5.11363637,2.27272727 L3.40909091,4.54545453 L21.5909091,4.54545453 L19.8863636,2.27272727 Z"></path></clipPath><clipPath id="i4"><path d="M4,0 L4,3 L6,3 L3,6 L0,3 L2,3 L2,0 L4,0 Z"></path></clipPath></defs><g transform="translate(-658.0 -418.0)"><g clip-path="url(#i0)"><g transform="translate(264.0 178.0)"><g transform="translate(394.0 237.99998693029397)"><g transform="translate(0.0 1.9999869302939715)"><g clip-path="url(#i1)"><g clip-path="url(#i2)"><polygon points="0,0 40,0 40,40 0,40 0,0" stroke="none" fill="#1A67E3"></polygon></g><g transform="translate(8.0 7.000026139412057)"><g clip-path="url(#i3)"><polygon points="0,0 25,0 25,25 0,25 0,0" stroke="none" fill="#FFFFFF"></polygon></g><g transform="translate(10.0 12.0)"><g clip-path="url(#i4)"><polygon points="0,0 6,0 6,6 0,6 0,0" stroke="none" fill="#FFFFFF"></polygon></g></g></g></g></g></g></g></g></g></svg>