<?xml version="1.0" encoding="UTF-8"?>
<svg width="16px" height="16px" viewBox="0 0 16 16" version="1.1" xmlns="http://www.w3.org/2000/svg" xmlns:xlink="http://www.w3.org/1999/xlink">
    <title>icon-face</title>
    <g id="页面-2" stroke="none" stroke-width="1" fill="none" fill-rule="evenodd">
        <g id="画板备份-4" transform="translate(-630.000000, -1810.000000)" fill="#000000" fill-rule="nonzero">
            <g id="history备份-4" transform="translate(216.000000, 1490.000000)">
                <g id="icon-face" transform="translate(414.000000, 320.000000)">
                    <rect id="矩形" opacity="0" x="0" y="0" width="16" height="16"></rect>
                    <path d="M7.99152575,1.00779672 C4.129792,1.00779672 0.999322469,4.13810638 0.999322469,8 C0.999322469,11.8617338 4.12979202,14.9922033 7.99152575,14.9922033 C11.8532595,14.9922033 14.983729,11.8617337 14.983729,8 C14.983729,4.13810636 11.8532595,1.00779672 7.99152575,1.00779672 Z M7.99152575,14.0534318 C4.65364483,14.0534318 1.93809398,11.3378809 1.93809398,8 C1.93809398,4.66211909 4.65364483,1.94656823 7.99152575,1.94656823 C11.3294067,1.94656823 14.0449575,4.66211909 14.0449575,8 C14.0449575,11.3378809 11.3294067,14.0534318 7.99152575,14.0534318 Z M6.80676102,6.10167106 C6.80676102,6.60222769 6.40092417,7.00804853 5.90052744,7.00804853 C5.39981092,7.00804853 4.99414997,6.60221169 4.99414997,6.10167106 C4.99414997,5.60143422 5.39982692,5.19529359 5.90052744,5.19529359 C6.40094016,5.19529359 6.80676102,5.60143423 6.80676102,6.10167106 Z M11.2141408,6.10167106 C11.2141408,6.60222769 10.8081601,7.00804853 10.3077633,7.00804853 C9.80720672,7.00804853 9.40152977,6.60221169 9.40152977,6.10167106 C9.40152977,5.60143422 9.80720672,5.19529359 10.3077633,5.19529359 C10.8081601,5.19529359 11.2141408,5.60143423 11.2141408,6.10167106 Z M4.76481745,9.25551677 C4.76174753,9.30242895 4.75579956,9.34886148 4.75579956,9.39623736 C4.75579956,10.8743712 6.2548632,12.0718313 8.10415337,12.0718313 C9.95344355,12.0718313 11.4523473,10.8743712 11.4523473,9.39623736 C11.4523473,9.34886148 11.4465272,9.30242897 11.4433294,9.25551677 L4.76481745,9.25551677 Z" id="形状"></path>
                </g>
            </g>
        </g>
    </g>
</svg>