<?xml version="1.0" encoding="UTF-8"?><svg version="1.1" width="31px" height="32px" viewBox="0 0 31.0 32.0" xmlns="http://www.w3.org/2000/svg" xmlns:xlink="http://www.w3.org/1999/xlink"><defs><clipPath id="i0"><path d="M1440,0 L1440,1237 L0,1237 L0,0 L1440,0 Z"></path></clipPath><clipPath id="i1"><path d="M15.4985719,9.35433854e-06 C17.4332367,-0.00214730844 19.3501797,0.368633013 21.1444777,1.09206521 C26.9139122,3.34577198 31,8.95308582 31,15.5164311 C30.999643,24.0668083 24.0598987,31.0000094 15.4982149,31.0000094 C6.93760221,31.0000094 0,24.0671653 0,15.5160742 C0,8.95272883 4.08537372,3.34505799 9.85552228,1.09170821 C11.6489408,0.368715523 13.564887,-0.00193834196 15.4985719,9.35433854e-06 Z M10.492802,18.7129606 C7.04399401,19.6971947 4.51772429,21.7049322 3.925429,24.1107186 C6.55273523,27.6795934 10.7873431,29.9964882 15.5610503,29.9964882 C20.0894852,29.9968452 24.1295174,27.9141389 26.7768168,24.6551354 C26.4640677,22.0844174 23.9588621,19.8960406 20.4133019,18.8039942 C19.0744789,20.0088509 17.3636416,20.7335499 15.4978579,20.7335499 C13.5906599,20.7335499 11.8448347,19.9695815 10.492802,18.7129606 Z M15.4982149,5.55592541 C12.2136358,5.55592541 9.54098814,8.56003479 9.54098814,12.2506447 C9.54098814,14.8602751 10.878026,17.1193368 12.82164,18.224949 C13.6277899,18.683687 14.5353334,18.94822 15.4982149,18.94822 C16.4271795,18.94822 17.3033053,18.7008228 18.0883911,18.2735003 C20.0777036,17.1885938 21.4579408,14.9016865 21.4579408,12.2510017 C21.4579408,8.56039179 18.7849361,5.55592541 15.4982149,5.55592541 Z"></path></clipPath></defs><g transform="translate(-1256.0 -311.0)"><g clip-path="url(#i0)"><g transform="translate(1256.0 311.0714285714241)"><g clip-path="url(#i1)"><polygon points="0,4.27619335e-13 31,4.27619335e-13 31,31.0000094 0,31.0000094 0,4.27619335e-13" stroke="none" fill="#505050"></polygon></g></g></g></g></svg>