<?xml version="1.0" encoding="UTF-8"?><svg version="1.1" width="10px" height="11px" viewBox="0 0 10.0 11.0" xmlns="http://www.w3.org/2000/svg" xmlns:xlink="http://www.w3.org/1999/xlink"><defs><clipPath id="i0"><path d="M1440,0 L1440,1255 L0,1255 L0,0 L1440,0 Z"></path></clipPath><clipPath id="i1"><path d="M1440,0 L1440,1548 L0,1548 L0,0 L1440,0 Z"></path></clipPath><clipPath id="i2"><path d="M1149,0 C1154.52285,-1.01453063e-15 1159,4.4771525 1159,10 L1159,501 C1159,506.522847 1154.52285,511 1149,511 L10,511 C4.4771525,511 6.76353751e-16,506.522847 0,501 L0,10 C-6.76353751e-16,4.4771525 4.4771525,1.01453063e-15 10,0 L1149,0 Z"></path></clipPath><clipPath id="i3"><path d="M8.82688391,0 C9.47477803,0 10,0.525221965 10,1.17311609 L10,8.82688391 C10,9.47477803 9.47477803,10 8.82688391,10 L1.17311609,10 C0.525221965,10 0,9.47477803 0,8.82688391 L0,1.17311609 C0,0.525221965 0.525221965,0 1.17311609,0 Z"></path></clipPath><clipPath id="i4"><path d="M1.25,0.25 C1.4,0.25 1.5,0.35 1.5,0.5 L1.5,1.5 C1.5,1.65 1.4,1.75 1.25,1.75 C1.1,1.75 1,1.65 1,1.5 L1,1 C0.85,1.2 0.75,1.5 0.75,1.75 C0.75,2.45 1.3,3 2,3 C2.15,3 2.25,3.1 2.25,3.25 C2.25,3.4 2.15,3.5 2,3.5 C1.05,3.5 0.25,2.7 0.25,1.75 C0.25,1.4 0.35,1.05 0.55,0.75 L0.25,0.75 C0.1,0.75 0,0.65 0,0.5 C0,0.35 0.1,0.25 0.25,0.25 Z M2,0 C2.2,0 2.4,0.05 2.6,0.1 C3.3,0.35 3.75,1 3.75,1.75 C3.75,2.1 3.65,2.45 3.45,2.75 L3.75,2.75 C3.9,2.75 4,2.85 4,3 C4,3.15 3.9,3.25 3.75,3.25 L2.75,3.25 C2.6,3.25 2.5,3.15 2.5,3 L2.5,2 C2.5,1.85 2.6,1.75 2.75,1.75 C2.9,1.75 3,1.85 3,2 L3,2.5 C3.15,2.3 3.25,2 3.25,1.75 C3.25,1.2 2.9,0.75 2.4,0.55 C2.3,0.5 2.15,0.5 2,0.5 C1.85,0.5 1.75,0.4 1.75,0.25 C1.75,0.1 1.85,0 2,0 Z"></path></clipPath><clipPath id="i5"><path d="M1.5,1.5 C1.62857143,1.5 1.71428571,1.6 1.71428571,1.75 C1.71428571,1.9 1.62857143,2 1.5,2 L0.214285714,2 C0.0857142857,2 0,1.9 0,1.75 C0,1.6 0.0857142857,1.5 0.214285714,1.5 Z M2.78571429,0 C2.91428571,0 3,0.1 3,0.25 C3,0.4 2.91428571,0.5 2.78571429,0.5 L0.214285714,0.5 C0.0857142857,0.5 0,0.4 0,0.25 C0,0.1 0.0857142857,0 0.214285714,0 Z"></path></clipPath><clipPath id="i6"><path d="M5.12692308,0 C5.66170928,0 6.1,0.417837153 6.1,0.93 L6.1,2.91 C6.1,3.07016285 5.9847862,3.18 5.81923077,3.18 C5.65367534,3.18 5.53846154,3.07016285 5.53846154,2.91 L5.53846154,0.93 C5.53846154,0.694162847 5.37675226,0.54 5.12692308,0.54 L0.973076923,0.54 C0.723247741,0.54 0.561538462,0.694162847 0.561538462,0.93 L0.561538462,5.77 C0.561538462,6.00583715 0.723247741,6.16 0.973076923,6.16 L3.51153846,6.16 C3.6770939,6.16 3.79230769,6.26983715 3.79230769,6.43 C3.79230769,6.59016285 3.6770939,6.7 3.51153846,6.7 L0.973076923,6.7 C0.43829072,6.7 0,6.28216285 0,5.77 L0,0.93 C0,0.417837153 0.43829072,0 0.973076923,0 Z"></path></clipPath></defs><g transform="translate(-280.0 -736.0)"><g clip-path="url(#i0)"><g clip-path="url(#i1)"><polygon points="0,0 1440,0 1440,1255 0,1255 0,0" stroke="none" fill="#FAFAFA"></polygon></g><g transform="translate(200.0 342.0)"><g transform="translate(48.0 0.0)"><g clip-path="url(#i2)"><polygon points="0,0 1159,0 1159,511 0,511 0,0" stroke="none" fill="#FFFFFF"></polygon></g></g><g transform="translate(69.5 391.3067226890762)"><g transform="translate(10.5 0.0)"><g transform="translate(0.0 3.0)"><g clip-path="url(#i3)"><polygon points="0,0 10,0 10,10 0,10 0,0" stroke="none" fill="#44B044"></polygon></g></g><g transform="translate(1.3499999999994543 4.399999999999977)"><g transform="translate(3.75 3.899999999999864)"><g clip-path="url(#i4)"><polygon points="0,0 4,0 4,3.5 0,3.5 0,0" stroke="none" fill="#FFFFFF"></polygon></g></g><g transform="translate(1.250000000000909 2.049999999999955)"><g clip-path="url(#i5)"><polygon points="0,0 3,0 3,2 0,2 0,0" stroke="none" fill="#FFFFFF"></polygon></g></g><g clip-path="url(#i6)"><polygon points="0,0 6.1,0 6.1,6.7 0,6.7 0,0" stroke="none" fill="#FFFFFF"></polygon></g></g></g></g></g></g></g></svg>