<?xml version="1.0" encoding="UTF-8"?><svg version="1.1" width="10px" height="11px" viewBox="0 0 10.0 11.0" xmlns="http://www.w3.org/2000/svg" xmlns:xlink="http://www.w3.org/1999/xlink"><defs><clipPath id="i0"><path d="M1440,0 L1440,1255 L0,1255 L0,0 L1440,0 Z"></path></clipPath><clipPath id="i1"><path d="M1440,0 L1440,1548 L0,1548 L0,0 L1440,0 Z"></path></clipPath><clipPath id="i2"><path d="M1149,0 C1154.52285,-1.01453063e-15 1159,4.4771525 1159,10 L1159,501 C1159,506.522847 1154.52285,511 1149,511 L10,511 C4.4771525,511 6.76353751e-16,506.522847 0,501 L0,10 C-6.76353751e-16,4.4771525 4.4771525,1.01453063e-15 10,0 L1149,0 Z"></path></clipPath><clipPath id="i3"><path d="M8.82688391,0 C9.47477803,0 10,0.525221965 10,1.17311609 L10,8.82688391 C10,9.47477803 9.47477803,10 8.82688391,10 L1.17311609,10 C0.525221965,10 0,9.47477803 0,8.82688391 L0,1.17311609 C0,0.525221965 0.525221965,0 1.17311609,0 Z M5.6,1.50001307 L3.2,1.50001307 C2.53852459,1.50001307 2,1.98310131 2,2.57721895 L2,7.42280719 C2,8.01692483 2.53852459,8.50001307 3.2,8.50001307 L6.8,8.50001307 C7.46147541,8.50001307 8,8.01692483 8,7.42280719 L8,3.65368954 C8,3.36766013 7.70327869,3.09339542 7.1795082,2.63236601 C7.10655738,2.56766013 7.03114754,2.50221895 6.95737705,2.43530719 C6.88278689,2.36913072 6.80983607,2.30148366 6.73770492,2.23604248 C6.22459016,1.76618954 5.91885246,1.50001307 5.6,1.50001307 Z M5.68688525,2.03751307 C5.90327869,2.08751307 5.9,2.32574836 5.9,2.56471895 L5.9,3.11545425 C5.9,3.26324836 6.03442623,3.38457189 6.2,3.38457189 L6.88950082,3.38488072 C7.15633607,3.38752778 7.4,3.41280719 7.4,3.65368954 L7.4,7.42280719 C7.4,7.71986601 7.13114754,7.96104248 6.8,7.96104248 L3.2,7.96104248 C2.86885246,7.96104248 2.6,7.71986601 2.6,7.42280719 L2.6,2.57648366 C2.6,2.27942483 2.86885246,2.03824836 3.2,2.03824836 Z M4.1,6.3463366 L3.2,6.3463366 L3.2,6.88457189 L4.1,6.88457189 L4.1,6.3463366 Z M6.8,6.3463366 L4.7,6.3463366 L4.7,6.88457189 L6.8,6.88457189 L6.8,6.3463366 Z M4.1,5.26986601 L3.2,5.26986601 L3.2,5.80810131 L4.1,5.80810131 L4.1,5.26986601 Z M6.8,5.26986601 L4.7,5.26986601 L4.7,5.80810131 L6.8,5.80810131 L6.8,5.26986601 Z M4.1,4.19266013 L3.2,4.19266013 L3.2,4.73089542 L4.1,4.73089542 L4.1,4.19266013 Z M6.8,4.19266013 L4.7,4.19266013 L4.7,4.73089542 L6.8,4.73089542 L6.8,4.19266013 Z"></path></clipPath></defs><g transform="translate(-280.0 -700.0)"><g clip-path="url(#i0)"><g clip-path="url(#i1)"><polygon points="0,0 1440,0 1440,1255 0,1255 0,0" stroke="none" fill="#FAFAFA"></polygon></g><g transform="translate(200.0 342.0)"><g transform="translate(48.0 0.0)"><g clip-path="url(#i2)"><polygon points="0,0 1159,0 1159,511 0,511 0,0" stroke="none" fill="#FFFFFF"></polygon></g></g><g transform="translate(69.5 354.3067226890762)"><g transform="translate(10.5 0.0)"><g transform="translate(0.0 3.9999869302939715)"><g clip-path="url(#i3)"><polygon points="0,0 10,0 10,10 0,10 0,0" stroke="none" fill="#44B044"></polygon></g></g></g></g></g></g></g></svg>