<?xml version="1.0" encoding="UTF-8"?><svg version="1.1" width="10px" height="11px" viewBox="0 0 10.0 11.0" xmlns="http://www.w3.org/2000/svg" xmlns:xlink="http://www.w3.org/1999/xlink"><defs><clipPath id="i0"><path d="M1440,0 L1440,1255 L0,1255 L0,0 L1440,0 Z"></path></clipPath><clipPath id="i1"><path d="M1440,0 L1440,1548 L0,1548 L0,0 L1440,0 Z"></path></clipPath><clipPath id="i2"><path d="M1149,0 C1154.52285,-1.01453063e-15 1159,4.4771525 1159,10 L1159,501 C1159,506.522847 1154.52285,511 1149,511 L10,511 C4.4771525,511 6.76353751e-16,506.522847 0,501 L0,10 C-6.76353751e-16,4.4771525 4.4771525,1.01453063e-15 10,0 L1149,0 Z"></path></clipPath><clipPath id="i3"><path d="M8.82688391,0 C9.47477803,0 10,0.525221965 10,1.17311609 L10,8.82688391 C10,9.47477803 9.47477803,10 8.82688391,10 L1.17311609,10 C0.525221965,10 0,9.47477803 0,8.82688391 L0,1.17311609 C0,0.525221965 0.525221965,0 1.17311609,0 Z"></path></clipPath><clipPath id="i4"><path d="M6.14035439,1.58420119 C6.61427182,1.58420119 7,1.96969102 7,2.44384836 L7,5.69823836 C7,6.17227182 6.61427182,6.55788553 6.14035283,6.55788553 L0.85964717,6.55788553 C0.385612134,6.55788553 0,6.17227182 0,5.69823836 L0,2.44384836 C0,1.96981333 0.385612141,1.58420119 0.85964717,1.58420119 Z M6.14035282,2.07542904 L0.859647162,2.07542904 C0.656524464,2.07542904 0.491227844,2.24071939 0.491227844,2.44384836 L0.491227844,5.69823836 C0.491227844,5.90135478 0.656524471,6.06665767 0.85964717,6.06665767 L6.14035283,6.06665767 C6.34348181,6.06665767 6.50877215,5.90136105 6.50877215,5.69823836 L6.50877215,2.44384836 C6.50877215,2.24071939 6.3434818,2.07542904 6.14035282,2.07542904 Z M2.36341815,2.47282715 C2.43870023,2.39755133 2.56052399,2.39755133 2.63568376,2.47282715 L3.51043972,3.34758938 L4.38495576,2.47282715 C4.46023784,2.39755133 4.5820616,2.39755133 4.65722138,2.47282715 C4.73237331,2.54798535 4.73237331,2.66981694 4.65722138,2.74509276 L3.92270669,3.47947729 L4.64296721,3.47947729 C4.74907374,3.47947729 4.83541104,3.56580675 4.83541104,3.67203717 C4.83541104,3.77826758 4.74907531,3.864481 4.64296721,3.864481 L3.69231446,3.864481 L3.69231446,4.2886578 L4.64283706,4.2886578 C4.74894359,4.2886578 4.83528089,4.37487122 4.83528089,4.48122552 C4.83528089,4.58744966 4.74893732,4.67353292 4.64283706,4.67353292 L3.69231446,4.67353292 L3.69231446,5.58046034 C3.69231446,5.68669075 3.60611359,5.77290417 3.49988317,5.77290417 C3.39353044,5.77290417 3.30743934,5.68669075 3.30743934,5.58046034 L3.30743934,4.67353292 L2.35691674,4.67353292 C2.25056401,4.67353292 2.16447291,4.58745593 2.16447291,4.48122552 C2.16447291,4.37487122 2.25056245,4.2886578 2.35691674,4.2886578 L3.30743934,4.2886578 L3.30743934,3.864481 L2.35691674,3.864481 C2.25056401,3.864481 2.16447291,3.77826758 2.16447291,3.67203717 C2.16447291,3.56580675 2.25056245,3.47947729 2.35691674,3.47947729 L3.09793284,3.47947729 L2.36341815,2.74509276 C2.28826621,2.66981694 2.28826621,2.54786304 2.36341815,2.47282715 Z M6.11726703,0.787913729 C6.25284003,0.787913729 6.36287783,0.897829217 6.36287783,1.03353079 C6.36287783,1.16911633 6.2528463,1.27914158 6.11726703,1.27914158 L0.882618494,1.27914158 C0.747039231,1.27914158 0.637001433,1.16911633 0.637001433,1.03353079 C0.637001433,0.89782294 0.747039231,0.787913729 0.882618494,0.787913729 Z M5.46491375,0 C5.60050555,0 5.71053081,0.109909219 5.71053081,0.245610792 C5.71053081,0.381183786 5.60049928,0.491221583 5.46491375,0.491221583 L1.53508938,0.491221583 C1.39938623,0.491221583 1.28947075,0.381183786 1.28947075,0.245610792 C1.28947075,0.109915488 1.39950855,0 1.53508782,0 Z"></path></clipPath></defs><g transform="translate(-280.0 -811.0)"><g clip-path="url(#i0)"><g clip-path="url(#i1)"><polygon points="0,0 1440,0 1440,1255 0,1255 0,0" stroke="none" fill="#FAFAFA"></polygon></g><g transform="translate(200.0 342.0)"><g transform="translate(48.0 0.0)"><g clip-path="url(#i2)"><polygon points="0,0 1159,0 1159,511 0,511 0,0" stroke="none" fill="#FFFFFF"></polygon></g></g><g transform="translate(69.5 465.3067226890762)"><g transform="translate(10.5 0.0)"><g transform="translate(0.0 4.0)"><g clip-path="url(#i3)"><polygon points="0,0 10,0 10,10 0,10 0,0" stroke="none" fill="#44B044"></polygon></g></g><g transform="translate(1.5 5.799999999999862)"><g clip-path="url(#i4)"><polygon points="0,0 7,0 7,6.55788553 0,6.55788553 0,0" stroke="none" fill="#FFFFFF"></polygon></g></g></g></g></g></g></g></svg>