<?xml version="1.0" encoding="UTF-8"?><svg version="1.1" width="41px" height="40px" viewBox="0 0 41.0 40.0" xmlns="http://www.w3.org/2000/svg" xmlns:xlink="http://www.w3.org/1999/xlink"><defs><clipPath id="i0"><path d="M1440,0 L1440,1255 L0,1255 L0,0 L1440,0 Z"></path></clipPath><clipPath id="i1"><path d="M10.8927581,0 L10.8927581,1.96089255 L7.95141927,1.96089255 L7.95141927,3.9708074 C12.9056143,4.46201099 16.7754357,8.64263389 16.7754357,13.7262478 C16.7754357,19.1412526 12.3859778,23.5307105 6.970973,23.5307105 C4.26298039,23.5307105 1.83343453,22.4257476 0,20.5168187 L1.31379801,19.0990934 C2.78740875,20.6638856 4.77673424,21.569818 6.970973,21.569818 C10.5404969,21.5695603 13.6596724,19.1591862 14.5602422,15.7051343 C15.460812,12.2510823 13.9156234,8.62457552 10.8006422,6.88147685 C7.68566101,5.13837818 3.78658568,5.71835316 1.31379801,8.29261457 L0,6.83174963 C1.60185738,5.20833569 3.7210357,4.1962633 5.99052673,3.9708074 L5.99052673,1.96089255 L3.04918791,1.96089255 L3.04918791,0 L10.8927581,0 Z M7.95141927,8.82401645 L7.95141927,13.0624857 L12.2369499,14.7772862 L11.5094588,16.5969945 L5.99052673,14.3900099 L5.99052673,8.82401645 L7.95141927,8.82401645 Z"></path></clipPath><clipPath id="i2"><path d="M5.04229512,0 C7.82707781,0 10.0845902,2.25751242 10.0845902,5.04229512 C10.0845902,7.82707781 7.82707781,10.0845902 5.04229512,10.0845902 C2.25751242,10.0845902 0,7.82707781 0,5.04229512 C0,2.25751242 2.25751242,0 5.04229512,0 Z M7.06680375,3.23521744 L6.64612035,3.72712098 C6.07235246,4.41614115 5.48219841,5.19138525 5.04229512,5.78416049 L4.49356622,6.53412706 L3.56811653,5.35894003 L3.04439198,4.7125113 C2.80613332,4.42773114 2.38212658,4.39001802 2.09734642,4.62827668 C1.81256627,4.86653534 1.77485314,5.29054208 2.0131118,5.57532224 L2.52294591,6.2051744 C2.9511334,6.74369873 3.41567406,7.34233375 3.46618343,7.40239818 L3.60471371,7.55966954 C4.06194561,8.05243197 4.4791962,8.2248569 5.01773923,7.90945775 C5.31888521,7.73309082 7.03249296,5.30705819 8.07529026,4.12456354 C8.3208764,3.84607768 8.29420592,3.42123338 8.01572006,3.17564723 C7.7372342,2.93006109 7.3123899,2.95673158 7.06680375,3.23521744 Z"></path></clipPath></defs><g transform="translate(-991.0 -243.0)"><g clip-path="url(#i0)"><g transform="translate(705.9999999999999 134.0)"><g transform="translate(285.5 81.0)"><g transform="translate(8.0 36.0)"><g transform="translate(7.224564277409792 0.0)"><g clip-path="url(#i1)"><polygon points="0,0 16.7754357,0 16.7754357,23.5307105 0,23.5307105 0,0" stroke="none" fill="#44A547"></polygon></g></g><g transform="translate(0.0 8.403825192914969)"><g clip-path="url(#i2)"><polygon points="0,0 10.0845902,0 10.0845902,10.0845902 0,10.0845902 0,0" stroke="none" fill="#44A547"></polygon></g></g></g></g></g></g></g></svg>