<?xml version="1.0" encoding="UTF-8"?><svg version="1.1" width="10px" height="11px" viewBox="0 0 10.0 11.0" xmlns="http://www.w3.org/2000/svg" xmlns:xlink="http://www.w3.org/1999/xlink"><defs><clipPath id="i0"><path d="M1440,0 L1440,1255 L0,1255 L0,0 L1440,0 Z"></path></clipPath><clipPath id="i1"><path d="M1440,0 L1440,1548 L0,1548 L0,0 L1440,0 Z"></path></clipPath><clipPath id="i2"><path d="M1149,0 C1154.52285,-1.01453063e-15 1159,4.4771525 1159,10 L1159,501 C1159,506.522847 1154.52285,511 1149,511 L10,511 C4.4771525,511 6.76353751e-16,506.522847 0,501 L0,10 C-6.76353751e-16,4.4771525 4.4771525,1.01453063e-15 10,0 L1149,0 Z"></path></clipPath><clipPath id="i3"><path d="M8.82688391,0 C9.47477803,0 10,0.525221965 10,1.17311609 L10,8.82688391 C10,9.47477803 9.47477803,10 8.82688391,10 L1.17311609,10 C0.525221965,10 0,9.47477803 0,8.82688391 L0,1.17311609 C0,0.525221965 0.525221965,0 1.17311609,0 Z"></path></clipPath><clipPath id="i4"><path d="M6.2605399,6.38183803 L6.30739877,6.44088047 C6.3257281,6.4637095 6.37464454,6.52612502 6.43654735,6.61014851 C6.51297466,6.71318944 6.51365602,6.84675002 6.43827437,6.97668791 C6.36842457,7.09683712 6.22096689,7.22583054 6.10925714,7.26420273 C6.07571521,7.27579264 6.02298718,7.28954133 5.96144191,7.28954133 C5.86323124,7.28954133 5.77886369,7.25384062 5.71748708,7.18649365 C5.68136137,7.14681945 5.62257528,7.07410928 5.57951451,7.0209495 L5.52764999,6.95715101 L6.2605399,6.38183803 Z M4.14345156,4.2 C4.16488412,4.2 4.18856991,4.20345404 4.21572324,4.210551 C4.33104218,4.2406389 4.68114118,4.41075696 4.79024016,4.48397983 C4.84244873,4.51890473 4.89881295,4.57188911 4.94083481,4.62566954 C4.95823359,4.64792099 5.08187333,4.8121158 5.24450894,5.02849423 L5.46980603,5.32838367 C5.52229446,5.39827532 5.57561363,5.46928658 5.62819513,5.53932392 L5.8958183,5.89584968 C5.97653807,6.0033965 6.04572092,6.09557843 6.09421994,6.16018603 L6.13864344,6.21957927 L5.40679919,6.7945347 L5.36010898,6.73282753 C5.17735536,6.49059972 4.26170509,5.27722768 4.18787506,5.17469946 C4.13669865,5.103379 4.11353232,5.04744654 4.09452162,4.98555048 C4.06927747,4.90324726 4.00288172,4.51493124 4.00011579,4.39157086 C3.99856416,4.31929919 4.01257595,4.27053791 4.04403332,4.23830473 C4.06892666,4.21287168 4.10229995,4.2 4.14345156,4.2 Z M5.12692308,0 C5.66170928,0 6.1,0.417837153 6.1,0.93 L6.1,2.91 C6.1,3.07016285 5.9847862,3.18 5.81923077,3.18 C5.65367534,3.18 5.53846154,3.07016285 5.53846154,2.91 L5.53846154,0.93 C5.53846154,0.694162847 5.37675226,0.54 5.12692308,0.54 L0.973076923,0.54 C0.723247741,0.54 0.561538462,0.694162847 0.561538462,0.93 L0.561538462,5.77 C0.561538462,6.00583715 0.723247741,6.16 0.973076923,6.16 L3.51153846,6.16 C3.6770939,6.16 3.79230769,6.26983715 3.79230769,6.43 C3.79230769,6.59016285 3.6770939,6.7 3.51153846,6.7 L0.973076923,6.7 C0.43829072,6.7 0,6.28216285 0,5.77 L0,0.93 C0,0.417837153 0.43829072,0 0.973076923,0 L5.12692308,0 Z M3.1,3.6 C3.22857143,3.6 3.31428571,3.7 3.31428571,3.85 C3.31428571,4 3.22857143,4.1 3.1,4.1 L1.81428571,4.1 C1.68571429,4.1 1.6,4 1.6,3.85 C1.6,3.7 1.68571429,3.6 1.81428571,3.6 L3.1,3.6 Z M4.38571429,2.1 C4.51428571,2.1 4.6,2.2 4.6,2.35 C4.6,2.5 4.51428571,2.6 4.38571429,2.6 L1.81428571,2.6 C1.68571429,2.6 1.6,2.5 1.6,2.35 C1.6,2.2 1.68571429,2.1 1.81428571,2.1 L4.38571429,2.1 Z"></path></clipPath></defs><g transform="translate(-280.0 -774.0)"><g clip-path="url(#i0)"><g clip-path="url(#i1)"><polygon points="0,0 1440,0 1440,1255 0,1255 0,0" stroke="none" fill="#FAFAFA"></polygon></g><g transform="translate(200.0 342.0)"><g transform="translate(48.0 0.0)"><g clip-path="url(#i2)"><polygon points="0,0 1159,0 1159,511 0,511 0,0" stroke="none" fill="#FFFFFF"></polygon></g></g><g transform="translate(69.5 428.3067226890762)"><g transform="translate(10.5 0.0)"><g transform="translate(0.0 4.0)"><g clip-path="url(#i3)"><polygon points="0,0 10,0 10,10 0,10 0,0" stroke="none" fill="#44B044"></polygon></g></g><g transform="translate(1.800000000000182 12.700000000000017) scale(1.0 -1.0)"><g clip-path="url(#i4)"><polygon points="0,0 6.4943428,0 6.4943428,7.28954133 0,7.28954133 0,0" stroke="none" fill="#FFFFFF"></polygon></g></g></g></g></g></g></g></svg>