<?xml version="1.0" encoding="UTF-8"?><svg version="1.1" width="10px" height="11px" viewBox="0 0 10.0 11.0" xmlns="http://www.w3.org/2000/svg" xmlns:xlink="http://www.w3.org/1999/xlink"><defs><clipPath id="i0"><path d="M1440,0 L1440,1255 L0,1255 L0,0 L1440,0 Z"></path></clipPath><clipPath id="i1"><path d="M1440,0 L1440,1548 L0,1548 L0,0 L1440,0 Z"></path></clipPath><clipPath id="i2"><path d="M1149,0 C1154.52285,-1.01453063e-15 1159,4.4771525 1159,10 L1159,501 C1159,506.522847 1154.52285,511 1149,511 L10,511 C4.4771525,511 6.76353751e-16,506.522847 0,501 L0,10 C-6.76353751e-16,4.4771525 4.4771525,1.01453063e-15 10,0 L1149,0 Z"></path></clipPath><clipPath id="i3"><path d="M8.82688391,0 C9.47477803,0 10,0.525221965 10,1.17311609 L10,8.82688391 C10,9.47477803 9.47477803,10 8.82688391,10 L1.17311609,10 C0.525221965,10 0,9.47477803 0,8.82688391 L0,1.17311609 C0,0.525221965 0.525221965,0 1.17311609,0 Z"></path></clipPath><clipPath id="i4"><path d="M3.00595329,0 C4.24332163,0 5.25904442,0.96260113 5.34513815,2.17798809 C5.71698977,2.25125935 5.99816822,2.58006411 6,2.97206533 L6,3.84490917 C6,4.25156465 5.69958785,4.58769653 5.30941841,4.64631354 L5.30575485,4.66279957 C5.05938025,5.36803541 4.49610746,5.90016791 3.80918944,6.12181346 C3.77530148,6.3452908 3.58388032,6.51747825 3.35032819,6.51747825 L2.83284995,6.51747825 C2.57548466,6.51747825 2.36666158,6.30865517 2.36666158,6.05128988 C2.36666158,5.79392459 2.57548466,5.58510151 2.83284995,5.58510151 L3.35032819,5.58510151 C3.49961838,5.58510151 3.63150664,5.65654099 3.71668448,5.76644787 C4.26846598,5.58209301 4.71126086,5.16441886 4.92749199,4.62433216 C4.58861243,4.52724775 4.33949015,4.21492902 4.33949015,3.84490917 L4.33949015,2.97206533 C4.33949015,2.58372768 4.61334147,2.25858648 4.97878187,2.17981987 C4.89451992,1.16501298 4.04274157,0.365440391 3.00686918,0.365440391 C1.9700809,0.365440391 1.11738666,1.16776065 1.0349565,2.18348344 C1.39306976,2.26774538 1.66142574,2.58922302 1.66142574,2.97298122 L1.66142574,3.84582506 C1.66142574,4.29369562 1.29690124,4.65730423 0.849946573,4.65730423 L0.811479163,4.65730423 C0.363608609,4.65730423 0,4.29277973 0,3.84582506 L0,2.97298122 C0,2.57456877 0.288505572,2.24301633 0.667684323,2.17524042 C0.75469394,0.961685239 1.76950084,0 3.00595329,0 Z"></path></clipPath></defs><g transform="translate(-280.0 -429.0)"><g clip-path="url(#i0)"><g clip-path="url(#i1)"><polygon points="0,0 1440,0 1440,1255 0,1255 0,0" stroke="none" fill="#FAFAFA"></polygon></g><g transform="translate(200.0 342.0)"><g transform="translate(48.0 0.0)"><g clip-path="url(#i2)"><polygon points="0,0 1159,0 1159,511 0,511 0,0" stroke="none" fill="#FFFFFF"></polygon></g></g><g transform="translate(80.0 83.64705882352973)"><g transform="translate(0.0 4.0)"><g clip-path="url(#i3)"><polygon points="0,0 10,0 10,10 0,10 0,0" stroke="none" fill="#44B044"></polygon></g></g><g transform="translate(2.0 6.0)"><g clip-path="url(#i4)"><polygon points="0,0 6,0 6,6.51747825 0,6.51747825 0,0" stroke="none" fill="#FFFFFF"></polygon></g></g></g></g></g></g></svg>