<?xml version="1.0" encoding="UTF-8"?><svg version="1.1" width="40px" height="40px" viewBox="0 0 40.0 40.0" xmlns="http://www.w3.org/2000/svg" xmlns:xlink="http://www.w3.org/1999/xlink"><defs><clipPath id="i0"><path d="M1440,0 L1440,1255 L0,1255 L0,0 L1440,0 Z"></path></clipPath><clipPath id="i1"><path d="M13.096665,0 C14.1632814,0 14.9682748,0.955929752 14.8072761,2.00745248 C14.8022449,2.04267094 14.7921825,2.0728582 14.7871513,2.10807666 C14.7217456,2.52063582 14.6412462,2.92816377 14.5406221,3.32562929 C14.4953412,3.51178404 14.4349667,3.68787636 14.3796234,3.86899989 C14.3091864,4.10546672 14.2387495,4.34193356 14.1582502,4.56833797 C14.082782,4.77461755 13.9972515,4.97083471 13.9167521,5.16705187 C13.841284,5.35823782 13.7607846,5.54439256 13.6752541,5.72551609 C13.5796611,5.92676446 13.4740057,6.12298162 13.3683503,6.31416757 C13.2828198,6.47013506 13.1972892,6.62610254 13.1016962,6.77703882 C12.9859784,6.96822477 12.8601982,7.15437951 12.7344179,7.33047183 C12.638825,7.46128327 12.543232,7.59209471 12.4426078,7.71787494 C12.3067652,7.88893606 12.1658913,8.05496596 12.0199862,8.21596466 C11.9143308,8.32665126 11.8036442,8.43230665 11.6979888,8.53796205 C11.5420214,8.68889832 11.3910851,8.83480339 11.2300864,8.97064604 C11.1143686,9.06623901 10.9986508,9.14673836 10.8779017,9.23226892 C10.7118718,9.35301794 10.5508731,9.47376696 10.379812,9.57942235 L10.3496248,9.59954719 C9.83141023,9.91148216 9.50941284,10.4649152 9.50941284,11.0736915 L9.50941284,11.7629672 C9.50941284,12.3717435 9.82637902,12.9251765 10.3496248,13.2371115 L10.379812,13.2572363 C10.5508731,13.3578605 10.7118718,13.4836407 10.8779017,13.6043897 C10.9936196,13.6899203 11.1143686,13.7704196 11.2300864,13.8660126 C11.3910851,14.0018553 11.5470526,14.1477603 11.6979888,14.2986966 C11.8036442,14.404352 11.9092996,14.5100074 12.014955,14.620694 C12.1608601,14.7816927 12.301734,14.9527538 12.4375766,15.1238149 C12.5382008,15.2495951 12.6337938,15.3753754 12.7293867,15.511218 C12.855167,15.6923416 12.9809472,15.8734651 13.096665,16.064651 C13.1872268,16.2155873 13.2777885,16.3715548 13.3633191,16.5275223 C13.4689745,16.7187082 13.5746299,16.9149254 13.6702229,17.1161738 C13.7557534,17.2972973 13.8312216,17.4884832 13.9117209,17.674638 C13.9972515,17.8758864 14.0777508,18.0670723 14.1532189,18.2733519 C14.2387495,18.4997563 14.3041552,18.7362231 14.3745922,18.97269 C14.4299355,19.1538135 14.49031,19.3299058 14.5355908,19.5160606 C14.6311838,19.9084949 14.7167144,20.3160228 14.7821201,20.7336132 C14.7871513,20.7688317 14.7972137,20.8040501 14.8072761,20.8442998 C14.9682748,21.8958225 14.1632814,22.8517523 13.096665,22.8517523 L1.73619459,22.8517523 C0.669578239,22.8517523 -0.135415236,21.8958225 0.0255834593,20.8442998 C0.0306146685,20.8090813 0.040677087,20.7788941 0.0457082962,20.7436756 C0.111114016,20.3260852 0.191613364,19.9185573 0.292237548,19.5210918 C0.337518431,19.334937 0.397892942,19.1588447 0.453236243,18.9777212 C0.523673172,18.7412543 0.594110101,18.5047875 0.674609449,18.2783831 C0.750077587,18.0721035 0.835608144,17.8758864 0.916107491,17.6796692 C0.99157563,17.4884832 1.07207498,17.3023285 1.15760553,17.121205 C1.25319851,16.9199566 1.3588539,16.7237394 1.4645093,16.5325535 C1.55003985,16.376586 1.64060162,16.2206185 1.73116338,16.0696822 C1.8468812,15.8784963 1.97266143,15.6973728 2.09844166,15.5162492 C2.19403463,15.3854378 2.28962761,15.2546264 2.39025179,15.1288461 C2.52609444,14.9527538 2.6669683,14.7867239 2.81287337,14.6257252 C2.91349755,14.5100074 3.02418415,14.4093832 3.12983955,14.3037278 C3.28580703,14.1527915 3.43674331,14.0068865 3.59774201,13.8710438 C3.71345982,13.7754508 3.83420884,13.6949515 3.94992665,13.6094209 C4.11595655,13.4886719 4.27695525,13.3679229 4.44801636,13.2622675 L4.47820362,13.2421427 C4.99641817,12.9302077 5.31841556,12.3767747 5.31841556,11.7679984 L5.31841556,11.0787227 C5.31841556,10.4699464 5.00144938,9.91651337 4.47820362,9.6045784 L4.44801636,9.58445356 C4.27695525,9.48382938 4.11595655,9.35804915 3.94992665,9.23730013 C3.83420884,9.15176957 3.71345982,9.07127022 3.59774201,8.97567725 C3.43674331,8.8398346 3.28077582,8.69392953 3.12983955,8.54299326 C3.01915295,8.43733786 2.91349755,8.33168247 2.80784216,8.22099586 C2.66193709,8.06502838 2.52106323,7.89396727 2.38522058,7.72290615 C2.2845964,7.59712592 2.18900342,7.47134569 2.09341045,7.33550304 C1.96763022,7.15437951 1.84184999,6.97325598 1.72613218,6.78207003 C1.63557041,6.63113375 1.54500864,6.47516627 1.45947809,6.31919878 C1.35382269,6.12801283 1.2481673,5.93179567 1.15257432,5.7305473 C1.06704377,5.54942377 0.99157563,5.35823782 0.911076282,5.17208308 C0.825545725,4.97083471 0.745046378,4.77964876 0.669578239,4.57336918 C0.584047683,4.34696477 0.518641963,4.11049793 0.448205034,3.8740311 C0.392861732,3.69290757 0.332487222,3.51681524 0.287206339,3.3306605 C0.191613364,2.93319498 0.106082807,2.52566703 0.040677087,2.10807666 C0.0356458778,2.0728582 0.0255834593,2.04267094 0.0205522501,2.00745248 C-0.140446445,0.955929752 0.66454703,0 1.73116338,0 L13.096665,0 Z M9.90687837,5.66011037 L4.91591882,5.66011037 C4.61907748,5.66011037 4.47820362,6.02235744 4.69454562,6.2236058 L6.868028,8.0197475 C6.93343372,8.08012201 6.97368339,8.16565256 6.97368339,8.25621433 L6.97368339,17.5186705 C6.97368339,17.6142635 6.92840251,17.7048252 6.85796558,17.770231 L3.19021406,20.6581451 C2.95877843,20.8543622 3.09462108,21.2317029 3.40152485,21.2317029 L11.4263036,21.2317029 C11.7281761,21.2317029 11.86905,20.849331 11.6325831,20.6581451 L7.93967556,17.7802934 C7.86420742,17.7199189 7.82395775,17.6293571 7.82395775,17.5287329 L7.82395775,8.26627675 C7.82395775,8.17571498 7.86420742,8.09018443 7.92961314,8.02980991 L10.1282516,6.2236058 C10.3445936,6.02235744 10.2037197,5.66011037 9.90687837,5.66011037 Z"></path></clipPath></defs><g transform="translate(-1213.0 -243.0)"><g clip-path="url(#i0)"><g transform="translate(705.9999999999999 134.0)"><g transform="translate(507.0 81.0)"><g transform="translate(0.0 28.0)"><g transform="translate(13.333333333333712 8.888888888889143)"><g clip-path="url(#i1)"><polygon points="5.62050406e-16,0 14.8278284,0 14.8278284,22.8517523 5.62050406e-16,22.8517523 5.62050406e-16,0" stroke="none" fill="#44A547"></polygon></g></g></g></g></g></g></g></svg>