<?xml version="1.0" encoding="UTF-8"?><svg version="1.1" width="15px" height="16px" viewBox="0 0 15.0 16.0" xmlns="http://www.w3.org/2000/svg" xmlns:xlink="http://www.w3.org/1999/xlink"><defs><clipPath id="i0"><path d="M1440,0 L1440,1255 L0,1255 L0,0 L1440,0 Z"></path></clipPath><clipPath id="i1"><path d="M1440,0 L1440,1548 L0,1548 L0,0 L1440,0 Z"></path></clipPath><clipPath id="i2"><path d="M1149,0 C1154.52285,-1.01453063e-15 1159,4.4771525 1159,10 L1159,501 C1159,506.522847 1154.52285,511 1149,511 L10,511 C4.4771525,511 6.76353751e-16,506.522847 0,501 L0,10 C-6.76353751e-16,4.4771525 4.4771525,1.01453063e-15 10,0 L1149,0 Z"></path></clipPath><clipPath id="i3"><path d="M7.5,0 C11.6785714,0 15,3.32142857 15,7.5 C15,11.6785714 11.6785714,15 7.5,15 C3.32142857,15 0,11.6785714 0,7.5 C0,3.32142857 3.32142857,0 7.5,0 Z M7.5,1.07142857 C3.96428571,1.07142857 1.07142857,3.96428571 1.07142857,7.5 C1.07142857,11.0357143 3.96428571,13.9285714 7.5,13.9285714 C11.0357143,13.9285714 13.9285714,11.0357143 13.9285714,7.5 C13.9285714,3.96428571 11.0357143,1.07142857 7.5,1.07142857 Z"></path></clipPath><clipPath id="i4"><path d="M7.5,0 C11.6421356,0 15,3.35786438 15,7.5 C15,11.6421356 11.6421356,15 7.5,15 C3.35786438,15 0,11.6421356 0,7.5 C0,3.35786438 3.35786438,0 7.5,0 Z"></path></clipPath><clipPath id="i5"><path d="M0.46875,0 C0.750000008,0 0.9375,0.210937508 0.9375,0.527343755 L0.9375,7.91015624 C0.9375,8.22656251 0.750000008,8.4375 0.46875,8.4375 C0.187499992,8.4375 0,8.22656249 0,7.91015624 L0,0.527343755 C0,0.210937494 0.187500005,0 0.46875,0 Z"></path></clipPath><clipPath id="i6"><path d="M7.91015624,0 C8.22656251,0 8.4375,0.187499992 8.4375,0.46875 C8.4375,0.750000008 8.22656249,0.9375 7.91015624,0.9375 L0.527343755,0.9375 C0.210937494,0.9375 0,0.750000008 0,0.46875 C0,0.187499992 0.210937508,0 0.527343755,0 Z"></path></clipPath></defs><g transform="translate(-462.0 -425.0)"><g clip-path="url(#i0)"><g clip-path="url(#i1)"><polygon points="0,0 1440,0 1440,1255 0,1255 0,0" stroke="none" fill="#FAFAFA"></polygon></g><g transform="translate(200.0 342.0)"><g transform="translate(48.0 0.0)"><g clip-path="url(#i2)"><polygon points="0,0 1159,0 1159,511 0,511 0,0" stroke="none" fill="#FFFFFF"></polygon></g></g><g transform="translate(80.0 81.65546218487361)"><g transform="translate(182.0 2.0)"><g clip-path="url(#i3)"><polygon points="0,0 15,0 15,15 0,15 0,0" stroke="none" fill="#289E21"></polygon></g><g clip-path="url(#i4)"><polygon points="0,0 15,0 15,15 0,15 0,0" stroke="none" fill="#289E21"></polygon></g><g transform="translate(7.187500000000002 3.125)"><g clip-path="url(#i5)"><polygon points="0,0 0.9375,0 0.9375,8.4375 0,8.4375 0,0" stroke="none" fill="#FFFFFF"></polygon></g></g><g transform="translate(3.4375 6.875)"><g clip-path="url(#i6)"><polygon points="0,0 8.4375,0 8.4375,0.9375 0,0.9375 0,0" stroke="none" fill="#FFFFFF"></polygon></g></g></g></g></g></g></g></svg>