<?xml version="1.0" encoding="UTF-8"?><svg version="1.1" width="40px" height="40px" viewBox="0 0 40.0 40.0" xmlns="http://www.w3.org/2000/svg" xmlns:xlink="http://www.w3.org/1999/xlink"><defs><clipPath id="i0"><path d="M1440,0 L1440,1255 L0,1255 L0,0 L1440,0 Z"></path></clipPath><clipPath id="i1"><path d="M12.6666667,0 C17.4444444,0 21.3333333,3.88888889 21.3333333,8.66666669 L21.3333333,13.1111111 C21.3333333,17.8888889 17.4444445,21.7777778 12.6666667,21.7777778 C12.2222222,21.7777778 11.7777778,21.3333334 11.7777778,20.8888889 C11.7777778,20.4444445 12.2222222,20 12.6666667,20 C16.4444444,20 19.5555556,16.8888889 19.5555556,13.1111111 L19.5555556,8.66666669 C19.5555556,4.88888892 16.4444444,1.7777778 12.6666667,1.7777778 C8.8888889,1.7777778 5.77777778,4.88888892 5.77777778,8.66666669 L5.77777778,13.6666667 C5.77777778,14.1111111 5.3333333,14.5555556 4.88888888,14.5555556 C4.44444445,14.5555556 4,14.1111111 4,13.6666667 L4,8.66666669 C4,3.88888889 7.88888887,0 12.6666667,0 Z M24.3333333,7.77777778 C24.8856181,7.77777778 25.3333333,8.22549303 25.3333333,8.77777778 L25.3333333,13.4444444 C25.3333333,13.9967292 24.8856181,14.4444444 24.3333333,14.4444444 L23,14.4444444 C22.4477153,14.4444444 22,13.9967292 22,13.4444444 L22,8.77777778 C22,8.22549303 22.4477153,7.77777778 23,7.77777778 L24.3333333,7.77777778 Z M2.33333333,7.77777778 C2.88561808,7.77777778 3.33333333,8.22549303 3.33333333,8.77777778 L3.33333333,13.4444444 C3.33333333,13.9967292 2.88561808,14.4444444 2.33333333,14.4444444 L1,14.4444444 C0.44771525,14.4444444 5.58162771e-16,13.9967292 0,13.4444444 L0,8.77777778 C-6.76353751e-17,8.22549303 0.44771525,7.77777778 1,7.77777778 L2.33333333,7.77777778 Z M12.955136,5.86722343 C13.4554184,5.86722343 13.8750101,6.28681514 13.8750101,6.78709756 L13.8750101,10.0954168 C13.8750101,10.5956992 13.4554184,11.0152909 12.955136,11.0152909 L12.8667627,11.0110764 C12.8374699,11.0138636 12.8077353,11.0152909 12.7776164,11.0152909 L10.808763,11.0152909 C10.2923425,11.0152909 9.88888889,10.5956992 9.88888889,10.0954168 C9.88888889,9.59513435 10.3084806,9.17554265 10.808763,9.17554265 L12.035,9.175 L12.0352618,6.78709756 C12.0352618,6.270677 12.4548535,5.86722343 12.955136,5.86722343 Z"></path></clipPath></defs><g transform="translate(-774.0 -243.0)"><g clip-path="url(#i0)"><g transform="translate(705.9999999999999 134.0)"><g transform="translate(68.0 81.0)"><g transform="translate(0.0 28.0)"><g transform="translate(7.33333333333303 8.888888888890959)"><g clip-path="url(#i1)"><polygon points="0,0 25.3333333,0 25.3333333,21.7777778 0,21.7777778 0,0" stroke="none" fill="#15A812"></polygon></g></g></g></g></g></g></g></svg>