<?xml version="1.0" encoding="UTF-8"?><svg version="1.1" width="19px" height="19px" viewBox="0 0 19.0 19.0" xmlns="http://www.w3.org/2000/svg" xmlns:xlink="http://www.w3.org/1999/xlink"><defs><clipPath id="i0"><path d="M1440,0 L1440,1024 L0,1024 L0,0 L1440,0 Z"></path></clipPath><clipPath id="i1"><path d="M19,0 L19,19 L0,19 L0,0 L19,0 Z"></path></clipPath><clipPath id="i2"><path d="M9.5,0 C14.7438501,0.00688621832 18.9931138,4.25614989 19,9.5 C19,14.7467051 14.7467051,19 9.5,19 C4.25329488,19 0,14.7467051 0,9.5 C0,4.25329488 4.25329488,0 9.5,0 Z M9.5,1.25 C4.94365081,1.25 1.25,4.94365081 1.25,9.5 C1.25,14.0563492 4.94365081,17.75 9.5,17.75 C14.0544451,17.7454065 17.7454065,14.0544451 17.75,9.5 C17.75,4.94365081 14.0563492,1.25 9.5,1.25 Z"></path></clipPath><clipPath id="i3"><path d="M5.49360644,0 L5.54849059,0.00241227961 C5.58847101,0.00579920527 5.62805056,0.0130501968 5.66670262,0.0240687768 C5.7068371,0.028763908 5.7464289,0.0374677969 5.78491463,0.0500565851 C5.82237994,0.0709656228 5.85773464,0.0956300321 5.89046107,0.12368868 C5.9264412,0.143200675 5.96039117,0.166420699 5.99178566,0.192989463 L10.8300346,5.17398391 C11.0625396,5.42997218 11.0556791,5.82888469 10.8145164,6.07629891 C10.5733538,6.32371314 10.1845208,6.33075157 9.93500079,6.09221941 L6.16065997,2.22003764 L6.16065997,11.350417 C6.16059971,11.7091899 5.87708885,12 5.52738131,12 C5.17767377,12 4.8941629,11.7091899 4.89410265,11.350417 L4.89410265,2.17672464 L1.09443069,6.07489421 C0.9357401,6.24785889 0.697692154,6.31818933 0.473639687,6.25830477 C0.249587221,6.19842021 0.0752492269,6.01786758 0.0189940604,5.78745237 C-0.0372611061,5.55703716 0.0335348914,5.31349273 0.203618707,5.15232741 L5.10097368,0.171332966 C5.13706413,0.139198316 5.17674587,0.111573398 5.21918569,0.0890382686 C5.2470938,0.066402066 5.27674381,0.0461229878 5.30784469,0.0284000879 C5.35043455,0.014941836 5.39431348,0.00622898341 5.43872229,0.00241227961 C5.47524457,-0.000804093202 5.51196831,-0.000804093202 5.54849059,0.00241227961 Z"></path></clipPath></defs><g transform="translate(-1373.0 -134.0)"><g clip-path="url(#i0)"><g transform="translate(1339.0 134.0)"><g transform="translate(34.0 0.0)"><g clip-path="url(#i1)"><g clip-path="url(#i2)"><polygon points="0,0 19,0 19,19 0,19 0,0" stroke="none" fill="#1A67E3"></polygon></g><g transform="translate(4.0 4.0)"><g clip-path="url(#i3)"><polygon points="-2.22044605e-16,0 11,0 11,12 -2.22044605e-16,12 -2.22044605e-16,0" stroke="none" fill="#1A67E3"></polygon></g></g></g></g></g></g></g></svg>