<?xml version="1.0" encoding="UTF-8"?><svg version="1.1" width="19px" height="19px" viewBox="0 0 19.0 19.0" xmlns="http://www.w3.org/2000/svg" xmlns:xlink="http://www.w3.org/1999/xlink"><defs><clipPath id="i0"><path d="M1440,0 L1440,1024 L0,1024 L0,0 L1440,0 Z"></path></clipPath><clipPath id="i1"><path d="M19,0 L19,19 L0,19 L0,0 L19,0 Z"></path></clipPath><clipPath id="i2"><path d="M17.4092042,4.23418514 C19.9210223,8.0057058 19.4144781,13.0249532 16.1996262,16.2196559 C14.4252865,17.9984211 12.0154222,18.9987794 9.50177415,19 L9.50177415,18.9814644 C4.96732748,18.9821261 1.06459916,15.7810087 0.182441578,11.3375099 C-0.699716006,6.89401111 1.68467561,2.44714422 5.87613496,0.718827778 C10.0675943,-1.00948866 14.8973861,0.462664478 17.4092042,4.23418514 Z M9.50177415,1.5209035 C7.46087739,1.5209035 5.40142702,2.29939985 3.84292403,3.85639253 C0.725918067,6.98891354 0.725918067,12.0491398 3.84292403,15.1631252 C6.95992999,18.2771105 12.0250647,18.2771105 15.1606242,15.1631252 C18.2776302,12.0491398 18.2776302,6.98891354 15.1606242,3.85639253 C13.6021213,2.31793546 11.5426709,1.53943913 9.50177415,1.53943911 L9.50177415,1.5209035 Z"></path></clipPath><clipPath id="i3"><path d="M10.7425384,0 C11.1524134,0 11.4846827,0.331947318 11.4846827,0.741425086 C11.4846827,1.15090285 11.1524134,1.48285017 10.7425384,1.48285017 L0.742144272,1.48285017 C0.332269309,1.48285017 0,1.15090285 0,0.741425086 C0,0.331947318 0.332269309,0 0.742144272,0 L10.7425384,0 Z"></path></clipPath><clipPath id="i4"><path d="M0.742144282,0 C1.15201925,0 1.48428856,0.331947322 1.48428856,0.741425096 L1.48428856,10.7321282 C1.48428856,11.141606 1.15201925,11.4735533 0.742144291,11.4735533 C0.545315389,11.4735533 0.356548084,11.3954391 0.217369031,11.2563949 C0.0781899782,11.1173507 0,10.9287663 0,10.7321282 L0,0.741425096 C0,0.331947322 0.332269313,0 0.742144282,0 Z"></path></clipPath></defs><g transform="translate(-1302.0 -640.0)"><g clip-path="url(#i0)"><g transform="translate(1302.0 640.0)"><g clip-path="url(#i1)"><g clip-path="url(#i2)"><polygon points="0,1.11022302e-16 19,1.11022302e-16 19,19 0,19 0,1.11022302e-16" stroke="none" fill="#1A67E3" opacity="50%"></polygon></g><g transform="translate(3.750156009087731 8.768333752196668)"><g clip-path="url(#i3)"><polygon points="0,0 11.4846827,0 11.4846827,1.48285017 0,1.48285017 0,0" stroke="none" fill="#1A67E3" opacity="50%"></polygon></g></g><g transform="translate(8.759629856625907 3.7822500137740462)"><g clip-path="url(#i4)"><polygon points="0,0 1.48428856,0 1.48428856,11.4735533 0,11.4735533 0,0" stroke="none" fill="#1A67E3" opacity="50%"></polygon></g></g></g></g></g></g></svg>