<?xml version="1.0" encoding="UTF-8"?><svg version="1.1" width="19px" height="19px" viewBox="0 0 19.0 19.0" xmlns="http://www.w3.org/2000/svg" xmlns:xlink="http://www.w3.org/1999/xlink"><defs><clipPath id="i0"><path d="M1440,0 L1440,1024 L0,1024 L0,0 L1440,0 Z"></path></clipPath><clipPath id="i1"><path d="M19,0 L19,19 L0,19 L0,0 L19,0 Z"></path></clipPath><clipPath id="i2"><path d="M13.75,0 C14.1642136,0 14.5,0.335786438 14.5,0.750000001 L14.5,1.5 L16.251,1.5 C17.77,1.5 19,2.73099999 19,4.25225 L19,16.2475 C19,17.76775 17.7695,19 16.251,19 L2.74899999,19 C1.23,19 0,17.769 0,16.24775 L0,4.2525 C0,2.73225 1.23049999,1.5 2.74899999,1.5 L4.5,1.5 L4.5,0.750000001 C4.5,0.335786438 4.83578644,0 5.25,0 C5.66421357,0 6,0.335786438 6,0.750000001 L6,1.5 L13,1.5 L13,0.750000001 C13,0.335786438 13.3357864,0 13.75,0 Z M4.49999577,3 L2.74899999,3 C2.41730333,3.00039756 2.09935373,3.13256207 1.86511356,3.36741176 C1.63087339,3.60226144 1.49953558,3.92055342 1.49999577,4.25225 L1.49999577,16.2475 C1.49913668,16.5793411 1.63033817,16.8978904 1.86465753,17.1328663 C2.0989769,17.3678423 2.41715774,17.5 2.74899999,17.5 L16.251,17.5 C16.5826967,17.4996024 16.9006463,17.3674379 17.1348864,17.1325882 C17.3691266,16.8977386 17.5004644,16.5794466 17.4999958,16.24775 L17.4999958,4.2525 C17.5008633,3.92065888 17.3696618,3.60210964 17.1353425,3.36713365 C16.9010231,3.13215767 16.5828423,3 16.251,3 L14.4999958,3 L14.4999958,3.75 C14.4999958,4.16421357 14.1642136,4.5 13.75,4.5 C13.3357864,4.5 12.9999958,4.16421357 12.9999958,3.75 L12.9999958,3 L5.99999577,3 L5.99999577,3.75 C5.99999577,4.16421357 5.66421357,4.5 5.25,4.5 C4.83578644,4.5 4.49999577,4.16421357 4.49999577,3.75 L4.49999577,3 Z M11.25,12 C11.6642136,12 12,12.3357864 12,12.75 C12,13.1642136 11.6642136,13.5 11.25,13.5 L4.74999999,13.5 C4.33578643,13.5 3.99999999,13.1642136 3.99999999,12.75 C3.99999999,12.3357864 4.33578643,12 4.74999999,12 L11.25,12 Z M14.25,8.25000001 C14.6642136,8.25000001 15,8.58578644 15,9.00000001 C15,9.41421357 14.6642136,9.75000001 14.25,9.75000001 L4.74999999,9.75000001 C4.33578643,9.75000001 3.99999999,9.41421357 3.99999999,9.00000001 C3.99999999,8.58578644 4.33578643,8.25000001 4.74999999,8.25000001 L14.25,8.25000001 Z"></path></clipPath></defs><g transform="translate(-1302.0 -540.0)"><g clip-path="url(#i0)"><g transform="translate(1302.0 540.0)"><g clip-path="url(#i1)"><g clip-path="url(#i2)"><polygon points="0,0 19,0 19,19 0,19 0,0" stroke="none" fill="#1A67E3" opacity="50%"></polygon></g></g></g></g></g></svg>