<?xml version="1.0" encoding="UTF-8"?><svg version="1.1" width="24px" height="24px" viewBox="0 0 24.0 24.0" xmlns="http://www.w3.org/2000/svg" xmlns:xlink="http://www.w3.org/1999/xlink"><defs><clipPath id="i0"><path d="M1440,0 L1440,1255 L0,1255 L0,0 L1440,0 Z"></path></clipPath><clipPath id="i1"><path d="M24,0 L24,24 L0,24 L0,0 L24,0 Z"></path></clipPath><clipPath id="i2"><path d="M18,0 L18.0005287,8.06939989 C17.516959,7.86192493 16.9842526,7.74703595 16.4247124,7.74703595 C14.2155734,7.74703595 12.4247124,9.53789695 12.4247124,11.7470359 L12.4247124,11.9315755 C12.4247124,12.4122835 12.509509,12.8731863 12.6649601,13.3001416 L2,13.2998768 C0.8954305,13.2998768 1.3527075e-16,12.4044463 0,11.2998768 L0,0 L18,0 Z M11.2390876,2.85735931 L7.912,6.18404474 L6.76568542,5.0372583 C6.45326599,4.72483887 5.94673401,4.72483887 5.63431458,5.0372583 C5.32189514,5.34967773 5.32189514,5.85620972 5.63431458,6.16862915 L7.33137085,7.86568542 C7.64379028,8.17810486 8.15032227,8.17810486 8.4627417,7.86568542 L8.38522704,7.9351454 C8.44489312,7.90079358 8.50107455,7.85811404 8.55208181,7.80710678 L12.3704584,3.98873016 C12.6828779,3.67631073 12.6828779,3.16977875 12.3704584,2.85735931 C12.058039,2.54493988 11.551507,2.54493988 11.2390876,2.85735931 Z"></path></clipPath><clipPath id="i3"><path d="M2,0 C3.1045695,-2.02906125e-16 4,0.8954305 4,2 C4,3.1045695 3.1045695,4 2,4 C0.8954305,4 1.3527075e-16,3.1045695 0,2 C-1.3527075e-16,0.8954305 0.8954305,2.02906125e-16 2,0 Z"></path></clipPath><clipPath id="i4"><path d="M16,0 C17.1045695,-2.02906125e-16 18,0.8954305 18,2 L18,5 L0,5 L0,2 C-1.3527075e-16,0.8954305 0.8954305,2.02906125e-16 2,0 L16,0 Z"></path></clipPath></defs><g transform="translate(-284.0 -219.0)"><g clip-path="url(#i0)"><g transform="translate(284.00000008742245 218.9999999999999)"><g clip-path="url(#i1)"><g transform="translate(3.0000000000000018 2.0000000000000018)"><g transform="translate(0.0 6.699999999999817)"><g clip-path="url(#i2)"><polygon points="0,0 18.0005287,0 18.0005287,13.3001416 0,13.3001416 0,0" stroke="none" fill="#44B044"></polygon></g></g><g transform="translate(14.397740125014018 16.41826045108382)"><g clip-path="url(#i3)"><polygon points="0,0 4,0 4,4 0,4 0,0" stroke="none" fill="#44B044"></polygon></g></g><g clip-path="url(#i4)"><polygon points="0,0 18,0 18,5 0,5 0,0" stroke="none" fill="#44B044"></polygon></g></g></g></g></g></g></svg>