<?xml version="1.0" encoding="UTF-8"?><svg version="1.1" width="24px" height="24px" viewBox="0 0 24.0 24.0" xmlns="http://www.w3.org/2000/svg" xmlns:xlink="http://www.w3.org/1999/xlink"><defs><clipPath id="i0"><path d="M1440,0 L1440,1255 L0,1255 L0,0 L1440,0 Z"/></clipPath><clipPath id="i1"><path d="M24,0 L24,24 L0,24 L0,0 L24,0 Z"/></clipPath><clipPath id="i2"><path d="M15.6372,0 C16.9423325,0.00066251005 18,1.05886734 18,2.36400001 L18.0010919,14.2564447 C17.531615,14.0903714 17.0263612,14 16.5,14 C16.3992362,14 16.2992459,14.0033119 16.2001321,14.0098327 L16.2,2.36400001 C16.2,2.05297944 15.9482199,1.80066175 15.6372,1.8 L2.36400001,1.8 C2.05278522,1.80066005 1.80066005,2.05278522 1.8,2.36400001 L1.8,17.502 C1.80066005,17.8132148 2.05278522,18.0653399 2.36400001,18.066 L12.0206849,18.0657298 C12.0070004,18.2086407 12,18.3535028 12,18.5 C12,18.9761931 12.0739655,19.4351106 12.2110345,19.8658904 L2.36400001,19.866 C1.05839885,19.866 0,18.8076011 0,17.502 L0,2.36400001 C0,1.05839885 1.05839885,0 2.36400001,0 L15.6372,0 Z"/></clipPath><clipPath id="i3"><path d="M2,0 C3.1045695,-2.02906125e-16 4,0.8954305 4,2 C4,3.1045695 3.1045695,4 2,4 C0.8954305,4 1.3527075e-16,3.1045695 0,2 C-1.3527075e-16,0.8954305 0.8954305,2.02906125e-16 2,0 Z"/></clipPath><clipPath id="i4"><path d="M17.382,0 L17.382,1.8 L0,1.8 L0,0 L17.382,0 Z"/></clipPath><clipPath id="i5"><path d="M6.97045843,0.234314575 C7.28287786,0.546734008 7.28287786,1.05326599 6.97045843,1.36568542 L3.15208181,5.18406204 C3.10107455,5.2350693 3.04489312,5.27774884 2.98522704,5.31210066 L3.0627417,5.24264069 C2.75032227,5.55506012 2.24379028,5.55506012 1.93137085,5.24264069 L0.234314575,3.54558441 C-0.0781048584,3.23316498 -0.0781048584,2.726633 0.234314575,2.41421356 C0.546734008,2.10179413 1.05326599,2.10179413 1.36568542,2.41421356 L2.512,3.561 L5.83908758,0.234314575 C6.15150701,-0.0781048584 6.65803899,-0.0781048584 6.97045843,0.234314575 Z"/></clipPath></defs><g transform="translate(-45.0 -265.0)"><g clip-path="url(#i0)"><g transform="translate(45.0 265.0)"><g clip-path="url(#i1)"><g transform="translate(3.0 2.0)"><g clip-path="url(#i2)"><polygon points="0,0 18.0010919,0 18.0010919,19.866 0,19.866 0,0" stroke="none"/></g><g transform="translate(14.397740125014018 16.41826045108382)"><g clip-path="url(#i3)"><polygon points="0,0 4,0 4,4 0,4 0,0" stroke="none"/></g></g><g transform="translate(0.30839999729687406 5.032799998991322)"><g clip-path="url(#i4)"><polygon points="0,0 17.382,0 17.382,1.8 0,1.8 0,0" stroke="none"/></g></g><g transform="translate(5.399999999999324 9.323044737829292)"><g clip-path="url(#i5)"><polygon points="-4.02650135e-13,4.96269692e-14 7.204773,4.96269692e-14 7.204773,5.47695526 -4.02650135e-13,5.47695526 -4.02650135e-13,4.96269692e-14" stroke="none"/></g></g></g></g></g></g></g></svg>