<?xml version="1.0" encoding="UTF-8"?><svg version="1.1" width="24px" height="24px" viewBox="0 0 24.0 24.0" xmlns="http://www.w3.org/2000/svg" xmlns:xlink="http://www.w3.org/1999/xlink"><defs><clipPath id="i0"><path d="M1440,0 L1440,1183 L0,1183 L0,0 L1440,0 Z"></path></clipPath></defs><g transform="translate(-416.0 -265.0)"><g clip-path="url(#i0)"><g transform="translate(416.0 265.0)"><g transform="translate(6.0 6.0)"><path d="M11.9180381,0.414567595 C11.788509,0.159820869 11.5217061,-0.000958838155 11.2300987,0 L0.769188969,0 C0.477843356,0 0.211503117,0.160506391 0.0812094005,0.414594902 C-0.0490843162,0.668683413 -0.0209660231,0.972742937 0.153841351,1.2000066 L4.15360093,6.40004778 L4.15360093,11.7000266 C4.15361067,11.7995609 4.20424925,11.8926099 4.28877679,11.9484139 C4.37330433,12.004218 4.48071395,12.0155105 4.57549864,11.9785584 L7.65223679,10.7785561 C7.76906065,10.733012 7.84567469,10.6227021 7.84568669,10.5000244 L7.84568669,6.40004778 L11.8454463,1.2000066 C12.0212198,0.973092484 12.0493738,0.668467257 11.9180381,0.414567595 Z" stroke="#000000" stroke-width="1" fill="none" stroke-miterlimit="10"></path></g></g></g></g></svg>