<?xml version="1.0" encoding="UTF-8"?><svg version="1.1" width="16px" height="12px" viewBox="0 0 16.0 12.0" xmlns="http://www.w3.org/2000/svg" xmlns:xlink="http://www.w3.org/1999/xlink"><defs><clipPath id="i0"><path d="M1440,0 L1440,1183 L0,1183 L0,0 L1440,0 Z"></path></clipPath><clipPath id="i1"><path d="M1440,0 L1440,1548 L0,1548 L0,0 L1440,0 Z"></path></clipPath><clipPath id="i2"><path d="M1213,0 L1213,1084 L0,1084 L0,0 L1213,0 Z"></path></clipPath><clipPath id="i3"><path d="M1134,0 L1134,50 L0,50 L0,0 L1134,0 Z"></path></clipPath><clipPath id="i4"><path d="M8.58742876,0 L10.4769726,6.61689526 L2.23517941,6.61689526 L0,0 L8.58742876,0 Z"></path></clipPath><clipPath id="i5"><path d="M6.49248346,0 L8.21414901,1.6393274 L8.21414901,10.5979395 L0,10.5979395 L6.49248346,0 Z"></path></clipPath><clipPath id="i6"><path d="M0,0 L1.72166556,1.66407046 L0,1.66407046 L0,0 Z"></path></clipPath><clipPath id="i7"><path d="M6,0 L6,6 L0,6 L0,0 L6,0 Z"></path></clipPath><clipPath id="i8"><path d="M2.8037249,0 C3.02493269,0 3.20425703,0.179086101 3.20425703,0.400000002 L4.5995107,0.400000002 C4.73414519,0.400014852 4.85976506,0.467580286 4.933869,0.579836698 C5.00797293,0.69209311 5.02064572,0.834020437 4.96759973,0.957600001 L4.67380941,1.6424 C4.63061092,1.74303816 4.63061092,1.85696184 4.67380941,1.9576 L4.96759973,2.6424 C5.02064572,2.76597957 5.00797293,2.90790689 4.933869,3.0201633 C4.85976506,3.13241972 4.73414519,3.2 4.5995107,3.2 L2.40319277,3.2 C2.18198499,3.2 2.00266065,3.0209139 2.00266064,2.8 L0.400532125,2.8 C0.17932434,2.8 0,2.6209139 0,2.4 L0,0.400000002 C0,0.179086103 0.17932434,0 0.400532125,0 Z"></path></clipPath><clipPath id="i9"><path d="M0.6,0.388888889 L0.6,6.61111111 C0.6,6.82588851 0.465685425,7 0.3,7 C0.134314575,7 0,6.82588851 0,6.61111111 L0,0.388888889 C0,0.200958662 0.102834597,0.0441632765 0.239539536,0.00790084004 L0.3,0 L0.360460464,0.00790084004 C0.497165403,0.0441632765 0.6,0.200958662 0.6,0.388888889 Z"></path></clipPath><clipPath id="i10"><path d="M12,0 L9.59789098,5.22355906 L0,5.22355906 L2.27249773,0 L12,0 Z"></path></clipPath><clipPath id="i11"><path d="M1.39999884,0 C2.17291343,0 2.79895342,0.626039989 2.79895342,1.39895458 C2.79895342,2.12640362 2.24347625,2.72374919 1.53374208,2.79150801 L1.39895717,2.79790917 C0.626042578,2.79790917 -0.00103907534,2.17082752 1.29265663e-06,1.39895458 C1.29265663e-06,0.626039989 0.627084242,0 1.39895717,0 Z"></path></clipPath><clipPath id="i12"><path d="M3.41561585,3.02499189 L3.62811528,3.23749132 C3.73228167,3.34165771 3.73228167,3.51040726 3.62811528,3.61353198 L3.61144866,3.63019861 C3.50832393,3.73436499 3.33957438,3.73436499 3.235408,3.63019861 L3.02290857,3.41769918 C2.91874218,3.31353279 2.91874218,3.14478324 3.02290857,3.04165852 L3.03957519,3.02499189 C3.14374158,2.92082551 3.31249112,2.92082551 3.41561585,3.02499189 Z M0.66666488,3.0218669 L0.683331502,3.03853352 C0.78749789,3.14269991 0.78749789,3.3104078 0.683331502,3.41457418 L0.470832072,3.62707361 C0.366665684,3.73124 0.1989578,3.73124 0.0947914127,3.62707361 L0.0781247907,3.61040699 C-0.0260415969,3.5062406 -0.0260415969,3.33853272 0.0781247907,3.23436633 L0.290624221,3.0218669 C0.394790609,2.91770051 0.562498493,2.91770051 0.66666488,3.0218669 Z M3.61040699,0.0802081184 L3.62707361,0.0968747404 C3.73124,0.201041128 3.73124,0.368749012 3.62707361,0.472915399 L3.41457418,0.68541483 C3.3104078,0.789581218 3.14269991,0.789581218 3.03853352,0.68541483 L3.0218669,0.668748208 C2.91770051,0.56458182 2.91770051,0.396873937 3.0218669,0.292707549 L3.23436633,0.0802081184 C3.33853272,-0.0239582691 3.5062406,-0.0239582691 3.61040699,0.0802081184 Z M0.470832072,0.0781247907 L0.683331502,0.290624221 C0.78749789,0.394790609 0.78749789,0.563540157 0.683331502,0.66666488 L0.66666488,0.683331502 C0.562498493,0.78749789 0.393748945,0.78749789 0.290624221,0.683331502 L0.0781247907,0.470832072 C-0.0260415969,0.366665684 -0.0260415969,0.197916136 0.0781247907,0.0947914127 L0.0947914127,0.0781247907 C0.1989578,-0.0260415969 0.367707348,-0.0260415969 0.470832072,0.0781247907 Z"></path></clipPath><clipPath id="i13"><path d="M2.511465,4.1666689 C2.65833961,4.1666689 2.77708929,4.28646025 2.77708929,4.43333485 L2.77708929,4.73437571 C2.77708929,4.88125032 2.65729794,5 2.51042334,5 L2.48750673,5 C2.34063213,5 2.22188244,4.88020865 2.22188244,4.73333405 L2.22188244,4.43229319 C2.22188244,4.28541858 2.34167379,4.1666689 2.4885484,4.1666689 L2.511465,4.1666689 Z M4.73437571,2.22292411 C4.88125032,2.22292411 5,2.34271545 5,2.48959006 L5,2.51250667 C5,2.65938127 4.88020865,2.77813095 4.73333405,2.77813095 L4.43229319,2.77813095 C4.28541858,2.77813095 4.16562724,2.65833961 4.16666216,2.511465 L4.16666216,2.4885484 C4.16666216,2.34167379 4.28646025,2.22292411 4.43333485,2.22292411 L4.73437571,2.22292411 Z M0.56772021,2.22188244 C0.714594817,2.22188244 0.834386162,2.34167379 0.833351241,2.4885484 L0.833351241,2.511465 C0.833351241,2.65729794 0.713553153,2.77708929 0.566678546,2.77708929 L0.265637686,2.77708929 C0.11876308,2.77708929 -0.00102826571,2.65729794 6.65574407e-06,2.51042334 L6.65574407e-06,2.48750673 C6.65574407e-06,2.34063213 0.119804744,2.22188244 0.26667935,2.22188244 L0.56772021,2.22188244 Z M2.51250667,6.6557443e-06 C2.65938127,6.6557443e-06 2.77813095,0.11876308 2.77813095,0.26667935 L2.77813095,0.56772021 C2.77813095,0.713553153 2.65938127,0.833344498 2.511465,0.833344498 L2.4885484,0.833344498 C2.34167379,0.833344498 2.22188244,0.713553153 2.22291737,0.566678546 L2.22291737,0.265637686 C2.22291737,0.11876308 2.34271545,-0.00102826571 2.48959006,6.6557443e-06 L2.51250667,6.6557443e-06 Z"></path></clipPath></defs><g transform="translate(-310.0 -358.0)"><g clip-path="url(#i0)"><g clip-path="url(#i1)"><polygon points="0,0 1440,0 1440,1183 0,1183 0,0" stroke="none" fill="#FAFAFA"></polygon></g><g clip-path="url(#i1)"><polygon points="0,0 1440,0 1440,1183 0,1183 0,0" stroke="none" fill="#FAFAFA"></polygon></g><g transform="translate(227.0 104.0)"><g clip-path="url(#i2)"><polygon points="0,0 1213,0 1213,1079 0,1079 0,0" stroke="none" fill="#FFFFFF"></polygon></g></g><g transform="translate(267.0 339.0000000000005)"><g clip-path="url(#i3)"><polygon points="0,0 1134,0 1134,50 0,50 0,0" stroke="none" fill="#F5F5F5"></polygon></g><g transform="translate(43.24884633349484 18.99999999999977)"><g transform="translate(0.0 5.038909534527647)"><g clip-path="url(#i4)"><polygon points="0,0 10.4769726,0 10.4769726,6.61689526 0,6.61689526 0,0" stroke="none" fill="#D9AD60"></polygon></g></g><g transform="translate(2.4642946672647668 1.0578652622807567)"><g clip-path="url(#i5)"><polygon points="0,0 8.21414901,0 8.21414901,10.5979395 0,10.5979395 0,0" stroke="none" fill="#C6D9FF"></polygon></g></g><g transform="translate(8.956778124229459 1.057865262280757)"><g clip-path="url(#i6)"><polygon points="0,0 1.72166556,0 1.72166556,1.66407046 0,1.66407046 0,0" stroke="none" fill="#9DB8CD"></polygon></g></g><g transform="translate(6.751153666504251 0.0)"><g clip-path="url(#i7)"><polygon points="0,0 6,0 6,6 0,6 0,0" stroke="none" fill="#202425" opacity="1%"></polygon></g><g transform="translate(0.3999999999996362 0.599999999999909)"><g clip-path="url(#i8)"><polygon points="0,0 5,0 5,3.2 0,3.2 0,0" stroke="none" fill="#FF5300"></polygon></g></g><g transform="translate(0.3000000000003638 0.2999999999999545)"><g clip-path="url(#i9)"><polygon points="0,0 0.6,0 0.6,7 0,7 0,0" stroke="none" fill="#836355"></polygon></g></g></g><g transform="translate(2.3126995551838263 6.432245742143095)"><g clip-path="url(#i10)"><polygon points="0,0 12,0 12,5.22355906 0,5.22355906 0,0" stroke="none" fill="#F0D692"></polygon></g></g><g transform="translate(0.7511536665042513 0.0)"><g transform="translate(1.0989661981608159 1.092718803442267)"><g clip-path="url(#i11)"><polygon points="-3.62820884e-13,0 2.79895342,0 2.79895342,2.79790917 -3.62820884e-13,2.79790917 -3.62820884e-13,0" stroke="none" fill="#FFFE00"></polygon></g></g><g transform="translate(0.6468866647792306 0.6458450009033643)"><g clip-path="url(#i12)"><polygon points="-1.38777878e-17,0 3.70624007,0 3.70624007,3.7083234 -1.38777878e-17,3.7083234 -1.38777878e-17,0" stroke="none" fill="#FC9D3F"></polygon></g></g><g clip-path="url(#i13)"><polygon points="-2.77555756e-13,-5.01265696e-14 5,-5.01265696e-14 5,5 -2.77555756e-13,5 -2.77555756e-13,-5.01265696e-14" stroke="none" fill="#FC9D3F"></polygon></g></g></g><g transform="translate(43.24884633349484 18.99999999999977)"><g transform="translate(0.0 5.038909534527647)"><g clip-path="url(#i4)"><polygon points="0,0 10.4769726,0 10.4769726,6.61689526 0,6.61689526 0,0" stroke="none" fill="#D9AD60"></polygon></g></g><g transform="translate(2.4642946672647668 1.0578652622807567)"><g clip-path="url(#i5)"><polygon points="0,0 8.21414901,0 8.21414901,10.5979395 0,10.5979395 0,0" stroke="none" fill="#C6D9FF"></polygon></g></g><g transform="translate(8.956778124229459 1.057865262280757)"><g clip-path="url(#i6)"><polygon points="0,0 1.72166556,0 1.72166556,1.66407046 0,1.66407046 0,0" stroke="none" fill="#9DB8CD"></polygon></g></g><g transform="translate(6.751153666504251 0.0)"><g clip-path="url(#i7)"><polygon points="0,0 6,0 6,6 0,6 0,0" stroke="none" fill="#202425" opacity="1%"></polygon></g><g transform="translate(0.3999999999996362 0.599999999999909)"><g clip-path="url(#i8)"><polygon points="0,0 5,0 5,3.2 0,3.2 0,0" stroke="none" fill="#FF5300"></polygon></g></g><g transform="translate(0.3000000000003638 0.2999999999999545)"><g clip-path="url(#i9)"><polygon points="0,0 0.6,0 0.6,7 0,7 0,0" stroke="none" fill="#836355"></polygon></g></g></g><g transform="translate(2.3126995551838263 6.432245742143095)"><g clip-path="url(#i10)"><polygon points="0,0 12,0 12,5.22355906 0,5.22355906 0,0" stroke="none" fill="#F0D692"></polygon></g></g><g transform="translate(0.7511536665042513 0.0)"><g transform="translate(1.0989661981608159 1.092718803442267)"><g clip-path="url(#i11)"><polygon points="-3.62820884e-13,0 2.79895342,0 2.79895342,2.79790917 -3.62820884e-13,2.79790917 -3.62820884e-13,0" stroke="none" fill="#FFFE00"></polygon></g></g><g transform="translate(0.6468866647792306 0.6458450009033643)"><g clip-path="url(#i12)"><polygon points="-1.38777878e-17,0 3.70624007,0 3.70624007,3.7083234 -1.38777878e-17,3.7083234 -1.38777878e-17,0" stroke="none" fill="#FC9D3F"></polygon></g></g><g clip-path="url(#i13)"><polygon points="-2.77555756e-13,-5.01265696e-14 5,-5.01265696e-14 5,5 -2.77555756e-13,5 -2.77555756e-13,-5.01265696e-14" stroke="none" fill="#FC9D3F"></polygon></g></g></g></g></g></g></svg>