<?xml version="1.0" encoding="UTF-8"?>
<svg width="16px" height="12px" viewBox="0 0 16 12" version="1.1" xmlns="http://www.w3.org/2000/svg" xmlns:xlink="http://www.w3.org/1999/xlink">
    <title>icon2</title>
    <g id="页面-1" stroke="none" stroke-width="1" fill="none" fill-rule="evenodd">
        <g id="事件管理" transform="translate(-310.000000, -350.000000)">
            <g id="编组" fill="#FAFAFA" fill-rule="nonzero">
                <rect id="矩形" x="0" y="0" width="1440" height="1548"></rect>
            </g>
            <g id="编组-2" transform="translate(210.000000, 104.000000)" fill="#FFFFFF" fill-rule="nonzero">
                <rect id="矩形备份-40" x="18" y="0" width="1213" height="1084"></rect>
            </g>
            <rect id="矩形备份-2" fill="#FAFAFA" x="267" y="331" width="1142" height="50"></rect>
            <g id="icon2" transform="translate(310.248846, 350.000000)">
                <polygon id="路径-8" fill="#D9AD61" points="0 5.03890953 2.23517941 11.6558048 10.4769726 11.6558048 8.58742876 5.03890953"></polygon>
                <polyline id="路径-10" fill="#C6D9FF" points="2.46429467 1.05786526 2.46429467 11.6558048 10.6784437 11.6558048 10.6784437 2.69719266 8.95677812 1.05786526"></polyline>
                <polygon id="路径-11" fill="#9DB8CD" points="8.95677812 1.05786526 8.95677812 2.72193572 10.6784437 2.72193572"></polygon>
                <g id="编组" transform="translate(6.751154, 0.000000)" fill-rule="nonzero">
                    <polygon id="路径" fill="#202425" opacity="0.01" points="0 0 6 0 6 6 0 6"></polygon>
                    <path d="M0.800532125,0.6 C0.57932434,0.6 0.4,0.779086103 0.4,1 L0.4,3 C0.4,3.2209139 0.57932434,3.4 0.800532125,3.4 L2.40266064,3.4 C2.40266065,3.6209139 2.58198499,3.8 2.80319277,3.8 L4.9995107,3.8 C5.13414519,3.8 5.25976506,3.73241972 5.333869,3.6201633 C5.40797293,3.50790689 5.42064572,3.36597957 5.36759973,3.2424 L5.07380941,2.5576 C5.03061092,2.45696184 5.03061092,2.34303816 5.07380941,2.2424 L5.36759973,1.5576 C5.42064572,1.43402044 5.40797293,1.29209311 5.333869,1.1798367 C5.25976506,1.06758029 5.13414519,1.00001485 4.9995107,1 L3.60425703,1 C3.60425703,0.779086101 3.42493269,0.6 3.2037249,0.6 L0.800532125,0.6 Z" id="路径" fill="#FF5400"></path>
                    <path d="M0.6,0.3 C0.765685425,0.3 0.9,0.474111486 0.9,0.688888889 L0.9,6.91111111 C0.9,7.12588851 0.765685425,7.3 0.6,7.3 C0.434314575,7.3 0.3,7.12588851 0.3,6.91111111 L0.3,0.688888889 C0.3,0.474111486 0.434314575,0.3 0.6,0.3 L0.6,0.3 Z" id="路径" fill="#836455"></path>
                </g>
                <polygon id="路径-9" fill="#F0D792" points="4.58519729 6.43224574 2.31269956 11.6558048 11.9105905 11.6558048 14.3126996 6.43224574"></polygon>
                <g id="编组" transform="translate(0.751154, 0.000000)" fill-rule="nonzero">
                    <path d="M2.49792337,3.89062797 C1.72500878,3.89062797 1.09792712,3.26354632 1.09896749,2.49167339 C1.09896749,1.71875879 1.72605044,1.0927188 2.49792337,1.0927188 L2.49896504,1.0927188 C3.27187963,1.0927188 3.89791962,1.71875879 3.89791962,2.49167339 C3.89791962,3.26458798 3.27083797,3.89062797 2.49792337,3.89062797 C2.49896504,3.89062797 2.49896504,3.89062797 2.49792337,3.89062797 Z" id="形状" fill="#FFFE00"></path>
                    <path d="M3.88229466,4.27604361 L3.66979523,4.06354418 C3.56562884,3.95937779 3.56562884,3.79062824 3.66979523,3.68750352 L3.68646185,3.6708369 C3.79062824,3.56667051 3.95937779,3.56667051 4.06250251,3.6708369 L4.27500194,3.88333633 C4.37916833,3.98750271 4.37916833,4.15625226 4.27500194,4.25937698 L4.25833532,4.27604361 C4.1552106,4.38020999 3.98646105,4.38020999 3.88229466,4.27604361 Z M0.741678077,4.27291861 L0.725011455,4.25625199 C0.620845068,4.15208561 0.620845068,3.98437772 0.725011455,3.88021133 L0.937510886,3.6677119 C1.04167727,3.56354552 1.20938516,3.56354552 1.31355155,3.6677119 L1.33021817,3.68437853 C1.43438455,3.78854491 1.43438455,3.9562528 1.33021817,4.06041918 L1.11771874,4.27291861 C1.01355235,4.377085 0.845844465,4.377085 0.741678077,4.27291861 Z M3.68542019,1.33125983 L3.66875357,1.31459321 C3.56458718,1.21042682 3.56458718,1.04271894 3.66875357,0.93855255 L3.881253,0.726053119 C3.98541939,0.621886732 4.15312727,0.621886732 4.25729366,0.726053119 L4.27396028,0.742719741 C4.37812667,0.846886129 4.37812667,1.01459401 4.27396028,1.1187604 L4.06146085,1.33125983 C3.95729446,1.43542622 3.78958658,1.43542622 3.68542019,1.33125983 Z M0.937510886,1.3291765 L0.725011455,1.11667707 C0.620845068,1.01251069 0.620845068,0.843761137 0.725011455,0.740636414 L0.741678077,0.723969792 C0.845844465,0.619803404 1.01459401,0.619803404 1.11771874,0.723969792 L1.33021817,0.936469222 C1.43438455,1.04063561 1.43438455,1.20938516 1.33021817,1.31250988 L1.31355155,1.3291765 C1.20938516,1.43334289 1.04063561,1.43334289 0.937510886,1.3291765 Z" id="形状结合" fill="#FC9D3F"></path>
                    <path d="M2.51042334,5 L2.48750673,5 C2.34063213,5 2.22188244,4.88020865 2.22188244,4.73333405 L2.22188244,4.43229319 C2.22188244,4.28541858 2.34167379,4.1666689 2.4885484,4.1666689 L2.511465,4.1666689 C2.65833961,4.1666689 2.77708929,4.28646025 2.77708929,4.43333485 L2.77708929,4.73437571 C2.77708929,4.88125032 2.65729794,5 2.51042334,5 Z M4.73333405,2.77813095 L4.43229319,2.77813095 C4.28541858,2.77813095 4.16562724,2.65833961 4.16666216,2.511465 L4.16666216,2.4885484 C4.16666216,2.34167379 4.28646025,2.22292411 4.43333485,2.22292411 L4.73437571,2.22292411 C4.88125032,2.22292411 5,2.34271545 5,2.48959006 L5,2.51250667 C5,2.65938127 4.88020865,2.77813095 4.73333405,2.77813095 Z M0.566678546,2.77708929 L0.265637686,2.77708929 C0.11876308,2.77708929 -0.00102826571,2.65729794 6.65574407e-06,2.51042334 L6.65574407e-06,2.48750673 C6.65574407e-06,2.34063213 0.119804744,2.22188244 0.26667935,2.22188244 L0.56772021,2.22188244 C0.714594817,2.22188244 0.834386162,2.34167379 0.833351241,2.4885484 L0.833351241,2.511465 C0.833351241,2.65729794 0.713553153,2.77708929 0.566678546,2.77708929 Z M2.511465,0.833344498 L2.4885484,0.833344498 C2.34167379,0.833344498 2.22188244,0.713553153 2.22291737,0.566678546 L2.22291737,0.265637686 C2.22291737,0.11876308 2.34271545,-0.00102826571 2.48959006,6.6557443e-06 L2.51250667,6.6557443e-06 C2.65938127,6.6557443e-06 2.77813095,0.11876308 2.77813095,0.26667935 L2.77813095,0.56772021 C2.77813095,0.713553153 2.65938127,0.833344498 2.511465,0.833344498 Z" id="形状结合" fill="#FC9D3F"></path>
                </g>
            </g>
            <g id="icon2" transform="translate(310.248846, 350.000000)">
                <polygon id="路径-8" fill="#D9AD61" points="0 5.03890953 2.23517941 11.6558048 10.4769726 11.6558048 8.58742876 5.03890953"></polygon>
                <polyline id="路径-10" fill="#C6D9FF" points="2.46429467 1.05786526 2.46429467 11.6558048 10.6784437 11.6558048 10.6784437 2.69719266 8.95677812 1.05786526"></polyline>
                <polygon id="路径-11" fill="#9DB8CD" points="8.95677812 1.05786526 8.95677812 2.72193572 10.6784437 2.72193572"></polygon>
                <g id="编组" transform="translate(6.751154, 0.000000)" fill-rule="nonzero">
                    <polygon id="路径" fill="#202425" opacity="0.01" points="0 0 6 0 6 6 0 6"></polygon>
                    <path d="M0.800532125,0.6 C0.57932434,0.6 0.4,0.779086103 0.4,1 L0.4,3 C0.4,3.2209139 0.57932434,3.4 0.800532125,3.4 L2.40266064,3.4 C2.40266065,3.6209139 2.58198499,3.8 2.80319277,3.8 L4.9995107,3.8 C5.13414519,3.8 5.25976506,3.73241972 5.333869,3.6201633 C5.40797293,3.50790689 5.42064572,3.36597957 5.36759973,3.2424 L5.07380941,2.5576 C5.03061092,2.45696184 5.03061092,2.34303816 5.07380941,2.2424 L5.36759973,1.5576 C5.42064572,1.43402044 5.40797293,1.29209311 5.333869,1.1798367 C5.25976506,1.06758029 5.13414519,1.00001485 4.9995107,1 L3.60425703,1 C3.60425703,0.779086101 3.42493269,0.6 3.2037249,0.6 L0.800532125,0.6 Z" id="路径" fill="#FF5400"></path>
                    <path d="M0.6,0.3 C0.765685425,0.3 0.9,0.474111486 0.9,0.688888889 L0.9,6.91111111 C0.9,7.12588851 0.765685425,7.3 0.6,7.3 C0.434314575,7.3 0.3,7.12588851 0.3,6.91111111 L0.3,0.688888889 C0.3,0.474111486 0.434314575,0.3 0.6,0.3 L0.6,0.3 Z" id="路径" fill="#836455"></path>
                </g>
                <polygon id="路径-9" fill="#F0D792" points="4.58519729 6.43224574 2.31269956 11.6558048 11.9105905 11.6558048 14.3126996 6.43224574"></polygon>
                <g id="编组" transform="translate(0.751154, 0.000000)" fill-rule="nonzero">
                    <path d="M2.49792337,3.89062797 C1.72500878,3.89062797 1.09792712,3.26354632 1.09896749,2.49167339 C1.09896749,1.71875879 1.72605044,1.0927188 2.49792337,1.0927188 L2.49896504,1.0927188 C3.27187963,1.0927188 3.89791962,1.71875879 3.89791962,2.49167339 C3.89791962,3.26458798 3.27083797,3.89062797 2.49792337,3.89062797 C2.49896504,3.89062797 2.49896504,3.89062797 2.49792337,3.89062797 Z" id="形状" fill="#FFFE00"></path>
                    <path d="M3.88229466,4.27604361 L3.66979523,4.06354418 C3.56562884,3.95937779 3.56562884,3.79062824 3.66979523,3.68750352 L3.68646185,3.6708369 C3.79062824,3.56667051 3.95937779,3.56667051 4.06250251,3.6708369 L4.27500194,3.88333633 C4.37916833,3.98750271 4.37916833,4.15625226 4.27500194,4.25937698 L4.25833532,4.27604361 C4.1552106,4.38020999 3.98646105,4.38020999 3.88229466,4.27604361 Z M0.741678077,4.27291861 L0.725011455,4.25625199 C0.620845068,4.15208561 0.620845068,3.98437772 0.725011455,3.88021133 L0.937510886,3.6677119 C1.04167727,3.56354552 1.20938516,3.56354552 1.31355155,3.6677119 L1.33021817,3.68437853 C1.43438455,3.78854491 1.43438455,3.9562528 1.33021817,4.06041918 L1.11771874,4.27291861 C1.01355235,4.377085 0.845844465,4.377085 0.741678077,4.27291861 Z M3.68542019,1.33125983 L3.66875357,1.31459321 C3.56458718,1.21042682 3.56458718,1.04271894 3.66875357,0.93855255 L3.881253,0.726053119 C3.98541939,0.621886732 4.15312727,0.621886732 4.25729366,0.726053119 L4.27396028,0.742719741 C4.37812667,0.846886129 4.37812667,1.01459401 4.27396028,1.1187604 L4.06146085,1.33125983 C3.95729446,1.43542622 3.78958658,1.43542622 3.68542019,1.33125983 Z M0.937510886,1.3291765 L0.725011455,1.11667707 C0.620845068,1.01251069 0.620845068,0.843761137 0.725011455,0.740636414 L0.741678077,0.723969792 C0.845844465,0.619803404 1.01459401,0.619803404 1.11771874,0.723969792 L1.33021817,0.936469222 C1.43438455,1.04063561 1.43438455,1.20938516 1.33021817,1.31250988 L1.31355155,1.3291765 C1.20938516,1.43334289 1.04063561,1.43334289 0.937510886,1.3291765 Z" id="形状结合" fill="#FC9D3F"></path>
                    <path d="M2.51042334,5 L2.48750673,5 C2.34063213,5 2.22188244,4.88020865 2.22188244,4.73333405 L2.22188244,4.43229319 C2.22188244,4.28541858 2.34167379,4.1666689 2.4885484,4.1666689 L2.511465,4.1666689 C2.65833961,4.1666689 2.77708929,4.28646025 2.77708929,4.43333485 L2.77708929,4.73437571 C2.77708929,4.88125032 2.65729794,5 2.51042334,5 Z M4.73333405,2.77813095 L4.43229319,2.77813095 C4.28541858,2.77813095 4.16562724,2.65833961 4.16666216,2.511465 L4.16666216,2.4885484 C4.16666216,2.34167379 4.28646025,2.22292411 4.43333485,2.22292411 L4.73437571,2.22292411 C4.88125032,2.22292411 5,2.34271545 5,2.48959006 L5,2.51250667 C5,2.65938127 4.88020865,2.77813095 4.73333405,2.77813095 Z M0.566678546,2.77708929 L0.265637686,2.77708929 C0.11876308,2.77708929 -0.00102826571,2.65729794 6.65574407e-06,2.51042334 L6.65574407e-06,2.48750673 C6.65574407e-06,2.34063213 0.119804744,2.22188244 0.26667935,2.22188244 L0.56772021,2.22188244 C0.714594817,2.22188244 0.834386162,2.34167379 0.833351241,2.4885484 L0.833351241,2.511465 C0.833351241,2.65729794 0.713553153,2.77708929 0.566678546,2.77708929 Z M2.511465,0.833344498 L2.4885484,0.833344498 C2.34167379,0.833344498 2.22188244,0.713553153 2.22291737,0.566678546 L2.22291737,0.265637686 C2.22291737,0.11876308 2.34271545,-0.00102826571 2.48959006,6.6557443e-06 L2.51250667,6.6557443e-06 C2.65938127,6.6557443e-06 2.77813095,0.11876308 2.77813095,0.26667935 L2.77813095,0.56772021 C2.77813095,0.713553153 2.65938127,0.833344498 2.511465,0.833344498 Z" id="形状结合" fill="#FC9D3F"></path>
                </g>
            </g>
        </g>
    </g>
</svg>