<?xml version="1.0" encoding="UTF-8"?><svg version="1.1" width="16px" height="16px" viewBox="0 0 16.0 16.0" xmlns="http://www.w3.org/2000/svg" xmlns:xlink="http://www.w3.org/1999/xlink"><defs><clipPath id="i0"><path d="M1440,0 L1440,1183 L0,1183 L0,0 L1440,0 Z"></path></clipPath><clipPath id="i1"><path d="M1440,0 L1440,1548 L0,1548 L0,0 L1440,0 Z"></path></clipPath><clipPath id="i2"><path d="M1213,0 L1213,1084 L0,1084 L0,0 L1213,0 Z"></path></clipPath><clipPath id="i3"><path d="M1149,0 C1154.52285,-1.01453063e-15 1159,4.4771525 1159,10 L1159,1079 C1159,1084.52285 1154.52285,1089 1149,1089 L10,1089 C4.4771525,1089 6.76353751e-16,1084.52285 0,1079 L0,10 C-6.76353751e-16,4.4771525 4.4771525,1.01453063e-15 10,0 L1149,0 Z"></path></clipPath><clipPath id="i4"><path d="M12,0 C13.1045695,5.56104062e-16 14,0.8954305 14,2 L14,12 C14,13.1045695 13.1045695,14 12,14 L2,14 C0.8954305,14 8.94280938e-16,13.1045695 0,12 L0,2 C-3.57315355e-16,0.8954305 0.8954305,-1.91384796e-17 2,0 L12,0 Z"></path></clipPath><clipPath id="i5"><path d="M5,0 C5.55228475,-1.01453063e-16 6,0.44771525 6,1 L6,5 C6,5.55228475 5.55228475,6 5,6 L1,6 C0.44771525,6 6.76353751e-17,5.55228475 0,5 L0,1 C-6.76353751e-17,0.44771525 0.44771525,1.01453063e-16 1,0 L5,0 Z"></path></clipPath></defs><g transform="translate(-307.0 -542.0)"><g clip-path="url(#i0)"><g clip-path="url(#i1)"><polygon points="0,0 1440,0 1440,1183 0,1183 0,0" stroke="none" fill="#FAFAFA"></polygon></g><g transform="translate(227.0 104.0)"><g clip-path="url(#i2)"><polygon points="0,0 1213,0 1213,1079 0,1079 0,0" stroke="none" fill="#FFFFFF"></polygon></g></g><g transform="translate(243.0 134.0)"><g clip-path="url(#i3)"><polygon points="0,0 1159,0 1159,1049 0,1049 0,0" stroke="none" fill="#FFFFFF"></polygon></g></g><g transform="translate(266.0 535.0)"><g transform="translate(41.0 7.0)"><g transform="translate(1.0 1.0)"><g clip-path="url(#i4)"><polygon points="0,0 14,0 14,14 0,14 0,0" stroke="none" fill="#289E21"></polygon></g></g><g transform="translate(8.0 3.7573593128807143) rotate(44.99999999999999)"><g clip-path="url(#i5)"><polygon points="0,0 6,0 6,6 0,6 0,0" stroke="none" fill="#FFFFFF"></polygon></g></g></g></g></g></g></svg>