<?xml version="1.0" encoding="UTF-8"?><svg version="1.1" width="16px" height="16px" viewBox="0 0 16.0 16.0" xmlns="http://www.w3.org/2000/svg" xmlns:xlink="http://www.w3.org/1999/xlink"><defs><clipPath id="i0"><path d="M1440,0 L1440,1183 L0,1183 L0,0 L1440,0 Z"></path></clipPath><clipPath id="i1"><path d="M10.7511051,0.54282801 C13.6512757,2.00159928 14.1698642,5.94932811 11.9094049,9.36032715 C9.64894568,12.7713262 5.46542862,14.3539195 2.56525805,12.8951482 C-0.334912528,11.4363769 -0.853501017,7.48864811 1.40695824,4.07764908 C3.66741749,0.66665004 7.85093455,-0.915943258 10.7511051,0.54282801 Z M2.46808656,5.11776142 C0.7936723,7.64442737 1.17781192,10.5686709 3.32608642,11.6492423 C5.47436092,12.7298136 8.57326245,11.5575222 10.2476767,9.03085628 C11.922091,6.50419033 11.5379514,3.57994675 9.38967685,2.49937544 C7.24140235,1.41880413 4.14250082,2.59109547 2.46808656,5.11776142 Z"></path></clipPath></defs><g transform="translate(-295.0 -504.0)"><g clip-path="url(#i0)"><g transform="translate(266.0 497.0)"><g transform="translate(30.000000000000213 7.9999999999999325)"><g clip-path="url(#i1)"><polygon points="3.75255382e-13,-1.86517468e-14 13.3163632,-1.86517468e-14 13.3163632,13.4379762 3.75255382e-13,13.4379762 3.75255382e-13,-1.86517468e-14" stroke="none" fill="#289E21"></polygon></g></g></g></g></g></svg>