<?xml version="1.0" encoding="UTF-8"?><svg version="1.1" width="16px" height="16px" viewBox="0 0 16.0 16.0" xmlns="http://www.w3.org/2000/svg" xmlns:xlink="http://www.w3.org/1999/xlink"><defs><clipPath id="i0"><path d="M1440,0 L1440,1183 L0,1183 L0,0 L1440,0 Z"></path></clipPath><clipPath id="i1"><path d="M6.55976562,0.319121742 L6.56000675,0.454549403 L6.56082972,1.12771278 C6.56088937,1.191269 6.56094689,1.2564292 6.56100236,1.32299773 L6.56197811,3.09087716 C6.56200558,3.16745835 6.5620316,3.24388279 6.56205625,3.31995483 L6.5625,5.9443746 C6.5625,6.42786741 6.28222656,6.86885535 5.83652344,7.08536449 C5.83652344,7.08536449 4.65317055,7.65910085 3.35215946,8.28914474 L2.52476774,8.68972604 C1.83881069,9.02173614 1.18241004,9.33916871 0.7109375,9.56658582 C0.384179688,9.72465078 0,9.49353059 0,9.13755237 L0,2.59313187 C0,2.32349165 0.173632813,2.08307352 0.434765625,1.99275069 L6.12089844,0.0189311529 C6.33417969,-0.055452356 6.55976562,0.0986277695 6.55976562,0.319121742 Z"></path></clipPath><clipPath id="i2"><path d="M0.44296875,0.0195124694 L6.12910156,2.01059961 C6.38886719,2.10225072 6.5625,2.34134057 6.5625,2.61098079 L6.5625,9.12485092 C6.5625,9.48614225 6.16464844,9.71726244 5.83789062,9.54591471 L0.691796875,6.86146701 C0.265234375,6.63831648 0,6.20662647 0,5.73774471 L0.000901222229,3.76412068 C0.00094127655,3.69175395 0.000982666016,3.61850998 0.00102539063,3.54459344 L0.00193862915,2.18566593 C0.00199737549,2.1110465 0.00205745697,2.03698249 0.0021188736,1.96367857 L0.00291996002,1.13361428 C0.0029920578,1.0696657 0.00306549072,1.00729587 0.00314025879,0.946709445 L0.00384922028,0.455109762 C0.00393199921,0.407065805 0.00401611328,0.361419256 0.0041015625,0.318374782 C0.0041015625,0.0978808091 0.2296875,-0.0561993164 0.44296875,0.0195124694 Z"></path></clipPath><clipPath id="i3"><path d="M6.46065522,0 C6.6165146,0 6.77100678,0.0265655389 6.91866303,0.0810248936 L12.6047958,2.14118243 C12.7032333,2.17704591 12.7948349,2.2235356 12.8796005,2.27799496 C12.9903427,2.35105019 12.9684677,2.51575653 12.8426865,2.55958967 L6.90362397,4.62107549 C6.6165146,4.72069626 6.30342866,4.72069626 6.01631928,4.61974721 L0.108702097,2.55029173 C-0.0198135284,2.50513032 -0.0389541534,2.33643914 0.0758895966,2.26604047 C0.149717722,2.22220733 0.227647409,2.1836873 0.311045847,2.15313693 L5.99991303,0.0810248936 C6.14893647,0.0265655389 6.30479585,0 6.46065522,0 Z"></path></clipPath></defs><g transform="translate(-287.0 -351.0)"><g clip-path="url(#i0)"><g transform="translate(266.0 345.0)"><g transform="translate(21.0 6.0)"><g transform="translate(8.4375 5.382786099973376)"><g clip-path="url(#i1)"><polygon points="0,4.85722573e-17 6.5625,4.85722573e-17 6.5625,9.6172139 0,9.6172139 0,4.85722573e-17" stroke="none" fill="rgba(40, 158, 33, 0.6)"></polygon></g></g><g transform="translate(1.0 5.362280629308087)"><g clip-path="url(#i2)"><polygon points="0,-1.66533454e-16 6.5625,-1.66533454e-16 6.5625,9.60358686 0,9.60358686 0,-1.66533454e-16" stroke="none" fill="#289E21"></polygon></g></g><g transform="translate(1.5407119659355626 1.9999999999999978)"><g clip-path="url(#i3)"><polygon points="0,0 12.9512029,0 12.9512029,4.69562586 0,4.69562586 0,0" stroke="none" fill="rgba(40, 158, 33, 0.6)"></polygon></g></g></g></g></g></g></svg>