<?xml version="1.0" encoding="UTF-8"?><svg version="1.1" width="16px" height="16px" viewBox="0 0 16.0 16.0" xmlns="http://www.w3.org/2000/svg" xmlns:xlink="http://www.w3.org/1999/xlink"><defs><clipPath id="i0"><path d="M1440,0 L1440,1183 L0,1183 L0,0 L1440,0 Z"></path></clipPath><clipPath id="i1"><path d="M4.94072727,0 C5.42282387,0 5.86356412,0.278143652 6.07918182,0.718575 L7,2.6 L12.0909091,2.6 C13.1452709,2.6 14,3.47304474 14,4.55 L14,11.05 C14,12.1269553 13.1452709,13 12.0909091,13 L1.90909091,13 C0.854729114,13 0,12.1269553 0,11.05 L0,1.95 C0,0.873044738 0.854729114,0 1.90909091,0 L4.94072727,0 Z"></path></clipPath><clipPath id="i2"><path d="M9.53125,0 C9.79013348,0 10,0.223857625 10,0.5 C10,0.776142375 9.79013348,1 9.53125,1 L0.46875,1 C0.209866524,1 0,0.776142375 0,0.5 C0,0.223857625 0.209866524,0 0.46875,0 L9.53125,0 Z"></path></clipPath><clipPath id="i3"><path d="M0,0 L6.3885232,2.89203443 L6.3885232,7.39179315 L2,7.39179315 C0.8954305,7.39179315 -8.67738547e-17,6.49636265 0,5.39179315 L0,0 Z"></path></clipPath></defs><g transform="translate(-287.0 -466.0)"><g clip-path="url(#i0)"><g transform="translate(266.0 459.0)"><g transform="translate(21.0 7.0)"><g transform="translate(1.0 1.0)"><g clip-path="url(#i1)"><polygon points="0,0 14,0 14,13 0,13 0,0" stroke="none" fill="#289E21"></polygon></g><g transform="translate(2.0 5.0)"><g clip-path="url(#i2)"><polygon points="0,0 10,0 10,1 0,1 0,0" stroke="none" fill="#FFFFFF"></polygon></g></g></g><g transform="translate(0.0 7.5)"><g clip-path="url(#i3)"><polygon points="0,0 6.3885232,0 6.3885232,7.39179315 0,7.39179315 0,0" stroke="none" fill="#F0D692"></polygon></g></g></g></g></g></g></svg>