<?xml version="1.0" encoding="UTF-8"?><svg version="1.1" width="16px" height="16px" viewBox="0 0 16.0 16.0" xmlns="http://www.w3.org/2000/svg" xmlns:xlink="http://www.w3.org/1999/xlink"><defs><clipPath id="i0"><path d="M1440,0 L1440,1183 L0,1183 L0,0 L1440,0 Z"></path></clipPath><clipPath id="i1"><path d="M5.4884375,0 C5.76845951,0 6.02153133,0.16586469 6.131825,0.421652174 L6.475,1.2173913 L13.3,1.2173913 C13.6865993,1.2173913 14,1.52884539 14,1.91304348 L14,9.2173913 C14,9.60158939 13.6865993,9.91304348 13.3,9.91304348 L0.7,9.91304348 C0.313400675,9.91304348 0,9.60158939 0,9.2173913 L0,0.695652174 C0,0.311454087 0.313400675,0 0.7,0 L5.4884375,0 Z"></path></clipPath><clipPath id="i2"><path d="M10.7160494,0 C11.1769547,0 11.4074074,0.23715415 11.4074074,0.711462451 L11.4074074,7.11462451 C11.4074074,7.58893281 11.1769547,7.82608696 10.7160494,7.82608696 L0.691358025,7.82608696 C0.230452675,7.82608696 0,7.58893281 0,7.11462451 L0,0.711462451 C0,0.23715415 0.230452675,0 0.691358025,0 L10.7160494,0 Z"></path></clipPath><clipPath id="i3"><path d="M13.3,0 C13.7666667,0 14,0.231884058 14,0.695652174 L14,7.65217391 C14,8.11594203 13.7666667,8.34782609 13.3,8.34782609 L0.7,8.34782609 C0.233333333,8.34782609 0,8.11594203 0,7.65217391 L0,0.695652174 C0,0.231884058 0.233333333,0 0.7,0 L13.3,0 Z"></path></clipPath></defs><g transform="translate(-277.0 -314.0)"><g clip-path="url(#i0)"><g transform="translate(266.0 307.0)"><g transform="translate(12.0 9.0)"><g clip-path="url(#i1)"><polygon points="0,0 14,0 14,9.91304348 0,9.91304348 0,0" stroke="none" fill="#D9AD60"></polygon></g><g transform="translate(1.5555555555556575 2.608695652173992)"><g clip-path="url(#i2)"><polygon points="0,0 11.4074074,0 11.4074074,7.82608696 0,7.82608696 0,0" stroke="none" fill="#FFFFFF"></polygon></g></g><g transform="translate(0.0 3.652173913043498)"><g clip-path="url(#i3)"><polygon points="0,0 14,0 14,8.34782609 0,8.34782609 0,0" stroke="none" fill="#F0D692"></polygon></g></g></g></g></g></g></svg>