<?xml version="1.0" encoding="UTF-8"?><svg version="1.1" width="24px" height="24px" viewBox="0 0 24.0 24.0" xmlns="http://www.w3.org/2000/svg" xmlns:xlink="http://www.w3.org/1999/xlink"><defs><clipPath id="i0"><path d="M1440,0 L1440,1183 L0,1183 L0,0 L1440,0 Z"></path></clipPath><clipPath id="i1"><path d="M13.4649682,8.64968153 C13.7324841,8.64968153 14,8.91719745 14,9.18471338 L14,13.2866242 C14,13.7324841 13.6433121,14 13.2866242,14 L9.0955414,14 C8.82802548,14 8.56050955,13.7324841 8.56050955,13.4649682 C8.56050955,13.1974522 8.82802548,12.9299363 9.0955414,12.9299363 L12.8407643,12.9299363 L12.9299363,9.18471338 C12.9299363,8.91719745 13.1974522,8.64968153 13.4649682,8.64968153 Z M0.535031847,8.64968153 C0.802547771,8.64968153 1.07006369,8.91719745 1.07006369,9.18471338 L1.07006369,12.2165605 L3.8343949,9.4522293 C3.92356688,9.36305732 4.10191083,9.27388535 4.1910828,9.27388535 C4.28025478,9.27388535 4.45859873,9.36305732 4.5477707,9.4522293 C4.63694268,9.54140127 4.72611465,9.71974522 4.72611465,9.8089172 C4.72611465,9.98726115 4.63694268,10.0764331 4.5477707,10.1656051 L1.78343949,12.9299363 L4.81528662,12.9299363 C5.08280255,12.9299363 5.35031847,13.1974522 5.35031847,13.4649682 C5.35031847,13.7324841 5.08280255,14 4.81528662,14 L0.713375796,14 C0.267515924,14 0,13.6433121 0,13.2866242 L0,9.18471338 C0,8.91719745 0.267515924,8.64968153 0.535031847,8.64968153 Z M4.81528662,0 C5.08280255,0 5.35031847,0.267515924 5.35031847,0.535031847 C5.35031847,0.802547771 5.08280255,1.07006369 4.81528662,1.07006369 L1.07006369,1.07006369 L1.07006369,4.81528662 C1.07006369,5.08280255 0.802547771,5.35031847 0.535031847,5.35031847 C0.267515924,5.35031847 0,5.08280255 0,4.81528662 L0,0.713375796 C0,0.267515924 0.356687898,0 0.713375796,0 L4.81528662,0 Z M13.2866242,0 C13.7324841,0 14,0.356687898 14,0.713375796 L14,4.81528662 C14,5.08280255 13.7324841,5.35031847 13.4649682,5.35031847 C13.1974522,5.35031847 12.9299363,5.08280255 12.9299363,4.81528662 L12.9299363,1.78343949 L10.1656051,4.5477707 C10.0764331,4.63694268 9.89808917,4.72611465 9.8089172,4.72611465 C9.63057325,4.72611465 9.54140127,4.63694268 9.4522293,4.5477707 C9.27388535,4.36942675 9.27388535,4.01273885 9.4522293,3.8343949 L12.2165605,1.07006369 L9.18471338,1.07006369 C8.91719745,1.07006369 8.64968153,0.802547771 8.64968153,0.535031847 C8.64968153,0.267515924 8.91719745,0 9.18471338,0 L13.2866242,0 Z"></path></clipPath></defs><g transform="translate(-897.0 -395.0)"><g clip-path="url(#i0)"><g transform="translate(897.0 395.0)"><g transform="translate(5.0 5.0)"><g clip-path="url(#i1)"><polygon points="0,0 14,0 14,14 0,14 0,0" stroke="none" fill="#000000"></polygon></g><path d="M9.0955414,14 C8.82802548,14 8.56050955,13.7324841 8.56050955,13.4649682 C8.56050955,13.1974522 8.82802548,12.9299363 9.0955414,12.9299363 L12.8407643,12.9299363 L12.9299363,9.18471338 C12.9299363,8.91719745 13.1974522,8.64968153 13.4649682,8.64968153 C13.7324841,8.64968153 14,8.91719745 14,9.18471338 L14,13.2866242 C14,13.7324841 13.6433121,14 13.2866242,14 L9.0955414,14 L9.0955414,14 Z M0.535031847,5.35031847 C0.267515924,5.35031847 0,5.08280255 0,4.81528662 L0,0.713375796 C0,0.267515924 0.356687898,0 0.713375796,0 L4.81528662,0 C5.08280255,0 5.35031847,0.267515924 5.35031847,0.535031847 C5.35031847,0.802547771 5.08280255,1.07006369 4.81528662,1.07006369 L1.07006369,1.07006369 L1.07006369,4.81528662 C1.07006369,5.08280255 0.802547771,5.35031847 0.535031847,5.35031847 Z M0.713375796,14 C0.267515924,14 0,13.6433121 0,13.2866242 L0,9.18471338 C0,8.91719745 0.267515924,8.64968153 0.535031847,8.64968153 C0.802547771,8.64968153 1.07006369,8.91719745 1.07006369,9.18471338 L1.07006369,12.2165605 L3.8343949,9.4522293 C3.92356688,9.36305732 4.10191083,9.27388535 4.1910828,9.27388535 C4.28025478,9.27388535 4.45859873,9.36305732 4.5477707,9.4522293 C4.63694268,9.54140127 4.72611465,9.71974522 4.72611465,9.8089172 C4.72611465,9.98726115 4.63694268,10.0764331 4.5477707,10.1656051 L1.78343949,12.9299363 L4.81528662,12.9299363 C5.08280255,12.9299363 5.35031847,13.1974522 5.35031847,13.4649682 C5.35031847,13.7324841 5.08280255,14 4.81528662,14 L0.713375796,14 Z M13.4649682,5.35031847 C13.1974522,5.35031847 12.9299363,5.08280255 12.9299363,4.81528662 L12.9299363,1.78343949 L10.1656051,4.5477707 C10.0764331,4.63694268 9.89808917,4.72611465 9.8089172,4.72611465 C9.63057325,4.72611465 9.54140127,4.63694268 9.4522293,4.5477707 C9.27388535,4.36942675 9.27388535,4.01273885 9.4522293,3.8343949 L12.2165605,1.07006369 L9.18471338,1.07006369 C8.91719745,1.07006369 8.64968153,0.802547771 8.64968153,0.535031847 C8.64968153,0.267515924 8.91719745,0 9.18471338,0 L13.2866242,0 C13.7324841,0 14,0.356687898 14,0.713375796 L14,4.81528662 C14,5.08280255 13.7324841,5.35031847 13.4649682,5.35031847 Z" stroke="#000000" stroke-width="0.1" fill="none" stroke-miterlimit="10"></path></g></g></g></g></svg>