<?xml version="1.0" encoding="UTF-8"?><svg version="1.1" width="24px" height="21px" viewBox="0 0 24.0 21.0" xmlns="http://www.w3.org/2000/svg" xmlns:xlink="http://www.w3.org/1999/xlink"><defs><clipPath id="i0"><path d="M1440,0 L1440,1183 L0,1183 L0,0 L1440,0 Z"></path></clipPath><clipPath id="i1"><path d="M14.9481972,0.552335198 C15.4814266,1.06631379 16.1035276,1.67666336 16.8145001,2.38338392 C17.5254726,3.09010447 18.2631066,3.81288686 19.0274021,4.55173108 C19.7916975,5.2905753 20.5382187,6.01871163 21.2669655,6.73614008 C21.9957123,7.45356852 22.6444748,8.07997993 23.2132528,8.61537429 C23.7287079,9.12935288 23.990879,9.61656175 24,10.0770009 C24.0086533,10.53744 23.7642565,11.013941 23.2665757,11.5065038 C22.7511206,12.0204824 22.1423504,12.6094162 21.4402651,13.2733052 C20.7381797,13.9371942 20.0094329,14.622499 19.2540246,15.3292196 C18.4986163,16.0359401 17.7565387,16.7373068 17.0277919,17.4333194 C16.299045,18.1293321 15.6502826,18.7450356 15.0815046,19.28043 C14.4594036,19.8800717 13.9483921,20.1049373 13.5484701,19.9550269 C13.148548,19.8051165 12.9574742,19.3446773 12.9752485,18.5737094 L12.9752485,16.8711553 C12.9752485,16.5499187 12.9708049,16.2340361 12.9619178,15.9235073 C12.9530306,15.6129786 12.948587,15.3292196 12.948587,15.0722303 C12.948587,14.5368359 12.8152797,14.1995375 12.548665,14.0603349 C12.2820503,13.9211324 11.9176769,13.8515311 11.4555447,13.8515311 C10.9400897,13.8515311 10.2646658,13.8461772 9.42927305,13.8354693 C8.59388034,13.8247614 7.722939,13.8194075 6.81644904,13.8194075 C5.90995907,13.8194075 5.03013058,13.8140535 4.17696355,13.8033457 C3.32379653,13.7926378 2.63059832,13.7872838 2.09736893,13.7872838 C1.86630286,13.7872838 1.62634964,13.7605141 1.37750926,13.7069747 C1.12866888,13.6534352 0.902046385,13.5517103 0.697641785,13.4017999 C0.493237186,13.2518895 0.32882479,13.0323778 0.204404599,12.7432648 C0.0799844085,12.4541519 0.017774313,12.063314 0.017774313,11.5707512 C0.017774313,10.9925253 0.0133307347,10.4357151 0.00444357825,9.90032076 C-0.00444357825,9.3649264 0,8.76528471 0.017774313,8.1013957 C0.017774313,7.20193317 0.199961021,6.59693754 0.564334438,6.28640881 C0.928707854,5.97588008 1.50192945,5.82061572 2.28399922,5.82061572 C2.63948548,5.82061572 3.19937634,5.82596966 3.9636718,5.83667755 C4.72796726,5.84738544 5.54114208,5.85273938 6.40319626,5.85273938 C7.26525044,5.85273938 8.10508673,5.85809332 8.92270513,5.86880121 C9.74032352,5.8795091 10.3890859,5.88486304 10.8689924,5.88486304 C11.5444163,5.90627882 12.0776457,5.83667755 12.4686806,5.67605924 C12.8597155,5.51544093 13.0552329,5.14601882 13.0552329,4.56779291 C13.0552329,4.13947742 13.0685636,3.63085278 13.0952251,3.04191898 C13.1218866,2.45298518 13.1352173,1.94436054 13.1352173,1.51604505 C13.1529916,0.766492943 13.3307347,0.289991961 13.6684467,0.0865421036 C14.0061586,-0.116907754 14.4327422,0.038356611 14.9481972,0.552335198 Z"></path></clipPath></defs><g transform="translate(-580.0 -306.0)"><g clip-path="url(#i0)"><g transform="translate(267.0 283.3571428571413)"><g transform="translate(288.0 23.357142857141298)"><g transform="translate(25.0 0.0)"><g clip-path="url(#i1)"><polygon points="7.54604712e-17,1.2490009e-16 24.0002219,1.2490009e-16 24.0002219,20 7.54604712e-17,20 7.54604712e-17,1.2490009e-16" stroke="none" fill="#279E21"></polygon></g></g></g></g></g></g></svg>