<?xml version="1.0" encoding="UTF-8"?><svg version="1.1" width="13px" height="12px" viewBox="0 0 13.0 12.0" xmlns="http://www.w3.org/2000/svg" xmlns:xlink="http://www.w3.org/1999/xlink"><defs><clipPath id="i0"><path d="M1440,0 L1440,1168 L0,1168 L0,0 L1440,0 Z"></path></clipPath><clipPath id="i1"><path d="M6.27009276,0 C6.55538771,0 6.8159692,0.161887886 6.94236734,0.417654812 L8.47401354,3.52069129 L11.898377,4.01824197 C12.1807592,4.05937889 12.4153198,4.25722292 12.5034801,4.5286261 C12.5916404,4.80002928 12.5181191,5.09794802 12.313815,5.29717592 L9.83618507,7.71256512 L10.4210977,11.1230557 C10.4694716,11.4044375 10.3538634,11.688876 10.122903,11.8567242 C9.89194252,12.0245725 9.5857063,12.0467052 9.33301023,11.9138126 L6.27009276,10.3034281 L3.20717529,11.9138126 C2.95447922,12.0467052 2.648243,12.0245725 2.41728254,11.8567242 C2.18632208,11.688876 2.07071395,11.4044375 2.11908782,11.1230557 L2.70400045,7.71256512 L0.226370552,5.29717592 C0.022066458,5.09794802 -0.0514548582,4.80002928 0.0367054247,4.5286261 C0.124865708,4.25722292 0.35942635,4.05937889 0.641808495,4.01824197 L4.06617197,3.52069129 L5.59781818,0.417654812 C5.72421632,0.161887886 5.98479781,0 6.27009276,0 Z"></path></clipPath></defs><g transform="translate(-1334.0 -672.0)"><g clip-path="url(#i0)"><g transform="translate(1333.9999999999986 672.0)"><g clip-path="url(#i1)"><path d="M6.27009276,10.3034281 L3.20717529,11.9138126 C2.95447922,12.0467052 2.648243,12.0245725 2.41728254,11.8567242 C2.18632208,11.688876 2.07071395,11.4044375 2.11908782,11.1230557 L2.70400045,7.71256512 L0.226370552,5.29717592 C0.022066458,5.09794802 -0.0514548582,4.80002928 0.0367054247,4.5286261 C0.124865708,4.25722292 0.35942635,4.05937889 0.641808495,4.01824197 L4.06617197,3.52069129 L5.59781818,0.417654812 C5.72421632,0.161887886 5.98479781,0 6.27009276,0 C6.55538771,0 6.8159692,0.161887886 6.94236734,0.417654812 L8.47401354,3.52069129 L11.898377,4.01824197 C12.1807592,4.05937889 12.4153198,4.25722292 12.5034801,4.5286261 C12.5916404,4.80002928 12.5181191,5.09794802 12.313815,5.29717592 L9.83618507,7.71256512 L10.4210977,11.1230557 C10.4694716,11.4044375 10.3538634,11.688876 10.122903,11.8567242 C9.89194252,12.0245725 9.5857063,12.0467052 9.33301023,11.9138126 L6.27009276,10.3034281 Z" stroke="#FCCE09" stroke-width="2" fill="none" stroke-miterlimit="5"></path></g></g></g></g></svg>