<?xml version="1.0" encoding="UTF-8"?><svg version="1.1" width="24px" height="24px" viewBox="0 0 24.0 24.0" xmlns="http://www.w3.org/2000/svg" xmlns:xlink="http://www.w3.org/1999/xlink"><defs><clipPath id="i0"><path d="M1440,0 L1440,1255 L0,1255 L0,0 L1440,0 Z"/></clipPath><clipPath id="i1"><path d="M0.85,0 C1.31466667,0 1.7,0.34 1.7,0.75 L1.7,3.75 C1.7,4.16 1.31466667,4.5 0.85,4.5 C0.385333333,4.5 0,4.16 0,3.75 L0,0.75 C0,0.34 0.385333333,0 0.85,0 Z"/></clipPath><clipPath id="i2"><path d="M12.0855938,0.661304792 L12.5006951,0.94389955 L18.031968,4.81773999 C19.1308691,5.58773999 20,7.24773999 20,8.59773999 L20,15.3777 C20,17.9277 17.9320679,19.9977 15.3846154,19.9977 L4.61538462,19.9977 C2.06793207,19.9977 0,17.9177 0,15.3677 L0,8.46773999 C0,7.27773999 0.703956537,5.78446838 1.62375348,4.96513368 L1.83537256,4.79089708 C2.34386838,4.3936503 6.79320679,0.917740988 6.79320679,0.917740988 C8.24135864,-0.205459012 10.5181219,-0.305683934 12.0855938,0.661304792 Z M7.83508987,2.2610502 L2.83441554,6.1676869 C2.24467209,6.62814679 1.7,7.73548625 1.7,8.46773999 L1.7,15.3677 C1.7,16.9822348 3.01023409,18.2977 4.61538462,18.2977 L15.3846154,18.2977 C16.9928033,18.2977 18.3,16.9891961 18.3,15.3777 L18.3,8.59773999 C18.3,7.80602083 17.7043982,6.66400891 17.0567527,6.21020366 L11.3015872,2.17955908 C10.3450908,1.50873218 8.75572633,1.54699603 7.83508987,2.2610502 Z"/></clipPath></defs><g transform="translate(-24.0 -159.0)"><g clip-path="url(#i0)"><g transform="translate(24.0 159.0)"><g transform="translate(11.10000000000073 14.247699987654869)"><g clip-path="url(#i1)"><path d="M1.7,3.75 C1.7,4.16 1.31466667,4.5 0.85,4.5 C0.385333333,4.5 0,4.16 0,3.75 C0,3.75 0,0.75 0,0.75 C0,0.34 0.385333333,0 0.85,0 C1.31466667,0 1.7,0.34 1.7,0.75 C1.7,0.75 1.7,3.75 1.7,3.75 Z" stroke="#505050" stroke-width="3.4" stroke-miterlimit="5"/></g></g><g transform="translate(2.0 2.0)"><g clip-path="url(#i2)"><polygon points="0,0 20,0 20,19.9977 0,19.9977 0,0" stroke="none"/></g></g></g></g></g></svg>