<?xml version="1.0" encoding="UTF-8"?><svg version="1.1" width="24px" height="24px" viewBox="0 0 24.0 24.0" xmlns="http://www.w3.org/2000/svg" xmlns:xlink="http://www.w3.org/1999/xlink"><defs><clipPath id="i0"><path d="M1440,0 L1440,1255 L0,1255 L0,0 L1440,0 Z"></path></clipPath><clipPath id="i1"><path d="M24,0 L24,24 L0,24 L0,0 L24,0 Z"></path></clipPath><clipPath id="i2"><path d="M6.79320679,0.917740988 C8.3016983,-0.252259012 10.7092907,-0.312260012 12.2777223,0.787739988 C12.2777223,0.787739988 13.5688411,1.69197821 14.9279136,2.64380793 L15.3817767,2.96167205 C16.7408492,3.91350176 18.031968,4.81773999 18.031968,4.81773999 C19.1308691,5.58773999 20,7.24773999 20,8.59773999 L20,15.3777 C20,17.9277 17.9320679,19.9977 15.3846154,19.9977 L4.61538462,19.9977 C2.06793207,19.9977 0,17.9177 0,15.3677 L0,8.46773999 C0,7.20773999 0.789210789,5.60773999 1.78821179,4.82773999 C1.78821179,4.82773999 6.79320679,0.917740988 6.79320679,0.917740988 Z M10.01,12.2477 C9.54533333,12.2477 9.16,12.5877 9.16,12.9977 L9.16,15.9977 C9.16,16.4077 9.54533333,16.7477 10.01,16.7477 C10.4746667,16.7477 10.86,16.4077 10.86,15.9977 L10.86,12.9977 C10.86,12.5877 10.4746667,12.2477 10.01,12.2477 Z"></path></clipPath></defs><g transform="translate(-24.0 -129.0)"><g clip-path="url(#i0)"><g transform="translate(24.0 129.0)"><g clip-path="url(#i1)"><g transform="translate(2.0 2.0)"><g clip-path="url(#i2)"><polygon points="0,0 20,0 20,19.9977 0,19.9977 0,0" stroke="none" fill="#44B044"></polygon></g></g></g></g></g></g></svg>