<?xml version="1.0" encoding="UTF-8"?><svg version="1.1" width="24px" height="24px" viewBox="0 0 24.0 24.0" xmlns="http://www.w3.org/2000/svg" xmlns:xlink="http://www.w3.org/1999/xlink"><defs><clipPath id="i0"><path d="M1440,0 L1440,1255 L0,1255 L0,0 L1440,0 Z"></path></clipPath><clipPath id="i1"><path d="M14.0766587,19.5229639 C13.9569333,19.7103275 13.7641174,19.8505734 13.528896,19.8982273 L13.1111268,19.9828579 C12.7502595,20.0559705 12.3964788,19.8894766 12.2146925,19.5927096 L13.3811978,19.5920584 C13.5399464,19.5920584 13.6962264,19.5814895 13.8493727,19.5610171 L14.0766587,19.5229639 Z M16.881,14.882 L16.882043,12.8179396 C17.1663914,12.9091472 17.3943707,13.1473363 17.4578822,13.4608144 L17.5425625,13.8788069 C17.6288364,14.3046799 17.3813391,14.7208069 16.9798,14.8558375 L16.881,14.882 Z M8.01095755,10.5969934 L4.1895275,10.5969934 C3.69660542,10.5969934 3.57341832,10.8434421 3.57341832,11.2131026 C3.57341832,11.5827135 3.81984214,11.8292366 4.1895275,11.8292366 L8.01095755,11.8292366 C8.2574558,11.8292366 8.62706672,11.5826887 8.62706672,11.2131026 C8.62706672,10.8434173 8.38061809,10.5969934 8.01095755,10.5969934 Z M12.5684832,6.90031358 L4.1895275,6.90031358 C3.69660542,6.90031358 3.57341832,7.26999893 3.57341832,7.51644756 C3.57341832,7.88615773 3.81984214,8.13255674 4.1895275,8.13255674 L12.5684832,8.13255674 C12.9381934,8.13255674 13.1846172,7.88613292 13.1846172,7.51644756 C13.1846172,7.14683664 12.9381934,6.90031358 12.5684832,6.90031358 Z M12.5684832,3.4501816 L4.1895275,3.4501816 C3.69660542,3.4501816 3.57341832,3.81984214 3.57341832,4.06629077 C3.57341832,4.31273941 3.81984214,4.68242476 4.1895275,4.68242476 L12.5684832,4.68242476 C12.9381934,4.68242476 13.1846172,4.43597613 13.1846172,4.06629077 C13.1846172,3.69660542 12.9381934,3.4501816 12.5684832,3.4501816 Z M14.1951484,18.8934523 L14.0846646,18.3480795 C14.385478,18.1988625 14.6663897,18.0125077 14.9208234,17.7933778 L15.5106576,18.1840038 C15.651024,18.2769458 15.808806,18.3229907 15.9655296,18.3258844 L16.0825852,18.3200224 C15.5806049,18.9258949 14.878226,19.3613643 14.0766587,19.5229639 C14.1926382,19.3431233 14.2409706,19.1196803 14.1951484,18.8934523 Z M16.8106856,16.7945239 L16.8519089,16.5469304 C17.1068898,16.8280751 17.1496164,17.2574273 16.9297035,17.5891329 L16.693229,17.9448 C16.5489633,18.1617612 16.3225755,18.2914666 16.0825852,18.3200224 C16.439292,17.8857051 16.6944098,17.3652918 16.8106856,16.7945239 Z M16.4531072,12.794562 L15.8916072,12.9083208 C15.7342946,12.5948632 15.5365693,12.3033803 15.303485,12.0413219 L15.6873374,11.4633721 C15.9478043,11.0705628 15.8406204,10.5415158 15.4482329,10.281297 L15.0923673,10.0455172 C14.6997565,9.78519913 14.1704118,9.89230864 13.9098208,10.2847706 L13.5188475,10.8736868 C13.1991081,10.7710555 12.8678083,10.7087362 12.5326312,10.6881742 L12.4221722,10.1429007 C12.328163,9.68099252 11.878437,9.3833586 11.4174964,9.47716936 L10.9991813,9.56192406 C10.5377197,9.65541228 10.2394407,10.1052623 10.3329289,10.5667239 L10.4446781,11.1182994 C10.4193244,11.1311419 10.3941066,11.1442512 10.3690291,11.157625 C10.1394272,11.2800429 10.1186355,11.6022647 10.3282892,11.7562175 L10.8963393,12.1733169 C10.9931298,12.2455056 11.1204098,12.2623967 11.2326786,12.2179521 C11.5166168,12.1030022 11.8275742,12.0332831 12.1592242,12.0203069 C13.3455172,11.9740093 14.4445248,12.7352882 14.8204129,13.8611414 C15.3827812,15.5455668 14.2306531,17.2904569 12.4636315,17.4372393 C11.2783806,17.5357642 10.1441909,16.8216016 9.72056622,15.7102629 C9.60629215,15.4123166 9.54494673,15.0966975 9.53929634,14.7776386 C9.53637782,14.6587864 9.47292755,14.5496669 9.3710771,14.4883412 L8.7817391,14.1269179 C8.55796781,13.9897373 8.26388188,14.1345845 8.24251952,14.3964409 L8.23792947,14.4583694 L7.70267966,14.5667938 C7.24124287,14.6602821 6.94296385,15.1101817 7.03645207,15.5715937 L7.12108272,15.9893629 C7.21457094,16.4508493 7.66442095,16.7491284 8.12585774,16.6556401 L8.66110755,16.5472157 C8.81227522,16.8492651 9.0011116,17.1309399 9.22310372,17.3855082 L8.81381985,18.0026843 C8.55337776,18.3963371 8.66120679,18.9254834 9.05396646,19.1853548 L9.41000571,19.4208122 C9.80271577,19.6804851 10.3315147,19.5731027 10.5918575,19.1809881 L10.9990325,18.5676329 C11.3212312,18.6751206 11.6557366,18.7414048 11.9945777,18.764906 L12.1063517,19.3166055 C12.1267274,19.4171805 12.1640308,19.510004 12.2146925,19.5927096 L4.5,19.5920584 L4.473,19.591 L3.08047144,19.5920584 C2.09477615,19.5920584 0,18.9759492 0,16.8811978 L0,3.69660542 C0,1.23224316 1.6019037,0 3.08047144,0 L13.8007264,0 C15.6490539,0 16.8811978,1.23221835 16.8811978,3.20373297 L16.882043,12.8179396 C16.7478332,12.7748905 16.6010658,12.7645852 16.4531072,12.794562 Z M16.881,14.882 L16.8811978,16.0920584 C16.8811978,16.2462131 16.8712318,16.3980402 16.8519089,16.5469304 C16.8046031,16.4948736 16.7509259,16.4484058 16.6904749,16.4083231 L16.111111,16.0239992 C16.2235515,15.6921172 16.2920988,15.3469535 16.3150086,14.9972912 L16.87631,14.8835819 L16.881,14.882 Z"></path></clipPath></defs><g transform="translate(-785.0 -715.0)"><g clip-path="url(#i0)"><g transform="translate(784.9999999125776 715.0)"><g transform="translate(3.0000000000002274 2.0)"><g clip-path="url(#i1)"><polygon points="0,0 17.5596974,0 17.5596974,20 0,20 0,0" stroke="none" fill="#44B044"></polygon></g></g></g></g></g></svg>