<?xml version="1.0" encoding="UTF-8"?><svg version="1.1" width="24px" height="24px" viewBox="0 0 24.0 24.0" xmlns="http://www.w3.org/2000/svg" xmlns:xlink="http://www.w3.org/1999/xlink"><defs><clipPath id="i0"><path d="M1440,0 L1440,1255 L0,1255 L0,0 L1440,0 Z"></path></clipPath><clipPath id="i1"><path d="M13.8007264,0 C15.6490539,0 16.8811978,1.23221835 16.8811978,3.20373297 L16.8811978,7.4660066 C16.8811978,7.83566714 16.6544988,8.32856441 16.1419264,8.3285396 C15.5264375,8.32851478 15.2793934,7.95885424 15.2793934,7.4660066 L15.2793934,3.57344313 C15.2793934,2.21793844 14.047175,1.7250908 13.5543026,1.7250908 L3.08047144,1.7250908 C2.46446151,1.7250908 1.47866698,2.46448632 1.47866698,4.06629077 L1.47866698,16.3883502 C1.47866698,18.1046774 2.54114096,18.2272722 3.08752437,18.2360289 L4.91545059,18.2367025 C5.60879671,18.2415903 5.65482129,18.6062886 5.65482129,18.975974 C5.65482129,19.3456593 5.40839747,19.5912892 4.7922883,19.5912892 L3.08047144,19.5920584 C2.09477615,19.5920584 0,18.9759492 0,16.8811978 L0,3.69660542 C0,1.23224316 1.6019037,0 3.08047144,0 L13.8007264,0 Z"></path></clipPath><clipPath id="i2"><path d="M4.39818646,0.0172760872 C4.85912703,-0.0765346725 5.30885298,0.221099253 5.40266374,0.682064634 L5.51332123,1.22828095 C5.84849831,1.24884294 6.17979815,1.31116221 6.49953755,1.41379352 L6.89051082,0.824877312 C7.15110178,0.432415371 7.68044655,0.325305863 8.07305736,0.585623898 L8.42892293,0.821403758 C8.82131043,1.08162255 8.92849438,1.61066958 8.66827558,2.00305709 L8.28417498,2.58142858 C8.51725937,2.84348699 8.71498464,3.13496994 8.87229724,3.44842758 L9.43379719,3.33466869 C9.89523398,3.24118048 10.345084,3.5394843 10.4385722,4.00092109 L10.5232525,4.41891366 C10.6167159,4.88027601 10.3184617,5.33020046 9.85700008,5.42368867 L9.29569862,5.53739793 C9.27278883,5.8870602 9.20424154,6.23222392 9.09180102,6.56410596 L9.67116496,6.94842986 C10.0632795,7.20842535 10.1703891,7.7370754 9.91039356,8.12923961 L9.67391899,8.4849067 C9.41315435,8.8770709 8.88408251,8.9841556 8.49134765,8.72411049 L7.90151343,8.33348457 C7.64707969,8.55261443 7.36616801,8.7389692 7.06535463,8.88818627 L7.17583845,9.43355901 C7.26930185,9.8949958 6.97104765,10.3448458 6.50958604,10.438334 L6.09181678,10.5229647 C5.63037999,10.6164529 5.18052998,10.3181739 5.08704177,9.85671228 L4.97526777,9.30501271 C4.63642663,9.28151155 4.30192121,9.21522737 3.97972249,9.10773968 L3.57254756,9.72109482 C3.31220472,10.1132094 2.7834058,10.2205918 2.39069574,9.96091889 L2.03465649,9.72546157 C1.64189682,9.46559014 1.53406779,8.93644386 1.79393923,8.54363456 L2.20379375,7.92561494 C1.98180163,7.67104659 1.79296525,7.38937184 1.64179758,7.08732238 L1.10654777,7.19574688 C0.645110978,7.28923509 0.195260968,6.99095608 0.101772753,6.52946967 L0.0171420992,6.11170041 C-0.0763461163,5.65028843 0.221932898,5.20038879 0.68336969,5.10690058 L1.2186195,4.99847608 L1.22320955,4.93654758 C1.2445719,4.67469126 1.53865784,4.52984407 1.76242913,4.66702463 L2.35176713,5.02844789 C2.45361758,5.08977361 2.51706785,5.1988931 2.51998637,5.31774529 C2.52563676,5.63680425 2.58698218,5.95242335 2.70125625,6.25036963 C3.12488093,7.36170831 4.25907063,8.07587094 5.44432157,7.97734607 C7.21134313,7.83056362 8.36347125,6.08567356 7.80110292,4.40124815 C7.42521479,3.27539498 6.32620722,2.51411608 5.13991422,2.56041358 C4.80826428,2.57338979 4.49730679,2.64310897 4.21336859,2.75805879 C4.10109987,2.80250348 3.9738198,2.7856123 3.87702935,2.71342362 L3.30897927,2.29632426 C3.0993255,2.1423714 3.1201172,1.82014968 3.3497191,1.69773172 C3.37479666,1.68435793 3.4000144,1.67124867 3.42536813,1.65840613 L3.31361895,1.10683062 C3.22013073,0.645369021 3.51840975,0.195519012 3.97987135,0.102030796 Z"></path></clipPath><clipPath id="i3"><path d="M4.43753923,7.14681183 C4.80719977,7.14681183 5.0536484,7.39323565 5.0536484,7.76292101 C5.0536484,8.13250711 4.68403748,8.37905499 4.43753923,8.37905499 L0.616109174,8.37905499 C0.246423821,8.37905499 0,8.13253193 0,7.76292101 C0,7.39326046 0.123187099,7.14681183 0.616109174,7.14681183 L4.43753923,7.14681183 Z M8.99506492,3.45013198 C9.36477508,3.45013198 9.6111989,3.69665504 9.6111989,4.06626596 C9.6111989,4.43595132 9.36477508,4.68237514 8.99506492,4.68237514 L0.616109174,4.68237514 C0.246423821,4.68237514 1.77635684e-15,4.43597613 1.77635684e-15,4.06626596 C1.77635684e-15,3.81981733 0.123187099,3.45013198 0.616109174,3.45013198 L8.99506492,3.45013198 Z M8.99506492,0 C9.36477508,0 9.6111989,0.246423821 9.6111989,0.616109174 C9.6111989,0.985794527 9.36477508,1.23224316 8.99506492,1.23224316 L0.616109174,1.23224316 C0.246423821,1.23224316 1.77635684e-15,0.862557806 1.77635684e-15,0.616109174 C1.77635684e-15,0.369660542 0.123187099,0 0.616109174,0 L8.99506492,0 Z"></path></clipPath></defs><g transform="translate(-45.0 -662.0)"><g clip-path="url(#i0)"><g transform="translate(45.0 662.0)"><g transform="translate(3.000000000000014 2.0)"><g clip-path="url(#i1)"><polygon points="0,0 16.8811978,0 16.8811978,19.5920584 0,19.5920584 0,0" stroke="none" fill="#505050"></polygon></g><g transform="translate(7.019309970423382 9.459893268262615)"><g clip-path="url(#i2)"><polygon points="-7.77156117e-16,5.55111512e-16 10.5403875,5.55111512e-16 10.5403875,10.5401067 -7.77156117e-16,10.5401067 -7.77156117e-16,5.55111512e-16" stroke="none" fill="#505050"></polygon></g></g><g transform="translate(3.5734183212579893 3.4501815998437326)"><g clip-path="url(#i3)"><polygon points="0,0 9.6111989,0 9.6111989,8.37905499 0,8.37905499 0,0" stroke="none" fill="#505050"></polygon></g></g></g></g></g></g></svg>