<?xml version="1.0" encoding="UTF-8"?><svg version="1.1" width="24px" height="24px" viewBox="0 0 24.0 24.0" xmlns="http://www.w3.org/2000/svg" xmlns:xlink="http://www.w3.org/1999/xlink"><defs><clipPath id="i0"><path d="M1440,0 L1440,1168 L0,1168 L0,0 L1440,0 Z"></path></clipPath><clipPath id="i1"><path d="M12.2517531,0 C13.2165689,0 14.0015567,0.78421288 14,1.75 L14,12.25 C14,13.2157871 13.2165689,14 12.2501894,14 L1.74980366,14 C0.78342416,14 0,13.2173524 0,12.25 L0,1.75 C0,0.78421288 0.78342416,0 1.74980366,0 Z M10.2376806,7.36784436 L7.1978072,11.0384615 C7.09460163,11.1621199 6.9429207,11.2388193 6.77873001,11.2497764 C6.61453932,11.2607335 6.45347607,11.2059481 6.33306956,11.0963775 L4.21110033,9.16793381 L1.21188368,11.2967352 C1.18060926,11.3202147 1.1462074,11.3389982 1.11180554,11.3546512 L1.11180554,12.0449463 C1.11180554,12.509839 1.48866228,12.8855098 1.95308738,12.8855098 L12.0469056,12.8855098 C12.5113307,12.8855098 12.8881875,12.5082737 12.8881875,12.0449463 L12.8881875,10.8240161 C12.7990554,10.7833184 12.7177419,10.7222719 12.6567568,10.6393113 L10.2376806,7.36784436 Z M12.0453419,1.11292487 L1.95308738,1.11292487 C1.48866228,1.11292487 1.11336927,1.490161 1.11336927,1.95348837 L1.11336927,9.96466905 L3.90773848,7.97987478 C4.13604172,7.81708408 4.45504078,7.83586762 4.66145194,8.02370304 L6.67708815,9.85509839 L9.80296619,6.07960644 C9.91711781,5.94029517 10.0938183,5.86203041 10.2783373,5.8667263 C10.4628564,5.87142218 10.6348657,5.95907871 10.7411987,6.10465116 L12.8866238,9.00357782 L12.8866238,1.95348837 C12.8866238,1.48859571 12.509767,1.11292487 12.0453419,1.11292487 Z"></path></clipPath><clipPath id="i2"><path d="M1.62626971,0 C2.52228178,0 3.25253943,0.730992844 3.25253943,1.62790698 C3.25253943,2.52482111 2.52228178,3.25581395 1.62626971,3.25581395 C0.73025765,3.25581395 0,2.52482111 0,1.62790698 C0,0.730992844 0.73025765,0 1.62626971,0 Z M1.62626971,1.12701252 C1.3479274,1.12701252 1.12587903,1.35084973 1.12587903,1.62790698 C1.12587903,1.90496422 1.34949112,2.12880143 1.62626971,2.12880143 C1.90304831,2.12880143 2.12666039,1.90496422 2.12666039,1.62790698 C2.12666039,1.35084973 1.90304831,1.12701252 1.62626971,1.12701252 Z"></path></clipPath></defs><g transform="translate(-1070.0 -923.0)"><g clip-path="url(#i0)"><g transform="translate(1038.0 817.0)"><g transform="translate(32.0 106.0)"><g transform="translate(5.0 5.0)"><g clip-path="url(#i1)"><polygon points="0,0 14.0000023,0 14.0000023,14 0,14 0,0" stroke="none" fill="#000000"></polygon></g><g transform="translate(2.7005459569825234 2.366726296958859)"><g clip-path="url(#i2)"><polygon points="0,0 3.25253943,0 3.25253943,3.25581395 0,3.25581395 0,0" stroke="none" fill="#000000"></polygon></g></g></g></g></g></g></g></svg>