<?xml version="1.0" encoding="UTF-8"?><svg version="1.1" width="24px" height="24px" viewBox="0 0 24.0 24.0" xmlns="http://www.w3.org/2000/svg" xmlns:xlink="http://www.w3.org/1999/xlink"><defs><clipPath id="i0"><path d="M1440,0 L1440,1255 L0,1255 L0,0 L1440,0 Z"/></clipPath><clipPath id="i1"><path d="M24,0 L24,24 L0,24 L0,0 L24,0 Z"/></clipPath><clipPath id="i2"><path d="M15.6372,0 C16.9423325,0.00066251005 18,1.05886734 18,2.36400001 L18,17.502 C18,18.8071326 16.9423325,19.8653375 15.6372,19.866 L2.36400001,19.866 C1.05839885,19.866 0,18.8076011 0,17.502 L0,2.36400001 C0,1.05839885 1.05839885,0 2.36400001,0 Z M15.6372,1.8 L2.36400001,1.8 C2.05278522,1.80066005 1.80066005,2.05278522 1.8,2.36400001 L1.8,17.502 C1.80066005,17.8132148 2.05278522,18.0653399 2.36400001,18.066 L15.6372,18.066 C15.9482199,18.0653382 16.2,17.8130206 16.2,17.502 L16.2,2.36400001 C16.2,2.05297944 15.9482199,1.80066175 15.6372,1.8 Z"/></clipPath><clipPath id="i3"><path d="M3,0 L3,4.97161779 L1.5,3.7457787 L0,5 L0,0 L3,0 Z"/></clipPath><clipPath id="i4"><path d="M5.1816,0 C5.67865627,0 6.0816,0.402943725 6.0816,0.9 C6.0816,1.39705627 5.67865627,1.8 5.1816,1.8 L0.9,1.8 C0.402943725,1.8 0,1.39705627 0,0.9 C0,0.402943725 0.402943725,0 0.9,0 L5.1816,0 Z"/></clipPath><clipPath id="i5"><path d="M8.69999999,0 C9.19705627,0 9.59999999,0.402943725 9.59999999,0.9 C9.59999999,1.39705627 9.19705627,1.8 8.69999999,1.8 L0.9,1.8 C0.402943725,1.8 0,1.39705627 0,0.9 C0,0.402943725 0.402943725,0 0.9,0 L8.69999999,0 Z"/></clipPath></defs><g transform="translate(-398.0 -755.0)"><g clip-path="url(#i0)"><g transform="translate(398.0 755.0)"><g clip-path="url(#i1)"><g transform="translate(3.0 2.0000000000000107)"><g clip-path="url(#i2)"><polygon points="0,0 18,0 18,19.866 0,19.866 0,0" stroke="none"/></g><g transform="translate(11.00000008742245 1.0)"><g clip-path="url(#i3)"><polygon points="0,0 3,0 3,5 0,5 0,0" stroke="none"/></g></g><g transform="translate(3.459600003608647 8.788000004785413)"><g clip-path="url(#i4)"><polygon points="0,0 6.0816,0 6.0816,1.8 0,1.8 0,0" stroke="none"/></g></g><g transform="translate(3.4596000036093395 12.34600000213377)"><g clip-path="url(#i5)"><polygon points="0,0 9.59999999,0 9.59999999,1.8 0,1.8 0,0" stroke="none"/></g></g></g></g></g></g></g></svg>