<?xml version="1.0" encoding="UTF-8"?><svg version="1.1" width="24px" height="24px" viewBox="0 0 24.0 24.0" xmlns="http://www.w3.org/2000/svg" xmlns:xlink="http://www.w3.org/1999/xlink"><defs><clipPath id="i0"><path d="M1440,0 L1440,1255 L0,1255 L0,0 L1440,0 Z"></path></clipPath><clipPath id="i1"><path d="M24,0 L24,24 L0,24 L0,0 L24,0 Z"></path></clipPath><clipPath id="i2"><path d="M11.0000001,0 L11.0000001,6 L12.5000001,4.49493444 L14.0000001,5.96594134 L14.0000001,0 L15.6372,0 C16.9423325,0.00066251005 18,1.05886734 18,2.36400001 L18,17.502 C18,18.8071326 16.9423325,19.8653375 15.6372,19.866 L2.36400001,19.866 C1.05839885,19.866 0,18.8076011 0,17.502 L0,2.36400001 C0,1.05839885 1.05839885,0 2.36400001,0 L11.0000001,0 Z M12.1596,12.346 L4.3596,12.346 C3.86254373,12.346 3.4596,12.7489437 3.4596,13.246 C3.4596,13.7430563 3.86254373,14.146 4.3596,14.146 L12.1596,14.146 C12.6566563,14.146 13.0596,13.7430563 13.0596,13.246 C13.0596,12.7489437 12.6566563,12.346 12.1596,12.346 Z M8.6412,8.788 L4.3596,8.788 C3.86254373,8.788 3.4596,9.19094373 3.4596,9.688 C3.4596,10.1850563 3.86254373,10.588 4.3596,10.588 L8.6412,10.588 C9.13825627,10.588 9.5412,10.1850563 9.5412,9.688 C9.5412,9.19094373 9.13825627,8.788 8.6412,8.788 Z"></path></clipPath></defs><g transform="translate(-283.0 -755.0)"><g clip-path="url(#i0)"><g transform="translate(283.00000008742245 755.0)"><g clip-path="url(#i1)"><g transform="translate(3.0 2.0000000000000107)"><g clip-path="url(#i2)"><polygon points="0,0 18,0 18,19.866 0,19.866 0,0" stroke="none" fill="#44B044"></polygon></g></g></g></g></g></g></svg>