<?xml version="1.0" encoding="UTF-8"?><svg version="1.1" width="16px" height="16px" viewBox="0 0 16.0 16.0" xmlns="http://www.w3.org/2000/svg" xmlns:xlink="http://www.w3.org/1999/xlink"><defs><clipPath id="i0"><path d="M1440,0 L1440,1053 L0,1053 L0,0 L1440,0 Z"></path></clipPath><clipPath id="i1"><path d="M5.63333605,0 L9,2.83623968 L9,11 L0,11 L0,0 L5.63333605,0 Z"></path></clipPath><clipPath id="i2"><path d="M6.36638984,0 L9,2.78966631 L9,11 L0,11 L0,0 L6.36638984,0 Z M7.68832438,8.312953 L1.31094284,8.312953 L1.31094284,9.02813061 L7.68832438,9.02813061 L7.68832438,8.312953 Z M7.68832438,6.27714388 L1.31094284,6.27714388 L1.31094284,6.99232149 L7.68832438,6.99232149 L7.68832438,6.27714388 Z M7.68832438,4.18055257 L1.31094284,4.18055257 L1.31094284,4.89573018 L7.68832438,4.89573018 L7.68832438,4.18055257 Z M6.40595994,1.134338 L6.40595994,2.91044133 L8.05471422,2.91044133 L6.40595994,1.134338 Z M5.20420127,2.14553283 L1.32266732,2.14553283 L1.32266732,2.86071044 L5.20420127,2.86071044 L5.20420127,2.14553283 Z"></path></clipPath><clipPath id="i3"><path d="M0,0 L2.33543702,2.46702948 L0,2.46702948 L0,0 Z"></path></clipPath></defs><g transform="translate(-601.0 -295.0)"><g clip-path="url(#i0)"><g transform="translate(601.0 294.0000130697058)"><g transform="translate(0.0 0.9999869302941988)"><g transform="translate(3.0 2.0)"><g transform="translate(0.0 1.0)"><g clip-path="url(#i1)"><polygon points="0,0 9,0 9,11 0,11 0,0" stroke="none" fill="#9DB8CD"></polygon></g></g><g transform="translate(1.0 0.0)"><g clip-path="url(#i2)"><polygon points="0,0 9,0 9,11 0,11 0,0" stroke="none" fill="#C6D9FF"></polygon></g></g></g><g transform="translate(10.151189521321953 2.80821352568546)"><g clip-path="url(#i3)"><polygon points="0,0 2.33543702,0 2.33543702,2.46702948 0,2.46702948 0,0" stroke="none" fill="#FFFFFF"></polygon></g></g></g></g></g></g></svg>