<?xml version="1.0" encoding="UTF-8"?><svg version="1.1" width="16px" height="16px" viewBox="0 0 16.0 16.0" xmlns="http://www.w3.org/2000/svg" xmlns:xlink="http://www.w3.org/1999/xlink"><defs><clipPath id="i0"><path d="M1440,0 L1440,1183 L0,1183 L0,0 L1440,0 Z"></path></clipPath><clipPath id="i1"><path d="M5.28669045,0 C5.40767229,0 5.51740827,0.0478708445 5.59822461,0.125595841 L5.71410735,0.218873836 L5.8245743,0.321080264 L5.86108195,0.357551586 C6.71799326,1.215048 6.64533312,2.56860654 5.78840998,3.42664748 L3.80066174,5.41494442 C2.94255481,6.27244084 1.53875113,6.27244084 0.680644202,5.41494442 L0.643580192,5.37789306 C-0.214526731,4.52040849 -0.214526731,3.11603158 0.643580192,2.25735142 L1.5564604,1.40315767 C1.58346233,1.37029678 1.61472584,1.34114103 1.64930391,1.31628229 L1.65866757,1.30752254 C1.7376609,1.25581634 1.83212618,1.22466005 1.93389534,1.22466005 C2.20358305,1.22466005 2.42220268,1.44327494 2.42220268,1.71295679 C2.42220268,1.86800432 2.34985033,2.00607688 2.23714308,2.09553284 L1.35871073,2.97365017 C0.892729398,3.43846131 0.892729398,4.19652275 1.35871073,4.66245845 L1.39607068,4.69984126 C1.86204016,5.16520877 2.6195617,5.16520877 3.08550752,4.69984126 L5.07384765,2.71213618 C5.5398053,2.2461768 5.67891075,1.44439949 5.21295309,0.979031983 L5.17588908,0.941956944 C5.13697839,0.903047099 5.09536868,0.868623652 5.05297769,0.833667527 C5.01096549,0.808063026 4.97354637,0.77572298 4.94209345,0.738209957 L4.89802685,0.675575546 C4.85930464,0.609178288 4.83710441,0.531974135 4.83710441,0.44957628 C4.83710441,0.201284796 5.03838173,0 5.28669045,0 Z"></path></clipPath><clipPath id="i2"><path d="M2.65544429,0.643566215 C3.51355121,-0.214522072 4.9173549,-0.214522072 5.77544999,0.643566215 L5.812514,0.68062942 C6.67062092,1.53870586 6.67062092,2.94250274 5.81188656,3.80057922 L4.88913367,4.65201483 C4.85789384,4.69132716 4.82073513,4.72571509 4.77890051,4.7537226 L4.76532261,4.76625851 C4.68986878,4.80900371 4.60293231,4.8353303 4.50982838,4.8353303 C4.24231882,4.8353303 4.02546301,4.61846736 4.02546301,4.35097545 C4.02546301,4.19137048 4.10270436,4.04981771 4.22181583,3.96156917 L5.0973716,3.08544053 C5.56332927,2.62007302 5.56332927,1.86171565 5.0973716,1.39574444 L5.06028392,1.35927312 C4.59431444,0.893313738 3.83653248,0.893313738 3.37173491,1.35927312 L1.38281474,3.34699002 C0.916868906,3.81292573 0.739930011,4.48985297 1.20587583,4.95578867 L1.24235979,4.99167995 C1.31500808,5.0643385 1.42004447,5.14103365 1.47615542,5.26702012 L1.49909348,5.3249901 C1.51158713,5.36498593 1.5183215,5.40751937 1.5183215,5.45162588 C1.5183215,5.6860083 1.32830188,5.87604747 1.09389069,5.87604747 C1.01696897,5.87604747 0.944888883,5.8554739 0.882681489,5.81970099 C0.842622532,5.79649949 0.807511757,5.76792377 0.777621431,5.73454203 C0.736331347,5.69931365 0.695881746,5.6625819 0.656911861,5.62362469 L0.620439746,5.58770973 C-0.237667177,4.72906507 -0.190410868,3.48993961 0.667696055,2.63185133 Z"></path></clipPath></defs><g transform="translate(-291.0 -333.0)"><g clip-path="url(#i0)"><g transform="translate(267.0 217.0)"><g transform="translate(0.0 98.35714285714312)"><g transform="translate(24.0 17.642857142856883)"><g transform="translate(3.333333333333333 3.333333333333333)"><g transform="translate(0.0 3.2752665990441696)"><g clip-path="url(#i1)"><polygon points="0,0 6.46858789,0 6.46858789,6.05806673 0,6.05806673 0,0" stroke="none" fill="#000000"></polygon></g><path d="M5.8245743,0.321080264 C5.75308611,0.249617292 5.67688649,0.185197639 5.59836667,0.125465633 L5.59822461,0.125595841 C5.51740827,0.0478708445 5.40767229,0 5.28669045,0 C5.03838173,0 4.83710441,0.201284796 4.83710441,0.44957628 C4.83710441,0.559440087 4.87657148,0.660070645 4.94204609,0.73816261 L4.94203426,0.73816261 C4.94204609,0.738174444 4.94206977,0.738198123 4.94209345,0.738209957 C4.97354637,0.77572298 5.01096549,0.808063026 5.05297769,0.833667527 C5.09536868,0.868623652 5.13697839,0.903047099 5.17588908,0.941956944 L5.21295309,0.979031983 C5.67891075,1.44439949 5.5398053,2.2461768 5.07384765,2.71213618 L3.08550752,4.69984126 C2.6195617,5.16520877 1.86204016,5.16520877 1.39607068,4.69984126 L1.35871073,4.66245845 C0.892729398,4.19652275 0.892729398,3.43846131 1.35871073,2.97365017 L2.23714308,2.09553284 C2.34985033,2.00607688 2.42220268,1.86800432 2.42220268,1.71295679 C2.42220268,1.44327494 2.20358305,1.22466005 1.93389534,1.22466005 C1.83212618,1.22466005 1.7376609,1.25581634 1.65943703,1.30907325 C1.65918844,1.3085524 1.65892801,1.30805523 1.65866757,1.30752254 L1.64930391,1.31628229 C1.61472584,1.34114103 1.58346233,1.37029678 1.5564604,1.40315767 L0.643580192,2.25735142 C-0.214526731,3.11603158 -0.214526731,4.52040849 0.643580192,5.37789306 L0.680644202,5.41494442 C1.53875113,6.27244084 2.94255481,6.27244084 3.80066174,5.41494442 L5.78840998,3.42664748 C6.64533312,2.56860654 6.71799326,1.215048 5.86108195,0.357551586 L5.8245743,0.321080264 Z" stroke="#FFFFFF" stroke-width="0.2" fill="none" stroke-miterlimit="10"></path></g><g transform="translate(2.8773175508284856 0.0)"><g clip-path="url(#i2)"><polygon points="3.33066907e-16,0 6.45601578,0 6.45601578,5.87604747 3.33066907e-16,5.87604747 3.33066907e-16,0" stroke="none" fill="#000000"></polygon></g><path d="M5.812514,0.68062942 L5.77544999,0.643566215 C4.9173549,-0.214522072 3.51355121,-0.214522072 2.65544429,0.643566215 L0.667696055,2.63185133 C-0.190410868,3.48993961 -0.237667177,4.72906507 0.620439746,5.58770973 L0.656911861,5.62362469 C0.695881746,5.6625819 0.736331347,5.69931365 0.777621431,5.73454203 C0.807511757,5.76792377 0.842622532,5.79649949 0.881651611,5.81909727 C0.881947559,5.81933402 0.882255341,5.81958261 0.882551278,5.81981936 L0.882681489,5.81970099 C0.944888883,5.8554739 1.01696897,5.87604747 1.09389069,5.87604747 C1.32830188,5.87604747 1.5183215,5.6860083 1.5183215,5.45162588 C1.5183215,5.38546611 1.50316918,5.32284576 1.47615542,5.26702012 L1.47615542,5.26702012 C1.42004447,5.14103365 1.31500808,5.0643385 1.24235979,4.99167995 L1.20587583,4.95578867 C0.739930011,4.48985297 0.916868906,3.81292573 1.38281474,3.34699002 L3.37173491,1.35927312 C3.83653248,0.893313738 4.59431444,0.893313738 5.06028392,1.35927312 L5.0973716,1.39574444 C5.56332927,1.86171565 5.56332927,2.62007302 5.0973716,3.08544053 L4.22181583,3.96156917 C4.10270436,4.04981771 4.02546301,4.19137048 4.02546301,4.35097545 C4.02546301,4.61846736 4.24231882,4.8353303 4.50982838,4.8353303 C4.60293231,4.8353303 4.68986878,4.80900371 4.763689,4.7634767 C4.76424537,4.76442369 4.76476624,4.76529967 4.76532261,4.76625851 L4.77890051,4.7537226 C4.82073513,4.72571509 4.85789384,4.69132716 4.88913367,4.65201483 L5.81188656,3.80057922 C6.67062092,2.94250274 6.67062092,1.53870586 5.812514,0.68062942 Z" stroke="#FFFFFF" stroke-width="0.2" fill="none" stroke-miterlimit="10"></path></g></g></g></g></g></g></g></svg>