<?xml version="1.0" encoding="UTF-8"?><svg version="1.1" width="24px" height="24px" viewBox="0 0 24.0 24.0" xmlns="http://www.w3.org/2000/svg" xmlns:xlink="http://www.w3.org/1999/xlink"><defs><clipPath id="i0"><path d="M1440,0 L1440,1255 L0,1255 L0,0 L1440,0 Z"></path></clipPath><clipPath id="i1"><path d="M24,0 L24,24 L0,24 L0,0 L24,0 Z"></path></clipPath><clipPath id="i2"><path d="M1.63447048,11.1867498 L1.08215873,10.9420188 L1.02266009,10.922782 L0.932700107,10.8688381 L0.688923017,10.7025551 C0.652804989,10.6755082 0.623045912,10.6507194 0.588290814,10.6194983 L0.530991781,10.5667561 C0.219258238,10.2752522 0.0243146645,9.90787949 0.0032354942,9.44798011 C-0.0263151825,8.86195782 0.141985783,8.52107309 0.696984785,7.93529879 L0.981283672,7.64576847 L1.48155797,7.15699829 L1.74886433,6.88638481 C1.8260212,6.80378013 1.8941331,6.72538382 1.96190081,6.64102146 C2.01166476,6.59167777 2.04690821,6.54645533 2.07998499,6.4918239 L2.0972773,6.45890258 L2.10375728,6.24327326 C2.13365656,5.73507942 2.23880143,5.2166224 2.42416606,4.67502303 L2.54505101,4.34718329 C2.89187767,3.52182882 3.37456169,2.77827748 3.99258101,2.13189871 C5.3562164,0.826404067 7.22720977,0 9.67548606,0 C11.8605407,0 13.202189,0.758071262 14.2317304,1.93211066 C15.2612717,3.10615006 15.6255133,4.15717055 15.7019735,4.97475657 C15.7536657,5.52750062 15.7005155,6.3823905 15.451592,7.17800689 C14.986267,7.06122906 14.5002839,7 14,7 C10.6862915,7 8,9.6862915 8,13 C8,14.843721 8.83160092,16.4932113 10.1401751,17.5938431 L10.1525695,17.6501512 L10.1630446,17.7920127 C10.1644381,18.3442956 9.71785393,18.7931391 9.16557094,18.7945326 L6.43461921,18.7971346 L6.37026028,18.7901035 C6.31098043,18.7803069 6.25627676,18.761531 6.22842843,18.7457595 L6.106119,18.6895498 C5.75933435,18.4969473 5.59832259,18.0968206 5.74404675,17.7115045 L5.81560778,17.5876715 L5.85073766,17.4720476 L6.2368349,16.4311785 L6.0472027,16.432475 C5.38418166,16.432475 4.59366834,16.2543301 3.84693082,15.7986213 C3.01454641,15.2703941 2.60811941,14.4721546 2.3300166,13.0933835 C2.23714165,12.6329304 2.17059359,12.1338697 2.12545448,11.621957 L2.109,11.421 L1.63447048,11.1867498 Z"></path></clipPath><clipPath id="i3"><path d="M8.8164715,4.81482712 C9.22558106,4.81482712 9.56051212,5.18129389 9.56051212,5.60002658 C9.56051212,6.01875927 9.22558106,6.38522603 8.8164715,6.38522603 L6.61810742,6.38485934 L5.22322722,7.88199988 L4.99882368,7.97953964 L2.3760122,7.97953964 C1.96690263,7.97953964 1.63197158,7.61307288 1.63197158,7.19434019 C1.63197158,6.7756075 1.96690263,6.40914073 2.3760122,6.40914073 L4.51396419,6.40818414 L5.55912386,5.26543304 C5.78243685,5.02109384 6.06629608,4.86456443 6.36427482,4.82482826 L6.51422588,4.81482712 Z M3.74570263,3.2205135 C4.1548122,3.2205135 4.48974325,3.58698026 4.48974325,4.00571295 C4.48974325,4.38637903 4.21294073,4.72385014 3.85524293,4.78206252 L3.74570263,4.79091241 L0.744040618,4.79091241 C0.334931051,4.79091241 0,4.42444564 0,4.00571295 C0,3.62504687 0.276802522,3.28757577 0.634500325,3.22936338 L0.744040618,3.2205135 L3.74570263,3.2205135 Z M4.88225428,0 C5.2040949,0 5.50327283,0.118731861 5.747564,0.333614242 L5.8649865,0.448963433 L7.78434783,2.51785166 L9.69074199,2.51901552 C10.0213356,2.51901552 10.303491,2.75831633 10.3996163,3.07112286 L10.4266744,3.19154706 L10.4347826,3.30421497 C10.4347826,3.68488105 10.1579801,4.02235216 9.80028228,4.08056454 L9.69074199,4.08941443 L7.27192696,4.08941443 L7.04671953,3.9910097 L4.80613811,1.57012788 L1.67659581,1.57039891 C1.34600222,1.57039891 1.0638468,1.33109809 0.967721462,1.01829157 L0.940663356,0.897867366 L0.932555188,0.785199455 C0.932555188,0.404533375 1.20935771,0.067062271 1.56705551,0.00884988915 L1.67659581,0 L4.88225428,0 Z"></path></clipPath></defs><g transform="translate(-772.0 -1154.0)"><g clip-path="url(#i0)"><g transform="translate(772.0 1154.0)"><g clip-path="url(#i1)"><g transform="translate(2.000000000000046 2.999999999999904)"><g clip-path="url(#i2)"><polygon points="-3.6429193e-17,0 15.7199071,0 15.7199071,18.7971346 -3.6429193e-17,18.7971346 -3.6429193e-17,0" stroke="none" fill="#44B044"></polygon></g><g transform="translate(9.565217391304031 9.21739130434662)"><g clip-path="url(#i3)"><polygon points="0,0 10.4347826,0 10.4347826,7.97953964 0,7.97953964 0,0" stroke="none" fill="#44B044"></polygon></g></g></g></g></g></g></g></svg>