<?xml version="1.0" encoding="UTF-8"?><svg version="1.1" width="24px" height="24px" viewBox="0 0 24.0 24.0" xmlns="http://www.w3.org/2000/svg" xmlns:xlink="http://www.w3.org/1999/xlink"><defs><clipPath id="i0"><path d="M1440,0 L1440,1255 L0,1255 L0,0 L1440,0 Z"/></clipPath><clipPath id="i1"><path d="M24,0 L24,24 L0,24 L0,0 L24,0 Z"/></clipPath><clipPath id="i2"><path d="M15.75,0 C16.9926407,0 18,1.00735931 18,2.25 L18,13.5 C18,14.690864 17.0748384,15.6656449 15.9040488,15.7448092 L15.75,15.75 C15.75,16.9926407 14.7426407,18 13.5,18 L2.25,18 C1.00735931,18 0,16.9926407 0,15.75 L0,4.5 C0,3.25735931 1.00735931,2.25 2.25,2.25 C2.25,1.00735931 3.25735931,0 4.5,0 L15.75,0 Z M13.5,3.375 L2.25,3.375 C1.62867966,3.375 1.125,3.87867966 1.125,4.5 L1.125,15.75 C1.125,16.3713203 1.62867966,16.875 2.25,16.875 L13.5,16.875 C14.1213203,16.875 14.625,16.3713203 14.625,15.75 L14.625,4.5 C14.625,3.87867966 14.1213203,3.375 13.5,3.375 Z M15.75,1.125 L4.5,1.125 C3.92010101,1.125 3.44268014,1.56376095 3.38160135,2.12741886 L3.375,2.25 L13.5,2.25 C14.7426407,2.25 15.75,3.25735931 15.75,4.5 L15.75,14.625 L15.8725811,14.6183987 C16.4362391,14.5573199 16.875,14.079899 16.875,13.5 L16.875,2.25 C16.875,1.62867966 16.3713203,1.125 15.75,1.125 Z"/></clipPath><clipPath id="i3"><path d="M19.3,-1.3 L19.3,19.3 L-1.3,19.3 L-1.3,-1.3 L19.3,-1.3 Z M15.75,0 L4.5,0 C3.25735931,0 2.25,1.00735931 2.25,2.25 C1.00735931,2.25 0,3.25735931 0,4.5 L0,15.75 C0,16.9926407 1.00735931,18 2.25,18 L13.5,18 C14.7426407,18 15.75,16.9926407 15.75,15.75 L15.9040488,15.7448092 C17.0748384,15.6656449 18,14.690864 18,13.5 L18,2.25 C18,1.00735931 16.9926407,0 15.75,0 Z M13.5,3.375 C14.1213203,3.375 14.625,3.87867966 14.625,4.5 L14.625,15.75 C14.625,16.3713203 14.1213203,16.875 13.5,16.875 L2.25,16.875 C1.62867966,16.875 1.125,16.3713203 1.125,15.75 L1.125,4.5 C1.125,3.87867966 1.62867966,3.375 2.25,3.375 Z M15.75,1.125 C16.3713203,1.125 16.875,1.62867966 16.875,2.25 L16.875,13.5 C16.875,14.079899 16.4362391,14.5573199 15.8725811,14.6183987 L15.75,14.625 L15.75,4.5 C15.75,3.25735931 14.7426407,2.25 13.5,2.25 L3.375,2.25 L3.38160135,2.12741886 C3.44268014,1.56376095 3.92010101,1.125 4.5,1.125 Z"/></clipPath><clipPath id="i4"><path d="M14,3.06666667 L14,4.4 L0,4.4 L0,3.06666667 L14,3.06666667 Z M11.3,0 C11.8522847,0 12.3,0.44771525 12.3,1 C12.3,1.55228475 11.8522847,2 11.3,2 C10.7477153,2 10.3,1.55228475 10.3,1 C10.3,0.44771525 10.7477153,0 11.3,0 Z M8.75,0.4 C9.0721661,0.4 9.33333333,0.698476833 9.33333333,1.06666667 C9.33333333,1.4348565 9.0721661,1.73333333 8.75,1.73333333 L1.75,1.73333333 C1.4278339,1.73333333 1.16666667,1.4348565 1.16666667,1.06666667 C1.16666667,0.698476833 1.4278339,0.4 1.75,0.4 L8.75,0.4 Z"/></clipPath></defs><g transform="translate(-44.0 -499.0)"><g clip-path="url(#i0)"><g transform="translate(44.0 499.0)"><g clip-path="url(#i1)"><g transform="translate(3.0 3.0)"><g clip-path="url(#i2)"><polygon points="0,0 18,0 18,18 0,18 0,0" stroke="none"/></g><g clip-path="url(#i3)"><path d="M15.75,15.75 L14.95125,14.956875 C15.1624218,14.7439096 15.4500877,14.6243865 15.75,14.625 C16.3713203,14.625 16.875,14.1213203 16.875,13.5 L16.875,2.25 C16.875,1.62867966 16.3713203,1.125 15.75,1.125 L4.5,1.125 C3.87867966,1.125 3.375,1.62867966 3.375,2.25 L3.375,2.345625 C3.375,2.655 3.25125,2.935125 3.04875,3.13875 L2.25,2.345625 L2.25,2.25 C2.25,1.00735931 3.25735931,0 4.5,0 L15.75,0 C16.9926407,0 18,1.00735931 18,2.25 L18,13.5 C18,14.7426407 16.9926407,15.75 15.75,15.75 Z M1.125,4.5 L1.125,15.75 C1.125,16.3713203 1.62867966,16.875 2.25,16.875 L13.5,16.875 C14.1213203,16.875 14.625,16.3713203 14.625,15.75 L14.625,4.5 C14.625,3.87867966 14.1213203,3.375 13.5,3.375 L2.25,3.375 C1.62867966,3.375 1.125,3.87867966 1.125,4.5 Z M13.5,2.25 C14.7426407,2.25 15.75,3.25735931 15.75,4.5 L15.75,15.75 C15.75,16.9926407 14.7426407,18 13.5,18 L2.25,18 C1.00735931,18 0,16.9926407 0,15.75 L0,4.5 C0,3.25735931 1.00735931,2.25 2.25,2.25 L13.5,2.25 Z" stroke="#505050" stroke-width="0.6" stroke-miterlimit="5"/></g><g transform="translate(0.900000000000091 4.5)"><g clip-path="url(#i4)"><polygon points="0,0 14,0 14,4.4 0,4.4 0,0" stroke="none"/></g></g></g></g></g></g></g></svg>