<?xml version="1.0" encoding="UTF-8"?><svg version="1.1" width="25px" height="25px" viewBox="0 0 25.0 25.0" xmlns="http://www.w3.org/2000/svg" xmlns:xlink="http://www.w3.org/1999/xlink"><defs><clipPath id="i0"><path d="M1440,0 L1440,1255 L0,1255 L0,0 L1440,0 Z"></path></clipPath><clipPath id="i1"><path d="M24,0 L24,24 L0,24 L0,0 L24,0 Z"></path></clipPath><clipPath id="i2"><path d="M13.5,0 C14.7426407,0 15.75,1.00735931 15.75,2.25 L15.75,13.5 C15.75,14.7426407 14.7426407,15.75 13.5,15.75 L12.70125,14.956875 C12.9124218,14.7439096 13.2000877,14.6243865 13.5,14.625 C14.1213203,14.625 14.625,14.1213203 14.625,13.5 L14.625,2.25 C14.625,1.62867966 14.1213203,1.125 13.5,1.125 L2.25,1.125 C1.62867966,1.125 1.125,1.62867966 1.125,2.25 L1.125,2.345625 C1.125,2.655 1.00125,2.935125 0.79875,3.13875 L0,2.345625 L0,2.25 C0,1.00735931 1.00735931,0 2.25,0 L13.5,0 Z"></path></clipPath><clipPath id="i3"><path d="M17.05,-1.3 L17.05,17.05 L-1.3,17.05 L-1.3,-1.3 L17.05,-1.3 Z M13.5,0 L2.25,0 C1.00735931,0 0,1.00735931 0,2.25 L0,2.345625 L0.79875,3.13875 C1.00125,2.935125 1.125,2.655 1.125,2.345625 L1.125,2.25 C1.125,1.62867966 1.62867966,1.125 2.25,1.125 L13.5,1.125 C14.1213203,1.125 14.625,1.62867966 14.625,2.25 L14.625,13.5 C14.625,14.1213203 14.1213203,14.625 13.5,14.625 C13.2000877,14.6243865 12.9124218,14.7439096 12.70125,14.956875 L13.5,15.75 C14.7426407,15.75 15.75,14.7426407 15.75,13.5 L15.75,2.25 C15.75,1.00735931 14.7426407,0 13.5,0 Z"></path></clipPath><clipPath id="i4"><path d="M12.375,0 C12.9963203,0 13.5,0.503679656 13.5,1.125 L13.5,12.375 C13.5,12.9963203 12.9963203,13.5 12.375,13.5 L1.125,13.5 C0.503679656,13.5 0,12.9963203 0,12.375 L0,1.125 C0,0.503679656 0.503679656,0 1.125,0 Z"></path></clipPath><clipPath id="i5"><path d="M14.8,-1.3 L14.8,14.8 L-1.3,14.8 L-1.3,-1.3 L14.8,-1.3 Z M12.375,0 L1.125,0 C0.503679656,0 0,0.503679656 0,1.125 L0,12.375 C0,12.9963203 0.503679656,13.5 1.125,13.5 L12.375,13.5 C12.9963203,13.5 13.5,12.9963203 13.5,12.375 L13.5,1.125 C13.5,0.503679656 12.9963203,0 12.375,0 Z"></path></clipPath><clipPath id="i6"><path d="M13.5,0 C14.7426407,0 15.75,1.00735931 15.75,2.25 L15.75,13.5 C15.75,14.7426407 14.7426407,15.75 13.5,15.75 L2.25,15.75 C1.00735931,15.75 0,14.7426407 0,13.5 L0,2.25 C0,1.00735931 1.00735931,0 2.25,0 L13.5,0 Z"></path></clipPath><clipPath id="i7"><path d="M17.05,-1.3 L17.05,17.05 L-1.3,17.05 L-1.3,-1.3 L17.05,-1.3 Z M13.5,0 L2.25,0 C1.00735931,0 0,1.00735931 0,2.25 L0,13.5 C0,14.7426407 1.00735931,15.75 2.25,15.75 L13.5,15.75 C14.7426407,15.75 15.75,14.7426407 15.75,13.5 L15.75,2.25 C15.75,1.00735931 14.7426407,0 13.5,0 Z"></path></clipPath><clipPath id="i8"><path d="M14,3.06666667 L14,4.4 L0,4.4 L0,3.06666667 L14,3.06666667 Z M11.3,0 C11.8522847,0 12.3,0.44771525 12.3,1 C12.3,1.55228475 11.8522847,2 11.3,2 C10.7477153,2 10.3,1.55228475 10.3,1 C10.3,0.44771525 10.7477153,0 11.3,0 Z M8.75,0.4 C9.0721661,0.4 9.33333333,0.698476833 9.33333333,1.06666667 C9.33333333,1.4348565 9.0721661,1.73333333 8.75,1.73333333 L1.75,1.73333333 C1.4278339,1.73333333 1.16666667,1.4348565 1.16666667,1.06666667 C1.16666667,0.698476833 1.4278339,0.4 1.75,0.4 L8.75,0.4 Z"></path></clipPath></defs><g transform="translate(-786.0 -552.0)"><g clip-path="url(#i0)"><g transform="translate(786.105263072528 552.1052631599507)"><g clip-path="url(#i1)"><g transform="translate(3.0 3.0)"><g transform="translate(2.25 0.0)"><g clip-path="url(#i2)"><polygon points="0,0 15.75,0 15.75,15.75 0,15.75 0,0" stroke="none" fill="#44B044"></polygon></g><g clip-path="url(#i3)"><path d="M13.5,15.75 L12.70125,14.956875 C12.9124218,14.7439096 13.2000877,14.6243865 13.5,14.625 C14.1213203,14.625 14.625,14.1213203 14.625,13.5 L14.625,2.25 C14.625,1.62867966 14.1213203,1.125 13.5,1.125 L2.25,1.125 C1.62867966,1.125 1.125,1.62867966 1.125,2.25 L1.125,2.345625 C1.125,2.655 1.00125,2.935125 0.79875,3.13875 L0,2.345625 L0,2.25 C0,1.00735931 1.00735931,0 2.25,0 L13.5,0 C14.7426407,0 15.75,1.00735931 15.75,2.25 L15.75,13.5 C15.75,14.7426407 14.7426407,15.75 13.5,15.75 Z" stroke="#44B044" stroke-width="0.6" fill="none" stroke-miterlimit="5"></path></g></g><g transform="translate(1.125 3.375)"><g clip-path="url(#i4)"><polygon points="0,0 13.5,0 13.5,13.5 0,13.5 0,0" stroke="none" fill="#505050"></polygon></g><g clip-path="url(#i5)"><path d="M0,1.125 L0,12.375 C0,12.9963203 0.503679656,13.5 1.125,13.5 L12.375,13.5 C12.9963203,13.5 13.5,12.9963203 13.5,12.375 L13.5,1.125 C13.5,0.503679656 12.9963203,0 12.375,0 L1.125,0 C0.503679656,0 0,0.503679656 0,1.125 Z" stroke="#505050" stroke-width="0.6" fill="none" stroke-miterlimit="5"></path></g></g><g transform="translate(0.0 2.25)"><g clip-path="url(#i6)"><polygon points="0,0 15.75,0 15.75,15.75 0,15.75 0,0" stroke="none" fill="#44B044"></polygon></g><g clip-path="url(#i7)"><path d="M13.5,0 C14.7426407,0 15.75,1.00735931 15.75,2.25 L15.75,13.5 C15.75,14.7426407 14.7426407,15.75 13.5,15.75 L2.25,15.75 C1.00735931,15.75 0,14.7426407 0,13.5 L0,2.25 C0,1.00735931 1.00735931,0 2.25,0 L13.5,0 Z" stroke="#44B044" stroke-width="0.6" fill="none" stroke-miterlimit="5"></path></g></g></g><g transform="translate(3.900000000000091 7.499999999999963)"><g clip-path="url(#i8)"><polygon points="0,0 14,0 14,4.4 0,4.4 0,0" stroke="none" fill="#FFFFFF"></polygon></g></g></g></g></g></g></svg>