<?xml version="1.0" encoding="UTF-8"?><svg version="1.1" width="24px" height="24px" viewBox="0 0 24.0 24.0" xmlns="http://www.w3.org/2000/svg" xmlns:xlink="http://www.w3.org/1999/xlink"><defs><clipPath id="i0"><path d="M1440,0 L1440,1179 L0,1179 L0,0 L1440,0 Z"></path></clipPath><clipPath id="i1"><path d="M24,0 L24,24 L0,24 L0,0 L24,0 Z"></path></clipPath><clipPath id="i2"><path d="M16.875,0 C18.5982143,0 20,1.4844581 20,3.3093015 L20,12.5517078 C20,14.3765512 18.5982143,15.8610093 16.875,15.8610093 L12.9575893,15.8610093 L15.7053571,18.3335303 C16.0825893,18.6715518 16.1294643,19.2672261 15.8102679,19.6667061 C15.6339286,19.8865382 15.3816964,20 15.1294643,20 C14.9263393,20 14.7209821,19.9267226 14.5535714,19.7754403 L10.3816964,16.031202 C10.1852679,15.853918 9.81026786,15.853918 9.61383929,16.031202 L5.44196429,19.7754403 C5.06473214,20.111098 4.50223214,20.0638222 4.18303571,19.6643423 C3.86607143,19.2648623 3.91071429,18.669188 4.28794643,18.3311665 L7.04241071,15.8610093 L3.125,15.8610093 C1.40178571,15.8610093 0,14.3765512 0,12.5517078 L0,3.3093015 C0,1.4844581 1.40178571,0 3.125,0 Z M16.875,1.89102943 L3.125,1.89102943 C2.38616071,1.89102943 1.78571429,2.52688807 1.78571429,3.3093015 L1.78571429,12.5517078 C1.78571429,13.3341213 2.38616071,13.9699799 3.125,13.9699799 L16.875,13.9699799 C17.6138393,13.9699799 18.2142857,13.3341213 18.2142857,12.5517078 L18.2142857,3.3093015 C18.2142857,2.52688807 17.6138393,1.89102943 16.875,1.89102943 Z"></path></clipPath><clipPath id="i3"><path d="M2.8064661,0 C4.35339021,0 5.6129322,1.4025 5.6129322,3.125 C5.6129322,4.8475 4.35339021,6.25 2.8064661,6.25 C1.25954198,6.25 0,4.8475 0,3.125 C0,1.4025 1.25954198,0 2.8064661,0 Z M9.24337674,4.25 C9.73731477,4.25 10.1414459,4.6975 10.1414459,5.25 C10.1414459,5.8025 9.73955995,6.25 9.24337674,6.25 L8.14324203,6.25 C7.64705882,6.25 7.24517288,5.8025 7.24517288,5.25 C7.24517288,4.6975 7.64705882,4.25 8.14324203,4.25 Z M2.8064661,2 C2.24966322,2 1.7961383,2.505 1.7961383,3.125 C1.7961383,3.745 2.24966322,4.25 2.8064661,4.25 C3.36326897,4.25 3.81679389,3.745 3.81679389,3.125 C3.81679389,2.505 3.36326897,2 2.8064661,2 Z M12.0431073,0 C12.5392905,0 12.9411765,0.4475 12.9411765,1 C12.9411765,1.5525 12.5392905,2 12.0431073,2 L8.14324203,2 C7.64705882,2 7.24517288,1.5525 7.24517288,1 C7.24517288,0.4475 7.64705882,0 8.14324203,0 Z"></path></clipPath></defs><g transform="translate(-24.0 -931.0)"><g clip-path="url(#i0)"><g transform="translate(24.0 931.0)"><g clip-path="url(#i1)"><g transform="translate(2.0 2.0)"><g clip-path="url(#i2)"><polygon points="0,0 20,0 20,20 0,20 0,0" stroke="none" fill="#505050"></polygon></g><g transform="translate(3.5294117647058556 5.0)"><g clip-path="url(#i3)"><polygon points="0,0 12.9411765,0 12.9411765,6.25 0,6.25 0,0" stroke="none" fill="#505050"></polygon></g></g></g></g></g></g></g></svg>