<?xml version="1.0" encoding="UTF-8"?><svg version="1.1" width="24px" height="24px" viewBox="0 0 24.0 24.0" xmlns="http://www.w3.org/2000/svg" xmlns:xlink="http://www.w3.org/1999/xlink"><defs><clipPath id="i0"><path d="M1440,0 L1440,1255 L0,1255 L0,0 L1440,0 Z"></path></clipPath><clipPath id="i1"><path d="M24,0 L24,24 L0,24 L0,0 L24,0 Z"></path></clipPath><clipPath id="i2"><path d="M16.5231325,12.873253 C17.3342169,12.873253 17.9978313,13.5433735 17.9978313,14.3674699 L17.9978313,16.5057831 C17.9978313,17.3298795 17.3342169,18 16.5231325,18 L1.4746988,18 C0.663614458,18 0,17.3298795 0,16.5057831 L0,14.3674699 C0,13.5433735 0.663614458,12.873253 1.4746988,12.873253 L16.5231325,12.873253 Z M7.37566265,0 C8.18674699,0 8.85036145,0.670120482 8.85036145,1.49421687 L8.85036145,8.87421687 C8.85036145,9.69614458 8.18891566,10.3684337 7.37566265,10.3684337 L1.4746988,10.3684337 C0.663614458,10.3684337 0,9.69831325 0,8.87421687 L0,1.49421687 C0,0.670120482 0.663614458,0 1.4746988,0 L7.37566265,0 Z M16.8375904,7.92 C17.4773494,7.92 18,8.44915663 18,9.09759036 L18,9.13445783 C17.9978313,9.78289157 17.473012,10.3120482 16.8375904,10.3120482 L13.1204819,10.3120482 C12.4807229,10.3120482 11.9580723,9.78289157 11.9580723,9.13445783 L11.9580723,9.09759036 C11.9580723,8.44915663 12.4807229,7.92 13.1204819,7.92 L16.8375904,7.92 Z M16.8375904,3.95783133 C17.4773494,3.95783133 18,4.48698795 18,5.13542169 L18,5.17228916 C17.9978313,5.82072289 17.473012,6.34987952 16.8375904,6.34987952 L13.1204819,6.34987952 C12.4807229,6.34987952 11.9580723,5.82072289 11.9580723,5.17228916 L11.9580723,5.13542169 C11.9580723,4.48698795 12.4807229,3.95783133 13.1204819,3.95783133 L16.8375904,3.95783133 Z M16.8375904,0 C17.4773494,0 18,0.529156627 18,1.17759036 L18,1.21445783 C17.9978313,1.86289157 17.473012,2.39204819 16.8375904,2.39204819 L13.1204819,2.39204819 C12.4807229,2.39204819 11.9580723,1.86289157 11.9580723,1.21445783 L11.9580723,1.17759036 C11.9580723,0.529156627 12.4807229,0 13.1204819,0 L16.8375904,0 Z"></path></clipPath></defs><g transform="translate(-284.0 -165.0)"><g clip-path="url(#i0)"><g transform="translate(284.0 165.0)"><g clip-path="url(#i1)"><g transform="translate(2.999999999999986 2.9999999999999947)"><g clip-path="url(#i2)"><polygon points="0,0 18,0 18,18 0,18 0,0" stroke="none" fill="#44B044"></polygon></g></g></g></g></g></g></svg>