<?xml version="1.0" encoding="UTF-8"?><svg version="1.1" width="24px" height="24px" viewBox="0 0 24.0 24.0" xmlns="http://www.w3.org/2000/svg" xmlns:xlink="http://www.w3.org/1999/xlink"><defs><clipPath id="i0"><path d="M1440,0 L1440,1168 L0,1168 L0,0 L1440,0 Z"></path></clipPath><clipPath id="i1"><path d="M12.3645,0.017402479 C12.7885,-0.0455979604 13.2105,0.0639028033 13.5195,0.322404606 C13.825,0.577906388 14,0.961409063 14,1.37391194 L14,10.422475 C14,11.6814838 12.9555,12.702491 11.6665,12.702491 C10.378,12.702491 9.3335,11.6814838 9.3335,10.422475 C9.3335,9.16346627 10.378,8.14245915 11.6665,8.14245915 C12.1269592,8.14164813 12.5776105,8.27547148 12.963,8.52746183 L12.963,3.9924302 L4.6665,5.24943897 L4.6665,11.7199841 C4.6665,12.9794929 3.622,14 2.3335,14 C1.045,14 0,12.9794929 0,11.7204841 C0,10.4609753 1.0445,9.4404682 2.3335,9.4399682 C2.79378903,9.4392547 3.24425289,9.57307398 3.6295,9.82497088 L3.6295,2.78842181 C3.6295,1.97641614 4.2785,1.24241102 5.1055,1.11741015 Z M2.3335,10.4539753 C1.6185,10.4539753 1.037,11.0214792 1.037,11.7204841 C1.037,12.418989 1.6185,12.9869929 2.3335,12.9869929 C3.0485,12.9869929 3.6295,12.418989 3.6295,11.7204841 C3.6295,11.0214792 3.0485,10.4539753 2.3335,10.4539753 Z M11.6665,9.15546621 C10.9515,9.15546621 10.3705,9.72347017 10.3705,10.421975 C10.3705,11.1204799 10.9515,11.6884839 11.6665,11.6884839 C12.3815,11.6884839 12.963,11.1204799 12.963,10.421975 C12.963,9.72347017 12.3815,9.15546621 11.6665,9.15546621 Z M12.6171719,1.01252661 L12.524,1.01840946 L5.2645,2.11841713 C4.9465,2.16691747 4.6665,2.47991965 4.6665,2.78842181 L4.6665,4.22343181 L12.963,2.96642305 L12.963,1.37391194 C12.963,1.25441111 12.922,1.15691043 12.844,1.09190997 C12.7655,1.02540951 12.6525,0.999409328 12.524,1.01840946 Z"></path></clipPath></defs><g transform="translate(-1070.0 -1003.0)"><g clip-path="url(#i0)"><g transform="translate(1038.0 817.0)"><g transform="translate(32.0 186.0)"><g transform="translate(5.0 5.0)"><g clip-path="url(#i1)"><polygon points="0,0 14,0 14,14 0,14 0,0" stroke="none" fill="#000000"></polygon></g></g></g></g></g></g></svg>