<?xml version="1.0" encoding="UTF-8"?><svg version="1.1" width="24px" height="24px" viewBox="0 0 24.0 24.0" xmlns="http://www.w3.org/2000/svg" xmlns:xlink="http://www.w3.org/1999/xlink"><defs><clipPath id="i0"><path d="M1440,0 L1440,1168 L0,1168 L0,0 L1440,0 Z"></path></clipPath><clipPath id="i1"><path d="M5.73198902,0.118177779 C6.0049342,-0.039392593 6.34136315,-0.039392593 6.61437848,0.118177779 C6.88746395,0.275748151 7.05553813,0.566948838 7.05553813,0.882089582 C7.05553813,1.19723033 6.88746395,1.48843101 6.61437848,1.64593138 C6.3414333,1.80350176 6.00500434,1.80350176 5.73198902,1.64593138 C5.45897369,1.48843101 5.29082936,1.19723033 5.29082936,0.882089582 C5.29082936,0.566948838 5.45904384,0.275748151 5.73198902,0.118177779 Z M3.08573256,0.118177779 C3.35874789,-0.039392593 3.6951067,-0.039392593 3.96805187,0.118177779 C4.24113735,0.275748151 4.40928168,0.566948838 4.40928168,0.882089582 C4.40928168,1.36922073 4.01420914,1.76416166 3.52689222,1.76416166 C3.0395753,1.76416166 2.64450276,1.36922073 2.64450276,0.882089582 C2.64450276,0.566948838 2.81271724,0.275748151 3.08573256,0.118177779 Z M0.441229803,0.118177779 C0.714174981,-0.039392593 1.05060394,-0.039392593 1.32361926,0.118177779 C1.59663459,0.275748151 1.76477892,0.566948838 1.76477892,0.882089582 C1.76477892,1.19723033 1.59663459,1.48843101 1.32361926,1.64593138 C1.05060394,1.80350176 0.714245129,1.80350176 0.441229803,1.64593138 C0.168144331,1.48843101 0,1.19723033 0,0.882089582 C0,0.566948838 0.168214478,0.275748151 0.441229803,0.118177779 Z"></path></clipPath><clipPath id="i2"><path d="M5.44613671,0.178839403 C7.19920094,-0.212671521 8.86759675,0.0414990792 10.4396796,0.913141136 C10.6318145,1.01954139 10.7200604,1.19839181 10.6825314,1.39516227 C10.6483694,1.5746427 10.5000769,1.71338302 10.3094852,1.74285309 C10.1960562,1.76035314 10.0957448,1.72367305 9.99866024,1.66886292 C9.43172554,1.34819216 8.82817367,1.12671164 8.19017923,0.99546133 C5.41513137,0.424399983 2.52875892,1.92296352 1.39776558,4.52031965 C0.986979929,5.46378188 0.816450573,6.4472142 0.892350517,7.47229662 C1.07796166,9.97893253 2.82716776,12.1496377 5.2338694,12.8640593 C8.51840089,13.8392316 11.9428773,11.9765972 12.8845417,8.68280947 C13.3498322,7.05558563 13.1514541,5.49010194 12.334723,4.00595844 C12.238831,3.83165802 12.2201716,3.66197762 12.3374588,3.49516723 C12.5250341,3.2281166 12.9111978,3.25240666 13.0778691,3.54164734 C13.3243685,3.96941835 13.5197302,4.42014941 13.6694958,4.89055052 C13.9602585,5.80391268 14.0607803,6.73869488 13.9646778,7.69125713 C13.6775628,10.5376738 11.7017792,12.9159295 8.96671562,13.7165914 C5.09588863,14.849684 1.06084559,12.4761184 0.170178684,8.54105914 C0.0550661075,8.03257794 0,7.51681672 0,6.99524549 C0.000771692896,3.7349178 2.26598518,0.889061079 5.44613671,0.178839403 Z"></path></clipPath></defs><g transform="translate(-1070.0 -1083.0)"><g clip-path="url(#i0)"><g transform="translate(1038.0 817.0)"><g transform="translate(32.0 266.0)"><g transform="translate(5.0 5.0)"><g transform="translate(3.4718262451840465 6.125825938000617)"><g clip-path="url(#i1)"><polygon points="0,0 7.05553813,0 7.05553813,1.76416166 0,1.76416166 0,0" stroke="none" fill="#000000"></polygon></g></g><g clip-path="url(#i2)"><polygon points="0,2.22044605e-16 14,2.22044605e-16 14,14 0,14 0,2.22044605e-16" stroke="none" fill="#000000"></polygon></g><path d="M13.6694958,4.89055052 C13.5197302,4.42014941 13.3243685,3.96941835 13.0778691,3.54164734 C12.9111978,3.25240666 12.5250341,3.2281166 12.3374588,3.49516723 C12.2201716,3.66197762 12.238831,3.83165802 12.334723,4.00595844 C13.1514541,5.49010194 13.3498322,7.05558563 12.8845417,8.68280947 C11.9428773,11.9765972 8.51840089,13.8392316 5.2338694,12.8640593 C2.82716776,12.1496377 1.07796166,9.97893253 0.892350517,7.47229662 C0.816450573,6.4472142 0.986979929,5.46378188 1.39776558,4.52031965 C2.52875892,1.92296352 5.41513137,0.424399983 8.19017923,0.99546133 C8.82817367,1.12671164 9.43172554,1.34819216 9.99866024,1.66886292 C10.0957448,1.72367305 10.1960562,1.76035314 10.3094852,1.74285309 C10.5000769,1.71338302 10.6483694,1.5746427 10.6825314,1.39516227 C10.7200604,1.19839181 10.6318145,1.01954139 10.4396796,0.913141136 C8.86759675,0.0414990792 7.19920094,-0.212671521 5.44613671,0.178839403 C2.26598518,0.889061079 0.000771692896,3.7349178 0,6.99524549 C0,7.51681672 0.0550661075,8.03257794 0.170178684,8.54105914 C1.06084559,12.4761184 5.09588863,14.849684 8.96671562,13.7165914 C11.7017792,12.9159295 13.6775628,10.5376738 13.9646778,7.69125713 C14.0607803,6.73869488 13.9602585,5.80391268 13.6694958,4.89055052 Z" stroke="#000000" stroke-width="0.3" fill="none" stroke-miterlimit="10"></path></g></g></g></g></g></svg>