<?xml version="1.0" encoding="UTF-8"?><svg version="1.1" width="24px" height="24px" viewBox="0 0 24.0 24.0" xmlns="http://www.w3.org/2000/svg" xmlns:xlink="http://www.w3.org/1999/xlink"><defs><clipPath id="i0"><path d="M1440,0 L1440,1255 L0,1255 L0,0 L1440,0 Z"/></clipPath><clipPath id="i1"><path d="M14.6384615,0 C15.0759737,0 15.4307692,0.354925577 15.4307692,0.792598031 L15.4307692,16.0289485 C15.4307692,16.466621 15.0759737,16.8215466 14.6384615,16.8215466 L0.792307692,16.8215466 C0.354795563,16.8215466 0,16.466621 0,16.0289485 L0,0.792598031 C0,0.354925577 0.354795563,0 0.792307692,0 L14.6384615,0 Z M13.846,1.58429122 L1.584,1.58429122 L1.584,15.2362921 L13.846,15.2362921 L13.846,1.58429122 Z"/></clipPath><clipPath id="i2"><path d="M15.3091346,0 C15.7466467,0 16.1014423,0.354925577 16.1014423,0.792598031 L16.1014423,16.7215099 C16.1014423,17.1591824 15.7466467,17.514108 15.3091346,17.514108 C14.8716225,17.514108 14.5168269,17.1591824 14.5168269,16.7215099 L14.5159912,1.58458045 L0.792307692,1.58519606 C0.391254908,1.58519606 0.0597070145,1.28695999 0.00723412112,0.900134741 L0,0.792598031 C0,0.354925577 0.354795563,0 0.792307692,0 Z"/></clipPath><clipPath id="i3"><path d="M0.692307692,0 C1.07459135,0 1.38461538,0.2686875 1.38461538,0.6 L1.38461538,4.8 L0,4.8 L0,0.6 C0,0.2686875 0.310024038,0 0.692307692,0 Z"/></clipPath><clipPath id="i4"><path d="M0.692307692,0 C1.07459135,0 1.38461538,0.2686875 1.38461538,0.6 L1.38461538,3.6 L0,3.6 L0,0.6 C0,0.2686875 0.310024038,0 0.692307692,0 Z"/></clipPath><clipPath id="i5"><path d="M0.692307692,0 C1.07459135,0 1.38461538,0.2686875 1.38461538,0.6 L1.38461538,6 L0,6 L0,0.6 C0,0.2686875 0.310024038,0 0.692307692,0 Z"/></clipPath><clipPath id="i6"><path d="M9.57644686,0.308539921 C9.78846609,0.626901734 9.70257666,1.05672264 9.38433147,1.26903599 L5.23048532,4.03928154 C5.11674908,4.1150804 4.98313541,4.155502 4.84647089,4.155502 C4.65024493,4.155502 4.45639878,4.07239463 4.32053339,3.91353836 L2.76911513,2.10313961 L1.2179132,3.91353836 C0.969115126,4.20398129 0.532095895,4.23752724 0.241759356,3.98863799 C-0.0485771821,3.73974874 -0.082110836,3.30256937 0.166687241,3.01212643 L2.24361032,0.588161581 C2.37517404,0.434674108 2.56721725,0.346365109 2.76933147,0.346414372 C2.9714457,0.346365109 3.1634889,0.434674108 3.29505263,0.588161581 L4.97281705,2.54616248 L8.61630263,0.116354137 C8.93433147,-0.095742788 9.36421128,-0.00982189103 9.57644686,0.308539921 Z"/></clipPath></defs><g transform="translate(-398.0 -700.0)"><g clip-path="url(#i0)"><g transform="translate(398.0 700.0)"><g transform="translate(2.900000000000489 1.8999633552866708)"><g transform="translate(0.0 3.2784900798474155)"><g clip-path="url(#i1)"><polygon points="0,0 15.4307692,0 15.4307692,16.8215466 0,16.8215466 0,0" stroke="none"/></g></g><g transform="translate(2.431008780882621 0.0)"><g clip-path="url(#i2)"><polygon points="0,0 16.1014423,0 16.1014423,17.514108 0,17.514108 0,0" stroke="none"/></g></g><g transform="translate(2.828634431751198 12.16584316344597)"><g clip-path="url(#i3)"><polygon points="0,0 1.38461538,0 1.38461538,4.8 0,4.8 0,0" stroke="none"/></g></g><g transform="translate(6.982480585597841 13.36584316344606)"><g clip-path="url(#i4)"><polygon points="0,0 1.38461538,0 1.38461538,3.6 0,3.6 0,0" stroke="none"/></g></g><g transform="translate(11.13632673944358 10.96584316344615)"><g clip-path="url(#i5)"><polygon points="0,0 1.38461538,0 1.38461538,6 0,6 0,0" stroke="none"/></g></g><g transform="translate(2.8287500754167922 6.810341165689806)"><g clip-path="url(#i6)"><polygon points="-2.77555756e-17,-1.38777878e-17 9.69275837,-1.38777878e-17 9.69275837,4.155502 -2.77555756e-17,4.155502 -2.77555756e-17,-1.38777878e-17" stroke="none"/></g></g></g></g></g></g></svg>