<?xml version="1.0" encoding="UTF-8"?><svg version="1.1" width="24px" height="24px" viewBox="0 0 24.0 24.0" xmlns="http://www.w3.org/2000/svg" xmlns:xlink="http://www.w3.org/1999/xlink"><defs><clipPath id="i0"><path d="M1440,0 L1440,1255 L0,1255 L0,0 L1440,0 Z"></path></clipPath><clipPath id="i1"><path d="M14.6384615,3.27849008 C15.0759737,3.27849008 15.4307692,3.63341566 15.4307692,4.07108811 L15.4307692,19.3074386 C15.4307692,19.7451111 15.0759737,20.1000366 14.6384615,20.1000366 L0.792307692,20.1000366 C0.354795563,20.1000366 0,19.7451111 0,19.3074386 L0,4.07108811 C0,3.63341566 0.354795563,3.27849008 0.792307692,3.27849008 L14.6384615,3.27849008 Z M17.7401434,0 C18.1776555,0 18.5324511,0.354925577 18.5324511,0.792598031 L18.5324511,16.7215099 C18.5324511,17.1591824 18.1776555,17.514108 17.7401434,17.514108 C17.3026313,17.514108 16.9478357,17.1591824 16.9478357,16.7215099 L16.947,1.58458045 L3.22331647,1.58519606 C2.82226369,1.58519606 2.4907158,1.28695999 2.4382429,0.900134741 L2.43100878,0.792598031 C2.43100878,0.354925577 2.78580434,0 3.22331647,0 L17.7401434,0 Z M3.52094212,12.1658432 C3.13865847,12.1658432 2.82863443,12.4345307 2.82863443,12.7658432 L2.82863443,16.9658432 L4.21324982,16.9658432 L4.21324982,12.7658432 C4.21324982,12.4345307 3.90322578,12.1658432 3.52094212,12.1658432 Z M7.67478828,13.3658432 C7.29250462,13.3658432 6.98248059,13.6345307 6.98248059,13.9658432 L6.98248059,16.9658432 L8.36709597,16.9658432 L8.36709597,13.9658432 C8.36709597,13.6345307 8.05707193,13.3658432 7.67478828,13.3658432 Z M11.8286344,10.9658432 C11.4463508,10.9658432 11.1363267,11.2345307 11.1363267,11.5658432 L11.1363267,16.9658432 L12.5209421,16.9658432 L12.5209421,11.5658432 C12.5209421,11.2345307 12.2109181,10.9658432 11.8286344,10.9658432 Z M11.4450527,6.9266953 L7.80156712,9.35650364 L6.1238027,7.39850275 C5.99223898,7.24501527 5.80019577,7.15670628 5.59808155,7.15675554 C5.39596732,7.15670628 5.20392412,7.24501527 5.07236039,7.39850275 L2.99543732,9.8224676 C2.74663924,10.1129105 2.78017289,10.5500899 3.07050943,10.7989792 C3.36084597,11.0478684 3.7978652,11.0143225 4.04666328,10.7238795 L5.5978652,8.91348078 L7.14928347,10.7238795 C7.28514885,10.8827358 7.47899501,10.9658432 7.67522097,10.9658432 C7.81188549,10.9658432 7.94549916,10.9254216 8.05923539,10.8496227 L12.2130815,8.07937716 C12.5313267,7.86706381 12.6172162,7.4372429 12.4051969,7.11888109 C12.1929614,6.80051927 11.7630815,6.71459838 11.4450527,6.9266953 Z"></path></clipPath></defs><g transform="translate(-283.0 -702.0)"><g clip-path="url(#i0)"><g transform="translate(283.00000008742245 702.0)"><g transform="translate(2.900000000000489 1.8999633552866708)"><g clip-path="url(#i1)"><polygon points="0,0 18.5324511,0 18.5324511,20.1000366 0,20.1000366 0,0" stroke="none" fill="#44B044"></polygon></g></g></g></g></g></svg>