<?xml version="1.0" encoding="UTF-8"?><svg version="1.1" width="24px" height="24px" viewBox="0 0 24.0 24.0" xmlns="http://www.w3.org/2000/svg" xmlns:xlink="http://www.w3.org/1999/xlink"><defs><clipPath id="i0"><path d="M1440,0 L1440,1183 L0,1183 L0,0 L1440,0 Z"></path></clipPath><clipPath id="i1"><path d="M11.5380559,0 C12.1727603,0 12.6918908,0.482105119 12.6918908,1.07134471 L12.6918908,5.35716382 L13.2688815,5.35716382 C14.2497217,5.35716382 14.999707,6.05353788 15,6.96432765 L15,10.1785085 C15,11.0892983 14.2498682,11.7856724 13.2691744,11.7856724 L12.6921837,11.7856724 L12.6921837,13.9286553 C12.6921837,14.5178949 12.1729068,15 11.5383489,15 L3.46165114,15 C2.82694674,15 2.30766977,14.5178949 2.30766977,13.9286553 L2.30766977,11.7856724 L1.73082557,11.7856724 C0.749985352,11.7856724 0,11.0892983 0,10.1785085 L0,6.96432765 C0,6.05353788 0.749985352,5.35716382 1.73067909,5.35716382 L2.30752329,5.35716382 L2.30752329,1.07134471 C2.30752329,0.482105119 2.82694674,0 3.46150466,0 Z M11.7478174,9.64283618 L3.26653776,9.64283618 L3.26653776,13.9286553 L11.7478174,13.9286553 L11.7478174,9.64283618 Z M13.467071,6.33194075 L1.56207887,6.33194075 C1.20495693,6.33194075 0.966777993,6.55721666 0.966777993,6.8952039 L0.966777993,10.2741958 C0.966777993,10.612183 1.20495693,10.8374589 1.56207887,10.8374589 L2.15723326,10.8374589 L2.15723326,9.71107937 C2.15723326,9.09160731 2.69306264,8.58469983 3.347835,8.58469983 L11.6813148,8.58469983 C12.3360872,8.58469983 12.8717701,9.09160731 12.8717701,9.71107937 L12.8717701,10.8374589 L13.467071,10.8374589 C13.8241929,10.8374589 14.0622253,10.612183 14.0622253,10.2741958 L14.0622253,6.8952039 C14.0622253,6.55721666 13.8241929,6.33194075 13.467071,6.33194075 Z M11.7478174,0.931189339 L3.26653776,0.931189339 L3.26653776,5.35716382 L11.7478174,5.35716382 L11.7478174,0.931189339 Z"></path></clipPath></defs><g transform="translate(-1352.0 -318.0)"><g clip-path="url(#i0)"><g transform="translate(425.0 304.0)"><g transform="translate(927.0 14.0)"><g transform="translate(5.0 5.0)"><g clip-path="url(#i1)"><polygon points="0,0 15,0 15,15 0,15 0,0" stroke="none" fill="#303033"></polygon></g><path d="M13.2688815,5.35716382 L12.6918908,5.35716382 L12.6918908,1.07134471 C12.6918908,0.482105119 12.1727603,0 11.5380559,0 L3.46150466,0 C2.82694674,0 2.30752329,0.482105119 2.30752329,1.07134471 L2.30752329,5.35716382 L1.73067909,5.35716382 C0.749985352,5.35716382 0,6.05353788 0,6.96432765 L0,10.1785085 C0,11.0892983 0.749985352,11.7856724 1.73082557,11.7856724 L2.30766977,11.7856724 L2.30766977,13.9286553 C2.30766977,14.5178949 2.82694674,15 3.46165114,15 L11.5383489,15 C12.1729068,15 12.6921837,14.5178949 12.6921837,13.9286553 L12.6921837,11.7856724 L13.2691744,11.7856724 C14.2498682,11.7856724 15,11.0892983 15,10.1785085 L15,6.96432765 C14.999707,6.05353788 14.2497217,5.35716382 13.2688815,5.35716382 Z M3.26653776,0.931189339 L11.7478174,0.931189339 L11.7478174,5.35716382 L3.26653776,5.35716382 L3.26653776,0.931189339 Z M11.7478174,13.9286553 L3.26653776,13.9286553 L3.26653776,9.64283618 L11.7478174,9.64283618 L11.7478174,13.9286553 Z M14.0622253,10.2741958 C14.0622253,10.612183 13.8241929,10.8374589 13.467071,10.8374589 L12.8717701,10.8374589 L12.8717701,9.71107937 C12.8717701,9.09160731 12.3360872,8.58469983 11.6813148,8.58469983 L3.347835,8.58469983 C2.69306264,8.58469983 2.15723326,9.09160731 2.15723326,9.71107937 L2.15723326,10.8374589 L1.56207887,10.8374589 C1.20495693,10.8374589 0.966777993,10.612183 0.966777993,10.2741958 L0.966777993,6.8952039 C0.966777993,6.55721666 1.20495693,6.33194075 1.56207887,6.33194075 L13.467071,6.33194075 C13.8241929,6.33194075 14.0622253,6.55721666 14.0622253,6.8952039 L14.0622253,10.2741958 Z" stroke="#303033" stroke-width="0.1" fill="none" stroke-miterlimit="10"></path></g></g></g></g></g></svg>