<?xml version="1.0" encoding="UTF-8"?><svg version="1.1" width="24px" height="24px" viewBox="0 0 24.0 24.0" xmlns="http://www.w3.org/2000/svg" xmlns:xlink="http://www.w3.org/1999/xlink"><defs><clipPath id="i0"><path d="M1440,0 L1440,1255 L0,1255 L0,0 L1440,0 Z"/></clipPath><clipPath id="i1"><path d="M23.9477883,0 L23.9477883,24 L0,24 L0,0 L23.9477883,0 Z"/></clipPath><clipPath id="i2"><path d="M3,8.00000039 C3.50697484,8.00005392 3.93368396,8.30373767 3.99300002,8.70670656 L4,8.80034712 L4,9.20052048 C3.999413,9.62397857 3.58678943,9.97378711 3.05860518,9.9986037 C2.53042092,10.0234203 2.06949096,9.71465544 2.00700001,9.29416105 L2,9.20052048 L2,8.80034712 C2,8.35832783 2.44771526,8.00000039 3,8.00000039 Z M2.99813011,1.94994143e-06 C4.47006278,-0.00163235527 5.72552794,1.02422809 5.96108598,2.42108202 C6.19664402,3.81793596 5.34261552,5.17258603 3.94553921,5.61811888 L3.85473869,5.64364829 L3.85473869,6.17647156 C3.8546814,6.59398004 3.52964964,6.94538738 3.09835331,6.99423588 L2.99813011,7.00000195 C2.56385111,7.00000195 2.19832841,6.68746546 2.14751777,6.27282445 L2.1415215,6.17647156 L2.1415215,4.94117803 C2.14157879,4.52366954 2.46661056,4.1722622 2.8979069,4.12341371 L2.99813011,4.117649 C3.6917467,4.117681 4.26019516,3.58846669 4.2824435,2.92197856 C4.30469184,2.25549042 3.77270862,1.69232444 3.08051716,1.64960003 C2.38832571,1.60687562 1.78580065,2.1000159 1.71921346,2.76376729 L1.71321721,2.88235547 C1.71321721,3.33717799 1.32970047,3.7058845 0.856608605,3.7058845 C0.383516736,3.7058845 0,3.33717799 0,2.88235547 C0,2.1179083 0.315873516,1.3847709 0.878131979,0.844225125 C1.44039044,0.303679351 2.20297657,1.94994143e-06 2.99813011,1.94994143e-06 Z"/></clipPath><clipPath id="i3"><path d="M12.6,1.32199168e-06 C12.838858,-0.000392338453 13.0680887,0.0871460472 13.2372,0.243335912 L17.604,4.28916789 C17.8572465,4.52336341 17.9996849,4.84109213 18,5.17250094 L18,19.166663 C18,19.6269001 17.5970563,20.0000013 17.1,20.0000013 L1.35,20.0000013 C0.604415587,20.0000013 0,19.4403522 0,18.7499964 L0,1.25000224 C0,0.55964653 0.604415587,1.32199168e-06 1.35,1.32199168e-06 Z M12.2265,1.66666876 L1.80000001,1.66666876 L1.80000001,18.3333299 L16.2,18.3333299 L16.2,5.34500088 L12.2265,1.66666876 Z"/></clipPath></defs><g transform="translate(-45.0 -317.0)"><g clip-path="url(#i0)"><g transform="translate(45.0000000000001 317.0)"><g clip-path="url(#i1)"><g transform="translate(3.0 2.0000000000000284)"><g transform="translate(6.0 6.0)"><g clip-path="url(#i2)"><polygon points="0,2.09170314e-14 6,2.09170314e-14 6,10 0,10 0,2.09170314e-14" stroke="none"/></g></g><g clip-path="url(#i3)"><polygon points="0,1.41830991e-14 18,1.41830991e-14 18,20.0000013 0,20.0000013 0,1.41830991e-14" stroke="none"/></g></g></g></g></g></g></svg>