<?xml version="1.0" encoding="UTF-8"?><svg version="1.1" width="24px" height="24px" viewBox="0 0 24.0 24.0" xmlns="http://www.w3.org/2000/svg" xmlns:xlink="http://www.w3.org/1999/xlink"><defs><clipPath id="i0"><path d="M1440,0 L1440,1255 L0,1255 L0,0 L1440,0 Z"></path></clipPath><clipPath id="i1"><path d="M24,0 L24,24 L0,24 L0,0 L24,0 Z"></path></clipPath><clipPath id="i2"><path d="M12.6,1.32199165e-06 C12.838858,-0.000392338453 13.0680887,0.0871460472 13.2372,0.243335912 L17.604,4.28916789 C17.8572465,4.52336341 17.9996849,4.84109213 18,5.17250094 L18,19.166663 C18,19.6269001 17.5970563,20.0000013 17.1,20.0000013 L1.35,20.0000013 C0.604415587,20.0000013 0,19.4403522 0,18.7499964 L0,1.25000224 C0,0.55964653 0.604415587,1.32199165e-06 1.35,1.32199165e-06 L12.6,1.32199165e-06 Z M9,14.0000004 C8.44771526,14.0000004 8,14.3583278 8,14.8003471 L8,15.2005205 L8.00700001,15.294161 C8.06949096,15.7146554 8.53042092,16.0234203 9.05860518,15.9986037 C9.58678943,15.9737871 9.999413,15.6239786 10,15.2005205 L10,14.8003471 L9.99300002,14.7067066 C9.93368396,14.3037377 9.50697484,14.0000539 9,14.0000004 Z M8.99813011,6.00000195 C8.20297657,6.00000195 7.44039044,6.30367935 6.87813198,6.84422513 C6.31587352,7.3847709 6,8.1179083 6,8.88235547 C6,9.33717799 6.38351674,9.7058845 6.85660861,9.7058845 C7.32970047,9.7058845 7.71321721,9.33717799 7.71321721,8.88235547 L7.71921346,8.76376729 C7.78580065,8.1000159 8.38832571,7.60687562 9.08051716,7.64960003 C9.77270862,7.69232444 10.3046918,8.25549042 10.2824435,8.92197856 C10.2601952,9.58846669 9.6917467,10.117681 8.99813011,10.117649 L8.8979069,10.1234137 C8.46661056,10.1722622 8.14157879,10.5236695 8.1415215,10.941178 L8.1415215,12.1764716 L8.14751777,12.2728245 C8.19832841,12.6874655 8.56385111,13.0000019 8.99813011,13.0000019 L9.09835331,12.9942359 C9.52964964,12.9453874 9.8546814,12.59398 9.85473869,12.1764716 L9.85473869,11.6436483 L9.94553921,11.6181189 C11.3426155,11.172586 12.196644,9.81793596 11.961086,8.42108202 C11.7255279,7.02422809 10.4700628,5.99836764 8.99813011,6.00000195 Z"></path></clipPath></defs><g transform="translate(-284.0 -275.0)"><g clip-path="url(#i0)"><g transform="translate(284.0 275.0000000000001)"><g clip-path="url(#i1)"><g transform="translate(3.0 1.999999999999993)"><g clip-path="url(#i2)"><polygon points="0,-1.4240917e-14 18,-1.4240917e-14 18,20.0000013 0,20.0000013 0,-1.4240917e-14" stroke="none" fill="#44B044"></polygon></g></g></g></g></g></g></svg>