<?xml version="1.0" encoding="UTF-8"?><svg version="1.1" width="24px" height="24px" viewBox="0 0 24.0 24.0" xmlns="http://www.w3.org/2000/svg" xmlns:xlink="http://www.w3.org/1999/xlink"><defs><clipPath id="i0"><path d="M1440,0 L1440,1255 L0,1255 L0,0 L1440,0 Z"></path></clipPath><clipPath id="i1"><path d="M24,0 L24,24 L0,24 L0,0 L24,0 Z"></path></clipPath><clipPath id="i2"><path d="M18,13.586 L18,19 C18,20.1045695 17.1045695,21 16,21 L2,21 C0.8954305,21 1.3527075e-16,20.1045695 0,19 L0,4 C-1.3527075e-16,2.8954305 0.8954305,2 2,2 L3.599,2 L3.6,1.20000005 C3.6,0.537258322 4.13725832,1.2174368e-16 4.80000005,0 L13.2,0 C13.8627417,1.05552212e-15 14.4,0.537258322 14.4,1.20000005 L14.399,2 L16,2 C17.1045695,2 18,2.8954305 18,4 L18.0010328,10.004007 C17.9153693,10.01214 17.827966,10.032835 17.7404751,10.0677442 L8.57665073,13.7343932 L8.47125621,13.7829642 C7.8388891,14.1284595 7.8352232,15.0687199 8.50699869,15.4050509 L11.8988693,17.1004522 L13.5961793,20.4930878 C13.9490218,21.2005742 14.9727234,21.1584182 15.2659951,20.4234388 L18,13.586 Z M16.435416,12.5641081 L14.3220268,17.8473452 L13.4018868,16.0080639 L13.342316,15.9054234 C13.2539965,15.7746558 13.1334065,15.6689075 12.9922229,15.5984183 L11.1519429,14.6774029 L16.435416,12.5641081 Z M6,14 L5,14 C4.33333333,14 4,14.3333333 4,15 L4.00510204,15.1377551 C4.04931973,15.712585 4.38095238,16 5,16 L6,16 C6.66666667,16 7,15.6666667 7,15 L6.99489796,14.8622449 C6.95068027,14.287415 6.61904762,14 6,14 Z M12.1,8 L4.9,8 C4.3,8 4,8.33333334 4,9 L4.00459184,9.1377551 C4.04438776,9.71258504 4.34285714,10 4.9,10 L12.1,10 C12.7,10 13,9.66666669 13,9 L12.9954082,8.8622449 C12.9556122,8.28741497 12.6571429,8 12.1,8 Z M12.6,1.75000001 L5.39999999,1.75000001 L5.39999999,3.5 L12.6,3.5 L12.6,1.75000001 Z M18.0010328,10.004007 C18.6484897,9.94253684 19.1965607,10.5986777 18.9318914,11.2591073 L18,13.586 L18.0010328,10.004007 Z"></path></clipPath></defs><g transform="translate(-284.0 -374.0)"><g clip-path="url(#i0)"><g transform="translate(284.0 373.9999999999999)"><g clip-path="url(#i1)"><g transform="translate(3.0 2.0)"><g clip-path="url(#i2)"><polygon points="0,0 19,0 19,21 0,21 0,0" stroke="none" fill="#44B044"></polygon></g></g></g></g></g></g></svg>