<?xml version="1.0" encoding="UTF-8"?><svg version="1.1" width="24px" height="24px" viewBox="0 0 24.0 24.0" xmlns="http://www.w3.org/2000/svg" xmlns:xlink="http://www.w3.org/1999/xlink"><defs><clipPath id="i0"><path d="M1440,0 L1440,1255 L0,1255 L0,0 L1440,0 Z"/></clipPath><clipPath id="i1"><path d="M24,0 L24,24 L0,24 L0,0 L24,0 Z"/></clipPath><clipPath id="i2"><path d="M13.05,0 C13.7955844,0 14.4,0.587626269 14.4,1.31250001 L14.4,1.75000001 L16.65,1.75000001 C17.3453597,1.75003246 17.9269455,2.26357825 17.9937,2.9365 L18,3.06249999 L18,8.75 C17.9994717,9.21295665 17.6281105,9.59539401 17.1527447,9.62252541 C16.6773788,9.6496568 16.2625418,9.31209151 16.2063,8.852375 L16.2,8.75 L16.2,3.5 L14.4,3.5 L14.4,3.9375 C14.4,4.66237374 13.7955844,5.25000001 13.05,5.25000001 L4.94999999,5.25000001 C4.20441558,5.24999999 3.6,4.66237373 3.6,3.9375 L3.6,3.5 L1.79999999,3.5 L1.79999999,19.25 L11.4318,19.25 C11.8880773,19.2500585 12.2721156,19.5820687 12.3255,20.022625 L12.3318,20.125 C12.3316862,20.5689 11.9897005,20.9423826 11.5362,20.993875 L11.4318,21 L1.34999999,21 C0.654640262,21 0.0730545113,20.4864217 0.0062999805,19.8135 L0,19.6875 L0,3.06249999 C0,2.38645583 0.528251907,1.82102524 1.22039999,1.75612499 L1.34999999,1.75000001 L3.6,1.75000001 L3.6,1.31250001 C3.6,0.587626277 4.20441558,0 4.94999999,0 L13.05,0 Z M12.6,1.75000001 L5.39999999,1.75000001 L5.39999999,3.5 L12.6,3.5 L12.6,1.75000001 Z"/></clipPath><clipPath id="i3"><path d="M2,0 C2.61904762,0 2.95068027,0.287414966 2.99489796,0.862244898 L3,1 C3,1.66666667 2.66666667,2 2,2 L1,2 C0.380952381,2 0.0493197279,1.71258503 0.00510204082,1.1377551 L0,1 C0,0.333333333 0.333333333,0 1,0 L2,0 Z"/></clipPath><clipPath id="i4"><path d="M8.1,0 C8.65714286,0 8.95561224,0.287414969 8.99540816,0.862244899 L9,1 C9,1.66666669 8.7,2 8.1,2 L0.900000004,2 C0.342857144,2 0.0443877553,1.71258504 0.00459183676,1.1377551 L0,1 C0,0.333333337 0.300000001,0 0.900000004,0 L8.1,0 Z"/></clipPath><clipPath id="i5"><path d="M9.7404751,0.0677441504 C10.4892344,-0.231013055 11.2315784,0.511297795 10.9318914,1.25910725 L7.26599507,10.4234388 C6.97272336,11.1584182 5.9490218,11.2005742 5.59617928,10.4930878 L3.89886929,7.10045221 L0.506998695,5.40505086 C-0.164776803,5.0687199 -0.161110899,4.12845949 0.471256212,3.78296418 L0.576650731,3.73439323 Z M8.435416,2.56410807 L3.1519429,4.67740293 L4.99222286,5.59841826 C5.13340652,5.6689075 5.25399655,5.77465581 5.34231597,5.90542336 L5.40188678,6.00806388 L6.32202675,7.84734524 L8.435416,2.56410807 Z"/></clipPath></defs><g transform="translate(-45.0 -421.0)"><g clip-path="url(#i0)"><g transform="translate(45.0 421.0)"><g clip-path="url(#i1)"><g transform="translate(3.0 2.0)"><g clip-path="url(#i2)"><polygon points="0,0 18,0 18,21 0,21 0,0" stroke="none"/></g><g transform="translate(4.0 14.0)"><g clip-path="url(#i3)"><polygon points="0,0 3,0 3,2 0,2 0,0" stroke="none"/></g></g><g transform="translate(4.0 8.0)"><g clip-path="url(#i4)"><polygon points="0,0 9,0 9,2 0,2 0,0" stroke="none"/></g></g><g transform="translate(8.0 10.0)"><g clip-path="url(#i5)"><polygon points="-5.55111512e-17,2.22044605e-16 11,2.22044605e-16 11,11 -5.55111512e-17,11 -5.55111512e-17,2.22044605e-16" stroke="none"/></g></g></g></g></g></g></g></svg>