<?xml version="1.0" encoding="UTF-8"?><svg version="1.1" width="24px" height="24px" viewBox="0 0 24.0 24.0" xmlns="http://www.w3.org/2000/svg" xmlns:xlink="http://www.w3.org/1999/xlink"><defs><clipPath id="i0"><path d="M1440,0 L1440,1255 L0,1255 L0,0 L1440,0 Z"></path></clipPath><clipPath id="i1"><path d="M24,0 L24,24 L0,24 L0,0 L24,0 Z"></path></clipPath><clipPath id="i2"><path d="M9.01016949,0 L18,4.18181818 L18,10.4545455 C18,16.2557932 14.1559322,21.6675579 9.01016949,23 C3.8440678,21.688057 0,16.2557932 0,10.4545455 L0,4.18181818 L9.01016949,0 Z M8.98983051,6.51871658 C6.28474576,6.51871658 4.10847458,8.73262032 4.10847458,11.4385027 C4.10847458,14.144385 6.28474576,16.3582888 8.98983051,16.3582888 C9.6,16.3582888 10.1694915,16.2352941 10.7186441,16.0508021 L12.2033898,17.5472371 L13.3627119,16.3787879 L12.1627119,15.1693405 C13.2,14.2673797 13.8711864,12.9349376 13.8711864,11.4385027 C13.8711864,8.71212121 11.6949153,6.51871658 8.98983051,6.51871658 Z M8.98983051,8.15864528 C10.779661,8.15864528 12.2440678,9.63458111 12.2440678,11.4385027 C12.2440678,12.4839572 11.7559322,13.4064171 11.0033898,14.0008913 L9.90508475,12.8939394 L8.74576271,14.0623886 L9.37627119,14.697861 C9.25423729,14.7183601 9.11186441,14.7183601 8.98983051,14.7183601 C7.2,14.7183601 5.73559322,13.2424242 5.73559322,11.4385027 C5.73559322,9.63458111 7.2,8.15864528 8.98983051,8.15864528 Z"></path></clipPath></defs><g transform="translate(-284.0 -594.0)"><g clip-path="url(#i0)"><g transform="translate(284.0 594.0)"><g clip-path="url(#i1)"><g transform="translate(3.0 1.0)"><g clip-path="url(#i2)"><polygon points="0,0 18,0 18,23 0,23 0,0" stroke="none" fill="#44B044"></polygon></g></g></g></g></g></g></svg>