<?xml version="1.0" encoding="UTF-8"?><svg version="1.1" width="24px" height="24px" viewBox="0 0 24.0 24.0" xmlns="http://www.w3.org/2000/svg" xmlns:xlink="http://www.w3.org/1999/xlink"><defs><clipPath id="i0"><path d="M1440,0 L1440,1255 L0,1255 L0,0 L1440,0 Z"/></clipPath><clipPath id="i1"><path d="M24,0 L24,24 L0,24 L0,0 L24,0 Z"/></clipPath><clipPath id="i2"><path d="M9,0 L18,4.18181818 L18,10.4545455 C18,16.2557932 14.1719457,21.688057 9,23 C3.84841629,21.6675579 0,16.2557932 0,10.4545455 L0,4.18181818 L9,0 Z M9,1.82442068 L1.62895928,5.24777184 L1.62895928,10.4750446 C1.62895928,12.9554367 2.42307692,15.4358289 3.88914027,17.4652406 C5.23303167,19.3511586 7.02488688,20.7040998 9,21.3190731 C10.9547511,20.7040998 12.7669683,19.3511586 14.1108597,17.4652406 C15.5769231,15.4358289 16.3710407,12.9554367 16.3710407,10.4750446 L16.3710407,5.24777184 L9,1.82442068 Z M8.97963801,6.53921569 C11.6877828,6.53921569 13.8665158,8.73262032 13.8665158,11.4590018 C13.8665158,12.9554367 13.1945701,14.2878788 12.1561086,15.1898396 L13.3574661,16.399287 L12.1968326,17.5677362 L10.7104072,16.0713012 C10.1606335,16.2557932 9.59049774,16.3787879 8.97963801,16.3787879 C6.27149321,16.3787879 4.09276018,14.1853832 4.09276018,11.4590018 C4.09276018,8.73262032 6.27149321,6.53921569 8.97963801,6.53921569 Z M8.97963801,8.17914439 C7.18778281,8.17914439 5.72171946,9.65508021 5.72171946,11.4590018 C5.72171946,13.2629234 7.18778281,14.7388592 8.97963801,14.7388592 C9.10180995,14.7388592 9.24434389,14.7183601 9.36651584,14.7183601 L8.73529412,14.0828877 L9.8959276,12.9144385 L10.9954751,14.0213904 C11.7488688,13.4269162 12.2375566,12.5044563 12.2375566,11.4590018 C12.2375566,9.65508021 10.7714932,8.17914439 8.97963801,8.17914439 Z"/></clipPath></defs><g transform="translate(-45.0 -639.0)"><g clip-path="url(#i0)"><g transform="translate(45.0 639.0)"><g clip-path="url(#i1)"><g transform="translate(3.0 1.0)"><g clip-path="url(#i2)"><polygon points="0,0 18,0 18,23 0,23 0,0" stroke="none"/></g></g></g></g></g></g></svg>