<?xml version="1.0" encoding="UTF-8"?><svg version="1.1" width="23px" height="23px" viewBox="0 0 23.0 23.0" xmlns="http://www.w3.org/2000/svg" xmlns:xlink="http://www.w3.org/1999/xlink"><defs><clipPath id="i0"><path d="M1440,0 L1440,1255 L0,1255 L0,0 L1440,0 Z"></path></clipPath><clipPath id="i1"><path d="M7.51153475,0 C10.0331607,0.00034376739 12.3861227,1.26486689 13.7751708,3.3661881 L15,2.14323975 L15,5.89297187 L11.2445009,5.89297187 L12.8432705,4.29612166 C11.7353983,2.45875292 9.73210773,1.28562244 7.51153475,1.28562244 C4.07418005,1.28562244 1.2875997,4.06792368 1.2875997,7.5 C1.2875997,10.9320762 4.07418005,13.7143774 7.51153475,13.7143774 C10.0454517,13.7146857 12.3267782,12.1816617 13.2805179,9.83769007 C13.3670582,9.62497274 13.5606827,9.47451165 13.7884548,9.44298403 C14.0162269,9.41145641 14.2435426,9.50365205 14.3847744,9.68484175 C14.5260061,9.86603145 14.5596975,10.1086882 14.4731571,10.3214055 C13.3226503,13.1503438 10.5695067,15.0006082 7.51153475,15 C3.36331772,15 0,11.6423826 0,7.5 C0,3.35761728 3.36331772,0 7.51153475,0 Z"></path></clipPath></defs><g transform="translate(-1172.0 -223.0)"><g clip-path="url(#i0)"><g transform="translate(1172.0 223.0)"><g transform="translate(4.0 4.0)"><g clip-path="url(#i1)"><polygon points="0,0 15,0 15,15.0000001 0,15.0000001 0,0" stroke="none" fill="#000000"></polygon></g></g></g></g></g></svg>