<?xml version="1.0" encoding="UTF-8"?><svg version="1.1" width="24px" height="24px" viewBox="0 0 24.0 24.0" xmlns="http://www.w3.org/2000/svg" xmlns:xlink="http://www.w3.org/1999/xlink"><defs><clipPath id="i0"><path d="M1440,0 L1440,1255 L0,1255 L0,0 L1440,0 Z"></path></clipPath><clipPath id="i1"><path d="M24,0 L24,24 L0,24 L0,0 L24,0 Z"></path></clipPath><clipPath id="i2"><path d="M15.5374006,0 C15.7373699,0.0214834916 15.9373392,0.0343735866 16.1308579,0.0880823157 C16.6555086,0.223428313 17.1328547,0.537087291 17.4661369,0.964608774 C17.6897585,1.24604251 17.8488738,1.57688829 17.9305817,1.9270692 C17.9886373,2.16338761 18.0015386,2.40615106 17.9993884,2.64891452 L17.9993884,16.1362506 C17.9993884,16.4004975 18.0079892,16.6647445 17.9606846,16.9268431 C17.8639253,17.4897105 17.5650464,18.0117594 17.1328547,18.3834238 C16.8038729,18.6670059 16.4017841,18.864654 15.9738928,18.9462913 C15.8362795,18.9763682 15.696516,18.9763682 15.5589027,19 L2.47488903,19 C2.35017698,18.9806649 2.22116452,18.9828132 2.09645248,18.9591814 C1.50944578,18.8668024 0.963293035,18.5531434 0.584856486,18.0998417 C0.227922013,17.6787653 0.0215020767,17.1352329 0,16.5831072 L0,2.41904116 C0.0236522843,1.8046133 0.277376789,1.20092718 0.711718738,0.762663953 C1.11595778,0.345884215 1.66856115,0.0773405699 2.24696701,0.0214834916 C2.30717283,0.0171867933 2.36737864,0.012890095 2.42758446,0 L15.5374006,0 Z M13.3850427,8.24966079 C13.2087257,8.27329263 13.0388593,8.32700136 12.8818941,8.41078697 C12.6023671,8.55687472 12.3980974,8.80608322 12.176626,9.02306649 C10.7359869,10.4646088 9.29319754,11.9040027 7.8525584,13.3433967 C7.78590196,13.4142922 7.74504802,13.5088195 7.72999656,13.6054953 C7.55582974,14.6259611 7.38166292,15.646427 7.20534589,16.6647445 C7.19459486,16.7377883 7.19459486,16.8151289 7.21394672,16.8881728 C7.27200233,17.1266395 7.52572684,17.2942108 7.7687003,17.2533921 C8.75994604,17.0858209 9.75334198,16.913953 10.7445877,16.7442334 C10.8843512,16.7270466 11.0327155,16.692673 11.1316251,16.5874039 L15.7997259,11.9233379 C16.1717119,11.5473768 16.317926,10.9694708 16.1695617,10.4646088 C16.0986048,10.2089552 15.9566911,9.97478517 15.7653226,9.79217549 L14.6235623,8.65140208 C14.3031814,8.33989145 13.8322859,8.18735866 13.3850427,8.24966079 Z M6.29150764,12.2477386 C5.54538557,12.2498869 4.79711331,12.2477386 4.05099125,12.2477386 C3.8424211,12.2606287 3.65750324,12.4217549 3.60804847,12.6215513 C3.58224597,12.7354138 3.5908468,12.8600181 3.64245179,12.9674355 C3.71125843,13.1113749 3.85102193,13.2166441 4.00798709,13.2424242 L4.08646967,13.2480637 L6.3108595,13.2488693 C6.48717653,13.2467209 6.65274252,13.1393035 6.73445041,12.9867707 C6.81830851,12.8320896 6.81185789,12.6322931 6.71939896,12.484057 C6.62909024,12.3401176 6.46352425,12.2434419 6.29150764,12.2477386 Z M9.49316685,8.23247399 L4.09614561,8.23247399 C4.05744187,8.23677069 4.01873813,8.24106739 3.9821846,8.24751244 C3.86392318,8.27544098 3.758563,8.34418815 3.68760615,8.44086386 C3.56289411,8.60628675 3.5607439,8.85119855 3.68115553,9.02091814 C3.77361446,9.15626413 3.93272982,9.2379014 4.09614561,9.2379014 L9.47381498,9.2379014 C9.63938097,9.2421981 9.80494696,9.16270918 9.8995561,9.02736318 C10.0221179,8.8619403 10.0242681,8.61702849 9.90385652,8.44945726 C9.81354779,8.31411126 9.65443243,8.23247399 9.49316685,8.23247399 Z M13.9032428,4.15490728 L4.06819291,4.15490728 C3.81231819,4.16350068 3.58439618,4.39552239 3.59299701,4.65332429 C3.58009577,4.92401628 3.82521944,5.16463139 4.0939954,5.15818634 L13.9032428,5.15818634 C14.0430063,5.15818634 14.1827698,5.10018091 14.2773789,4.9949118 C14.4257432,4.83808232 14.4493955,4.58242877 14.3375847,4.39767074 C14.2494262,4.2472863 14.0774096,4.15275893 13.9032428,4.15490728 Z"></path></clipPath><clipPath id="i3"><path d="M5.6098918,0.133734735 C5.96252586,0.483915649 6.31300971,0.836244912 6.66564377,1.18642583 C6.73875083,1.26161805 6.82260893,1.32821687 6.86561308,1.42704093 C6.95807201,1.61394731 6.91076744,1.85241407 6.76240311,1.99420511 L2.22761514,6.5250735 C1.4857935,6.6518261 0.741821645,6.7785787 0,6.9053313 C0.126862252,6.16415084 0.251574297,5.42297038 0.382736965,4.68178991 C1.89648316,3.1650554 3.41667998,1.65046924 4.93257639,0.133734735 C5.11104363,-0.0445782451 5.42927436,-0.0445782451 5.6098918,0.133734735 Z M3.96068252,1.60750226 C3.78221529,1.65691429 3.64030158,1.81374378 3.61019867,1.99635346 C3.58009577,2.15318295 3.62955054,2.32505088 3.74351155,2.43676504 C3.99078543,2.68167684 4.23590911,2.928737 4.48103278,3.1736488 C4.63799794,3.32403324 4.89817307,3.34766508 5.08309093,3.23380258 C5.25080712,3.13283017 5.34756647,2.92658865 5.31746356,2.73323722 C5.30456232,2.62581976 5.25080712,2.52484735 5.17339965,2.44750678 C4.93257639,2.20689168 4.69390334,1.96627657 4.45308008,1.72780981 C4.32621783,1.60320556 4.13054893,1.55809023 3.96068252,1.60750226 Z M4.990632,0.614964948 C4.79281289,0.649338535 4.6272469,0.816909769 4.59284358,1.01455789 C4.56059046,1.17568408 4.61649586,1.34970036 4.73260708,1.46356287 L5.43572498,2.16607304 C5.51313246,2.24556196 5.61634243,2.30356739 5.72815323,2.31860583 C5.90662046,2.34653437 6.09798895,2.27134215 6.20549933,2.12525441 C6.32376075,1.97057327 6.336662,1.74284826 6.23990265,1.57527702 C6.19044787,1.48719471 6.10873998,1.42704093 6.04208355,1.35399706 L5.42712415,0.739569199 C5.31316315,0.627855043 5.14544695,0.587036409 4.990632,0.614964948 Z"></path></clipPath></defs><g transform="translate(-284.0 -538.0)"><g clip-path="url(#i0)"><g transform="translate(284.0 537.9999999999999)"><g clip-path="url(#i1)"><g transform="translate(3.0 3.0)"><g clip-path="url(#i2)"><polygon points="0,0 18,0 18,19 0,19 0,0" stroke="none" fill="#44B044"></polygon></g><g transform="translate(8.314853050560744 9.23951266395297)"><g clip-path="url(#i3)"><polygon points="0,0 6.91299369,0 6.91299369,6.9053313 0,6.9053313 0,0" stroke="none" fill="#44B044"></polygon></g></g></g></g></g></g></g></svg>