<?xml version="1.0" encoding="UTF-8"?><svg version="1.1" width="24px" height="24px" viewBox="0 0 24.0 24.0" xmlns="http://www.w3.org/2000/svg" xmlns:xlink="http://www.w3.org/1999/xlink"><defs><clipPath id="i0"><path d="M1440,0 L1440,1255 L0,1255 L0,0 L1440,0 Z"></path></clipPath><clipPath id="i1"><path d="M24,0 L24,24 L0,24 L0,0 L24,0 Z"></path></clipPath><clipPath id="i2"><path d="M6.18691863,0.0137260044 C6.63416182,-0.0485761213 7.1050573,0.103956669 7.42543824,0.415467298 L8.56719851,1.5562407 C8.758567,1.73885038 8.9004807,1.97302044 8.97143755,2.22867399 C9.11980188,2.73353605 8.97358776,3.31144197 8.60160184,3.68740307 L3.93350099,8.35146911 C3.83459144,8.45673822 3.68622711,8.4911118 3.54646361,8.5082986 C2.55521787,8.67801818 1.56182193,8.84988611 0.570576198,9.01745735 C0.327602731,9.05827598 0.0738782265,8.89070475 0.0158226195,8.65223799 C-0.00352924955,8.57919412 -0.00352924955,8.50185355 0.00722178879,8.42880968 C0.183538818,7.41049217 0.357705639,6.39002632 0.53187246,5.36956047 C0.546923913,5.27288476 0.587777859,5.17835739 0.654434297,5.10746187 C2.09507343,3.66806793 3.53786278,2.22867399 4.97850192,0.787131703 C5.19997331,0.570148438 5.40424303,0.320939935 5.68377003,0.174852192 C5.84073519,0.0910665743 6.0106016,0.0373578452 6.18691863,0.0137260044 Z"></path></clipPath><clipPath id="i3"><path d="M5.39240203,0.000213248996 L10.3107333,0.00136479357 C10.4849001,-0.00170599197 10.6569167,0.133408572 10.7450752,0.34836356 C10.856886,0.612451117 10.8332338,0.977874596 10.6848694,1.20204194 C10.5902603,1.35251043 10.4504968,1.43542164 10.3107333,1.43542164 L0.501485909,1.43542164 C0.232709951,1.444634 -0.0124137234,1.10070602 0.000487522622,0.71378704 C-0.00811330805,0.345292774 0.219808705,0.0136479357 0.475683417,0.00136479357 C3.7525999,-0.00170599197 7.0316666,0.00136479357 10.3107333,0.00136479357 Z"></path></clipPath><clipPath id="i4"><path d="M5.90073568,0 C6.06200126,0 6.22111663,0.116689851 6.31142535,0.31014934 C6.43183698,0.549670612 6.42968677,0.899740164 6.30712493,1.13619065 C6.2125158,1.32965014 6.04694981,1.44326921 5.88138381,1.43712763 L0.503714438,1.43712763 C0.340298656,1.43712763 0.181183288,1.32043778 0.0887243585,1.12697829 C-0.0316872709,0.884386237 -0.0295370632,0.534316685 0.0951749815,0.297866198 C0.166131835,0.159680848 0.27149201,0.0614157109 0.389753432,0.0214954988 C0.426306962,0.0122831422 0.4650107,0.00614157109 0.503714438,0 Z"></path></clipPath><clipPath id="i5"><path d="M2.6975487,0.000196753364 C2.86956532,-0.00594481772 3.03513131,0.132240532 3.12544003,0.337983163 C3.21789896,0.549867366 3.22434958,0.835450421 3.14049148,1.05654698 C3.05878359,1.27457275 2.8932176,1.42811203 2.71690057,1.43118282 L0.570993321,1.43118282 C0.519388337,1.42811203 0.465633146,1.4342536 0.414028162,1.42197046 C0.257063002,1.38512103 0.117299504,1.23465254 0.0484928582,1.02890991 C-0.00311212582,0.875370633 -0.0117129565,0.697265072 0.0140895355,0.534513438 C0.0635443119,0.248930382 0.248462171,0.0186214666 0.457032315,0.000196753364 C1.20315438,0.000196753364 1.95142664,0.00326753891 2.6975487,0.000196753364 Z"></path></clipPath><clipPath id="i6"><path d="M5.6098918,0.133734735 C5.96252586,0.483915649 6.31300971,0.836244912 6.66564377,1.18642583 C6.73875083,1.26161805 6.82260893,1.32821687 6.86561308,1.42704093 C6.95807201,1.61394731 6.91076744,1.85241407 6.76240311,1.99420511 L2.22761514,6.5250735 C1.4857935,6.6518261 0.741821645,6.7785787 0,6.9053313 C0.126862252,6.16415084 0.251574297,5.42297038 0.382736965,4.68178991 C1.89648316,3.1650554 3.41667998,1.65046924 4.93257639,0.133734735 C5.11104363,-0.0445782451 5.42927436,-0.0445782451 5.6098918,0.133734735 Z M3.96068252,1.60750226 C3.78221529,1.65691429 3.64030158,1.81374378 3.61019867,1.99635346 C3.58009577,2.15318295 3.62955054,2.32505088 3.74351155,2.43676504 C3.99078543,2.68167684 4.23590911,2.928737 4.48103278,3.1736488 C4.63799794,3.32403324 4.89817307,3.34766508 5.08309093,3.23380258 C5.25080712,3.13283017 5.34756647,2.92658865 5.31746356,2.73323722 C5.30456232,2.62581976 5.25080712,2.52484735 5.17339965,2.44750678 C4.93257639,2.20689168 4.69390334,1.96627657 4.45308008,1.72780981 C4.32621783,1.60320556 4.13054893,1.55809023 3.96068252,1.60750226 Z M4.990632,0.614964948 C4.79281289,0.649338535 4.6272469,0.816909769 4.59284358,1.01455789 C4.56059046,1.17568408 4.61649586,1.34970036 4.73260708,1.46356287 L5.43572498,2.16607304 C5.51313246,2.24556196 5.61634243,2.30356739 5.72815323,2.31860583 C5.90662046,2.34653437 6.09798895,2.27134215 6.20549933,2.12525441 C6.32376075,1.97057327 6.336662,1.74284826 6.23990265,1.57527702 C6.19044787,1.48719471 6.10873998,1.42704093 6.04208355,1.35399706 L5.42712415,0.739569199 C5.31316315,0.627855043 5.14544695,0.587036409 4.990632,0.614964948 Z"></path></clipPath></defs><g transform="translate(-45.0 -584.0)"><g clip-path="url(#i0)"><g transform="translate(45.0 584.0)"><g clip-path="url(#i1)"><g transform="translate(3.0 3.0)"><path d="M2.42758446,0 L15.5374006,0 C15.7373699,0.0214834916 15.9373392,0.0343735866 16.1308579,0.0880823157 C16.6555086,0.223428313 17.1328547,0.537087291 17.4661369,0.964608774 C17.6897585,1.24604251 17.8488738,1.57688829 17.9305817,1.9270692 C17.9886373,2.16338761 18.0015386,2.40615106 17.9993884,2.64891452 L17.9993884,16.1362506 C17.9993884,16.4004975 18.0079892,16.6647445 17.9606846,16.9268431 C17.8639253,17.4897105 17.5650464,18.0117594 17.1328547,18.3834238 C16.8038729,18.6670059 16.4017841,18.864654 15.9738928,18.9462913 C15.8362795,18.9763682 15.696516,18.9763682 15.5589027,19 L2.47488903,19 C2.35017698,18.9806649 2.22116452,18.9828132 2.09645248,18.9591814 C1.50944578,18.8668024 0.963293035,18.5531434 0.584856486,18.0998417 C0.227922013,17.6787653 0.0215020767,17.1352329 0,16.5831072 L0,2.41904116 C0.0236522843,1.8046133 0.277376789,1.20092718 0.711718738,0.762663953 C1.11595778,0.345884215 1.66856115,0.0773405699 2.24696701,0.0214834916 C2.30717283,0.0171867933 2.36737864,0.012890095 2.42758446,0" stroke="#505050" stroke-width="1.6" fill="none" stroke-miterlimit="10"></path></g><g transform="translate(10.19812410529471 11.235934782555887)"><g clip-path="url(#i2)"><polygon points="3.13984949e-16,1.66533454e-16 9.02863064,1.66533454e-16 9.02863064,9.02358976 3.13984949e-16,9.02358976 3.13984949e-16,1.66533454e-16" stroke="none" ></polygon></g></g><g transform="translate(6.592509489916438 7.153952459922607)"><g clip-path="url(#i3)"><polygon points="-3.14960731e-17,-9.71445147e-17 10.8150663,-9.71445147e-17 10.8150663,1.43560258 -3.14960731e-17,1.43560258 -3.14960731e-17,-9.71445147e-17" stroke="none" ></polygon></g></g><g transform="translate(6.592431168415374 10.983668215414696)"><g clip-path="url(#i4)"><polygon points="-9.71445147e-17,0 6.40040625,0 6.40040625,1.43736453 -9.71445147e-17,1.43736453 -9.71445147e-17,0" stroke="none" ></polygon></g></g><g transform="translate(6.593958930691883 14.722769643200422)"><g clip-path="url(#i5)"><polygon points="2.86229374e-16,-8.32667268e-16 3.19933035,-8.32667268e-16 3.19933035,1.43118282 2.86229374e-16,1.43118282 2.86229374e-16,-8.32667268e-16" stroke="none" ></polygon></g></g><g transform="translate(11.314853050560714 12.23951266395295)"><g clip-path="url(#i6)"><polygon points="0,0 6.91299369,0 6.91299369,6.9053313 0,6.9053313 0,0" stroke="none"></polygon></g></g></g></g></g></g></svg>