<?xml version="1.0" encoding="UTF-8"?><svg version="1.1" width="24px" height="24px" viewBox="0 0 24.0 24.0" xmlns="http://www.w3.org/2000/svg" xmlns:xlink="http://www.w3.org/1999/xlink"><defs><clipPath id="i0"><path d="M1440,0 L1440,1183 L0,1183 L0,0 L1440,0 Z"></path></clipPath><clipPath id="i1"><path d="M9.7082106,9.94036265 C10.6475074,9.94036265 11.4727347,10.5422587 11.7295655,11.4146783 L14.423785,11.4146783 C14.7415114,11.4146783 14.9990795,11.6633855 14.9990795,11.9701813 C14.9990795,12.2769772 14.7415114,12.5256843 14.423785,12.5256843 L11.7295655,12.5256843 C11.4727347,13.398104 10.6475074,14 9.7082106,14 C8.76891377,14 7.94368647,13.398104 7.68685567,12.5256843 L0.578055965,12.5256843 C0.260329558,12.5256843 0.00276141385,12.2769772 0.00276141385,11.9701813 C0.00276141385,11.6633855 0.260329558,11.4146783 0.578055965,11.4146783 L7.68685567,11.4146783 C7.94368647,10.5422587 8.76891377,9.94036265 9.7082106,9.94036265 Z M10.0719411,11.1203954 C9.71620661,10.97792 9.30661141,11.0564913 9.03428946,11.3194447 C8.76196751,11.5823981 8.68059686,11.9779022 8.82814839,12.3213986 C8.97569992,12.664895 9.32308939,12.8886761 9.7082106,12.8883171 C10.2331385,12.8878267 10.65855,12.4770504 10.6590579,11.9701813 C10.6594297,11.5983092 10.4276756,11.2628708 10.0719411,11.1203954 Z M4.16145066,4.96127818 C5.1007475,4.96127818 5.9259748,5.56317422 6.1828056,6.43559386 L14.423785,6.43559386 C14.7415114,6.43559386 14.9990795,6.68430102 14.9990795,6.99109685 C14.9990795,7.29789269 14.7415114,7.54659985 14.423785,7.54659985 L6.1828056,7.54659985 C5.9259748,8.41901948 5.1007475,9.02091553 4.16145066,9.02091553 C3.22215383,9.02091553 2.39692653,8.41901948 2.14009573,7.54659985 L0.575294551,7.54659985 C0.257568144,7.54659985 0,7.29789269 0,6.99109685 C0,6.68430102 0.257568144,6.43559386 0.575294551,6.43559386 L2.14009573,6.43559386 C2.39692653,5.56317422 3.22215383,4.96127818 4.16145066,4.96127818 Z M4.52454285,6.14194454 C4.16877876,5.9997493 3.75933456,6.07854015 3.48720356,6.34156354 C3.21507257,6.60458693 3.13387076,7.0000213 3.28147632,7.34340847 C3.42908188,7.68679565 3.77641318,7.91048058 4.16145066,7.91012145 C4.6865274,7.90914151 5.11179115,7.49811037 5.1122975,6.99109685 C5.1122975,6.61930543 4.88030694,6.28413978 4.52454285,6.14194454 Z M11.2946429,0 C12.2271824,0 13.0481772,0.593424035 13.3109352,1.45739819 L14.423785,1.45739819 C14.576522,1.45716222 14.723087,1.51558407 14.8311748,1.61978668 C14.9392626,1.72398929 15,1.86541851 15,2.01290119 C15,2.31969702 14.7424319,2.56840419 14.4247054,2.56840419 L13.3201399,2.56840419 C13.0678206,3.44711501 12.2394533,4.05538263 11.2951031,4.05538263 C10.3507529,4.05538263 9.52238563,3.44711501 9.27006627,2.56840419 L0.578055965,2.56840419 C0.260329558,2.56840419 0.00276141385,2.31969702 0.00276141385,2.01290119 C0.00276141385,1.70610535 0.260329558,1.45739819 0.578055965,1.45739819 L9.27835052,1.45739819 C9.54110851,0.593424035 10.3621033,0 11.2946429,0 Z M11.2941826,1.11165313 C10.7690444,1.11165313 10.3433358,1.52271633 10.3433358,2.02978848 C10.3433358,2.53686063 10.7690444,2.94792383 11.2941826,2.94792383 C11.8202324,2.94645547 12.2445247,2.5359651 12.2450295,2.02978848 C12.2450295,1.52271633 11.8193208,1.11165313 11.2941826,1.11165313 Z"></path></clipPath></defs><g transform="translate(-1384.0 -318.0)"><g clip-path="url(#i0)"><g transform="translate(425.0 304.0)"><g transform="translate(959.0 14.0)"><g transform="translate(5.0 5.0)"><g clip-path="url(#i1)"><polygon points="0,0 15,0 15,14 0,14 0,0" stroke="none" fill="#303033"></polygon></g></g></g></g></g></g></svg>