<?xml version="1.0" encoding="UTF-8"?><svg version="1.1" width="23px" height="23px" viewBox="0 0 23.0 23.0" xmlns="http://www.w3.org/2000/svg" xmlns:xlink="http://www.w3.org/1999/xlink"><defs><clipPath id="i0"><path d="M1440,0 L1440,1255 L0,1255 L0,0 L1440,0 Z"></path></clipPath><clipPath id="i1"><path d="M13.5558688,13.5603924 C13.8622758,13.2792023 14.2672966,13.3776188 14.4504364,13.5603924 L16.8101226,15.9153594 C16.9967843,16.098133 17.1130076,16.523433 16.8312541,16.8116529 C16.4896279,17.1666554 16.0071249,16.9276438 15.915555,16.836257 L13.5558688,14.4812899 C13.372729,14.2985164 13.2670714,13.8240081 13.5558688,13.5603924 Z M7.55099576,0 C9.56905573,0 11.4673704,0.783817392 12.8937479,2.20734225 C15.8380727,5.14577875 15.8380727,9.92952526 12.8937479,12.8679618 C11.4673704,14.2914866 9.56905573,15.075304 7.55099576,15.075304 C5.53293579,15.075304 3.63462109,14.2914866 2.20824363,12.8679618 C-0.73608121,9.92952526 -0.73608121,5.14577875 2.20824363,2.20734225 C3.63462109,0.783817392 5.53293579,0 7.55099576,0 Z M7.55451768,1.26535543 C5.874562,1.26535543 4.29674199,1.9191224 3.10985506,3.10363568 C0.658598977,5.54998952 0.658598977,9.52882937 3.10633314,11.9716683 C4.29322007,13.1561816 5.87104008,13.8099486 7.55099576,13.8099486 C9.23095144,13.8099486 10.8087714,13.1561816 11.9956584,11.9716683 C14.4469145,9.52882937 14.4469145,5.54998952 11.9991803,3.10363568 C10.8122934,1.9191224 9.23447336,1.26535543 7.55451768,1.26535543 Z"></path></clipPath></defs><g transform="translate(-980.0 -223.0)"><g clip-path="url(#i0)"><g transform="translate(980.0 223.0)"><g transform="translate(2.999999999999895 2.9999999999999805)"><g clip-path="url(#i1)"><polygon points="0,0 17,0 17,17 0,17 0,0" stroke="none" fill="#000000"></polygon></g></g></g></g></g></svg>