<?xml version="1.0" encoding="UTF-8"?><svg version="1.1" width="24px" height="24px" viewBox="0 0 24.0 24.0" xmlns="http://www.w3.org/2000/svg" xmlns:xlink="http://www.w3.org/1999/xlink"><defs><clipPath id="i0"><path d="M1440,0 L1440,1183 L0,1183 L0,0 L1440,0 Z"></path></clipPath><clipPath id="i1"><path d="M7.00041421,0 C10.8662456,0.00022878085 14,3.13416844 14,7 C13.9998351,8.85668011 13.2621137,10.6372501 11.9491259,11.9500047 C10.6361382,13.2627594 8.85543721,14.0001647 6.99875695,14 C3.13292558,13.9993134 -0.000457622649,10.8650027 0,6.99917133 C0.000457622649,3.13333994 3.13458279,-0.00022878085 7.00041421,0 Z M2.5146053,3.40335599 C1.69589244,4.41913982 1.24995494,5.68478634 1.25108758,6.98943428 C1.24848204,9.19673314 2.51375613,11.2086662 4.50351892,12.1634659 C6.49328171,13.1182656 8.85441021,12.8464837 10.5752019,11.4645741 L2.5146053,3.40335599 Z M6.98912363,1.25264032 C5.68889051,1.25173318 4.42831272,1.69348348 3.4142324,2.50528265 L11.472343,10.5615287 C12.8468551,8.83977975 13.1130291,6.48264698 12.1570835,4.49773618 C11.2011378,2.51282538 9.19223539,1.25138388 6.98912363,1.25264032 Z"></path></clipPath></defs><g transform="translate(-1007.0 -201.0)"><g clip-path="url(#i0)"><g transform="translate(267.0 198.0)"><g transform="translate(740.0 3.0)"><g transform="translate(5.0 5.000000000000001)"><g clip-path="url(#i1)"><polygon points="0,0 14,0 14,14 0,14 0,0" stroke="none" fill="#000000"></polygon></g><g clip-path="url(#i1)"><path d="M6.99875695,14 C3.13292558,13.9993134 -0.000457622649,10.8650027 0,6.99917133 C0.000457622649,3.13333994 3.13458279,-0.00022878085 7.00041421,0 C10.8662456,0.00022878085 14,3.13416844 14,7 C13.9998351,8.85668011 13.2621137,10.6372501 11.9491259,11.9500047 C10.6361382,13.2627594 8.85543721,14.0001647 6.99875695,14 Z M1.24984348,6.98974503 C1.24848204,9.19673314 2.51375613,11.2086662 4.50351892,12.1634659 C6.49328171,13.1182656 8.85441021,12.8464837 10.5752019,11.4645741 L2.5146053,3.40335599 C1.69589244,4.41913982 1.24995494,5.68478634 1.25108758,6.98943428 L1.24984348,6.98974503 Z M6.98788063,1.25295202 C5.68889051,1.25173318 4.42831272,1.69348348 3.4142324,2.50528265 L11.472343,10.5615287 C12.8468551,8.83977975 13.1130291,6.48264698 12.1570835,4.49773618 C11.2011378,2.51282538 9.19223539,1.25138388 6.98912363,1.25264032 L6.98788063,1.25295202 Z" stroke="#FFFFFF" stroke-width="0.2" fill="none" stroke-miterlimit="5"></path></g></g></g></g></g></g></svg>