<?xml version="1.0" encoding="UTF-8"?><svg version="1.1" width="16px" height="16px" viewBox="0 0 16.0 16.0" xmlns="http://www.w3.org/2000/svg" xmlns:xlink="http://www.w3.org/1999/xlink"><defs><clipPath id="i0"><path d="M1440,0 L1440,1267 L0,1267 L0,0 L1440,0 Z"></path></clipPath><clipPath id="i1"><path d="M8.75,0 C9.4375,0 10,0.5625 10,1.25 L10,8.75 C10,9.4375 9.4375,10 8.75,10 L1.25,10 C0.5625,10 0,9.4375 0,8.75 L0,1.25 C0,0.5625 0.5625,0 1.25,0 Z M7.370625,2.995625 L4.375,5.99125 L2.941875,4.558125 L2.058125,5.441875 L4.375,7.75875 L8.254375,3.879375 L7.370625,2.995625 Z"></path></clipPath></defs><g transform="translate(-483.0 -261.0)"><g clip-path="url(#i0)"><g transform="translate(483.0 261.0)"><g transform="translate(3.0 3.0)"><g clip-path="url(#i1)"><polygon points="0,0 10,0 10,10 0,10 0,0" stroke="none" fill="#44B044"></polygon></g></g></g></g></g></svg>