<?xml version="1.0" encoding="UTF-8"?><svg version="1.1" width="25px" height="25px" viewBox="0 0 25.0 25.0" xmlns="http://www.w3.org/2000/svg" xmlns:xlink="http://www.w3.org/1999/xlink"><defs><clipPath id="i0"><path d="M1440,0 L1440,1024 L0,1024 L0,0 L1440,0 Z"/></clipPath><clipPath id="i1"><path d="M25,0 L25,25 L0,25 L0,0 L25,0 Z"/></clipPath><clipPath id="i2"><path d="M25,0 L25,23 L0,23 L0,0 L25,0 Z"/></clipPath><clipPath id="i3"><path d="M10.2915861,0 C10.5017853,0.000187181721 10.7032935,0.0762487436 10.8517811,0.211451991 C11.0002686,0.346655238 11.0835723,0.52992501 11.0833665,0.720944002 C11.0835723,0.911962994 11.0002686,1.09523277 10.8517811,1.23043601 C10.7032935,1.36563926 10.5017853,1.44170082 10.2915861,1.441888 L0.791391863,1.441888 C0.353826424,1.44130343 -0.000429068968,1.11858278 0,0.720944002 C-0.000429068968,0.323305224 0.353826424,0.00058457167 0.791391863,0 Z"/></clipPath><clipPath id="i4"><path d="M7.57206676,0 C7.78226598,0.000187181721 7.98377415,0.0762487436 8.13226172,0.211451991 C8.28074929,0.346655238 8.36405292,0.52992501 8.36386296,0.720944002 C8.36405292,0.911962994 8.28074929,1.09523277 8.13226172,1.23043601 C7.98377415,1.36563926 7.78226598,1.44170082 7.57206676,1.441888 L0.791430837,1.441888 C0.353865397,1.44130343 -0.000390095098,1.11858278 0,0.720944002 C-0.000390095098,0.323305224 0.353865397,0.00058457167 0.791430837,0 Z"/></clipPath><clipPath id="i5"><path d="M5.62951143,0 C5.83971065,0.000187181721 6.04121882,0.0762487436 6.18970639,0.211451991 C6.33819396,0.346655238 6.42149759,0.52992501 6.42129914,0.720944002 C6.42149759,0.911962994 6.33819396,1.09523277 6.18970639,1.23043601 C6.04121882,1.36563926 5.83971065,1.44170082 5.62951143,1.441888 L0.791417167,1.441888 C0.353851727,1.44130343 -0.000403765087,1.11858278 0,0.720944002 C-0.000403765087,0.323305224 0.353851727,0.00058457167 0.791417167,0 Z"/></clipPath><clipPath id="i6"><path d="M8.06388017,0 C8.93916284,0.00101675603 9.6479104,0.674580278 9.6470524,1.50457879 L9.6470524,1.55247184 C9.6470524,1.95182625 9.48038155,2.33423389 9.18356118,2.6160661 C8.88683086,2.89799364 8.48392973,3.05627788 8.06388017,3.05594593 L1.58356118,3.05594593 C1.16327391,3.05604351 0.760193517,2.8976655 0.463151315,2.61571491 C0.166109113,2.33376432 -0.000514484267,1.95138289 0,1.55284025 L0,1.50494719 C-0.0010723787,0.674948558 0.707501407,0.00121996279 1.58278416,0 L8.06388017,0 Z"/></clipPath></defs><g transform="translate(-25.0 -214.0)"><g clip-path="url(#i0)"><g transform="translate(25.0 214.0)"><g clip-path="url(#i1)"><g transform="translate(0.0 1.0)"><g clip-path="url(#i2)"><polygon points="0,0 25,0 25,23 0,23 0,0" stroke="none" opacity="1%"/></g><g transform="translate(3.0 2.4016335684127643)"><path d="M15.8919333,18.6816998 L3.16362335,18.6816998 C1.4172784,18.6816998 0,17.730209 0,16.1121452 L0,2.9289674 C0,1.31196274 1.43942337,0.00141223115 3.21568347,0 L3.21568347,0.044838339 C3.21646048,1.63712896 4.63412739,2.92720212 6.38241489,2.92720212 L12.9136285,2.92720212 C14.661916,2.92720212 16.0795829,1.6367759 16.0799714,0.044838339 L16.0799714,0 L16.1009508,0 C17.880319,0 19,1.21981466 19,2.8378785 L19,15.8572375 C19,17.4171449 17.6084712,18.6816998 15.8919333,18.6816998 Z" stroke="#2F2F2F" stroke-width="1.5" stroke-miterlimit="10"/></g><g transform="translate(6.943747692960414 8.829403646655663)"><g clip-path="url(#i3)"><polygon points="-3.89350022e-07,0 11.0833669,0 11.0833669,1.441888 -3.89350022e-07,1.441888 -3.89350022e-07,0" stroke="none"/></g></g><g transform="translate(6.943708719089273 11.71317965451505)"><g clip-path="url(#i4)"><polygon points="-3.21861193e-07,0 8.36386328,0 8.36386328,1.441888 -3.21861193e-07,1.441888 -3.21861193e-07,0" stroke="none"/></g></g><g transform="translate(6.943722389079085 14.89069974152959)"><g clip-path="url(#i5)"><polygon points="-3.44802617e-07,0 6.4212995,0 6.4212995,1.441888 -3.44802617e-07,1.441888 -3.44802617e-07,0" stroke="none"/></g></g><g transform="translate(7.850136804310616 1.0000000000000022)"><g clip-path="url(#i6)"><polygon points="-1.21562459e-06,0 9.64705318,0 9.64705318,3.05594645 -1.21562459e-06,3.05594645 -1.21562459e-06,0" stroke="none"/></g></g></g></g></g></g></g></svg>