<?xml version="1.0" encoding="UTF-8"?><svg version="1.1" width="24px" height="24px" viewBox="0 0 24.0 24.0" xmlns="http://www.w3.org/2000/svg" xmlns:xlink="http://www.w3.org/1999/xlink"><defs><clipPath id="i0"><path d="M1440,0 L1440,1255 L0,1255 L0,0 L1440,0 Z"/></clipPath><clipPath id="i1"><path d="M13.0262035,0 C13.6896936,0.00130022186 14.2993764,0.363201793 14.6176091,0.943831489 L18.3704746,7.74886377 C18.6764935,8.30457929 18.6764935,8.97832619 18.3703848,9.53420465 L14.6179865,16.3383877 C14.2993764,16.9197037 13.6896936,17.2816053 13.0262035,17.2829055 L5.57318587,17.2829055 C4.91028393,17.2816053 4.30060115,16.9197037 3.98236843,16.339074 L0.229502942,9.53404172 C-0.0765159437,8.97832619 -0.0765159437,8.30457929 0.229592731,7.74870084 L3.98199111,0.944517804 C4.30060116,0.363201801 4.91028394,0.00130023085 5.57377404,0 L13.0262035,0 Z M12.9689888,1.917 L5.62898878,1.917 L1.92798878,8.641 L5.62898878,15.365 L12.9699888,15.365 L16.6709888,8.641 L12.9689888,1.917 Z M9.24335471,4.74453051 C11.3487203,4.74453051 13.0555453,6.45128183 13.0555453,8.55672114 C13.0555453,10.6621604 11.3487203,12.3689118 9.24335471,12.3689118 C7.1378425,12.3689118 5.43116408,10.6622334 5.43116408,8.55672114 C5.43116408,6.45120892 7.13784249,4.74453051 9.24335471,4.74453051 Z M9.29998878,6.70967401 C8.25330991,6.70967401 7.40486963,7.55811429 7.40486963,8.60479316 C7.40486963,9.65147204 8.2533099,10.4999123 9.29998878,10.4999123 C10.3466677,10.4999123 11.1951079,9.65147204 11.1951079,8.60479316 C11.1951079,7.55811429 10.3466676,6.70967401 9.29998878,6.70967401 Z"/></clipPath></defs><g transform="translate(-398.0 -861.0)"><g clip-path="url(#i0)"><g transform="translate(398.0 861.0)"><g transform="translate(2.6999999999998003 3.400000000000176)"><g clip-path="url(#i1)"><polygon points="-2.77555756e-17,0 18.5999776,0 18.5999776,17.2829055 -2.77555756e-17,17.2829055 -2.77555756e-17,0" stroke="none"/></g></g></g></g></g></svg>