<?xml version="1.0" encoding="UTF-8"?><svg version="1.1" width="23px" height="23px" viewBox="0 0 23.0 23.0" xmlns="http://www.w3.org/2000/svg" xmlns:xlink="http://www.w3.org/1999/xlink"><defs><clipPath id="i0"><path d="M1440,0 L1440,1255 L0,1255 L0,0 L1440,0 Z"></path></clipPath><clipPath id="i1"><path d="M10.1658805,0 C10.9406061,0.000162253662 11.6564306,0.456977599 12.0436594,1.1984188 L14.7095399,6.30187126 C15.09682,7.04330795 15.09682,7.95669205 14.7095399,8.69812874 L12.0436594,13.801747 C11.6564115,14.5431563 10.9405906,15 10.1658805,15 L4.83411948,15 C4.05939389,15 3.34356938,14.5431053 2.95634058,13.8016641 L0.29046007,8.69812874 C-0.0968200232,7.95669205 -0.0968200232,7.04330795 0.29046007,6.30187126 L2.95634058,1.19833592 C3.34356938,0.456894714 4.05939389,0 4.83411948,0 L10.1658805,0 Z M10.1658055,1.24316993 L4.83404448,1.24316993 C4.46138151,1.24316993 4.11698299,1.46299654 3.9306676,1.81971371 L1.26478708,6.92341478 C1.0783827,7.28030219 1.0783827,7.71994643 1.26478708,8.07683383 L3.93074261,13.1802863 C4.11703893,13.5370354 4.46144104,13.7569129 4.83419447,13.7569129 L10.1659555,13.7569129 C10.538709,13.7569129 10.8831111,13.5370354 11.0694074,13.1802863 L13.7352879,8.07675095 C13.9216923,7.71986355 13.9216923,7.28021933 13.7352879,6.92333192 L11.0692574,1.81971371 C10.882942,1.46299654 10.5385435,1.24316993 10.1658055,1.24316993 Z M7.5,4 C9.43299999,4 11,5.56700001 11,7.5 C11,9.43299999 9.43299999,11 7.5,11 C5.56699999,11 4,9.43299999 4,7.5 C4,5.56700001 5.56700001,4 7.5,4 Z M7.50000482,5.16666667 C6.21130215,5.16666667 5.16666667,6.21129999 5.16666667,7.5 C5.16666667,8.78870001 6.21130215,9.83333333 7.50000482,9.83333333 C8.78870749,9.83333333 9.83334298,8.78870001 9.83334298,7.5 C9.83334298,6.21129999 8.78870749,5.16666667 7.50000482,5.16666667 Z"></path></clipPath></defs><g transform="translate(-1238.0 -223.0)"><g clip-path="url(#i0)"><g transform="translate(1238.0 223.0)"><g transform="translate(4.0 4.0)"><g clip-path="url(#i1)"><polygon points="-5.55111512e-17,0 15,0 15,15 -5.55111512e-17,15 -5.55111512e-17,0" stroke="none" fill="#000000"></polygon></g></g></g></g></g></svg>