<?xml version="1.0" encoding="UTF-8"?><svg version="1.1" width="16px" height="16px" viewBox="0 0 16.0 16.0" xmlns="http://www.w3.org/2000/svg" xmlns:xlink="http://www.w3.org/1999/xlink"><defs><clipPath id="i0"><path d="M1440,0 L1440,1183 L0,1183 L0,0 L1440,0 Z"></path></clipPath><clipPath id="i1"><path d="M4.66675163,0 C5.07394239,0 5.46849285,0.0520089286 5.84597349,0.1515625 C5.96621847,0.183258929 6.05891406,0.283482143 6.09110903,0.407254464 L6.37394942,1.49319196 C6.50456594,1.56127232 6.63172527,1.63493304 6.75315865,1.71752232 L7.80252027,1.42823661 C7.83277057,1.41986607 7.8636691,1.41573661 7.8944596,1.41573661 C7.98510249,1.41573661 8.07380072,1.45145089 8.1382987,1.51975446 C8.69634293,2.11094476 9.1028053,2.83661177 9.3208697,3.63102679 C9.35479326,3.75446429 9.31752056,3.88816964 9.22968663,3.97890625 L8.45841179,4.77566964 C8.46262522,4.85033482 8.46943154,4.92433036 8.46943154,5 C8.46943154,5.07566964 8.46251719,5.14966518 8.45841179,5.22433036 L9.22968663,6.02109375 C9.31752056,6.11183036 9.35479326,6.24553571 9.32097774,6.36897321 C9.10291334,7.16338823 8.69645096,7.88905524 8.13840673,8.48024554 C8.07390875,8.54854911 7.98510249,8.58426339 7.89456763,8.58426339 C7.86388518,8.58426339 7.83287861,8.58013393 7.8026283,8.57176339 L6.75326669,8.28247768 C6.63183331,8.36506696 6.50467397,8.43883929 6.37405746,8.50680804 L6.09132511,9.59263393 C6.05913014,9.71640625 5.96643455,9.81662946 5.84618957,9.84832589 C5.46849285,9.94799107 5.07394239,10 4.66675163,10 C4.25956086,10 3.8650104,9.94799107 3.48720565,9.84832589 C3.36696067,9.81662946 3.27426508,9.71640625 3.24207011,9.59263393 L2.95933776,8.50680804 C2.82872124,8.43872768 2.70156191,8.36506696 2.58012853,8.28247768 L1.53076691,8.57176339 C1.50051661,8.58013393 1.46951004,8.58426339 1.43882758,8.58426339 C1.34818469,8.58426339 1.25948646,8.54854911 1.19498848,8.48024554 C0.636944253,7.88905524 0.230481879,7.16338823 0.0124174755,6.36897321 C-0.0215060853,6.24553571 0.0157666169,6.11183036 0.10360055,6.02109375 L0.874875393,5.22433036 C0.870661957,5.14966518 0.863855637,5.07566964 0.863855637,5 C0.863855637,4.92433036 0.870769994,4.85033482 0.874875393,4.77566964 L0.10360055,3.97890625 C0.0157666169,3.88816964 -0.0215060853,3.75446429 0.0124174755,3.63102679 C0.233784915,2.82433036 0.646161449,2.10111607 1.19498848,1.51975446 C1.25948646,1.45145089 1.34829273,1.41573661 1.43882758,1.41573661 C1.46951004,1.41573661 1.50051661,1.41986607 1.53076691,1.42823661 L2.58012853,1.71752232 C2.70156191,1.63493304 2.82872124,1.56116071 2.95933776,1.49319196 L3.24217815,0.407366071 C3.27437312,0.28359375 3.36706871,0.183370536 3.48731369,0.151674107 C3.8650104,0.0520089286 4.25956086,0 4.66675163,0 Z M4.66675163,0.714285714 C4.39244615,0.714285714 4.12084159,0.742075893 3.85669157,0.797098214 L3.62700529,1.67890625 L3.5466259,1.98738839 L3.27048379,2.13113839 C3.1528317,2.19241071 3.05138513,2.25234375 2.96020205,2.31428571 L2.70134584,2.49029018 L2.40186778,2.40770089 L1.55107784,2.17321429 C1.19045094,2.59553571 0.913012389,3.09084821 0.738208818,3.62444196 L1.36374199,4.27064732 L1.58284066,4.49698661 L1.56512262,4.81651786 L1.56069311,4.88761161 C1.5583163,4.92488839 1.55529127,4.96216518 1.55529127,5.00011161 C1.55529127,5.03805804 1.55820827,5.07533482 1.56069311,5.11261161 L1.56512262,5.18370536 L1.58284066,5.50323661 L1.36374199,5.72957589 L0.738208818,6.37578125 C0.913012389,6.909375 1.19045094,7.4046875 1.55107784,7.82700893 L2.40186778,7.59252232 L2.70134584,7.50993304 L2.96020205,7.6859375 C3.05138513,7.74787946 3.15293973,7.8078125 3.27048379,7.86897321 L3.54673394,8.01272321 L3.62711333,8.32131696 L3.85669157,9.20301339 C4.12084159,9.25792411 4.39244615,9.28571429 4.66675163,9.28571429 C4.94105711,9.28571429 5.21266167,9.25792411 5.47681169,9.20290179 L5.70638993,8.32109375 L5.78676932,8.01261161 L6.06301946,7.86886161 C6.18056352,7.80770089 6.28211813,7.74776786 6.3733012,7.68582589 L6.63215742,7.50982143 L6.93163548,7.59241071 L7.78242542,7.82689732 C8.14305232,7.40446429 8.42049086,6.90915179 8.59529444,6.37566964 L7.96976126,5.72946429 L7.75066259,5.503125 L7.76838063,5.18359375 L7.77281014,5.1125 C7.77518695,5.07522321 7.77821198,5.03794643 7.77821198,5 C7.77821198,4.96205357 7.77529499,4.92477679 7.77281014,4.8875 L7.76838063,4.81640625 L7.75066259,4.496875 L7.96976126,4.27053571 L8.59529444,3.62433036 C8.42049086,3.09073661 8.14305232,2.59553571 7.78242542,2.17310268 L6.93163548,2.40758929 L6.63215742,2.49017857 L6.3733012,2.31417411 C6.28211813,2.25223214 6.18067156,2.19229911 6.06301946,2.13102679 L5.78687735,1.98727679 L5.70649796,1.67879464 L5.47681169,0.796986607 C5.21266167,0.742075893 4.94105711,0.714285714 4.66675163,0.714285714 Z"></path></clipPath><clipPath id="i2"><path d="M1.72858909,0 C2.68331045,0 3.45717817,0.799441964 3.45717817,1.78571429 C3.45717817,2.77198661 2.68331045,3.57142857 1.72858909,3.57142857 C0.773867726,3.57142857 0,2.77198661 0,1.78571429 C0,0.799441964 0.773867726,0 1.72858909,0 Z M1.72858909,0.714285714 C1.15664217,0.714285714 0.691435634,1.19497768 0.691435634,1.78571429 C0.691435634,2.37645089 1.15664217,2.85714286 1.72858909,2.85714286 C2.300536,2.85714286 2.76574254,2.37645089 2.76574254,1.78571429 C2.76574254,1.19497768 2.300536,0.714285714 1.72858909,0.714285714 Z"></path></clipPath></defs><g transform="translate(-291.0 -274.0)"><g clip-path="url(#i0)"><g transform="translate(267.0 217.0)"><g transform="translate(24.0 57.0)"><g transform="translate(3.333333333333333 3.333333333333332)"><g clip-path="url(#i1)"><polygon points="-1.38777878e-17,0 9.33333333,0 9.33333333,10 -1.38777878e-17,10 -1.38777878e-17,0" stroke="none" fill="#000000"></polygon></g><g transform="translate(2.9381625405417253 3.2142857142856176)"><g clip-path="url(#i2)"><polygon points="0,0 3.45717817,0 3.45717817,3.57142857 0,3.57142857 0,0" stroke="none" fill="#000000"></polygon></g></g></g></g></g></g></g></svg>