<?xml version="1.0" encoding="UTF-8"?><svg version="1.1" width="19px" height="18px" viewBox="0 0 19.0 18.0" xmlns="http://www.w3.org/2000/svg" xmlns:xlink="http://www.w3.org/1999/xlink"><defs><clipPath id="i0"><path d="M1440,0 L1440,1024 L0,1024 L0,0 L1440,0 Z"/></clipPath><clipPath id="i1"><path d="M12.876782,0 C13.8581011,0.00019186666 14.7648121,0.540380811 15.2553019,1.41714282 L18.6320839,7.45202896 C19.1226387,8.32878564 19.1226387,9.40887193 18.6320839,10.2856286 L15.2553019,16.3207108 C14.7647879,17.197435 13.8580815,17.7376576 12.876782,17.7376576 L6.12321801,17.7376576 C5.14189893,17.7376576 4.23518789,17.1973748 3.74469807,16.3206127 L0.367916088,10.2856286 C-0.122638696,9.40887193 -0.122638696,8.32878564 0.367916088,7.45202896 L3.74469807,1.41704481 C4.23518789,0.540282799 5.14189893,0 6.12321801,0 L12.876782,0 Z M12.876687,1.47006151 L6.123123,1.47006151 C5.65108325,1.47006151 5.21484512,1.73000878 4.97884563,2.15183058 L1.60206363,8.18701071 C1.36595142,8.60903381 1.36595142,9.12891774 1.60206363,9.55094085 L4.97894064,15.585827 C5.21491598,16.0076865 5.65115865,16.2676941 6.12331299,16.2676941 L12.876877,16.2676941 C13.3490313,16.2676941 13.785274,16.0076865 14.0212494,15.585827 L17.3980314,9.55084284 C17.6341436,9.12881974 17.6341436,8.60893583 17.3980314,8.18691273 L14.0210594,2.15183058 C13.7850599,1.73000878 13.3488217,1.47006151 12.876687,1.47006151 Z M9.4524999,5.38134039 C11.2888537,5.38134039 12.7775068,6.91696227 12.7775068,8.81125521 C12.7775068,10.7055482 11.2888537,12.24117 9.4524999,12.24117 C7.61614609,12.24117 6.12749302,10.7055482 6.12749302,8.81125521 C6.12749302,6.91696227 7.61614611,5.38134039 9.4524999,5.38134039 Z M9.4524999,6.85130389 C8.40312772,6.85130389 7.55249597,7.72877409 7.55249597,8.81125521 C7.55249597,9.89373634 8.40312772,10.7712065 9.4524999,10.7712065 C10.5018721,10.7712065 11.3525038,9.89373634 11.3525038,8.81125521 C11.3525038,7.72877409 10.5018721,6.85130389 9.4524999,6.85130389 Z"/></clipPath></defs><g transform="translate(-1352.0 -731.0)"><g clip-path="url(#i0)"><g transform="translate(1352.0 731.0)"><g transform=""><g clip-path="url(#i1)"><polygon points="0,0 19,0 19,17.7376576 0,17.7376576 0,0" stroke="none"/></g></g></g></g></g></svg>