<?xml version="1.0" encoding="UTF-8"?><svg version="1.1" width="24px" height="24px" viewBox="0 0 24.0 24.0" xmlns="http://www.w3.org/2000/svg" xmlns:xlink="http://www.w3.org/1999/xlink"><defs><clipPath id="i0"><path d="M1440,0 L1440,1168 L0,1168 L0,0 L1440,0 Z"></path></clipPath><clipPath id="i1"><path d="M3.94605554,0 C4.26180336,0 4.51802296,0.255479911 4.5189329,0.571226414 L4.5189329,7.22617925 L6.91610271,4.82735849 C7.13968629,4.60444054 7.5014814,4.60444054 7.72506498,4.82735849 C7.83294369,4.93431215 7.8936277,5.07992878 7.8936277,5.23183962 C7.8936277,5.38375047 7.83294369,5.52936709 7.72506498,5.63632076 L4.68567818,8.67075473 C4.27402954,9.07780603 3.61147775,9.07780603 3.19982912,8.67075473 L0.167046108,5.63466982 C-0.0556820359,5.41165219 -0.0556820359,5.05037611 0.167046108,4.82735849 C0.392441609,4.60886813 0.750612867,4.60886813 0.976008369,4.82735849 L3.37482913,7.22617925 L3.37482913,0.571226414 C3.37482913,0.255746777 3.6305759,0 3.94605554,0 Z"></path></clipPath><clipPath id="i2"><path d="M11.5004717,0.000828622248 C12.8808127,0.00264935547 13.9990907,1.12166596 14,2.50200786 L14,9.57299844 C13.9990907,10.9533403 12.8808127,12.0723569 11.5004717,12.0741777 L2.50117924,12.0741777 C1.12057024,12.0723587 0.00181898736,10.9536074 0,9.57299844 L0,2.50200786 C0.00181898736,1.12139886 1.12057024,0.00264760961 2.50117924,0.000828622248 C2.80518619,0.0171662349 3.043314,0.268434882 3.043314,0.572880508 C3.043314,0.877326134 2.80518619,1.12859478 2.50117924,1.14493239 C1.75206428,1.14584207 1.14501344,1.7528929 1.14410377,2.50200786 L1.14410377,9.57299844 C1.14501344,10.3221134 1.75206428,10.9291642 2.50117924,10.9300739 L11.5004717,10.9300739 C12.249319,10.9291629 12.8558968,10.3218463 12.8558962,9.57299844 L12.8558962,2.50200786 C12.8558968,1.75316004 12.249319,1.1458434 11.5004717,1.14493239 C11.2887643,1.15630974 11.0880834,1.04983383 10.9788082,0.868151731 C10.8695329,0.686469637 10.8695329,0.459291379 10.9788082,0.277609285 C11.0880834,0.0959271907 11.2887643,-0.0105487268 11.5004717,0.000828622248 Z"></path></clipPath></defs><g transform="translate(-1376.0 -725.0)"><g clip-path="url(#i0)"><g transform="translate(1376.0 725.0)"><g transform="translate(5.0 5.0)"><g transform="translate(3.0539444653302334 0.0)"><g clip-path="url(#i1)"><polygon points="8.32667268e-17,0 7.8936277,0 7.8936277,8.9760432 8.32667268e-17,8.9760432 8.32667268e-17,0" stroke="none" fill="#000000"></polygon></g></g><g transform="translate(0.0 1.6055393039487171)"><g clip-path="url(#i2)"><polygon points="0,6.09321621e-17 14,6.09321621e-17 14,12.0741777 0,12.0741777 0,6.09321621e-17" stroke="none" fill="#000000"></polygon></g></g></g></g></g></g></svg>