<?xml version="1.0" encoding="UTF-8"?><svg version="1.1" width="15px" height="15px" viewBox="0 0 15.0 15.0" xmlns="http://www.w3.org/2000/svg" xmlns:xlink="http://www.w3.org/1999/xlink"><defs><clipPath id="i0"><path d="M1440,0 L1440,1255 L0,1255 L0,0 L1440,0 Z"></path></clipPath><clipPath id="i1"><path d="M1440,0 L1440,1548 L0,1548 L0,0 L1440,0 Z"></path></clipPath><clipPath id="i2"><path d="M1149,0 C1154.52285,-1.01453063e-15 1159,4.4771525 1159,10 L1159,501 C1159,506.522847 1154.52285,511 1149,511 L10,511 C4.4771525,511 6.76353751e-16,506.522847 0,501 L0,10 C-6.76353751e-16,4.4771525 4.4771525,1.01453063e-15 10,0 L1149,0 Z"></path></clipPath><clipPath id="i3"><path d="M14.2806171,6.40802646 C14.6483144,6.38614625 14.9647392,6.66475428 14.9867132,7.03088316 C15.0892582,8.72587025 14.595577,10.4252334 13.59796,11.8138975 C13.1013489,12.5053122 12.497798,13.1019126 11.8004916,13.5876533 C11.5529185,13.7597777 11.2965558,13.9173152 11.0314036,14.0573485 C10.5230731,14.3272045 9.98397903,14.5372545 9.41998119,14.68604 C7.97116594,15.0682143 6.46082366,15.0127845 5.05009658,14.5270438 C3.81955583,14.1025676 2.72964831,13.3746859 1.8741295,12.4090392 L0.779827179,12.9939702 L0.895556609,9.21161094 L4.12865594,11.2012516 L3.08855602,11.7584676 C4.62966182,13.3309255 6.91055701,13.9742037 9.07865262,13.4024009 C11.9030366,12.6555563 13.827954,10.0095093 13.6550923,7.1111106 C13.6331183,6.74498172 13.9129199,6.42990666 14.2806171,6.40802646 Z M5.57893611,0.250934821 C7.02775136,-0.131239552 8.53809364,-0.0758096788 9.94882072,0.409931026 C11.1793615,0.83586582 12.269269,1.56374753 13.1247878,2.52939422 L14.2190901,1.94300454 L14.1033607,5.72536385 L10.8702614,3.73572323 L11.9103613,3.17850718 C10.3692555,1.60604928 8.08836029,0.962771043 5.92026468,1.53457391 C3.09148589,2.28141848 1.16803349,4.93038281 1.34528996,7.83461628 C1.3672639,8.20074516 1.08746237,8.51582022 0.719765073,8.53770042 C0.352067773,8.55958063 0.0356430134,8.2809726 0.0136690658,7.91484372 C-0.0903409214,6.21839796 0.401875375,4.51757615 1.39949235,3.12745334 C1.89610344,2.43457997 2.50111931,1.83652085 3.19842573,1.35078014 C3.91917103,0.847535273 4.72048744,0.477030338 5.57893611,0.250934821 Z"></path></clipPath></defs><g transform="translate(-1370.0 -369.0)"><g clip-path="url(#i0)"><g clip-path="url(#i1)"><polygon points="0,0 1440,0 1440,1255 0,1255 0,0" stroke="none" fill="#FAFAFA"></polygon></g><g transform="translate(200.0 342.0)"><g transform="translate(48.0 0.0)"><g clip-path="url(#i2)"><polygon points="0,0 1159,0 1159,511 0,511 0,0" stroke="none" fill="#FFFFFF"></polygon></g></g><g transform="translate(1170.0 26.88235294117658)"><g clip-path="url(#i3)"><polygon points="0,-5.55111512e-17 15,-5.55111512e-17 15,14.9369748 0,14.9369748 0,-5.55111512e-17" stroke="none" fill="#505050"></polygon></g></g></g></g></g></svg>