<?xml version="1.0" encoding="UTF-8"?><svg version="1.1" width="16px" height="16px" viewBox="0 0 16.0 16.0" xmlns="http://www.w3.org/2000/svg" xmlns:xlink="http://www.w3.org/1999/xlink"><defs><clipPath id="i0"><path d="M1440,0 L1440,1255 L0,1255 L0,0 L1440,0 Z"></path></clipPath><clipPath id="i1"><path d="M1440,0 L1440,1548 L0,1548 L0,0 L1440,0 Z"></path></clipPath><clipPath id="i2"><path d="M1149,0 C1154.52285,-1.01453063e-15 1159,4.4771525 1159,10 L1159,501 C1159,506.522847 1154.52285,511 1149,511 L10,511 C4.4771525,511 6.76353751e-16,506.522847 0,501 L0,10 C-6.76353751e-16,4.4771525 4.4771525,1.01453063e-15 10,0 L1149,0 Z"></path></clipPath><clipPath id="i3"><path d="M10.8436059,0 C11.6699798,0.000161571924 12.433526,0.455057525 12.84657,1.19338343 L15.6901759,6.27539281 C16.1032747,7.01371422 16.1032747,7.92326057 15.6901759,8.66158198 L12.84657,13.7437564 C12.4335056,14.4820506 11.6699633,14.9369748 10.8436059,14.9369748 L5.15639411,14.9369748 C4.33002015,14.9369748 3.56647401,14.4819998 3.15342995,13.7436739 L0.309824074,8.66158198 C-0.103274691,7.92326057 -0.103274691,7.01371422 0.309824074,6.27539281 L3.15342995,1.1933009 C3.56647401,0.454974988 4.33002015,0 5.15639411,0 L10.8436059,0 Z M10.8435259,1.23794653 L5.15631411,1.23794653 C4.75880695,1.23794653 4.39144853,1.4568495 4.19271211,1.81206785 L1.34910621,6.89432481 C1.15027488,7.24971269 1.15027488,7.68750968 1.34910621,8.04289756 L4.19279212,13.124907 C4.3915082,13.4801571 4.75887044,13.6991108 5.1564741,13.6991108 L10.8436859,13.6991108 C11.2412896,13.6991108 11.6086518,13.4801571 11.8073679,13.124907 L14.6509738,8.04281503 C14.8498051,7.68742715 14.8498051,7.24963017 14.6509738,6.89424229 L11.8072079,1.81206785 C11.6084715,1.4568495 11.241113,1.23794653 10.8435259,1.23794653 Z M7.95999991,4.53165506 C9.5064031,4.53165506 10.7600057,5.82481033 10.7600057,7.42000439 C10.7600057,9.01519845 9.5064031,10.3083537 7.95999991,10.3083537 C6.4135967,10.3083537 5.15999412,9.01519845 5.15999412,7.42000439 C5.15999412,5.82481033 6.41359672,4.53165506 7.95999991,4.53165506 Z M7.95999991,5.76951906 C7.07631808,5.76951906 6.35999661,6.50844134 6.35999661,7.42000439 C6.35999661,8.33156744 7.07631808,9.07048972 7.95999991,9.07048972 C8.84368174,9.07048972 9.56000322,8.33156744 9.56000322,7.42000439 C9.56000322,6.50844134 8.84368174,5.76951906 7.95999991,5.76951906 Z"></path></clipPath></defs><g transform="translate(-1344.0 -368.0)"><g clip-path="url(#i0)"><g clip-path="url(#i1)"><polygon points="0,0 1440,0 1440,1255 0,1255 0,0" stroke="none" fill="#FAFAFA"></polygon></g><g transform="translate(200.0 342.0)"><g transform="translate(48.0 0.0)"><g clip-path="url(#i2)"><polygon points="0,0 1159,0 1159,511 0,511 0,0" stroke="none" fill="#FFFFFF"></polygon></g></g><g transform="translate(1144.0 26.88235294117661)"><g clip-path="url(#i3)"><polygon points="0,0 16,0 16,14.9369748 0,14.9369748 0,0" stroke="none" fill="#505050"></polygon></g></g></g></g></g></svg>