<?xml version="1.0" encoding="UTF-8"?><svg version="1.1" width="96px" height="96px" viewBox="0 0 96.0 96.0" xmlns="http://www.w3.org/2000/svg" xmlns:xlink="http://www.w3.org/1999/xlink"><defs><clipPath id="i0"><path d="M1440,0 L1440,1183 L0,1183 L0,0 L1440,0 Z"></path></clipPath><clipPath id="i1"><path d="M47.9991914,0.000100638432 C60.7335511,-0.0166847879 72.950258,5.03898048 81.9487448,14.0496165 C100.683752,32.7698252 100.683752,63.2298798 81.9487448,81.9501822 C72.9617221,90.9779544 60.7375486,96.0367096 47.9991914,95.9997994 C35.2631897,96.0251989 23.0433564,90.9681979 14.0499192,81.9501822 C-4.6833064,63.2299736 -4.6833064,32.7699189 14.0499192,14.0496165 C23.0430087,5.03108099 35.2630684,-0.0260137128 47.9991914,0.000100638432 Z M76.2900953,30.7962621 C74.9157569,29.6068871 72.8569947,29.6777169 71.5676477,30.9587335 L41.7408138,62.6779646 L25.8045688,46.981711 C24.4839896,45.718042 22.4026066,45.718042 21.0820274,46.981711 C20.4820181,47.5854708 20.1456631,48.4642038 20.1456631,49.3430304 C20.1328519,50.2335721 20.49149,51.0892963 21.1356532,51.7043498 L39.5955934,69.8724558 C39.8027217,70.0198741 40.022671,70.1483923 40.252791,70.2564621 L40.6367969,70.4780906 C41.0273493,70.6079911 41.4346308,70.6807448 41.846003,70.6940941 C42.2810429,70.6888596 42.7105554,70.5959101 43.1088349,70.4208085 C43.3303695,70.3691514 43.4393087,70.2583371 43.6035612,70.1476165 C43.8152906,70.0649716 44.0044503,69.9333821 44.1555698,69.7636103 L76.4009095,35.4578686 C76.9985383,34.843164 77.333922,34.0176035 77.336956,33.1575815 C77.3409852,32.2571438 76.9600573,31.3978889 76.2900953,30.7962621 Z"></path></clipPath></defs><g transform="translate(-668.0 -468.0)"><g clip-path="url(#i0)"><g transform="translate(668.0 468.0)"><g clip-path="url(#i1)"><polygon points="1.77635684e-15,-3.60900491e-13 96,-3.60900491e-13 96,96 1.77635684e-15,96 1.77635684e-15,-3.60900491e-13" stroke="none" fill="#52C31A"></polygon></g></g></g></g></svg>