<?xml version="1.0" encoding="UTF-8"?><svg version="1.1" width="24px" height="24px" viewBox="0 0 24.0 24.0" xmlns="http://www.w3.org/2000/svg" xmlns:xlink="http://www.w3.org/1999/xlink"><defs><clipPath id="i0"><path d="M1440,0 L1440,1255 L0,1255 L0,0 L1440,0 Z"/></clipPath><clipPath id="i1"><path d="M24,0 L24,24 L0,24 L0,0 L24,0 Z"/></clipPath><clipPath id="i2"><path d="M14.173913,0 C16.173913,0 17.8115942,1.50361446 17.8115942,3.33975904 C17.8115942,4.19277108 17.4637681,4.97349398 16.8695652,5.58072289 C18.7681159,6.47710843 20,8.26987952 20,10.3084337 L20,11.3349398 C20,11.6963855 19.6811594,12 19.2753623,12 L17.9710145,12 C17.9710145,11.5373494 17.9275362,11.2481928 17.826087,10.8144578 L18.8695652,10.8144578 L18.8695652,10.2939759 C18.8695652,8.44337349 17.5217391,6.86746988 15.5797101,6.41927711 L15.4347826,6.39036145 C15.1304348,6.30361446 14.9130435,6.05783133 14.9130435,5.7686747 C14.9130435,5.47951807 15.115942,5.24819277 15.4057971,5.14698795 C16.173913,4.82891566 16.6811594,4.1060241 16.6811594,3.3253012 C16.6811594,2.44337349 15.7101449,1.69156627 14.8405797,1.4313253 C14.6956522,0.997590361 14.4927536,0.636144578 14.2028986,0.274698795 C14.1449275,0.187951807 14.057971,0.086746988 14,0.0144578313 C14.057971,0.0144578313 14.115942,0 14.173913,0 Z M5.82608696,0 L6,0.0144752714 C5.95652174,0.0868516285 5.86956522,0.159227986 5.8115942,0.231604343 C5.50724638,0.579010856 5.31884058,0.998793727 5.15942029,1.43305187 C4.28985507,1.69360676 3.44927536,2.44632087 3.44927536,3.32931242 C3.44927536,4.11097708 3.94202899,4.83474065 4.72463768,5.15319662 C5.01449275,5.25452352 5.2173913,5.50060314 5.2173913,5.77563329 C5.2173913,6.06513872 5,6.31121834 4.69565217,6.39806996 L4.55072464,6.42702051 C2.60869565,6.87575392 1.26086957,8.46803378 1.26086957,10.291918 L1.26086957,10.8130277 L2.17391304,10.8130277 C2.08695652,11.2472859 2.02898551,11.5367913 2.02898551,12 L0.724637681,12 C0.31884058,12 0,11.7104946 0,11.3341375 L0,10.3063932 C0,8.26537998 1.23188406,6.47044632 3.13043478,5.58745476 C2.53623188,4.97949337 2.1884058,4.18335344 2.1884058,3.3437877 C2.1884058,1.49095296 3.82608696,0 5.82608696,0 Z"/></clipPath><clipPath id="i3"><path d="M6.440625,0 C8.5640625,0 10.29375,1.75637394 10.29375,3.92351275 C10.29375,5.16997167 9.7171875,6.27478754 8.8171875,6.99716714 C11.1796875,7.96033994 12.8671875,10.3116147 12.8671875,13.0453258 L12.8671875,14.3484419 C12.8671875,14.7025496 12.571875,15 12.2203125,15 L0.646875,15 C0.28125,15 0,14.7025496 0,14.3484419 L0,13.0453258 C0,10.2974504 1.6734375,7.94617564 4.05,6.98300283 C3.15,6.27478754 2.5734375,5.15580737 2.5734375,3.90934844 C2.5734375,1.75637394 4.303125,0 6.440625,0 Z M6.440625,7.94617564 C3.6703125,7.94617564 1.4203125,10.2407932 1.4203125,13.0453258 L1.4203125,13.6827195 L11.446875,13.6827195 L11.446875,13.0453258 C11.446875,10.2266289 9.2109375,7.94617564 6.440625,7.94617564 Z M6.440625,1.31728045 C5.034375,1.31728045 3.88125,2.47875354 3.88125,3.90934844 C3.88125,5.33994334 5.0203125,6.50141643 6.440625,6.50141643 C7.846875,6.50141643 9,5.33994334 9,3.90934844 C9,2.47875354 7.846875,1.31728045 6.440625,1.31728045 Z"/></clipPath></defs><g transform="translate(-398.0 -808.0)"><g clip-path="url(#i0)"><g transform="translate(398.0 808.0)"><g clip-path="url(#i1)"><g transform="translate(2.0 5.0)"><g transform="translate(0.0 1.0)"><g clip-path="url(#i2)"><polygon points="0,0 20,0 20,12 0,12 0,0" stroke="none"/></g><path d="M16.8695652,5.58072289 C17.4637681,4.97349398 17.8115942,4.19277108 17.8115942,3.33975904 C17.8115942,1.50361446 16.173913,0 14.173913,0 C14.115942,0 14.057971,0.0144578313 14,0.0144578313 C14.057971,0.086746988 14.1449275,0.187951807 14.2028986,0.274698795 C14.4927536,0.636144578 14.6956522,0.997590361 14.8405797,1.4313253 C15.7101449,1.69156627 16.6811594,2.44337349 16.6811594,3.3253012 C16.6811594,4.1060241 16.173913,4.82891566 15.4057971,5.14698795 C15.115942,5.24819277 14.9130435,5.47951807 14.9130435,5.7686747 C14.9130435,6.05783133 15.1304348,6.30361446 15.4347826,6.39036145 L15.5797101,6.41927711 C17.5217391,6.86746988 18.8695652,8.44337349 18.8695652,10.2939759 L18.8695652,10.8144578 L17.826087,10.8144578 C17.9275362,11.2481928 17.9710145,11.5373494 17.9710145,12 L19.2753623,12 C19.6811594,12 20,11.6963855 20,11.3349398 L20,10.3084337 C20,8.26987952 18.7681159,6.47710843 16.8695652,5.58072289 Z M4.55072464,6.42702051 L4.69565217,6.39806996 C5,6.31121834 5.2173913,6.06513872 5.2173913,5.77563329 C5.2173913,5.50060314 5.01449275,5.25452352 4.72463768,5.15319662 C3.94202899,4.83474065 3.44927536,4.11097708 3.44927536,3.32931242 C3.44927536,2.44632087 4.28985507,1.69360676 5.15942029,1.43305187 C5.31884058,0.998793727 5.50724638,0.579010856 5.8115942,0.231604343 C5.86956522,0.159227986 5.95652174,0.0868516285 6,0.0144752714 C5.94202899,0.0144752714 5.88405797,0 5.82608696,0 C3.82608696,0 2.1884058,1.49095296 2.1884058,3.3437877 C2.1884058,4.18335344 2.53623188,4.97949337 3.13043478,5.58745476 C1.23188406,6.47044632 0,8.26537998 0,10.3063932 L0,11.3341375 C0,11.7104946 0.31884058,12 0.724637681,12 L2.02898551,12 C2.02898551,11.5367913 2.08695652,11.2472859 2.17391304,10.8130277 L1.26086957,10.8130277 L1.26086957,10.291918 C1.26086957,8.46803378 2.60869565,6.87575392 4.55072464,6.42702051 L4.55072464,6.42702051 Z" stroke="#505050" stroke-width="0.3" stroke-miterlimit="10"/></g><g transform="translate(3.587500000000091 0.0)"><g clip-path="url(#i3)"><polygon points="0,0 12.8671875,0 12.8671875,15 0,15 0,0" stroke="none"/></g><path d="M8.8171875,6.99716714 C9.7171875,6.27478754 10.29375,5.16997167 10.29375,3.92351275 C10.29375,1.75637394 8.5640625,0 6.440625,0 C4.303125,0 2.5734375,1.75637394 2.5734375,3.90934844 C2.5734375,5.15580737 3.15,6.27478754 4.05,6.98300283 C1.6734375,7.94617564 0,10.2974504 0,13.0453258 L0,14.3484419 C0,14.7025496 0.28125,15 0.646875,15 L12.2203125,15 C12.571875,15 12.8671875,14.7025496 12.8671875,14.3484419 L12.8671875,13.0453258 C12.8671875,10.3116147 11.1796875,7.96033994 8.8171875,6.99716714 Z M3.88125,3.90934844 C3.88125,2.47875354 5.034375,1.31728045 6.440625,1.31728045 C7.846875,1.31728045 9,2.47875354 9,3.90934844 C9,5.33994334 7.846875,6.50141643 6.440625,6.50141643 C5.0203125,6.50141643 3.88125,5.33994334 3.88125,3.90934844 L3.88125,3.90934844 Z M11.446875,13.6827195 L1.4203125,13.6827195 L1.4203125,13.0453258 C1.4203125,10.2407932 3.6703125,7.94617564 6.440625,7.94617564 C9.2109375,7.94617564 11.446875,10.2266289 11.446875,13.0453258 L11.446875,13.6827195 L11.446875,13.6827195 Z" stroke="#505050" stroke-width="0.5" stroke-miterlimit="10"/></g></g></g></g></g></g></svg>