<?xml version="1.0" encoding="UTF-8"?><svg version="1.1" width="24px" height="24px" viewBox="0 0 24.0 24.0" xmlns="http://www.w3.org/2000/svg" xmlns:xlink="http://www.w3.org/1999/xlink"><defs><clipPath id="i0"><path d="M1440,0 L1440,1183 L0,1183 L0,0 L1440,0 Z"></path></clipPath><clipPath id="i1"><path d="M11.3756049,0 C12.2692642,0 13,0.730735823 13,1.62439509 L13,11.3756049 C13,12.2676511 12.2692642,13 11.3739918,13 L1.62439509,13 C0.730735823,13 0,12.2692642 0,11.3756049 L0,1.62439509 C0,0.730735823 0.730735823,0 1.62439509,0 L11.3756049,0 Z M11.3756049,0.811390991 L1.62439509,0.811390991 C1.13723787,0.811390991 0.811390991,1.13562477 0.811390991,1.62439509 L0.811390991,11.3756049 C0.811390991,11.8627621 1.13562477,12.188609 1.62439509,12.188609 L11.3756049,12.188609 C11.8627621,12.188609 12.188609,11.8643752 12.188609,11.3756049 L12.188609,1.62439509 C12.188609,1.13723787 11.8643752,0.811390991 11.3756049,0.811390991 Z"></path></clipPath><clipPath id="i2"><path d="M2.8571936,0.000678261465 L2.92122099,0.0114233249 C3.00438279,0.0346270347 3.05866953,0.089277875 3.05882353,0.149948783 L3.05882353,3.67358063 C3.05866953,3.73425154 3.00438279,3.78890238 2.92122099,3.81210609 C2.83805918,3.8353098 2.74235454,3.82250937 2.67863497,3.77966039 L0.0653608927,2.01760978 C0.0235196828,1.98951322 0,1.95134112 0,1.91153002 C0,1.87171891 0.0235196828,1.83354682 0.0653608927,1.80545025 L2.67863497,0.0438690177 C2.74235454,0.00102003746 2.83805918,-0.0117803849 2.92122099,0.0114233249 Z"></path></clipPath></defs><g transform="translate(-500.0 -265.0)"><g clip-path="url(#i0)"><g transform="translate(500.0 265.0)"><g transform="translate(6.0 6.0)"><g clip-path="url(#i1)"><polygon points="0,0 13,0 13,13 0,13 0,0" stroke="none" fill="#000000"></polygon></g><g transform="translate(4.588235294117646 4.588235294117646)"><g clip-path="url(#i2)"><polygon points="0,3.46944695e-18 3.05882353,3.46944695e-18 3.05882353,3.82352941 0,3.82352941 0,3.46944695e-18" stroke="none" fill="#000000"></polygon></g></g></g></g></g></g></svg>