<?xml version="1.0" encoding="UTF-8"?><svg version="1.1" width="24px" height="24px" viewBox="0 0 24.0 24.0" xmlns="http://www.w3.org/2000/svg" xmlns:xlink="http://www.w3.org/1999/xlink"><defs><clipPath id="i0"><path d="M1440,0 L1440,1183 L0,1183 L0,0 L1440,0 Z"></path></clipPath><clipPath id="i1"><path d="M9.05882353,0 L9.05882353,3 L7.82352941,3 L7.82352941,6 L13.1764706,6 L13.1764706,11 L14,11 L14,14 L10.7058823,14 L10.7058823,11 L11.5294118,11 L11.5294118,8 L7.82352941,8 L7.82352941,11 L9.05882353,11 L9.05882353,14 L4.94117647,14 L4.94117647,11 L6.17647059,11 L6.17647059,8 L2.47058824,8 L2.47058824,11 L3.29411764,11 L3.29411764,14 L0,14 L0,11 L0.823529399,11 L0.823529399,6 L6.17647059,6 L6.17647059,3 L4.94117647,3 L4.94117647,0 L9.05882353,0 Z"></path></clipPath></defs><g transform="translate(-698.0 -246.0)"><g clip-path="url(#i0)"><g transform="translate(670.0 246.0)"><g transform="translate(28.0 0.0)"><g transform="translate(5.0 5.0)"><g clip-path="url(#i1)"><polygon points="0,0 14,0 14,14 0,14 0,0" stroke="none" fill="#000000"></polygon></g><polygon points="7.82352941,11 9.05882353,11 9.05882353,14 4.94117647,14 4.94117647,11 6.17647059,11 6.17647059,8 2.47058824,8 2.47058824,11 3.29411764,11 3.29411764,14 0,14 0,11 0.823529399,11 0.823529399,6 6.17647059,6 6.17647059,3 4.94117647,3 4.94117647,0 9.05882353,0 9.05882353,3 7.82352941,3 7.82352941,6 13.1764706,6 13.1764706,11 14,11 14,14 10.7058823,14 10.7058823,11 11.5294118,11 11.5294118,8 7.82352941,8 7.82352941,11 7.82352941,11" stroke="#FFFFFF" stroke-width="0.7" fill="none" stroke-miterlimit="10"></polygon></g></g></g></g></g></svg>