<?xml version="1.0" encoding="UTF-8"?><svg version="1.1" width="16px" height="16px" viewBox="0 0 16.0 16.0" xmlns="http://www.w3.org/2000/svg" xmlns:xlink="http://www.w3.org/1999/xlink"><defs><clipPath id="i0"><path d="M1440,0 L1440,1267 L0,1267 L0,0 L1440,0 Z"></path></clipPath><clipPath id="i1"><path d="M8.33333333,0 C9.25,0 10,0.75 10,1.66666667 L10,8.33333333 C10,9.25 9.25,10 8.33333333,10 L1.66666667,10 C0.75,10 0,9.25 0,8.33333333 L0,1.66666667 C0,0.75 0.75,0 1.66666667,0 Z M8.33333333,0.833333333 L1.66666667,0.833333333 C1.20833333,0.833333333 0.833333333,1.20833333 0.833333333,1.66666667 L0.833333333,8.33333333 C0.833333333,8.79166667 1.20833333,9.16666667 1.66666667,9.16666667 L8.33333333,9.16666667 C8.79166667,9.16666667 9.16666667,8.79166667 9.16666667,8.33333333 L9.16666667,1.66666667 C9.16666667,1.20833333 8.79166667,0.833333333 8.33333333,0.833333333 Z"></path></clipPath></defs><g transform="translate(-781.0 -261.0)"><g clip-path="url(#i0)"><g transform="translate(781.0 261.0)"><g transform="translate(3.0 3.0)"><g clip-path="url(#i1)"><polygon points="0,0 10,0 10,10 0,10 0,0" stroke="none" fill="#505050"></polygon></g></g></g></g></g></svg>