<?xml version="1.0" encoding="UTF-8"?><svg version="1.1" width="25px" height="25px" viewBox="0 0 25.0 25.0" xmlns="http://www.w3.org/2000/svg" xmlns:xlink="http://www.w3.org/1999/xlink"><defs><clipPath id="i0"><path d="M1440,0 L1440,1024 L0,1024 L0,0 L1440,0 Z"/></clipPath><clipPath id="i1"><path d="M9.59758822,0 C13.204109,0 15.3552926,2.03361343 15.3552926,5.44117646 C15.3552926,8.97478991 14.4048683,11.3613445 12.4488611,12.7142857 L12.4403752,13.1218487 C15.7159446,13.5588235 19,14.8529412 19,16.8277311 C19,19.5966387 15.8050469,21 9.5,21 C3.1949531,21 0,19.5966387 0,16.8277311 C0,14.8487395 3.2925413,13.5546218 6.5765967,13.117647 L6.5765967,12.7058823 C4.60361769,11.3445378 3.64470746,8.9579832 3.64470746,5.44117646 C3.64470746,2.03361343 5.80013399,0 9.4024118,0 Z"/></clipPath></defs><g transform="translate(-25.0 -705.0)"><g clip-path="url(#i0)"><g transform="translate(25.0 705.0)"><g transform="translate(3.0 2.0)"><g clip-path="url(#i1)"><path d="M12.4403752,13.1218487 L12.4488611,12.7142857 C14.4048683,11.3613445 15.3552926,8.97478991 15.3552926,5.44117646 C15.3552926,2.03361343 13.204109,0 9.59758822,0 L9.4024118,0 C5.80013399,0 3.64470746,2.03361343 3.64470746,5.44117646 C3.64470746,8.9579832 4.60361769,11.3445378 6.5765967,12.7058823 L6.5765967,13.117647 C3.2925413,13.5546218 0,14.8487395 0,16.8277311 C0,19.5966387 3.1949531,21 9.5,21 C15.8050469,21 19,19.5966387 19,16.8277311 C19,14.8529412 15.7159446,13.5588235 12.4403752,13.1218487 Z" stroke="#2F2F2F" stroke-width="3" stroke-miterlimit="5"/></g></g></g></g></g></svg>