<?xml version="1.0" encoding="UTF-8"?><svg version="1.1" width="24px" height="24px" viewBox="0 0 24.0 24.0" xmlns="http://www.w3.org/2000/svg" xmlns:xlink="http://www.w3.org/1999/xlink"><defs><clipPath id="i0"><path d="M1440,0 L1440,1168 L0,1168 L0,0 L1440,0 Z"></path></clipPath><clipPath id="i1"><path d="M8.72257486,2.55081294e-07 C9.25359047,-0.000188597798 9.7629056,0.235766492 10.1383904,0.655918342 C10.5138751,1.07607019 10.7247454,1.64597266 10.7245765,2.24015708 L10.7245765,9.75984282 C10.7245765,10.354031 10.5136082,10.9238776 10.1380912,11.3439987 C9.76257416,11.7641198 9.25327542,12.0000003 8.72225642,12.0000003 L2.0023202,12.0000003 C1.47127531,12.0001885 0.961927471,11.7642447 0.586392151,11.3441031 C0.210856832,10.9239616 1.01427531e-07,10.35406 1.01427531e-07,9.75984282 L1.01427531e-07,2.24015708 C-0.000168852175,1.6459109 0.210745138,1.07595438 0.586298793,0.655792277 C0.961852449,0.235630171 1.47124942,-0.000283168489 2.0023202,2.55081294e-07 L8.72257486,2.55081294e-07 Z M2.0023202,1.11206168 C1.45413399,1.1144059 1.01026078,1.6110816 1.00816578,2.22447919 L1.00816578,9.74416493 C1.01043519,10.3574234 1.45425766,10.8538832 2.0023202,10.8562261 L8.72257486,10.8562261 C9.2705852,10.8538819 9.71431585,10.3573657 9.71641085,9.74416493 L9.71641085,2.24015708 C9.71431823,1.62683939 9.2706882,1.13011771 8.72257486,1.12738327 L2.0023202,1.12738327 L2.0023202,1.11206168 Z"></path></clipPath><clipPath id="i2"><path d="M4.24731985,0.0929222533 C4.70518167,0.281056923 5,0.703647307 5,1.22101765 L5,8.53689083 C5,9.05390486 4.70518167,9.47685156 4.24731985,9.66462991 C4.10028293,9.72734147 3.93649497,9.74301936 3.7890858,9.74301936 C3.42912453,9.74301936 3.08554205,9.60191835 2.79072373,9.32007267 L0.171977531,6.82906986 C-0.0573256181,6.60957941 -0.0573256181,6.24970058 0.171977531,6.03021015 C0.401280679,5.81071972 0.777620745,5.8107197 1.00692389,6.03021015 L3.62529784,8.52121295 C3.72357062,8.61528028 3.78871355,8.61528028 3.80509235,8.61528028 C3.82147115,8.61528028 3.83784994,8.5839245 3.83784994,8.52121295 L3.83784994,1.22101765 C3.83784994,1.15830609 3.82147115,1.12695031 3.80509235,1.12695031 C3.78871355,1.12695031 3.70681957,1.12695031 3.62529784,1.22101765 L1.00692389,3.72734203 C0.775856895,3.94687415 0.403044529,3.94687415 0.171977531,3.72734203 C-0.0573258435,3.50628506 -0.0573258435,3.14953927 0.171977531,2.9284823 L2.79072373,0.421801621 C3.19982139,0.030210712 3.77233477,-0.110890291 4.24731985,0.0929222533 Z"></path></clipPath></defs><g transform="translate(-1070.0 -963.0)"><g clip-path="url(#i0)"><g transform="translate(1038.0 817.0)"><g transform="translate(32.0 146.0)"><g transform="translate(5.0 6.0)"><g clip-path="url(#i1)"><polygon points="1.68453477e-14,1.50990331e-13 10.7245766,1.50990331e-13 10.7245766,12.0000004 1.68453477e-14,12.0000004 1.68453477e-14,1.50990331e-13" stroke="none" fill="#000000"></polygon></g><g transform="translate(9.722779399239357 1.2229519879103776)"><g clip-path="url(#i2)"><polygon points="0,-5.55111512e-17 5,-5.55111512e-17 5,9.74301936 0,9.74301936 0,-5.55111512e-17" stroke="none" fill="#000000"></polygon></g></g></g></g></g></g></g></svg>