<?xml version="1.0" encoding="UTF-8"?><svg version="1.1" width="24px" height="24px" viewBox="0 0 24.0 24.0" xmlns="http://www.w3.org/2000/svg" xmlns:xlink="http://www.w3.org/1999/xlink"><defs><clipPath id="i0"><path d="M1440,0 L1440,1168 L0,1168 L0,0 L1440,0 Z"></path></clipPath><clipPath id="i1"><path d="M7.91999999,0 C8.28000001,0 8.58,0.116666662 8.76,0.35 L11.64,3.15 C11.88,3.38333332 12,3.675 12,3.96666666 L12,12.8333333 C12,13.475 11.46,14 10.8,14 L1.20000001,14 C0.54,14 0,13.475 0,12.8333333 L0,1.16666666 C0,0.525 0.54,0 1.20000001,0 Z M7.8,1.16666666 L1.20000001,1.16666666 L1.20000001,12.8333333 L10.8,12.8333333 L10.8,4.08333334 L7.8,1.16666666 Z"></path></clipPath><clipPath id="i2"><path d="M1.20000001,8.16666666 L2.4,8.16666666 L2.4,9.33333332 L1.20000001,9.33333332 L1.20000001,8.16666666 Z M1.20000001,1.16666666 L0,1.16666666 L0,0 L1.20000001,0 L1.20000001,1.16666666 Z M1.20000001,2.33333332 L1.20000001,1.16666666 L2.4,1.16666666 L2.4,2.33333332 L1.20000001,2.33333332 Z M1.20000001,3.5 L0,3.5 L0,2.33333332 L1.20000001,2.33333332 L1.20000001,3.5 Z M1.20000001,4.66666666 L1.20000001,3.5 L2.4,3.5 L2.4,4.66666666 L1.20000001,4.66666666 Z M1.20000001,5.83333332 L0,5.83333332 L0,4.66666666 L1.20000001,4.66666666 L1.20000001,5.83333332 Z M1.20000001,7 L1.20000001,5.83333332 L2.4,5.83333332 L2.4,7 L1.20000001,7 Z M1.20000001,8.16666666 L0,8.16666666 L0,7 L1.20000001,7 L1.20000001,8.16666666 Z"></path></clipPath></defs><g transform="translate(-1070.0 -1043.0)"><g clip-path="url(#i0)"><g transform="translate(1038.0 817.0)"><g transform="translate(32.0 226.0)"><g transform="translate(6.0 5.0)"><g clip-path="url(#i1)"><polygon points="0,0 12,0 12,14 0,14 0,0" stroke="none" fill="#000000"></polygon></g><g transform="translate(3.5999999971874006 2.333333337890508)"><g clip-path="url(#i2)"><polygon points="0,0 2.4,0 2.4,9.33333332 0,9.33333332 0,0" stroke="none" fill="#000000"></polygon></g></g></g></g></g></g></g></svg>