<svg xmlns="http://www.w3.org/2000/svg" width="16" height="16"><defs><clipPath id="a"><path d="M1440 0v1142H0V0h1440Z"/></clipPath><clipPath id="b"><path d="M5 0a5 5 0 1 1-.001 10.001A5 5 0 0 1 5 0Zm0 .804a4.168 4.168 0 0 0-2.967 1.229 4.19 4.19 0 0 0-.9 4.6c.211.5.514.95.9 1.334a4.19 4.19 0 0 0 4.6.9c.5-.211.948-.514 1.334-.9A4.171 4.171 0 0 0 9.196 5a4.168 4.168 0 0 0-1.229-2.967A4.19 4.19 0 0 0 5 .804Z"/></clipPath><clipPath id="c"><path d="M.402 0c.222 0 .401.18.401.402v2.857L2.83 5.286a.4.4 0 0 1-.284.685.4.4 0 0 1-.285-.118L.127 3.72a.396.396 0 0 1-.062-.081A.396.396 0 0 1 0 3.419V.402C0 .18.18 0 .402 0Z"/></clipPath></defs><g clip-path="url(#a)" transform="translate(-726 -128)"><g clip-path="url(#b)" transform="translate(729 131)"><path fill="currentColor" d="M0 0h10v10H0V0z"/></g><g clip-path="url(#c)" transform="translate(733.59 132.574)"><path fill="currentColor" d="M0 0h2.948v5.97H0V0z"/></g></g></svg>