<svg xmlns="http://www.w3.org/2000/svg" width="12" height="12"><path fill="currentColor" fill-rule="nonzero" d="M12 0v11.046l-.492.009c-1.621.041-3.061.228-4.319.564-.415.11-.814.239-1.188.381-.39-.147-.787-.274-1.19-.38-1.257-.337-2.697-.524-4.319-.565L0 11.045V0c1.69.012 3.19.177 4.5.494v1.38l-.01-.003c-.942-.251-2.01-.416-3.2-.488v8.362c1.41.077 2.69.268 3.841.575.299.08.589.168.869.263.28-.095.569-.183.868-.263 1.151-.306 2.43-.498 3.842-.575v-8.36l-.44.03c-.932.07-1.856.222-2.761.456-.24.064-.47.133-.69.208v4.365H5.53V1.182C7.01.385 9.16.102 11.98.045V0H12Z"/></svg>