<?xml version="1.0" encoding="UTF-8"?>
<svg width="11px" height="15px" viewBox="0 0 11 15" version="1.1" xmlns="http://www.w3.org/2000/svg" xmlns:xlink="http://www.w3.org/1999/xlink">
    <title>编组</title>
    <g id="页面-2" stroke="none" stroke-width="1" fill="none" fill-rule="evenodd">
        <g id="画板备份-4" transform="translate(-242.000000, -1179.000000)" fill="#9CA3AF" fill-rule="nonzero">
            <g id="history备份-2" transform="translate(216.000000, 1120.000000)">
                <g id="编组-14" transform="translate(26.000000, 58.000000)">
                    <g id="编组" transform="translate(0.000000, 0.999953)">
                        <path d="M3.42569644,1.39605354 C3.58394371,2.20690949 3.14521708,3.01615636 2.37937746,3.32602609 L2.37831891,6.53872591 L7.75158843,6.53872591 C8.02651874,5.82341956 8.76541251,5.39895858 9.52182405,5.52180579 C10.2782356,5.644653 10.8448239,6.28113458 10.8792517,7.04668313 C10.9136795,7.81223168 10.4065096,8.49700165 9.66417842,8.68724939 C8.9218472,8.87749713 8.14783597,8.52107358 7.80980869,7.83333278 L2.37831891,7.83333278 L2.37831891,11.7171534 C2.37831891,11.9553272 2.57309215,12.1479833 2.81020739,12.1479833 L7.75264698,12.1479833 C8.02815129,11.4328927 8.76739163,11.0090229 9.52370841,11.1324821 C10.2800252,11.2559413 10.8461007,11.8928875 10.8799039,12.6584687 C10.9137072,13.4240499 10.4059722,14.1084088 9.66347984,14.2980461 C8.92098743,14.4876833 8.14726583,14.1306163 7.80980869,13.4425902 L2.80914884,13.4425902 C1.85645367,13.4425902 1.08371203,12.6698486 1.08371203,11.7171534 L1.08371203,3.32708464 C0.315311733,3.01912046 -0.12609146,2.20883452 0.0318790843,1.3962299 C0.189849629,0.583625278 0.902672521,-0.00227881661 1.7304862,6.66302776e-06 C2.55663927,0.000295154552 3.26744916,0.585197583 3.42569644,1.39605354 Z" id="形状"></path>
                    </g>
                </g>
            </g>
        </g>
    </g>
</svg>