<?xml version="1.0" encoding="UTF-8"?>
<svg width="16px" height="16px" viewBox="0 0 16 16" version="1.1" xmlns="http://www.w3.org/2000/svg" xmlns:xlink="http://www.w3.org/1999/xlink">
    <title>编组 16</title>
    <g id="页面-2" stroke="none" stroke-width="1" fill="none" fill-rule="evenodd">
        <g id="画板备份-4" transform="translate(-264.000000, -1259.000000)" fill-rule="nonzero">
            <g id="history备份-2" transform="translate(216.000000, 1120.000000)">
                <g id="编组-14备份-2" transform="translate(26.000000, 137.999953)">
                    <g id="编组-16" transform="translate(22.000000, 1.000047)">
                        <rect id="矩形" fill="#94A3B8" x="0" y="0" width="16" height="16" rx="3"></rect>
                        <g id="编组" transform="translate(4.000000, 4.000000)" fill="#FFFFFF">
                            <path d="M0.840732916,0.466900229 L3.82397245,3.08997912 C3.92465727,3.17855442 4.07544036,3.17855442 4.17612518,3.08997912 L7.15936471,0.466900229 C7.34413259,0.304495903 7.22928744,0 6.983386,0 L1.01680928,0 C0.771005503,0 0.656062694,0.304495903 0.840732916,0.466900229 Z" id="路径"></path>
                            <path d="M7.55731879,1.82715853 L4.35220155,4.64535699 C4.15073425,4.82250759 3.84916807,4.82250759 3.64779842,4.64535699 L0.442778841,1.82715853 C0.270511114,1.67549652 0,1.79795896 0,2.02735629 L0,6.33326821 C0,6.62780306 0.238772445,6.8665755 0.53330729,6.8665755 L7.46669268,6.8665755 C7.76122753,6.8665755 8,6.62780306 8,6.33326821 L8,2.02745395 C8.00009763,1.79795896 7.72958652,1.67569184 7.55731879,1.82715853 Z" id="路径"></path>
                        </g>
                    </g>
                </g>
            </g>
        </g>
    </g>
</svg>