<?xml version="1.0" encoding="UTF-8"?>
<svg width="16px" height="16px" viewBox="0 0 16 16" version="1.1" xmlns="http://www.w3.org/2000/svg" xmlns:xlink="http://www.w3.org/1999/xlink">
    <title>二级-应用事件</title>
    <g id="页面-2" stroke="none" stroke-width="1" fill="none" fill-rule="evenodd">
        <g id="画板备份-4" transform="translate(-243.000000, -1410.000000)" fill-rule="nonzero">
            <g id="history备份-3" transform="translate(216.000000, 1298.000000)">
                <g id="table" transform="translate(10.000000, 64.000000)">
                    <g id="直线-8备份-2" transform="translate(10.000000, 47.000013)">
                        <g id="编组-14" transform="translate(7.000000, 0.000000)">
                            <g id="二级-应用事件" transform="translate(0.000000, 0.999987)">
                                <rect id="矩形" fill="#10B981" x="0" y="0" width="16" height="16" rx="3"></rect>
                                <g id="编组" transform="translate(3.000000, 3.000000)" fill="#FFFFFF">
                                    <path d="M5.53571429,7.01683955 C5.53566537,7.31267179 5.29583225,7.55246526 5,7.55246526 C4.70416777,7.55246526 4.46433464,7.31267179 4.46428572,7.01683955 L4.46428572,0.945411009 C4.46431019,0.694424806 4.63858444,0.477101543 4.88357144,0.422553872 C5.68759942,0.243256231 6.50314723,0.120219971 7.32428572,0.0543395864 C8.14892857,-0.0117318391 8.88035715,-0.0117318391 9.52035714,0.0554110025 C9.79304386,0.0841098449 10,0.314075383 10,0.588268144 L10,8.44541098 C10,8.60519159 9.92866595,8.75662938 9.80548417,8.85839425 C9.68230239,8.96015912 9.52012541,9.00162768 9.36321428,8.97148241 C8.70392857,8.8446967 8.06892858,8.83326812 7.455,8.93541097 C6.96107143,9.01755383 6.3725,9.26969668 5.69607144,9.69719669 C5.2716544,9.96553109 4.72786657,9.95385639 4.31535716,9.66755384 C3.78571431,9.2996967 3.21464288,9.07005384 2.59714287,8.97469669 C1.80892859,8.85362526 1.16000003,8.85362526 0.653571449,8.96791098 C0.494786798,9.00372095 0.328333614,8.96539672 0.201195683,8.86375585 C0.0740577521,8.76211498 -4.16333633e-16,8.60818358 -4.16333633e-16,8.44541098 L-4.16333633e-16,0.588268144 C-4.16333633e-16,0.328716455 0.18592846,0.106449241 0.441428603,0.0607681558 C0.892142889,-0.0195889827 1.42071431,-0.0195889827 2.03071431,0.0568395767 C2.47857145,0.112553868 2.89142859,0.230053863 3.26678573,0.409696719 C3.44312773,0.490018404 3.56234936,0.659306642 3.57856092,0.852400549 C3.59477249,1.04549446 3.50544669,1.23229169 3.34496599,1.34089196 C3.1844853,1.44949223 2.97786782,1.46296532 2.80464288,1.37612529 C2.53571431,1.24755386 2.23428574,1.16183958 1.89750001,1.11969673 C1.5907143,1.08148244 1.31535716,1.0661253 1.0714286,1.07326815 L1.0714286,7.82755384 C1.57321431,7.7896967 2.13571431,7.82005384 2.76000001,7.91576812 C3.53964287,8.03576812 4.26357144,8.32719669 4.92642859,8.78719669 C4.98532517,8.82806789 5.06295432,8.82975548 5.12357143,8.79148241 C5.91142858,8.29362527 6.62714287,7.9871967 7.27892858,7.87862526 C7.81785714,7.78862526 8.36821429,7.7714824 8.92857143,7.82648241 L8.92857143,1.08576815 C8.47392858,1.06576815 7.9675,1.07755386 7.40964287,1.12219672 C6.78214287,1.17219671 6.15750002,1.25862529 5.53571429,1.38041101 L5.53571429,7.01683955 L5.53571429,7.01683955 Z" id="路径"></path>
                                </g>
                            </g>
                        </g>
                    </g>
                </g>
            </g>
        </g>
    </g>
</svg>