<?xml version="1.0" encoding="UTF-8"?>
<svg width="41px" height="40px" viewBox="0 0 41 40" version="1.1" xmlns="http://www.w3.org/2000/svg" xmlns:xlink="http://www.w3.org/1999/xlink">
    <title>编组</title>
    <g id="页面-2" stroke="none" stroke-width="1" fill="none" fill-rule="evenodd">
        <g id="画板备份-6" transform="translate(-369.000000, -325.000000)" fill-rule="nonzero">
            <g id="property备份" transform="translate(216.000000, 253.000000)">
                <g id="编组-16备份" transform="translate(132.750000, 57.000000)">
                    <g id="编组" transform="translate(21.000000, 15.000000)">
                        <path d="M34.143,34.1412712 C41.9527834,26.330533 41.9522674,13.6676779 34.1418475,5.85757625 C26.3314276,-1.95252542 13.6685724,-1.95252542 5.85815251,5.85757625 C-1.9522674,13.6676779 -1.95278339,26.330533 5.857,34.1412712 C9.60779783,37.8925276 14.6952466,40 20,40 C25.3047534,40 30.3922022,37.8925276 34.143,34.1412712 L34.143,34.1412712 Z" id="路径" fill="#FFD264"></path>
                        <path d="M30.463,2.92727121 C35.4832172,10.7815164 34.4118168,21.0624085 27.8800323,27.7127875 C21.3482479,34.3631665 11.0882963,35.6193644 3.14500001,30.7412712 C7.57828526,37.6772479 15.808498,41.1884872 23.883327,39.5888225 C31.958156,37.9891579 38.2281118,31.6053614 39.6822375,23.5030587 C41.1363631,15.400756 37.4776164,7.2350487 30.463,2.92727121 Z" id="路径" fill="#FFC656"></path>
                        <path d="M2.71900001,22.1072712 C2.72426417,14.1603676 7.78674025,7.09802659 15.3110119,4.5409499 C22.8352835,1.98387321 31.1526554,4.49915648 35.999,10.7972712 C32.5622683,4.75558173 26.0392566,1.13897855 19.0943667,1.42470623 C12.1494768,1.7104339 5.94559726,5.85064869 3.01677651,12.1542306 C0.0879557579,18.4578126 0.924610828,25.869257 5.185,31.3612712 C3.56331548,28.5472173 2.71269557,25.3551505 2.71900001,22.1072712 Z" id="路径" fill="#FFD781"></path>
                        <path d="M14.105,15.1452712 C14.105,16.5192712 13.447,17.6292712 12.633,17.6292712 C11.819,17.6292712 11.159,16.5192712 11.159,15.1452712 C11.159,13.7712712 11.819,12.6732712 12.633,12.6732712 C13.447,12.6732712 14.105,13.7732712 14.105,15.1452712 Z M28.841,15.1452712 C28.841,16.5192712 28.183,17.6292712 27.367,17.6292712 C26.551,17.6292712 25.895,16.5192712 25.895,15.1452712 C25.895,13.7712712 26.553,12.6732712 27.367,12.6732712 C28.181,12.6732712 28.841,13.7732712 28.841,15.1452712 Z" id="形状" fill="#352B2B"></path>
                        <path d="M6.559,21.8892712 C7.34192849,28.7198215 13.1237258,33.8767571 19.999,33.8767571 C26.8742741,33.8767571 32.6560715,28.7198215 33.439,21.8892712 L6.559,21.8892712 Z" id="路径" fill="#62422A"></path>
                        <path d="M10.717,30.1972712 C15.8050727,35.0083452 23.7256005,35.1350876 28.965,30.4892712 L28.841,30.1972712 C19.817,25.7972712 10.839,30.1312712 10.717,30.1972712 Z" id="路径" fill="#FF6F72"></path>
                        <path d="M18.199,21.8892712 L19.799,21.8892712 L19.799,23.8832712 L18.199,23.8832712 L18.199,21.8892712 Z M20.599,21.8892712 L22.199,21.8892712 L22.199,23.8832712 L20.599,23.8832712 L20.599,21.8892712 Z" id="形状" fill="#FFFFFF"></path>
                    </g>
                </g>
            </g>
        </g>
    </g>
</svg>