<?xml version="1.0" encoding="UTF-8"?>
<svg width="41px" height="40px" viewBox="0 0 41 40" version="1.1" xmlns="http://www.w3.org/2000/svg" xmlns:xlink="http://www.w3.org/1999/xlink">
    <title>编组</title>
    <g id="页面-2" stroke="none" stroke-width="1" fill="none" fill-rule="evenodd">
        <g id="画板备份-6" transform="translate(-575.000000, -327.000000)" fill-rule="nonzero">
            <g id="property备份" transform="translate(216.000000, 253.000000)">
                <g id="编组-16备份-3" transform="translate(338.250000, 57.000000)">
                    <g id="编组" transform="translate(21.000000, 17.000000)">
                        <path d="M39.7246037,23.2886415 C41.5408017,12.395456 34.1827852,2.09235328 23.2896967,0.275573294 C12.3966083,-1.54120669 2.09311244,5.8162592 0.275750393,16.7092506 C-1.54161166,27.602242 5.81530366,37.9061309 16.7081979,39.724075 C21.9398957,40.597207 27.3041569,39.3560697 31.6206764,36.2737523 C35.9371959,33.1914349 38.8523105,28.5204792 39.7246037,23.2886415 L39.7246037,23.2886415 Z" id="路径" fill="#FFD264"></path>
                        <path d="M30.4720486,2.92982065 C35.5037368,10.7848067 34.4359271,21.0752745 27.8986339,27.7297835 C21.3613407,34.3842925 11.0914723,35.6347911 3.14831535,30.7434774 C7.58489568,37.6694385 15.8098562,41.1723605 23.8777406,39.5719161 C31.9456251,37.9714717 38.2106184,31.5941449 39.667447,23.4990951 C41.1242756,15.4040452 37.4757524,7.24262888 30.4720486,2.92982065 L30.4720486,2.92982065 Z" id="路径" fill="#FFC656"></path>
                        <path d="M2.72038216,22.106826 C2.7270466,14.1613872 7.78917103,7.10098815 15.3121036,4.54452016 C22.8350362,1.98805217 31.1508539,4.50231436 35.9971858,10.7985919 C32.5456822,4.78422963 26.0303217,1.19443551 19.1022544,1.48992415 C12.174187,1.78541279 5.98814801,5.91693364 3.06128379,12.2033393 C0.134419567,18.489745 0.954565075,25.8832492 5.18799685,31.3753787 C3.56402754,28.5568968 2.71281601,25.3596801 2.72038216,22.106826 L2.72038216,22.106826 Z" id="路径" fill="#FFD781"></path>
                        <path d="M28.4983568,29.5836585 C28.0018712,25.2655569 24.3462341,22.0061525 19.9996839,22.0061525 C15.6531337,22.0061525 11.9974966,25.2655569 11.501011,29.5836585 L28.4983568,29.5836585 Z" id="路径" fill="#62422A"></path>
                        <path d="M11.501011,29.5836585 C11.501011,29.5836585 18.6698916,24.2984838 28.4983568,29.5836585 L11.501011,29.5836585 Z" id="路径" fill="#FF6F72"></path>
                        <path d="M9.21336826,20.3211049 C8.85233024,20.3197221 8.53157203,20.09038 8.41349315,19.7491942 C8.35555749,19.5820343 8.35136222,19.4009385 8.40149502,19.2312751 C8.4506763,19.0605087 8.5512098,18.9090102 8.68945006,18.7973428 L11.5769992,16.5536932 L8.60146381,14.7979674 C8.19872553,14.5602459 8.06451984,14.0413172 8.30151065,13.6381485 C8.41459231,13.4435683 8.60071354,13.3022193 8.81850672,13.245518 C9.03629989,13.1888167 9.2677194,13.2214611 9.46132956,13.3361956 L13.5086975,15.7278222 C13.6283644,15.7981433 13.728687,15.8970917 13.8006519,16.0157772 C13.8754676,16.1364395 13.9187857,16.2739572 13.9266322,16.4157148 C13.9343854,16.5530308 13.9090094,16.6901982 13.8526438,16.8156523 C13.796107,16.9413154 13.7095888,17.0511797 13.6006832,17.1356023 L9.73528676,20.1491318 C9.58566766,20.2636392 9.40175087,20.3242402 9.21336826,20.3211049 L9.21336826,20.3211049 Z M30.7859996,20.3211306 C30.5965592,20.3225981 30.4123374,20.2590733 30.2640811,20.141133 L26.396685,17.1416014 C26.2864637,17.0566859 26.1986069,16.9461785 26.1407249,16.8196517 C26.0835095,16.6944644 26.0580943,16.5570851 26.0667365,16.4197141 C26.0859135,16.1371301 26.2439677,15.8824456 26.4886706,15.7398203 L30.5440373,13.3541928 C30.9319421,13.2029858 31.3722753,13.3550489 31.5842102,13.7134024 C31.796145,14.071756 31.7172766,14.5308816 31.397904,14.7979674 L28.4163696,16.5536932 L31.3059184,18.7973428 C31.5924407,19.0199515 31.7050763,19.400499 31.5858747,19.7431951 C31.5294395,19.9101938 31.4216528,20.0550759 31.2779227,20.1571305 C31.1349717,20.2615789 30.9630294,20.318893 30.7859996,20.3211306 L30.7859996,20.3211306 Z" id="形状" fill="#352B2B"></path>
                        <path d="M22.1673454,22.2787992 C21.6438797,22.1374545 21.1082641,22.0457304 20.5675952,22.004842 L20.5675952,24.0445235 L22.1673454,24.0445235 L22.1673454,22.2787992 Z M19.7677202,21.9968432 C19.2293549,22.0128718 18.6937156,22.0798267 18.1679699,22.196812 L18.1679699,24.0405241 L19.7677202,24.0405241 L19.7677202,21.9968432 Z" id="形状" fill="#FFFFFF"></path>
                    </g>
                </g>
            </g>
        </g>
    </g>
</svg>