<?xml version="1.0" encoding="UTF-8"?>
<svg width="40px" height="38px" viewBox="0 0 40 38" version="1.1" xmlns="http://www.w3.org/2000/svg" xmlns:xlink="http://www.w3.org/1999/xlink">
    <title>编组</title>
    <g id="页面-2" stroke="none" stroke-width="1" fill="none" fill-rule="evenodd">
        <g id="画板备份-6" transform="translate(-267.000000, -326.000000)" fill-rule="nonzero">
            <g id="property备份" transform="translate(216.000000, 253.000000)">
                <g id="编组-16" transform="translate(30.000000, 57.000000)">
                    <g id="编组" transform="translate(21.000000, 16.000000)">
                        <path d="M34.4625,32.2788611 C41.8462588,24.8941996 41.845771,12.9221046 34.4614104,5.53804483 C27.0770497,-1.84601494 15.1049547,-1.84601494 7.72059402,5.53804483 C0.336233368,12.9221046 0.33574554,24.8941996 7.71950441,32.2788611 C11.2656958,35.825486 16.0756237,37.8179956 21.0910022,37.8179956 C26.1063807,37.8179956 30.9163086,35.825486 34.4625,32.2788611 L34.4625,32.2788611 Z" id="路径" fill="#FFD264"></path>
                        <path d="M30.9851353,2.76758826 C35.7356182,10.1934285 34.7246083,19.916656 28.548004,26.2063104 C22.3713997,32.4959647 12.6681065,33.6831438 5.15733518,29.0681133 C9.35055638,35.6228555 17.1310716,38.9396241 24.7637077,37.4261462 C32.3963437,35.9126682 38.322557,29.8779878 39.6973645,22.2191593 C41.072172,14.5603309 37.6148455,6.84124645 30.9851353,2.76758826 Z" id="路径" fill="#FFC656"></path>
                        <path d="M4.75079174,20.9013171 C4.75526824,13.3852767 9.54345145,6.70575861 16.659995,4.28797225 C23.7765386,1.87018589 31.6427205,4.25048893 36.2248186,10.2082789 C32.9698444,4.5066084 26.8056828,1.09741315 20.2460266,1.37093409 C13.6863704,1.64445503 7.82742256,5.5549833 5.05841241,11.5078386 C2.28940226,17.4606938 3.073067,24.4610774 7.08983479,29.6542922 C5.55507404,26.9926463 4.74833935,23.9737499 4.75079174,20.9013171 L4.75079174,20.9013171 Z" id="路径" fill="#FFD781"></path>
                        <path d="M16.2096444,14.9506555 C15.6808909,13.6336154 14.4102363,12.765299 12.9910898,12.7512194 C11.5719432,12.7371397 10.284311,13.5800748 9.72953085,14.886365 C9.6779012,15.0059535 9.67052779,15.1400156 9.70873097,15.2645449 C9.78540552,15.5205637 10.030376,15.6883409 10.2968008,15.6673066 C10.4264984,15.6574626 10.548474,15.6018364 10.6409446,15.5103619 C11.690394,14.4949487 13.3487131,13.67808 15.3001216,15.5670889 C15.4916316,15.75166 15.7856643,15.7783902 16.0073181,15.6313794 C16.2282101,15.4824488 16.3129583,15.1981067 16.2096444,14.9525464 L16.2096444,14.9506555 Z M32.4562553,14.9506555 C31.9296883,13.6317632 30.6587439,12.76146 29.2386906,12.7473672 C27.8186374,12.7332745 26.5306711,13.5781828 25.9780327,14.886365 C25.9279778,15.0063192 25.920635,15.1398247 25.9572328,15.2645449 C26.0337591,15.5198244 26.2776682,15.6874136 26.5434117,15.6673066 C26.6722711,15.6556877 26.7934808,15.6010767 26.8875555,15.5122528 C27.9370049,14.4968396 29.5934331,13.6799709 31.5467325,15.5689798 C31.7382425,15.7535509 32.0322752,15.7802811 32.2539291,15.6332704 C32.3601672,15.5599227 32.4382091,15.4525316 32.4751643,15.3288355 C32.5134714,15.2044669 32.5067772,15.0705827 32.4562553,14.9506555 L32.4562553,14.9506555 Z" id="形状" fill="#2D292A"></path>
                        <path d="M12.6301711,22.4726549 L12.6301711,22.4405096 C12.6301711,20.5496098 11.2668324,18.8270001 9.21331521,18.8270001 C7.58335958,18.8270001 6.63790971,19.9993579 6.31456585,21.0960798 C5.9931129,19.9974671 5.04766298,18.8270001 3.4177074,18.8270001 C1.36419024,18.8270001 0.000851483515,20.5552825 0.000851483515,22.4405096 L0.000851483515,22.4726549 C-0.0104939152,22.8829801 0.000851483515,27.0599777 6.31267498,30.4598155 C12.6301711,27.0713231 12.6471892,22.8773074 12.6301711,22.4726549 Z" id="路径" fill="#FA4141"></path>
                        <path d="M20.1937703,28.3930621 C19.6126579,28.3999426 19.0387202,28.2642491 18.5222148,27.997864 C18.043293,27.7564848 17.6446121,27.3814489 17.3744387,26.9181603 C17.1275235,26.4879327 17.0366871,25.9856607 17.1172763,25.4962036 C17.2095372,24.9938849 17.4607698,24.5345071 17.8339273,24.1858101 C17.5666694,23.9313884 17.3593382,23.6207145 17.2269485,23.2762873 C17.1030965,22.9464807 17.0621881,22.591292 17.1078218,22.2419651 C17.1548371,21.8878706 17.2843766,21.5497724 17.4860018,21.2549154 C17.7067494,20.9407284 17.989995,20.6755075 18.3179976,20.4758647 C18.666503,20.2613699 19.0508331,20.1114811 19.4525375,20.0333941 C19.8662368,19.9518382 20.2907644,19.9409693 20.708095,20.0012489 C21.1168668,20.0574425 21.5124823,20.1854735 21.876671,20.3794288 C22.2186089,20.5626761 22.5201995,20.8128226 22.7635031,21.1149888 C22.8289079,21.2070924 22.849715,21.3236118 22.8202301,21.43266 C22.7845104,21.5473332 22.7040738,21.6427665 22.5971039,21.697386 C22.4816964,21.7603029 22.349027,21.7841834 22.2189239,21.7654583 C22.0920089,21.7499093 21.9740692,21.6919389 21.8842347,21.6009501 C21.7135973,21.3920902 21.5010137,21.2213791 21.2602377,21.0998616 C21.0035127,20.9710454 20.7253814,20.8902975 20.4395872,20.8616082 C20.1492796,20.8313511 19.855894,20.8537715 19.5735551,20.9277898 C19.3002165,20.9974836 19.0432309,21.1201941 18.8171952,21.2889516 C18.6078784,21.4438208 18.4365272,21.6442693 18.3161068,21.8751306 C18.2026338,22.0930648 18.1478911,22.3368002 18.1572712,22.5823271 C18.1679395,22.8284451 18.2408007,23.0678463 18.3690519,23.2781782 C18.5068477,23.5054838 18.6935199,23.6992612 18.915522,23.8454481 C18.9755239,23.8842222 19.0254329,23.9367239 19.0611213,23.998611 C19.1315315,24.1148391 19.1315315,24.2605628 19.0611213,24.376791 C19.0254329,24.438678 18.9755239,24.4911797 18.915522,24.5299538 C18.6935034,24.6755131 18.5073227,24.8694513 18.3709429,25.0972238 C18.2418759,25.3066149 18.1683352,25.5454595 18.1572712,25.791184 C18.1481557,26.035862 18.2022064,26.2787643 18.3142159,26.4964896 C18.4328687,26.7279396 18.6029936,26.9291139 18.8115225,27.0845594 C19.0382054,27.2522429 19.2949722,27.374849 19.5678824,27.4457213 C19.8495096,27.5200549 20.1421064,27.5437443 20.4320236,27.5156846 C20.7173837,27.4884007 20.9954316,27.4095991 21.2526741,27.2831039 C21.4939496,27.1631676 21.7077148,26.9944734 21.8804528,26.7876882 C21.9663738,26.6854085 22.0867816,26.6181416 22.2189239,26.5985982 C22.3555765,26.5760429 22.4958522,26.5993114 22.6179037,26.6647797 C22.7283293,26.7234521 22.8092192,26.8255927 22.8410299,26.9465238 C22.8673372,27.0628816 22.8372003,27.1848308 22.7597212,27.2755403 C22.4597828,27.6364243 22.077926,27.9203857 21.6459813,28.1037544 C21.1870552,28.2993488 20.6926163,28.3978503 20.1937703,28.3930621 L20.1937703,28.3930621 Z" id="路径" fill="#62422A"></path>
                    </g>
                </g>
            </g>
        </g>
    </g>
</svg>