<?xml version="1.0" encoding="UTF-8"?>
<svg width="41px" height="40px" viewBox="0 0 41 40" version="1.1" xmlns="http://www.w3.org/2000/svg" xmlns:xlink="http://www.w3.org/1999/xlink">
    <title>编组</title>
    <g id="页面-2" stroke="none" stroke-width="1" fill="none" fill-rule="evenodd">
        <g id="画板备份-6" transform="translate(-472.000000, -327.000000)" fill-rule="nonzero">
            <g id="property备份" transform="translate(216.000000, 253.000000)">
                <g id="编组-16备份-2" transform="translate(235.500000, 57.000000)">
                    <g id="编组" transform="translate(21.000000, 17.000000)">
                        <path d="M34.143,34.1412712 C41.9527834,26.330533 41.9522674,13.6676779 34.1418475,5.85757625 C26.3314276,-1.95252542 13.6685724,-1.95252542 5.85815251,5.85757625 C-1.9522674,13.6676779 -1.95278339,26.330533 5.857,34.1412712 C9.60779783,37.8925276 14.6952466,40 20,40 C25.3047534,40 30.3922022,37.8925276 34.143,34.1412712 L34.143,34.1412712 Z" id="路径" fill="#FFD264"></path>
                        <path d="M30.463,2.92727121 C35.4963067,10.7816548 34.431089,21.0725859 27.895714,27.7294915 C21.360339,34.386397 11.0907788,35.6410229 3.14500001,30.7532712 C7.58390922,37.6801083 15.8117713,41.1820353 23.8811661,39.5789586 C31.9505609,37.9758819 38.2150676,31.5948817 39.6692103,23.497323 C41.1233531,15.3997644 37.4704392,7.23781445 30.463,2.92727121 Z" id="路径" fill="#FFC656"></path>
                        <path d="M2.71900001,22.1092712 C2.72426417,14.1623676 7.78674025,7.1000266 15.3110119,4.54294991 C22.8352835,1.98587322 31.1526554,4.5011565 35.999,10.7992712 C32.5622683,4.75758175 26.0392566,1.14097857 19.0943667,1.42670624 C12.1494768,1.71243392 5.94559726,5.85264871 3.01677651,12.1562306 C0.0879557579,18.4598126 0.924610828,25.871257 5.185,31.3632712 C3.56331548,28.5492173 2.71269557,25.3571505 2.71900001,22.1092712 Z" id="路径" fill="#FFD781"></path>
                        <path d="M11.799,23.0252712 C11.5752917,22.8080752 11.2301035,22.777065 10.9712657,22.9509113 C10.7124279,23.1247575 10.6105623,23.4560277 10.727,23.7452712 C12.2374018,27.5154457 15.8731433,30.0019418 19.9344121,30.0422522 C23.9956809,30.0825625 27.6800609,27.6687227 29.265,23.9292712 C29.3211078,23.7891426 29.32885,23.6342977 29.287,23.4892712 C29.2432585,23.3445305 29.1515662,23.2189826 29.027,23.1332712 C28.9024341,23.0473405 28.7517216,23.0077165 28.601,23.0212712 C28.4511262,23.0342278 28.3100938,23.0976924 28.201,23.2012712 C25.275,26.0372712 19.061,30.0752712 11.799,23.0252712 L11.799,23.0252712 Z" id="路径" fill="#5E4939"></path>
                        <path d="M11.799,23.0252712 C11.5752917,22.8080752 11.2301035,22.777065 10.9712657,22.9509113 C10.7124279,23.1247575 10.6105623,23.4560277 10.727,23.7452712 C12.2374018,27.5154457 15.8731433,30.0019418 19.9344121,30.0422522 C23.9956809,30.0825625 27.6800609,27.6687227 29.265,23.9292712 C29.3211078,23.7891426 29.32885,23.6342977 29.287,23.4892712 C29.2432585,23.3445305 29.1515662,23.2189826 29.027,23.1332712 C28.9024341,23.0473405 28.7517216,23.0077165 28.601,23.0212712 C28.4511262,23.0342278 28.3100938,23.0976924 28.201,23.2012712 C25.275,26.0372712 19.061,30.0752712 11.799,23.0252712 L11.799,23.0252712 Z" id="路径" fill="#62422A"></path>
                        <path d="M14.105,16.4192712 C14.105,17.7932712 13.447,18.9052712 12.633,18.9052712 C11.819,18.9052712 11.159,17.7992712 11.159,16.4192712 C11.159,15.0392712 11.819,13.9352712 12.633,13.9352712 C13.447,13.9352712 14.105,15.0472712 14.105,16.4192712 L14.105,16.4192712 Z M28.841,16.4192712 C28.841,17.7932712 28.183,18.9052712 27.369,18.9052712 C26.555,18.9052712 25.895,17.7932712 25.895,16.4192712 C25.895,15.0452713 26.553,13.9352712 27.369,13.9352712 C28.185,13.9352712 28.841,15.0472712 28.841,16.4192712 Z" id="形状" fill="#352B2B"></path>
                    </g>
                </g>
            </g>
        </g>
    </g>
</svg>