<?xml version="1.0" encoding="UTF-8"?>
<svg width="40px" height="40px" viewBox="0 0 40 40" version="1.1" xmlns="http://www.w3.org/2000/svg" xmlns:xlink="http://www.w3.org/1999/xlink">
    <title>编组</title>
    <g id="页面-2" stroke="none" stroke-width="1" fill="none" fill-rule="evenodd">
        <g id="画板备份-6" transform="translate(-677.000000, -327.000000)" fill-rule="nonzero">
            <g id="property备份" transform="translate(216.000000, 253.000000)">
                <g id="编组-16备份-4" transform="translate(441.000000, 57.000000)">
                    <g id="编组" transform="translate(20.000000, 17.000000)">
                        <path d="M34.143,34.1412712 C41.9527834,26.330533 41.9522674,13.6676779 34.1418475,5.85757625 C26.3314276,-1.95252542 13.6685724,-1.95252542 5.85815251,5.85757625 C-1.9522674,13.6676779 -1.95278339,26.330533 5.857,34.1412712 C9.60779783,37.8925276 14.6952466,40 20,40 C25.3047534,40 30.3922022,37.8925276 34.143,34.1412712 L34.143,34.1412712 Z" id="路径" fill="#FFD264"></path>
                        <path d="M30.467,2.92727121 C35.5018894,10.7820381 34.4369464,21.0745395 27.9005034,27.7320455 C21.3640604,34.3895515 11.0928333,35.6431799 3.14700002,30.7532712 C7.58351922,37.6835056 15.8119224,41.189159 23.8832627,39.5878103 C31.9546029,37.9864615 38.2214027,31.6049692 39.6761211,23.505917 C41.1308395,15.4068649 37.4765474,7.24338687 30.467,2.93327121 L30.467,2.92727121 Z" id="路径" fill="#FFC656"></path>
                        <path d="M2.72100002,22.1092712 C2.72626418,14.1623676 7.78874026,7.1000266 15.3130119,4.54294991 C22.8372835,1.98587322 31.1546554,4.5011565 36.001,10.7992712 C32.5664937,4.75311061 26.0419382,1.13234606 19.0942124,1.41694661 C12.1464866,1.70154717 5.93992925,5.84381786 3.01143914,12.1506267 C0.082949025,18.4574354 0.923298901,25.871852 5.18900004,31.3632712 C3.56670479,28.5493749 2.71539823,25.3573203 2.72100002,22.1092712 L2.72100002,22.1092712 Z" id="路径" fill="#FFD781"></path>
                        <path d="M32.401,26.0612712 C31.869,24.3352712 30.579,23.2172712 29.117,23.2172712 C28.5495313,23.2165692 27.9939356,23.3797754 27.517,23.6872712 C27.1708551,23.9321349 26.8645822,24.2289632 26.609,24.5672712 C26.479,24.7212712 26.355,24.8672712 26.227,24.9992712 C25.9487213,25.273032 25.6162741,25.4855802 25.251,25.6232712 C24.8030991,25.7682031 24.3209009,25.7682031 23.873,25.6232712 C23.4259087,25.4821197 23.0356027,25.2018282 22.759,24.8232712 C22.051,23.7992712 21.035,23.1992712 20.001,23.1992712 C19.5957356,23.2129854 19.1970039,23.3053662 18.827,23.4712712 C18.4581811,23.6389797 18.1258922,23.8774938 17.849,24.1732712 C17.7057224,24.321195 17.572113,24.4781861 17.449,24.6432712 C17.3449918,24.7825541 17.2334942,24.9160841 17.115,25.0432712 C16.8802242,25.2547253 16.6092144,25.4220739 16.315,25.5372712 C15.9590093,25.7132224 15.5581179,25.777365 15.165,25.7212712 C14.6391708,25.6226644 14.1565614,25.3642484 13.783,24.9812712 C13.663,24.8572712 13.549,24.7192712 13.419,24.5812712 C13.147143,24.2329799 12.8257307,23.9263916 12.465,23.6712712 C11.9941561,23.3680149 11.447029,23.2043622 10.887,23.1992712 C9.451,23.1992712 8.16900002,24.2832712 7.62300002,25.9632712 C7.56999677,26.1099635 7.56999677,26.2705788 7.62300002,26.4172712 C7.67694339,26.5635845 7.77926249,26.6870731 7.91300003,26.7672712 C8.02944141,26.8313111 8.16507706,26.8511949 8.29500002,26.8232712 C8.42743305,26.7922464 8.54319925,26.7122105 8.61900002,26.5992712 C9.307,25.7332712 10.447,24.9572712 11.591,25.3432712 C12.153,25.5432712 12.615,26.0472712 12.991,26.5172712 C13.497312,27.1579583 14.2250191,27.5860212 15.031,27.7172712 C15.160248,27.7348904 15.290557,27.7435776 15.421,27.743279 C16.4097425,27.7138004 17.3300741,27.2315113 17.917,26.4352712 L18.037,26.2812712 C18.218899,26.0130631 18.4471326,25.7794116 18.711,25.5912712 C19.0197285,25.3945871 19.3667229,25.2657424 19.729,25.2132712 C20.1164827,25.1676915 20.5088078,25.2372527 20.857,25.4132712 C21.0585695,25.5127794 21.2489753,25.6334591 21.425,25.7732712 C21.6295133,25.9500994 21.8163887,26.146352 21.983,26.3592712 C22.1797327,26.6073388 22.3993671,26.8363478 22.639,27.0432712 C23.8015842,28.0330874 25.5321082,27.9535532 26.599,26.8612712 C26.693,26.7752712 26.853,26.6072712 27.035,26.4132712 C27.2879943,26.133274 27.5550028,25.8662655 27.835,25.6132712 C28.610173,25.0444018 29.6719027,25.0715413 30.417,25.6792712 C30.7861979,25.9567941 31.1147203,26.2846433 31.393,26.6532712 C31.4709843,26.7607409 31.585459,26.8361094 31.715,26.8652712 C31.8448835,26.8943174 31.9809186,26.8743751 32.097,26.8092712 C32.3559764,26.6500942 32.473788,26.3353809 32.383,26.0452712 L32.401,26.0612712 Z" id="路径" fill="#5E4939"></path>
                        <path d="M13.521,17.6232712 L8.98500002,13.0872712 C8.62767178,12.729943 8.04832828,12.729943 7.69100006,13.0872712 C7.33367184,13.4445995 7.33367183,14.023943 7.69100003,14.3812712 L12.227,18.9172712 C12.5843283,19.2745994 13.1636718,19.2745994 13.521,18.9172712 C13.8783282,18.559943 13.8783282,17.9805994 13.521,17.6232712 L13.521,17.6232712 Z" id="路径" fill="#352B2B"></path>
                        <path d="M8.98700003,18.9172712 L13.523,14.3812712 C13.8803282,14.023943 13.8803282,13.4445994 13.523,13.0872712 C13.1656718,12.729943 12.5863282,12.729943 12.229,13.0872712 L7.693,17.6232712 C7.33567179,17.9805995 7.33567181,18.559943 7.69300005,18.9172712 C8.05032828,19.2745994 8.6296718,19.2745994 8.98700003,18.9172712 L8.98700003,18.9172712 Z M32.313,17.6252712 L27.777,13.0892712 C27.5458492,12.8581204 27.2089395,12.7678457 26.8931816,12.8524528 C26.5774236,12.9370598 26.3307886,13.1836949 26.2461816,13.4994528 C26.1615745,13.8152107 26.2518492,14.1521204 26.483,14.3832712 L31.019,18.9192712 C31.3763282,19.2765994 31.9556718,19.2765994 32.313,18.9192712 C32.6703282,18.561943 32.6703282,17.9825995 32.313,17.6252712 L32.313,17.6252712 Z" id="形状" fill="#352B2B"></path>
                        <path d="M27.777,18.9192712 L32.313,14.3832712 C32.6703282,14.025943 32.6703282,13.4465995 32.313,13.0892713 C31.9556718,12.731943 31.3763282,12.731943 31.019,13.0892712 L26.483,17.6252712 C26.2518492,17.8564221 26.1615745,18.1933317 26.2461816,18.5090897 C26.3307886,18.8248476 26.5774236,19.0714826 26.8931816,19.1560897 C27.2089395,19.2406967 27.5458492,19.1504221 27.777,18.9192712 L27.777,18.9192712 Z" id="路径" fill="#352B2B"></path>
                    </g>
                </g>
            </g>
        </g>
    </g>
</svg>