<?xml version="1.0" encoding="UTF-8"?>
<svg width="20px" height="20px" viewBox="0 0 20 20" version="1.1" xmlns="http://www.w3.org/2000/svg" xmlns:xlink="http://www.w3.org/1999/xlink">
    <title>编组 15备份</title>
    <g id="页面-1" stroke="none" stroke-width="1" fill="none" fill-rule="evenodd">
        <g id="编组-15备份">
            <g id="编组备份-8" fill="#1A68E3" fill-rule="nonzero">
                <path d="M10,3.63526335e-06 C13.2038203,-0.00335458345 15.8201575,2.32042329 15.8819958,5.22427714 C15.9438342,8.128131 13.4283804,10.5417192 10.2268041,10.6504568 L10,10.6541951 C5.27661948,10.6593448 1.44897953,14.1292556 1.44329897,18.4111916 C1.44329897,18.6971724 1.46391753,18.9831532 1.50103093,19.280349 C1.52402969,19.4641075 1.45914926,19.6480004 1.322787,19.7855521 C1.18642473,19.9231038 0.991628255,20.001153 0.787628866,19.9999871 C0.425710051,20.0017852 0.118959994,19.7589648 0.0721649485,19.4336198 C0.025576069,19.0944254 0.00147779161,18.7530026 0,18.4111916 C0.00185563541,14.6395668 2.58052227,11.2633519 6.4742268,9.93457017 L6.74226804,9.84671984 L6.83917526,9.81681335 L6.82474227,9.80933673 C5.29340032,8.91973054 4.30343415,7.43687615 4.1443299,5.79439015 L4.12783505,5.55700737 L4.12371134,5.32710121 C4.12371134,2.38502847 6.75461539,3.63526335e-06 10,3.63526335e-06 L10,3.63526335e-06 Z M14.7938144,10.4654104 C18.0025488,12.0506326 19.9995141,15.0984397 20,18.4111916 C20,18.7420321 19.9752577,19.0784802 19.9278351,19.4354889 C19.8800917,19.7600914 19.573601,20.0019057 19.2123711,19.9999854 C19.0085876,20.0005527 18.8142018,19.9223264 18.6779859,19.7849224 C18.5417701,19.6475183 18.4766516,19.4639767 18.4989691,19.280349 C18.8867263,16.1525524 17.1496366,13.1227247 14.1030928,11.613072 C13.9218319,11.5225055 13.7923638,11.365571 13.7477586,11.1823543 C13.7031533,10.9991376 13.7477302,10.8073808 13.8701031,10.6560643 L13.9402062,10.5812981 C14.1650956,10.3756704 14.5123431,10.3285274 14.7938144,10.4654104 L14.7938144,10.4654104 Z M10,11.8560604 C10.1690722,11.8560604 10.3298969,11.9158753 10.4474227,12.0298938 L10.5134021,12.10466 L10.5628866,12.1850337 L12.6247423,16.3065222 C12.7002651,16.4571624 12.6979985,16.6304442 12.6185567,16.7794186 L12.5628866,16.8653997 L12.4989691,16.9345585 L10.4371134,18.8074526 C10.253558,18.9762411 9.97228,19.0212393 9.73608247,18.9196019 L9.65154639,18.8747422 L9.5628866,18.8074526 L7.50103093,16.9345585 C7.37350751,16.8173933 7.30874734,16.6556058 7.32371134,16.4915686 L7.3443299,16.3925033 L7.37731959,16.3065222 L9.43917526,12.1850337 C9.53787573,11.9844619 9.75773404,11.8554963 10,11.8560604 L10,11.8560604 Z M10,13.7756853 L8.67835052,16.4168024 L10,17.6168004 L11.3195876,16.4168024 L10,13.7756853 Z M10,1.30841631 C7.55463918,1.30841631 5.56701031,3.11215163 5.56701031,5.32710121 C5.56701031,7.54205079 7.55670103,9.3457861 10,9.3457861 C12.4453608,9.3457861 14.4329897,7.54391994 14.4329897,5.32710121 C14.4329897,3.11215163 12.4453608,1.30841631 10,1.30841631 Z" id="形状"></path>
            </g>
            <ellipse id="椭圆形" fill="#1A68E3" cx="10" cy="5.5" rx="5" ry="4.5"></ellipse>
            <path d="M0.787628866,19.9999927 L19.2123919,19.9999927 C19.4286212,13.0263028 16.5049788,9.53945788 10.4414646,9.53945788 C4.37795031,9.53945788 1.16000509,13.0263028 0.787628866,19.9999927 Z" id="路径-3" fill="#1A68E3"></path>
            <path d="M9.90171838,12.5657002 L7.97501257,16.4579766 C7.95520841,16.4979844 7.9643206,16.546273 7.99734285,16.5763123 L9.92204042,18.3271507 C9.95973906,18.361444 10.0171964,18.3619013 10.0554361,18.3282123 L12.0433221,16.5768909 C12.0776018,16.5466906 12.0870558,16.4970983 12.0662909,16.4564047 L10.0804131,12.5646113 C10.0553107,12.5154173 9.99508149,12.4958871 9.94588744,12.5209895 C9.92674199,12.5307589 9.91125376,12.5464371 9.90171838,12.5657002 Z" id="路径-4" stroke="#FFFFFF" stroke-width="1.2"></path>
        </g>
    </g>
</svg>