<svg width="20" height="20" xmlns="http://www.w3.org/2000/svg"><path d="M10 0c3.204-.003 5.82 2.32 5.882 5.224.062 2.904-2.454 5.318-5.655 5.426l-.227.004c-4.723.005-8.551 3.475-8.557 7.757 0 .286.02.572.058.87a.608.608 0 0 1-.178.505.749.749 0 0 1-.535.214c-.362.002-.669-.241-.716-.566-.046-.34-.07-.681-.072-1.023.002-3.771 2.58-7.148 6.474-8.476l.268-.088.097-.03-.014-.008c-1.532-.89-2.522-2.372-2.68-4.015l-.017-.237-.004-.23C4.124 2.385 6.754 0 10 0Zm4.794 10.465C18.003 12.051 20 15.098 20 18.411c0 .331-.025.667-.072 1.024-.048.325-.354.567-.716.565a.75.75 0 0 1-.534-.215.61.61 0 0 1-.179-.505c.388-3.127-1.35-6.157-4.396-7.667a.663.663 0 0 1-.355-.43.605.605 0 0 1 .122-.527l.07-.075a.778.778 0 0 1 .854-.116ZM10 11.856c.17 0 .33.06.447.174l.066.075.05.08 2.062 4.122a.51.51 0 0 1-.006.472l-.056.086-.064.07-2.062 1.872a.662.662 0 0 1-.7.113l-.085-.045-.09-.068-2.061-1.872a.535.535 0 0 1-.177-.443l.02-.1.033-.085 2.062-4.122c.099-.2.319-.33.561-.329Zm0 1.92-1.322 2.64 1.322 1.2 1.32-1.2-1.32-2.64Zm0-12.468c-2.445 0-4.433 1.804-4.433 4.02 0 2.214 1.99 4.018 4.433 4.018 2.445 0 4.433-1.802 4.433-4.019 0-2.215-1.988-4.019-4.433-4.019Z" fill="currentColor" fill-rule="nonzero"/></svg>