<?xml version="1.0" encoding="UTF-8"?><svg version="1.1" width="25px" height="24px" viewBox="0 0 25.0 24.0" xmlns="http://www.w3.org/2000/svg" xmlns:xlink="http://www.w3.org/1999/xlink"><defs><clipPath id="i0"><path d="M1440,0 L1440,842 L0,842 L0,0 L1440,0 Z"></path></clipPath><clipPath id="i1"><path d="M25,0 L25,25 L0,25 L0,0 L25,0 Z"></path></clipPath><clipPath id="i2"><path d="M18.536458,0 C19.8970347,0 21,1.10296532 21,2.46354199 L21,18.536458 C21,19.18983 20.740449,19.8164415 20.2784453,20.2784453 C19.8164415,20.740449 19.18983,21 18.536458,21 L2.46354199,21 C1.81017003,21 1.18355849,20.740449 0.721554744,20.2784453 C0.259551,19.8164415 0,19.18983 0,18.536458 L0,2.46354199 C0,1.10296532 1.10296532,0 2.46354199,0 Z M4.06313086,14.3450098 C3.36394484,14.3450098 2.79714258,14.911812 2.79714258,15.610998 C2.79714258,16.3101841 3.36394484,16.8769863 4.06313086,16.8769863 C4.39889183,16.8769863 4.7209009,16.7436058 4.95831976,16.5061869 C5.19573862,16.2687681 5.32911914,15.946759 5.32911914,15.610998 C5.32911914,14.911812 4.76231688,14.3450098 4.06313086,14.3450098 Z M17.579101,14.751725 L17.4757734,14.7556172 L7.49328809,14.7556172 C7.21626214,14.7254036 6.94633805,14.8561833 6.79835787,15.0923149 C6.65037768,15.3284464 6.65037768,15.6283837 6.79835787,15.8645152 C6.94633805,16.1006467 7.21626214,16.2314265 7.49328809,16.2012129 L17.4757734,16.2012129 C17.7527994,16.2314265 18.0227235,16.1006467 18.1707037,15.8645152 C18.3186838,15.6283837 18.3186838,15.3284464 18.1707037,15.0923149 C18.0227235,14.8561833 17.7527994,14.7254036 17.4757734,14.7556172 Z M4.06313086,9.21262207 C3.36394484,9.21262207 2.79714258,9.77942433 2.79714258,10.4786104 C2.79714258,11.1777964 3.36394484,11.7445986 4.06313086,11.7445986 L4.06313086,11.7617022 C4.40187632,11.7617331 4.72650475,11.6260073 4.96442144,11.3848763 C5.20233814,11.1437454 5.3336956,10.8173249 5.32911914,10.4786104 C5.32911914,9.77942433 4.76231688,9.21262207 4.06313086,9.21262207 Z M17.5790854,9.61934314 L17.4757734,9.62320898 L7.49328809,9.62320898 C7.12434606,9.66335012 6.84484722,9.97490805 6.84484722,10.3460273 C6.84484722,10.7171466 7.12434606,11.0287046 7.49328809,11.0688457 L17.4757734,11.0688457 C17.7527619,11.0989822 18.0226134,10.9681798 18.1705489,10.732074 C18.3184844,10.4959682 18.3184844,10.1960864 18.1705489,9.95998067 C18.0226134,9.7238749 17.7527619,9.59307245 17.4757734,9.62320898 Z M4.57179052,4.18671325 C4.09999672,3.97993259 3.54995558,4.07963287 3.18075471,4.43885194 C2.81155384,4.79807102 2.69681902,5.34517368 2.89059414,5.82245643 C3.08436927,6.29973918 3.54801185,6.61202264 4.06313086,6.61221094 L4.06313086,6.64643848 C4.39889183,6.64643848 4.7209009,6.51305795 4.95831976,6.27563909 C5.19573862,6.03822024 5.32911914,5.71621116 5.32911914,5.3804502 C5.34304598,4.86551945 5.04358431,4.39349391 4.57179052,4.18671325 Z M17.579101,4.48694958 L17.4757734,4.4908418 L7.49328809,4.4908418 C7.21628084,4.4606667 6.94639304,4.59145781 6.79843519,4.82757647 C6.65047733,5.06369513 6.65047733,5.36360468 6.79843519,5.59972334 C6.94639304,5.835842 7.21628084,5.9666331 7.49328809,5.93645801 L17.4757734,5.9364375 C17.7527994,5.96665112 18.0227235,5.83587134 18.1707037,5.59973981 C18.3186838,5.36360828 18.3186838,5.06367102 18.1707037,4.82753949 C18.0227235,4.59140795 17.7527994,4.46062818 17.4757734,4.4908418 Z"></path></clipPath></defs><g transform="translate(-517.0 -327.0)"><g clip-path="url(#i0)"><g transform="translate(517.0 327.0)"><g clip-path="url(#i1)"><g transform="translate(2.0 2.0)"><g clip-path="url(#i2)"><polygon points="0,0 21,0 21,21 0,21 0,0" stroke="none" fill="#1A67E3"></polygon></g></g></g></g></g></g></svg>