<svg width="25" height="25" xmlns="http://www.w3.org/2000/svg"><defs><clipPath id="a"><path d="M1440 0v842H0V0h1440Z"/></clipPath><clipPath id="b"><path d="M18.536 0A2.464 2.464 0 0 1 21 2.464v16.072A2.464 2.464 0 0 1 18.536 21H2.464A2.464 2.464 0 0 1 0 18.536V2.464A2.464 2.464 0 0 1 2.464 0Z"/></clipPath><clipPath id="c"><path d="M1.266 0a1.266 1.266 0 1 1 0 2.532 1.266 1.266 0 0 1 0-2.532Z"/></clipPath><clipPath id="d"><path d="M1.266 0c.7 0 1.266.567 1.266 1.266a1.266 1.266 0 0 1-1.266 1.283v-.017a1.266 1.266 0 0 1 0-2.532Z"/></clipPath><clipPath id="e"><path d="M1.774.107c.472.206.771.678.758 1.193a1.266 1.266 0 0 1-1.266 1.266v-.034A1.266 1.266 0 1 1 1.774.107Z"/></clipPath><clipPath id="f"><path d="M11.483.341a.727.727 0 0 1-.695 1.109H.806a.727.727 0 1 1 0-1.446h9.982c.277-.03.547.1.695.337Z"/></clipPath><clipPath id="g"><path d="M11.326.341a.727.727 0 0 1-.695 1.109H.648a.727.727 0 0 1 0-1.446h9.983c.277-.03.547.1.695.337Z"/></clipPath><clipPath id="h"><path d="M11.483.341a.727.727 0 0 1-.695 1.109H.806a.727.727 0 1 1 0-1.446h9.982c.277-.03.547.1.695.337Z"/></clipPath></defs><g clip-path="url(#a)" transform="translate(-596 -327)"><g clip-path="url(#b)" transform="translate(598 329)"><path d="M18.536 0H2.464A2.464 2.464 0 0 0 0 2.464v16.072A2.464 2.464 0 0 0 2.464 21h16.072A2.464 2.464 0 0 0 21 18.536V2.464A2.464 2.464 0 0 0 18.536 0Z" stroke="currentColor" stroke-width="3" fill="none" stroke-miterlimit="5"/></g><g clip-path="url(#c)" transform="translate(600.797 343.345)"><path fill="currentColor" d="M0 0h2.532v2.532H0V0z"/></g><g clip-path="url(#d)" transform="translate(600.797 338.213)"><path fill="currentColor" d="M0 0h2.532v2.55H0V0z"/></g><g clip-path="url(#e)" transform="translate(600.798 333.08)"><path fill="currentColor" d="M0 0h2.532v2.566H0V0z"/></g><g clip-path="url(#f)" transform="translate(604.687 343.751)"><path fill="currentColor" d="M0 0h11.594v1.454H0V0z"/></g><g clip-path="url(#g)" transform="translate(604.845 338.619)"><path fill="currentColor" d="M0 0h11.437v1.454H0V0z"/></g><g clip-path="url(#h)" transform="translate(604.687 333.487)"><path fill="currentColor" d="M0 0h11.594v1.454H0V0z"/></g></g></svg>