<?xml version="1.0" encoding="UTF-8"?><svg version="1.1" width="25px" height="25px" viewBox="0 0 25.0 25.0" xmlns="http://www.w3.org/2000/svg" xmlns:xlink="http://www.w3.org/1999/xlink"><defs><clipPath id="i0"><path d="M1440,0 L1440,842 L0,842 L0,0 L1440,0 Z"></path></clipPath><clipPath id="i1"><path d="M25,0 L25,25 L0,25 L0,0 L25,0 Z"></path></clipPath><clipPath id="i2"><path d="M10.5015098,0 C10.8780786,0 11.2298186,0.143610785 11.4946582,0.41031653 L20.5902423,9.43317702 C20.8550819,9.6957796 21.0040541,10.0486518 21,10.4179367 C21,10.7913247 20.8509438,11.1400938 20.5861042,11.4026964 L20.3998889,11.5873388 L17.9501228,12.3094959 L17.9501228,18.9607268 C17.9542609,20.0849941 17.0355987,21 15.9017542,21 L12.0946854,21 L12.0946854,16.9706917 C12.0946854,16.6752638 11.8546745,16.4372802 11.55673,16.4372802 L9.62836684,16.4372802 C9.33042232,16.4372802 9.09041146,16.6793669 9.09041146,16.9706917 L9.09041146,21 L4.97712183,21 C3.8432774,21 2.92047702,20.0849941 2.92047702,18.9607268 L2.92047702,12.3053927 L0.598992629,11.5873388 L0.412777304,11.4026964 C-0.137592435,10.8569754 -0.137592435,9.97479484 0.412777304,9.42907386 L9.50836141,0.41031653 C9.77320098,0.147713951 10.124941,0 10.5015098,0 Z"></path></clipPath></defs><g transform="translate(-596.0 -212.0)"><g clip-path="url(#i0)"><g transform="translate(596.0 212.0)"><g clip-path="url(#i1)"><g transform="translate(2.0 2.0)"><g clip-path="url(#i2)"><polygon points="5.55111512e-17,0 21.0000806,0 21.0000806,21 5.55111512e-17,21 5.55111512e-17,0" stroke="none" fill="#1A67E3"></polygon></g></g></g></g></g></g></svg>