<svg width="25" height="25" xmlns="http://www.w3.org/2000/svg"><defs><clipPath id="a"><path d="M1440 0v842H0V0h1440Z"/></clipPath><clipPath id="b"><path d="M25 0v25H0V0h25Z"/></clipPath><clipPath id="c"><path d="M17.293 0C19.337 0 21 1.614 21 3.596v15.81C21 21.388 19.337 23 17.294 23H3.707C1.663 23 0 21.388 0 19.406V3.595C0 1.612 1.663 0 3.706 0h13.587Zm0 1.918-13.987.046c-.774.178-1.328.852-1.328 1.63v15.811c0 .925.775 1.677 1.728 1.677h13.587c.954 0 1.73-.752 1.73-1.676V3.595c0-.925-.776-1.677-1.73-1.677Z"/></clipPath><clipPath id="d"><path d="M5.6 14.482c.59 0 1.067.34 1.067.76 0 .418-.478.758-1.067.758H1.067C.477 16 0 15.66 0 15.241s.478-.759 1.067-.759H5.6ZM8.267 11c.59 0 1.067.34 1.067.759s-.478.759-1.067.759h-7.2c-.59 0-1.067-.34-1.067-.76C0 11.34.478 11 1.067 11h7.2Zm.17-11v3.13l1.02-.525a.889.889 0 0 1 .756-.026l.06.029 1.015.522V0h1.575v4.323c0 .418-.41.677-.79.677a.875.875 0 0 1-.353-.074l-.054-.026-1.803-.928-1.808.93A.872.872 0 0 1 7.652 5c-.363 0-.757-.235-.787-.63l-.002-.052V0h1.575Z"/></clipPath></defs><g clip-path="url(#a)" transform="translate(-596 -498)"><g clip-path="url(#b)" transform="translate(596 498)"><g clip-path="url(#c)" transform="translate(2 1)"><path fill="currentColor" d="M0 0h21v23H0V0z"/></g><g clip-path="url(#c)" transform="translate(2 1)"><path d="M3.707 23C1.663 23 0 21.388 0 19.406V3.595C0 1.612 1.663 0 3.706 0h13.587C19.337 0 21 1.614 21 3.596v15.81C21 21.388 19.337 23 17.294 23H3.707ZM3.306 1.964c-.774.178-1.328.852-1.328 1.63v15.811c0 .925.775 1.677 1.728 1.677h13.587c.954 0 1.73-.752 1.73-1.676V3.595c0-.925-.776-1.677-1.73-1.677l-13.987.046Z" stroke="currentColor" stroke-width=".5" fill="none" stroke-miterlimit="5"/></g><g clip-path="url(#d)" transform="translate(6 3)"><path fill="currentColor" d="M0 0h12.863v16H0V0z"/></g></g></g></svg>