<?xml version="1.0" encoding="UTF-8"?><svg version="1.1" width="25px" height="25px" viewBox="0 0 25.0 25.0" xmlns="http://www.w3.org/2000/svg" xmlns:xlink="http://www.w3.org/1999/xlink"><defs><clipPath id="i0"><path d="M1440,0 L1440,842 L0,842 L0,0 L1440,0 Z"></path></clipPath><clipPath id="i1"><path d="M25,0 L25,25 L0,25 L0,0 L25,0 Z"></path></clipPath><clipPath id="i2"><path d="M17.2929554,0.000598771217 C19.3369546,0.000598771217 21,1.61308966 21,3.594723 L21,19.405277 C20.9996913,21.3875091 19.3372633,23 17.2938816,23 L3.70673586,23 C1.66273668,23 0,21.3875091 0,19.4058758 L0,3.594723 C0.000308714571,1.61249089 1.66273668,0 3.70611843,0 L17.2929554,0.000598771217 Z M9.60028719,16.4822967 L5.06672137,16.4822967 C4.47769116,16.4822967 4,16.82212 4,17.2411483 C4,17.6601767 4.47769116,18 5.06672137,18 L9.60028719,18 C10.1893174,18 10.6670086,17.6601767 10.6670086,17.2411483 C10.6670086,16.82212 10.1893174,16.4822967 9.60028719,16.4822967 Z M12.2670906,13 L5.06672137,13 C4.47769116,13 4,13.3398233 4,13.7588517 C4,14.17788 4.47769116,14.5177033 5.06672137,14.5177033 L12.2670906,14.5177033 C12.8561208,14.5177033 13.333812,14.17788 13.333812,13.7588517 C13.333812,13.3398233 12.8561208,13 12.2670906,13 Z M12.4375166,2.00021085 L10.862916,2.00021085 L10.862916,6.31833516 L10.8651283,6.37083579 C10.895116,6.76469596 11.2891348,7 11.6524285,7 C11.7937641,7 11.9292004,6.96710804 12.0550504,6.90237834 L13.862916,5.97170448 L15.6661115,6.90005904 L15.7196961,6.92557139 C15.8320271,6.97490934 15.9509947,7 16.0738952,7 C16.4534117,7 16.862916,6.74108122 16.862916,6.32318462 L16.862916,2 L15.2883155,2 L15.2883155,5.13000759 L14.2734036,4.60795311 L14.2126907,4.57948891 C14.1045383,4.5335245 13.9833585,4.50906637 13.8626702,4.50906637 C13.7200682,4.50909436 13.5801491,4.54232431 13.4578362,4.60521211 L12.4375166,5.13021844 L12.4375166,2.00021085 Z"></path></clipPath></defs><g transform="translate(-517.0 -498.0)"><g clip-path="url(#i0)"><g transform="translate(517.0 498.0)"><g clip-path="url(#i1)"><g transform="translate(2.0 1.0)"><g clip-path="url(#i2)"><polygon points="0,0 21,0 21,23 0,23 0,0" stroke="none" fill="#1A67E3"></polygon></g></g></g></g></g></g></svg>