<svg width="25" height="25" xmlns="http://www.w3.org/2000/svg"><defs><clipPath id="a"><path d="M1440 0v842H0V0h1440Z"/></clipPath><clipPath id="b"><path d="M25 0v25H0V0h25Z"/></clipPath><clipPath id="c"><path d="M10.763.27c.224.144.262.324.224.504a.717.717 0 0 1-.3.433l-6.556 4.54c-.225.18-.525.253-.824.253-.375 0-.75-.144-1.012-.396L.197 3.549a.7.7 0 0 1 0-.973c.15-.144.3-.18.487-.18s.374.072.487.216l2.06 2.019L9.752.126c.337-.217.787-.144 1.012.144Z"/></clipPath><clipPath id="d"><path d="M7.176 0c.872 0 1.139.598 1.139 1.385V1.5c0 .825-.307 1.5-1.179 1.5H1.268C.396 3 0 2.325 0 1.538v-.076C0 .637.436 0 1.268 0h5.908Z"/></clipPath></defs><g clip-path="url(#a)" transform="translate(-596 -384)"><g clip-path="url(#b)" transform="translate(596 384)"><path d="M20.627 4h-2.709v.95c0 .702-.594 1.3-1.373 1.3H8.418c-.742 0-1.373-.563-1.373-1.3V4H4.373C3.631 4 3 4.563 3 5.3v15.4c0 .702.594 1.3 1.373 1.3h16.254c.742 0 1.373-.563 1.373-1.3V5.265C22 4.563 21.37 4 20.627 4Z" stroke="currentColor" stroke-width="1.5" fill="none" stroke-miterlimit="10"/><g clip-path="url(#c)" transform="translate(7 11)"><path fill="currentColor" d="M0 0h11v6H0V0z"/></g><g clip-path="url(#d)" transform="translate(8.278 2)"><path fill="currentColor" d="M0 0h8.315v3H0V0z"/></g></g></g></svg>