<?xml version="1.0" encoding="UTF-8"?><svg version="1.1" width="25px" height="25px" viewBox="0 0 25.0 25.0" xmlns="http://www.w3.org/2000/svg" xmlns:xlink="http://www.w3.org/1999/xlink"><defs><clipPath id="i0"><path d="M1440,0 L1440,842 L0,842 L0,0 L1440,0 Z"></path></clipPath><clipPath id="i1"><path d="M4.04492188,0 L4.04492188,1.00195313 C4.04492188,1.78125 4.67578127,2.37500001 5.41796876,2.37500001 L13.5449219,2.37500001 C14.3242187,2.37500001 14.9179687,1.74414062 14.9179687,1.00195313 L14.9179687,0 L17.6269531,0 C18.3691406,0 19,0.593750007 19,1.3359375 L19,17.6269531 C19,18.40625 18.3691406,19 17.6269531,19 L1.37304688,19 C0.593750007,19 0,18.3691406 0,17.6269531 L0,1.37304688 C0,0.593750007 0.630859389,0 1.37304688,0 L4.04492188,0 Z M13.6933594,7.421875 L7.23632812,12.0605469 L5.19531251,9.98242187 C5.08398439,9.83398436 4.89843752,9.7597656 4.71289063,9.75976562 C4.52734374,9.75976564 4.37890625,9.796875 4.23046875,9.94531251 C3.97070311,10.2050781 3.97070311,10.6875 4.23046875,10.9472656 L6.30859376,13.0625 C6.56835939,13.3222656 6.93945313,13.4707031 7.31054688,13.4707031 C7.60742188,13.4707031 7.90429687,13.3964844 8.12695312,13.2109375 L14.6210937,8.53515625 C14.7695312,8.42382812 14.8808594,8.27539061 14.9179687,8.08984375 C14.9550781,7.90429688 14.9179687,7.71875001 14.6953125,7.5703125 C14.4726562,7.27343749 14.0273437,7.19921875 13.6933594,7.421875 Z"></path></clipPath><clipPath id="i2"><path d="M7.17573325,0 C8.04797995,0 8.31491145,0.597845872 8.31491145,1.38534587 L8.31491145,1.5 C8.31491145,2.325 8.00833237,3 7.13608566,3 L1.26824426,3 C0.39599756,3 0,2.325 0,1.53750001 L0,1.46249999 C0,0.63749999 0.435645144,0 1.26824426,0 L7.17573325,0 Z"></path></clipPath></defs><g transform="translate(-517.0 -384.0)"><g clip-path="url(#i0)"><g transform="translate(517.0 384.0)"><g transform="translate(3.0 2.0)"><g transform="translate(0.0 2.0)"><g clip-path="url(#i1)"><polygon points="0,0 19,0 19,19 0,19 0,0" stroke="none" fill="#1A67E3"></polygon></g></g><g transform="translate(5.278011243902937 0.0)"><g clip-path="url(#i2)"><polygon points="0,0 8.31491145,0 8.31491145,3 0,3 0,0" stroke="none" fill="#1A67E3"></polygon></g></g></g></g></g></g></svg>