<svg xmlns="http://www.w3.org/2000/svg" width="25" height="25"><defs><clipPath id="a"><path d="M1440 0v842H0V0h1440Z"/></clipPath><clipPath id="b"><path d="M25 0v25H0V0h25Z"/></clipPath><clipPath id="c"><path d="M25 0v23H0V0h25Z"/></clipPath><clipPath id="d"><path d="M10.292 0c.21 0 .411.076.56.211a.688.688 0 0 1 .231.51.688.688 0 0 1-.231.51.835.835 0 0 1-.56.21h-9.5C.353 1.442 0 1.12 0 .722 0 .323.354 0 .791 0Z"/></clipPath><clipPath id="e"><path d="M7.572 0c.21 0 .412.076.56.211a.689.689 0 0 1 .232.51.689.689 0 0 1-.232.51.835.835 0 0 1-.56.21H.792C.353 1.442 0 1.12 0 .722 0 .323.354 0 .791 0Z"/></clipPath><clipPath id="f"><path d="M5.63 0c.21 0 .411.076.56.211a.688.688 0 0 1 .231.51.688.688 0 0 1-.231.51.835.835 0 0 1-.56.21H.79C.354 1.442 0 1.12 0 .722 0 .323.354 0 .791 0Z"/></clipPath><clipPath id="g"><path d="M8.064 0c.875.001 1.584.675 1.583 1.505v.047c0 .4-.167.782-.463 1.064-.297.282-.7.44-1.12.44h-6.48c-.42 0-.824-.158-1.12-.44A1.463 1.463 0 0 1 0 1.553v-.048C-.001.675.708 0 1.583 0h6.48Z"/></clipPath></defs><g clip-path="url(#a)" transform="translate(-596 -269)"><g clip-path="url(#b)" transform="translate(596 269)"><g clip-path="url(#c)" transform="translate(0 1)"><path fill="currentColor" d="M0 0h25v23H0V0z" opacity="1%"/></g><path fill="none" stroke="currentColor" stroke-miterlimit="10" stroke-width="1.5" d="M18.892 22.083H6.164c-1.747 0-3.164-.951-3.164-2.57V6.332C3 4.714 4.44 3.403 6.216 3.4v.045c0 1.593 1.418 2.883 3.166 2.883h6.532c1.748 0 3.166-1.29 3.166-2.883v-.044h.021c1.78 0 2.899 1.22 2.899 2.838v13.019c0 1.56-1.392 2.824-3.108 2.824Z"/><g clip-path="url(#d)" transform="translate(6.944 9.83)"><path fill="currentColor" d="M0 0h11.083v1.442H0V0z"/></g><g clip-path="url(#e)" transform="translate(6.944 12.713)"><path fill="currentColor" d="M0 0h8.364v1.442H0V0z"/></g><g clip-path="url(#f)" transform="translate(6.944 15.89)"><path fill="currentColor" d="M0 0h6.421v1.442H0V0z"/></g><g clip-path="url(#g)" transform="translate(7.85 2)"><path fill="currentColor" d="M0 0h9.647v3.056H0V0z"/></g></g></g></svg>