<?xml version="1.0" encoding="UTF-8"?>
<svg width="25px" height="25px" viewBox="0 0 25 25" version="1.1" xmlns="http://www.w3.org/2000/svg" xmlns:xlink="http://www.w3.org/1999/xlink">
    <title>目录备份</title>
    <defs>
        <rect id="path-1" x="0" y="0" width="25" height="25"></rect>
    </defs>
    <g id="目录备份" stroke="none" stroke-width="1" fill="none" fill-rule="evenodd">
        <mask id="mask-2" fill="white">
            <use xlink:href="#path-1"></use>
        </mask>
        <g id="矩形"></g>
        <g id="编组" mask="url(#mask-2)" fill="#1A68E3" fill-rule="nonzero">
            <g id="编组备份-2" transform="translate(3.000000, 3.506052)">
                <path d="M16.1009508,0 C17.880319,0 19,1.27285008 19,2.96126452 L19,16.5466826 C19,18.1744121 17.6084712,19.4939476 15.8919333,19.4939476 L3.16362335,19.4939476 C1.4172784,19.4939476 0,18.5010877 0,16.8126732 L0,3.05631381 C0,1.3690046 1.43942337,0.0014736325 3.21568347,0 L3.21568347,0.046787832 C3.21646048,1.70830848 4.63412739,3.05447177 6.38241489,3.05447177 L12.9136285,3.05447177 C14.661916,3.05447177 16.0795829,1.70794007 16.0799714,0.046787832 L16.0799714,0 L16.1009508,0 Z M9.57323382,13.0320691 L4.73513956,13.0320691 C4.29757412,13.032679 3.94331862,13.369431 3.94372239,13.7843584 C3.94331862,14.1992859 4.29757412,14.5360378 4.73513956,14.5366478 L9.57323382,14.5366478 C9.78343304,14.5364525 9.98494121,14.4570839 10.1334288,14.3160023 C10.2819163,14.1749206 10.36522,13.9836826 10.3650215,13.7843584 C10.36522,13.5850343 10.2819163,13.3937963 10.1334288,13.2527146 C9.98494121,13.111633 9.78343304,13.0322644 9.57323382,13.0320691 Z M11.5157755,9.71639592 L4.73513956,9.71639592 C4.29757412,9.7170059 3.94331862,10.0537579 3.94370872,10.4686853 C3.94331862,10.8836127 4.29757412,11.2203647 4.73513956,11.2209747 L11.5157755,11.2209747 C11.7259747,11.2207794 11.9274829,11.1414108 12.0759704,11.0003291 C12.224458,10.8592475 12.3077616,10.6680095 12.3075717,10.4686853 C12.3077616,10.2693611 12.224458,10.0781231 12.0759704,9.93704147 C11.9274829,9.79595982 11.7259747,9.71659124 11.5157755,9.71639592 Z M14.2353338,6.70723834 L4.73513956,6.70723834 C4.29757412,6.70784833 3.94331862,7.04460032 3.94374769,7.45952774 C3.94331862,7.87445516 4.29757412,8.21120714 4.73513956,8.21181713 L14.2353338,8.21181713 C14.445533,8.21162181 14.6470412,8.13225322 14.7955288,7.99117157 C14.9440163,7.85008992 15.02732,7.6588519 15.0271142,7.45952774 C15.02732,7.26020357 14.9440163,7.06896555 14.7955288,6.9278839 C14.6470412,6.78680225 14.445533,6.70743366 14.2353338,6.70723834 Z M12.914017,-1.50605242 C13.7892996,-1.50503566 14.4980472,-0.831472141 14.4971892,-0.0014736325 L14.4971892,0.0464194239 C14.4971892,0.445773832 14.3305184,0.828181467 14.033698,1.11001368 C13.7369677,1.39194122 13.3340665,1.55022547 12.914017,1.54989351 L6.43369799,1.54989351 C6.01341071,1.54999109 5.61033032,1.39161308 5.31328812,1.10966249 C5.01624592,0.827711904 4.84962232,0.445330468 4.8501368,0.046787832 L4.8501368,-0.00110522438 C4.84906443,-0.831103861 5.55763821,-1.50483246 6.43292097,-1.50605242 L12.914017,-1.50605242 Z" id="形状结合"></path>
            </g>
        </g>
    </g>
</svg>