<?xml version="1.0" encoding="UTF-8"?>
<svg width="25px" height="25px" viewBox="0 0 25 25" version="1.1" xmlns="http://www.w3.org/2000/svg" xmlns:xlink="http://www.w3.org/1999/xlink">
    <title>编组 2</title>
    <g id="组件" stroke="none" stroke-width="1" fill="none" fill-rule="evenodd">
        <g id="用户信息备份" fill="#1A68E3" fill-rule="nonzero">
            <g id="编组" transform="translate(1.000000, 0.000000)">
                <path d="M15.0594015,15.6212485 L15.069674,15.1360544 C17.4374721,13.5254101 18.5879857,10.6842737 18.5879857,6.47759103 C18.5879857,2.42096837 15.9839214,0 11.6181331,0 L11.3818669,0 C7.02121483,0 4.4120143,2.42096837 4.4120143,6.47759103 C4.4120143,10.6642657 5.57280037,13.5054021 7.96114337,15.1260504 L7.96114337,15.6162465 C3.98570789,16.1364546 0,17.6770708 0,20.0330132 C0,23.3293317 3.86757481,25 11.5,25 C19.1324252,25 23,23.3293317 23,20.0330132 C23,17.6820728 19.0245645,16.1414566 15.0594015,15.6212485 Z" id="路径"></path>
            </g>
        </g>
    </g>
</svg>