<?xml version="1.0" encoding="UTF-8"?>
<svg width="25px" height="25px" viewBox="0 0 25 25" version="1.1" xmlns="http://www.w3.org/2000/svg" xmlns:xlink="http://www.w3.org/1999/xlink">
    <title>编组 2</title>
    <g id="组件" stroke="none" stroke-width="1" fill="none" fill-rule="evenodd">
        <g id="用户信息备份-2" fill-rule="nonzero" stroke="#2F2F2F" stroke-width="1.5">
            <g id="编组" transform="translate(1.000000, 0.000000)">
                <path d="M11.3818669,0.75 C13.4459513,0.75 15.0811337,1.26114263 16.1912735,2.25904902 C17.2846353,3.24187358 17.8379857,4.68636521 17.8379857,6.47759103 C17.8379857,10.3489212 16.8460582,13.0206374 14.6478445,14.5159255 C14.1983806,14.8216637 13.7216966,15.06243 13.2174554,15.2399521 C13.7407808,15.4423987 14.2748036,15.647416 14.8160907,15.8418841 C16.9072127,16.5931609 19.0149018,17.1539957 20.5050672,17.9819256 C21.0779902,18.3002393 21.5535829,18.6557429 21.8723688,19.0607103 C22.1056502,19.3570576 22.25,19.6787703 22.25,20.0330132 C22.25,20.6807727 22.0639042,21.2505098 21.6847994,21.7387958 C21.2698357,22.2732681 20.6397641,22.7077815 19.8146833,23.0641437 C17.9600685,23.8651739 15.18106,24.25 11.5,24.25 C7.81893995,24.25 5.03993149,23.8651739 3.18531666,23.0641437 C2.36023585,22.7077815 1.73016428,22.2732681 1.31520056,21.7387958 C0.936095818,21.2505098 0.75,20.6807727 0.75,20.0330132 C0.75,19.6778913 0.894711487,19.3554733 1.12864623,19.0585527 C1.44823555,18.6529155 1.92502841,18.2969474 2.49941962,17.9782806 C3.95321063,17.1717311 6.00914625,16.6280702 8.05845547,16.3599066 C8.71700119,16.2737322 9.38352835,16.2148733 10.0383358,16.1879474 C9.48049059,15.8719292 8.95566722,15.4942776 8.45782021,15.0542749 C6.21634575,13.0732346 5.1620143,10.3941803 5.1620143,6.47759103 C5.1620143,4.69226256 5.71272557,3.2516498 6.77139566,2.26775068 C7.84942031,1.26586395 9.42728372,0.75 11.3818669,0.75 Z" id="路径"></path>
            </g>
        </g>
    </g>
</svg>