<?xml version="1.0" encoding="UTF-8"?>
<svg width="16px" height="16px" viewBox="0 0 16 16" version="1.1" xmlns="http://www.w3.org/2000/svg" xmlns:xlink="http://www.w3.org/1999/xlink">
    <title>二级-应用事件</title>
    <g id="页面-2" stroke="none" stroke-width="1" fill="none" fill-rule="evenodd">
        <g id="画板" transform="translate(-243.000000, -298.000000)" fill-rule="nonzero">
            <g id="list" transform="translate(216.000000, 184.000000)">
                <g id="table" transform="translate(10.000000, 62.000000)">
                    <g id="head" transform="translate(0.000000, -0.000000)">
                        <g id="直线-8备份-2" transform="translate(0.000000, 51.000013)">
                            <g id="编组-14" transform="translate(17.000000, 0.000000)">
                                <g id="二级-应用事件" transform="translate(0.000000, 0.999987)">
                                    <rect id="矩形" fill="#F59E0B" x="0" y="0" width="16" height="16" rx="3"></rect>
                                    <g id="编组-7" transform="translate(3.000000, 3.000000)" fill="#FFFFFF">
                                        <path d="M2.33333333,9.91666667 L1.33333333,9.91666667 C0.583333333,9.91666667 0,9.33333333 0,8.58333333 L0,1.41666667 C0,0.666666667 0.583333333,0 1.33333333,0 L8.08333333,0 C8.83333333,0 9.41666667,0.583333333 9.41666667,1.33333333 L9.41666667,2.33333333 C9.41666667,2.58333333 9.25,2.75 9,2.75 C8.75,2.75 8.58333333,2.58333333 8.58333333,2.33333333 L8.58333333,1.41666667 C8.58333333,1.08333333 8.33333333,0.833333333 8.08333333,0.833333333 L1.33333333,0.833333333 C1.08333333,0.833333333 0.833333333,1.08333333 0.833333333,1.41666667 L0.833333333,8.58333333 C0.833333333,8.83333333 1.08333333,9.08333333 1.33333333,9.08333333 L2.33333333,9.08333333 C2.58333333,9.08333333 2.75,9.25 2.75,9.5 C2.75,9.75 2.58333333,9.91666667 2.33333333,9.91666667 Z" id="路径"></path>
                                        <path d="M6,3.25 L2.25,3.25 C2,3.25 1.83333333,3.08333333 1.83333333,2.83333333 C1.83333333,2.58333333 2,2.41666667 2.25,2.41666667 L5.91666667,2.41666667 C6.16666667,2.41666667 6.33333333,2.58333333 6.33333333,2.83333333 C6.33333333,3.08333333 6.16666667,3.25 6,3.25 Z M5,5.5 L2.25,5.5 C2,5.5 1.83333333,5.33333333 1.83333333,5.08333333 C1.83333333,4.83333333 2,4.66666667 2.25,4.66666667 L5,4.66666667 C5.25,4.66666667 5.41666667,4.83333333 5.41666667,5.08333333 C5.41666667,5.33333333 5.25,5.5 5,5.5 Z M3.66666667,7.5 L2.16666667,7.5 C1.91666667,7.5 1.75,7.33333333 1.75,7.08333333 C1.75,6.83333333 1.91666667,6.66666667 2.16666667,6.66666667 L3.75,6.66666667 C4,6.66666667 4.16666667,6.83333333 4.16666667,7.08333333 C4.16666667,7.33333333 3.91666667,7.5 3.66666667,7.5 Z M11.25,10 L3.91666667,10 C3.75,10 3.66666667,9.91666667 3.58333333,9.75 C3.5,9.58333333 3.5,9.5 3.58333333,9.33333333 L7.25,3.08333333 C7.41666667,2.83333333 7.83333333,2.83333333 8,3.08333333 L11.6666667,9.33333333 C11.75,9.5 11.75,9.58333333 11.6666667,9.75 C11.5,9.91666667 11.4166667,10 11.25,10 Z M4.58333333,9.16666667 L10.5,9.16666667 L7.58333333,4.16666667 L4.58333333,9.16666667 Z" id="形状"></path>
                                        <path d="M7.58333333,7.75 C7.33333333,7.75 7.16666667,7.58333333 7.16666667,7.33333333 L7.16666667,5.83333333 C7.16666667,5.58333333 7.33333333,5.41666667 7.58333333,5.41666667 C7.83333333,5.41666667 8,5.58333333 8,5.83333333 L8,7.33333333 C8,7.58333333 7.83333333,7.75 7.58333333,7.75 Z M7.58333333,8 C7.33333333,8 7.08333333,8.25 7.08333333,8.5 C7.08333333,8.75 7.33333333,9 7.58333333,9 C7.83333333,9 8.08333333,8.75 8.08333333,8.5 C8,8.25 7.83333333,8 7.58333333,8 Z" id="形状"></path>
                                    </g>
                                </g>
                            </g>
                        </g>
                    </g>
                </g>
            </g>
        </g>
    </g>
</svg>