<?xml version="1.0" encoding="UTF-8"?>
<svg width="16px" height="16px" viewBox="0 0 16 16" version="1.1" xmlns="http://www.w3.org/2000/svg" xmlns:xlink="http://www.w3.org/1999/xlink">
    <title>二级-应用事件</title>
    <g id="页面-2" stroke="none" stroke-width="1" fill="none" fill-rule="evenodd">
        <g id="画板" transform="translate(-243.000000, -339.000000)">
            <g id="list" transform="translate(216.000000, 184.000000)">
                <g id="table" transform="translate(10.000000, 62.000000)">
                    <g id="head" transform="translate(0.000000, -0.000000)">
                        <g id="直线-8备份-3" transform="translate(0.000000, 92.000013)">
                            <g id="编组-14" transform="translate(17.000000, 0.000000)">
                                <g id="二级-应用事件" transform="translate(0.000000, 0.999987)">
                                    <rect id="矩形" fill="#3B82F6" fill-rule="nonzero" x="0" y="0" width="16" height="16" rx="3"></rect>
                                    <g id="编组-7" transform="translate(3.000000, 3.000000)">
                                        <rect id="矩形" stroke="#FFFFFF" x="0.5" y="0.5" width="8" height="9" rx="1"></rect>
                                        <path d="M7,3.25 L3.25,3.25 C3,3.25 2.83333333,3.08333333 2.83333333,2.83333333 C2.83333333,2.58333333 3,2.41666667 3.25,2.41666667 L6.91666667,2.41666667 C7.16666667,2.41666667 7.33333333,2.58333333 7.33333333,2.83333333 C7.33333333,3.08333333 7.16666667,3.25 7,3.25 Z M6,5.5 L3.25,5.5 C3,5.5 2.83333333,5.33333333 2.83333333,5.08333333 C2.83333333,4.83333333 3,4.66666667 3.25,4.66666667 L6,4.66666667 C6.25,4.66666667 6.41666667,4.83333333 6.41666667,5.08333333 C6.41666667,5.33333333 6.25,5.5 6,5.5 Z M4.66666667,7.5 L3.16666667,7.5 C2.91666667,7.5 2.75,7.33333333 2.75,7.08333333 C2.75,6.83333333 2.91666667,6.66666667 3.16666667,6.66666667 L4.75,6.66666667 C5,6.66666667 5.16666667,6.83333333 5.16666667,7.08333333 C5.16666667,7.33333333 4.91666667,7.5 4.66666667,7.5 Z" id="形状" fill="#FFFFFF" fill-rule="nonzero"></path>
                                    </g>
                                </g>
                            </g>
                        </g>
                    </g>
                </g>
            </g>
        </g>
    </g>
</svg>