<?xml version="1.0" encoding="UTF-8"?>
<svg width="20px" height="19px" viewBox="0 0 20 19" version="1.1" xmlns="http://www.w3.org/2000/svg" xmlns:xlink="http://www.w3.org/1999/xlink">
    <title>Group</title>
    <g id="页面-3" stroke="none" stroke-width="1" fill="none" fill-rule="evenodd">
        <g id="画板" transform="translate(-17.000000, -343.000000)" fill="#3B82F6" fill-rule="nonzero">
            <g id="side-nav" transform="translate(0.000000, -8.000000)">
                <g id="Group" transform="translate(17.000000, 351.000000)">
                    <path d="M9.67548606,0 C11.8605407,0 13.202189,0.758071262 14.2317304,1.93211066 C15.2612717,3.10615006 15.6255133,4.15717055 15.7019735,4.97475657 C15.7536657,5.52750062 15.7005155,6.3823905 15.451592,7.17800689 C14.986267,7.06122906 14.5002839,7 14,7 C10.6862915,7 8,9.6862915 8,13 C8,14.843721 8.83160092,16.4932113 10.1401751,17.5938431 L10.1525695,17.6501512 L10.1630446,17.7920127 C10.1644381,18.3442956 9.71785393,18.7931391 9.16557094,18.7945326 L6.43461921,18.7971346 L6.37026028,18.7901035 C6.31098043,18.7803069 6.25627676,18.761531 6.22842843,18.7457595 L6.106119,18.6895498 C5.75933435,18.4969473 5.59832259,18.0968206 5.74404675,17.7115045 L5.81560778,17.5876715 L5.85073766,17.4720476 L6.2368349,16.4311785 L6.0472027,16.432475 C5.38418166,16.432475 4.59366834,16.2543301 3.84693082,15.7986213 C3.01454641,15.2703941 2.60811941,14.4721546 2.3300166,13.0933835 C2.21392291,12.5178172 2.13896498,11.8819263 2.09553749,11.2360153 L2.109,11.421 L1.63447048,11.1867498 L1.08215873,10.9420188 L1.02266009,10.922782 L0.932700107,10.8688381 L0.688923017,10.7025551 C0.652804989,10.6755082 0.623045912,10.6507194 0.588290814,10.6194983 L0.530991781,10.5667561 C0.219258238,10.2752522 0.0243146645,9.90787949 0.0032354942,9.44798011 C-0.0263151825,8.86195782 0.141985783,8.52107309 0.696984785,7.93529879 L0.981283672,7.64576847 L1.48155797,7.15699829 L1.74886433,6.88638481 C1.8260212,6.80378013 1.8941331,6.72538382 1.96190081,6.64102146 C2.03654673,6.56700593 2.07852153,6.50226319 2.12951941,6.40112875 L2.0972773,6.45890258 L2.10375728,6.24327326 C2.13365656,5.73507942 2.23880143,5.2166224 2.42416606,4.67502303 L2.54505101,4.34718329 C2.89187767,3.52182882 3.37456169,2.77827748 3.99258101,2.13189871 C5.3562164,0.826404067 7.22720977,0 9.67548606,0 Z" id="Path"></path>
                    <path d="M16.0794433,14.0322184 L15.9294922,14.0422196 C15.6315135,14.0819557 15.3476542,14.2384851 15.1243413,14.4828243 L14.0791816,15.6255754 L11.9412296,15.626532 C11.53212,15.626532 11.197189,15.9929988 11.197189,16.4117315 C11.197189,16.8304642 11.53212,17.1969309 11.9412296,17.1969309 L14.5640411,17.1969309 L14.7884446,17.0993912 L16.1833248,15.6022506 L18.3816889,15.6026173 C18.7907985,15.6026173 19.1257295,15.2361506 19.1257295,14.8174179 C19.1257295,14.3986852 18.7907985,14.0322184 18.3816889,14.0322184 L16.0794433,14.0322184 Z M13.31092,12.4379048 C13.7200296,12.4379048 14.0549606,12.8043716 14.0549606,13.2231043 C14.0549606,13.6037703 13.7781581,13.9412414 13.4204603,13.9994538 L13.31092,14.0083037 L10.309258,14.0083037 C9.90014844,14.0083037 9.56521739,13.6418369 9.56521739,13.2231043 C9.56521739,12.8424382 9.84201991,12.5049671 10.1997177,12.4467547 L10.309258,12.4379048 L13.31092,12.4379048 Z M14.4474717,9.2173913 C14.7693123,9.2173913 15.0684902,9.33612317 15.3127814,9.55100555 L15.4302039,9.66635474 L17.3495652,11.735243 L19.2559594,11.7364068 C19.586553,11.7364068 19.8687084,11.9757076 19.9648337,12.2885142 L19.9918918,12.4089384 L20,12.5216063 C20,12.9022724 19.7231975,13.2397435 19.3654997,13.2979558 L19.2559594,13.3068057 L16.8371444,13.3068057 L16.6119369,13.208401 L14.3713555,10.7875192 L11.2418132,10.7877902 C10.9112196,10.7877902 10.6290642,10.5484894 10.5329389,10.2356829 L10.5058807,10.1152587 L10.4977726,10.0025908 C10.4977726,9.62192468 10.7745751,9.28445358 11.1322729,9.22624119 L11.2418132,9.2173913 L14.4474717,9.2173913 Z" id="Shape-Copy"></path>
                </g>
            </g>
        </g>
    </g>
</svg>