<?xml version="1.0" encoding="UTF-8"?><svg version="1.1" width="24px" height="24px" viewBox="0 0 24.0 24.0" xmlns="http://www.w3.org/2000/svg" xmlns:xlink="http://www.w3.org/1999/xlink"><defs><clipPath id="i0"><path d="M1440,0 L1440,1255 L0,1255 L0,0 L1440,0 Z"/></clipPath><clipPath id="i1"><path d="M24,0 L24,24 L0,24 L0,0 L24,0 Z"/></clipPath><clipPath id="i2"><path d="M2.10375728,6.24327326 C2.13365656,5.73507942 2.23880143,5.2166224 2.42416606,4.67502303 L2.54505101,4.34718329 C2.89187767,3.52182882 3.37456169,2.77827748 3.99258101,2.13189871 C5.3562164,0.826404067 7.22720977,0 9.67548606,0 C11.8605407,0 13.6909147,1.07485347 14.9489476,3.09776506 C15.5071884,3.96264998 15.5237187,3.94836101 15.7433096,4.86072708 L15.7792529,4.98651643 C15.853312,5.3643066 15.629078,5.73801892 15.2589279,5.89498206 C14.8410768,6.05035295 14.397868,5.82248175 14.2273998,5.42808149 L14.222003,5.40061365 L14.2116314,5.37338825 L14.1792332,5.31884338 C13.9919972,4.62263784 14.1558408,4.94612913 13.7811874,4.28933872 L13.5831286,3.96150169 C12.6326486,2.41101416 11.3014241,1.62055966 9.67548606,1.62055966 C7.66797167,1.62055966 6.17220728,2.27715484 5.1386607,3.30173569 C4.65502694,3.81325512 4.29764948,4.36364314 4.06291387,4.97456518 C3.84135348,5.57086474 3.7236484,6.14663926 3.72364839,6.6442946 C3.72364839,6.80629814 3.66724574,6.9764872 3.56849471,7.17124828 C3.52934966,7.24845187 3.48398529,7.3281175 3.4323162,7.41196934 L3.20281025,7.74954832 L2.64885019,8.30895077 L2.27636731,8.66765128 L2.116067,8.82684306 C2.07406269,8.865716 2.03561522,8.90155252 2.00043327,8.93463735 L1.76409895,9.16579276 L1.68120222,9.26012402 L1.64171885,9.32258235 C1.63423955,9.3396082 1.6316652,9.35359975 1.6316652,9.36683483 L1.64827314,9.38125337 L1.78872274,9.46925421 L2.30960296,9.71377867 C2.43592097,9.76387917 2.53684638,9.81516183 2.70549398,9.91299339 L3.21942543,10.2187099 C3.37199547,10.3165361 3.45562014,10.3893794 3.46430814,10.4331311 C3.62227994,10.5897688 3.69096116,10.7940724 3.69096116,11.0198057 C3.69096116,11.4851962 3.76165133,12.1861281 3.8799133,12.8318525 C4.0995683,13.8586239 4.30187203,14.2827396 4.65024018,14.5048116 C5.10190136,14.7876622 5.59964424,14.9091489 5.98182823,14.9091489 C6.28794133,14.9091489 6.56134929,14.8721808 7.06050707,14.7795041 L7.3546922,14.7795041 C7.61951922,14.7795041 7.84601278,14.8917945 8.00543388,15.1025609 C8.15882217,15.3053515 8.21756785,15.5674745 8.15221768,15.8227065 L8.13002692,15.8807462 C8.08417979,16.1080458 7.99553693,16.3717287 7.81693081,16.7849147 L7.74033123,16.9757621 L7.25184524,18.2962005 C7.09840072,18.6004979 6.8274058,18.7986679 6.50482403,18.7986679 C6.45221793,18.798901 6.41487832,18.797477 6.37026028,18.7901035 C6.31098043,18.7803069 6.25627676,18.761531 6.22842843,18.7457595 L6.106119,18.6895498 C5.75933435,18.4969473 5.59832259,18.0968206 5.74404675,17.7115045 L5.81560778,17.5876715 L5.85073766,17.4720476 L6.2368349,16.4311785 L6.0472027,16.432475 C5.38418166,16.432475 4.59366834,16.2543301 3.84693082,15.7986213 C3.01454641,15.2703941 2.60811941,14.4721546 2.3300166,13.0933835 C2.21392291,12.5178172 2.13896498,11.8819263 2.09553749,11.2360153 L2.109,11.421 L1.63447048,11.1867498 L1.08215873,10.9420188 L1.02266009,10.922782 L0.963972759,10.8877727 L0.932700107,10.8688381 L0.688923017,10.7025551 C0.652804989,10.6755082 0.623045912,10.6507194 0.588290814,10.6194983 L0.530991781,10.5667561 C0.219258238,10.2752522 0.0243146645,9.90787949 0.0032354942,9.44798011 C-0.0308614404,8.77180054 0.198453574,8.42198755 0.981283672,7.64576847 L1.48155797,7.15699829 L1.74886433,6.88638481 C1.8260212,6.80378013 1.8941331,6.72538382 1.96190081,6.64102146 C2.03654673,6.56700593 2.07852153,6.50226319 2.12951941,6.40112875 L2.0972773,6.45890258 Z"/></clipPath><clipPath id="i3"><path d="M8.8164715,4.81482712 C9.22558106,4.81482712 9.56051212,5.18129389 9.56051212,5.60002658 C9.56051212,6.01875927 9.22558106,6.38522603 8.8164715,6.38522603 L6.61810742,6.38485934 L5.22322722,7.88199988 L4.99882368,7.97953964 L2.3760122,7.97953964 C1.96690263,7.97953964 1.63197158,7.61307288 1.63197158,7.19434019 C1.63197158,6.7756075 1.96690263,6.40914073 2.3760122,6.40914073 L4.51396419,6.40818414 L5.55912386,5.26543304 C5.78243685,5.02109384 6.06629608,4.86456443 6.36427482,4.82482826 L6.51422588,4.81482712 Z M3.74570263,3.2205135 C4.1548122,3.2205135 4.48974325,3.58698026 4.48974325,4.00571295 C4.48974325,4.38637903 4.21294073,4.72385014 3.85524293,4.78206252 L3.74570263,4.79091241 L0.744040618,4.79091241 C0.334931051,4.79091241 0,4.42444564 0,4.00571295 C0,3.62504687 0.276802522,3.28757577 0.634500325,3.22936338 L0.744040618,3.2205135 L3.74570263,3.2205135 Z M4.88225428,0 C5.2040949,0 5.50327283,0.118731861 5.747564,0.333614242 L5.8649865,0.448963433 L7.78434783,2.51785166 L9.69074199,2.51901552 C10.0213356,2.51901552 10.303491,2.75831633 10.3996163,3.07112286 L10.4266744,3.19154706 L10.4347826,3.30421497 C10.4347826,3.68488105 10.1579801,4.02235216 9.80028228,4.08056454 L9.69074199,4.08941443 L7.27192696,4.08941443 L7.04671953,3.9910097 L4.80613811,1.57012788 L1.67659581,1.57039891 C1.34600222,1.57039891 1.0638468,1.33109809 0.967721462,1.01829157 L0.940663356,0.897867366 L0.932555188,0.785199455 C0.932555188,0.404533375 1.20935771,0.067062271 1.56705551,0.00884988915 L1.67659581,0 L4.88225428,0 Z"/></clipPath></defs><g transform="translate(-25.0 -1104.0)"><g clip-path="url(#i0)"><g transform="translate(25.0 1104.0)"><g clip-path="url(#i1)"><g transform="translate(2.0 3.0000000000000036)"><g clip-path="url(#i2)"><polygon points="0,0 15.7933496,0 15.7933496,18.7986912 0,18.7986912 0,0" stroke="none"/></g><g transform="translate(9.565217391304348 9.21739130434656)"><g clip-path="url(#i3)"><polygon points="0,0 10.4347826,0 10.4347826,7.97953964 0,7.97953964 0,0" stroke="none"/></g></g></g></g></g></g></g></svg>