<svg xmlns="http://www.w3.org/2000/svg" width="16" height="16"><path fill="currentColor" fill-rule="nonzero" d="M15.11 3.572H9.919a.577.577 0 1 1 0-1.154h5.193a.577.577 0 1 1 0 1.154Zm0 2.885H9.919a.577.577 0 1 1 0-1.154h5.193a.577.577 0 1 1 0 1.154Zm0 4.615H9.919a.576.576 0 1 1 0-1.154h5.193a.576.576 0 1 1 0 1.154Zm0 2.885H9.919a.576.576 0 1 1 0-1.154h5.193a.576.576 0 1 1 0 1.154ZM5.88 7.61H2.418c-.954 0-1.73-.777-1.73-1.731V2.418c0-.954.776-1.73 1.73-1.73H5.88c.954 0 1.73.776 1.73 1.73V5.88c0 .954-.776 1.73-1.73 1.73ZM2.418 1.84a.578.578 0 0 0-.577.577V5.88c0 .318.26.577.577.577H5.88a.578.578 0 0 0 .577-.577V2.418a.578.578 0 0 0-.577-.577H2.418ZM5.88 15.688H2.418c-.954 0-1.73-.777-1.73-1.731v-3.462c0-.954.776-1.73 1.73-1.73H5.88c.954 0 1.73.776 1.73 1.73v3.462c0 .954-.776 1.73-1.73 1.73Zm-3.462-5.77a.578.578 0 0 0-.577.577v3.462c0 .318.26.577.577.577H5.88a.578.578 0 0 0 .577-.577v-3.462a.578.578 0 0 0-.577-.577H2.418Z"/></svg>