<svg xmlns="http://www.w3.org/2000/svg" width="16" height="14"><path fill="currentColor" fill-rule="nonzero" d="M15.159 12.48H4.853a.751.751 0 0 1 0-1.494h10.314a.751.751 0 1 1 0 1.494h-.008ZM0 11.879a1.308 1.308 0 1 0 2.616.07A1.308 1.308 0 0 0 0 11.88ZM15.16 7.195H4.853a.751.751 0 0 1 0-1.494h10.314a.751.751 0 1 1 0 1.494h-.008ZM0 6.594a1.308 1.308 0 1 0 2.616.035A1.308 1.308 0 0 0 0 6.594ZM15.16 1.909H4.853a.751.751 0 1 1 0-1.494h10.314a.751.751 0 1 1 0 1.494h-.008ZM0 1.31a1.308 1.308 0 1 0 2.617 0 1.308 1.308 0 0 0-2.617 0Z"/></svg>