<svg xmlns="http://www.w3.org/2000/svg" width="16" height="16"><path fill="currentColor" fill-rule="nonzero" d="M14.679 4.003a.5.5 0 0 0-.639.303l-.387 1.083a6.528 6.528 0 0 0-2.08-2.592C8.677.652 4.551 1.238 2.38 4.104a6.407 6.407 0 0 0-1.247 4.813A6.441 6.441 0 0 0 3.7 13.206a6.587 6.587 0 0 0 3.93 1.293c2 0 3.977-.898 5.265-2.598.57-.752.96-1.595 1.16-2.506a.5.5 0 1 0-.977-.214 5.395 5.395 0 0 1-.98 2.117c-1.842 2.43-5.343 2.925-7.803 1.104a5.45 5.45 0 0 1-2.173-3.627 5.414 5.414 0 0 1 1.054-4.067c1.842-2.431 5.341-2.929 7.803-1.107A5.519 5.519 0 0 1 12.9 6.205l-1.719-.671a.5.5 0 0 0-.363.931l2.529.987c.06.024.121.035.181.035.009 0 .016-.003.025-.003.019.002.038.01.057.01a.5.5 0 0 0 .47-.332l.901-2.519a.5.5 0 0 0-.302-.64Z"/></svg>