<svg xmlns="http://www.w3.org/2000/svg" width="15" height="15"><g fill="currentColor" fill-rule="nonzero"><path d="M12.856 0A2.144 2.144 0 0 1 15 2.145L15 8.437a4.68 4.68 0 0 0-1.07-.604V5.304h-3.776v2.658c-.393.19-.756.433-1.079.72V5.304H5.837v3.775h2.84a4.714 4.714 0 0 0-.716 1.076l-2.124.001v3.775h1.998c.154.385.357.744.603 1.069H2.143A2.142 2.142 0 0 1 0 12.855V2.143A2.142 2.142 0 0 1 2.143 0h10.713ZM4.762 10.156H.986v2.698a1.075 1.075 0 0 0 1.081 1.077h2.694v-3.775h.001Zm0-4.852H.986v3.775h3.776V5.304ZM12.853.988H2.067a1.08 1.08 0 0 0-1.08 1.08v2.16H13.93v-2.16a1.079 1.079 0 0 0-1.077-1.08Z"/><path d="m14.382 12.459.617-.352-.004-.814-.62-.346-.246-.591.186-.686-.58-.568-.684.195-.586-.243-.356-.617-.815.004-.347.62-.59.245-.686-.187-.57.58.193.685-.242.586-.615.353.004.814.62.347.246.59-.186.686.579.573.686-.193.587.243.353.616.814-.004.347-.62.591-.245.686.187.573-.578-.192-.686.237-.593v-.001Zm-3.014.768a1.553 1.553 0 1 1 .698-3.027 1.554 1.554 0 0 1-.698 3.028Z"/></g></svg>