<svg xmlns="http://www.w3.org/2000/svg" width="16" height="16"><path fill="currentColor" fill-rule="nonzero" d="M4.833 3h2.334a.5.5 0 0 1 .067.995L7.167 4H4.833A1.5 1.5 0 0 0 3.34 5.373l-.006.107.002 5.687a1.5 1.5 0 0 0 1.398 1.496l.103.004 5.665-.008a1.5 1.5 0 0 0 1.495-1.398l.003-.102V8.82a.5.5 0 0 1 .996-.068l.004.068v2.338a2.5 2.5 0 0 1-2.364 2.496l-.133.004-5.663.008-.136-.004A2.5 2.5 0 0 1 2.34 11.3l-.004-.133-.001-5.665.003-.135A2.5 2.5 0 0 1 4.7 3.003L4.834 3h2.333-2.334Zm4.332-1h4.37l.066.01.067.02.038.015a.47.47 0 0 1 .101.06l.047.042.055.066.036.06.027.06.012.044.01.042.006.063v4.355a.5.5 0 0 1-.995.068L13 6.837v-3.13L8.185 8.523a.5.5 0 0 1-.65.048l-.057-.048a.5.5 0 0 1-.048-.651l.048-.056 4.812-4.815H9.165a.5.5 0 0 1-.495-.432L8.665 2.5a.5.5 0 0 1 .432-.496l.068-.004Z"/></svg>