<?xml version="1.0" encoding="UTF-8"?>
<svg width="16.7511137px" height="16px" viewBox="0 0 16.7511137 16" version="1.1" xmlns="http://www.w3.org/2000/svg" xmlns:xlink="http://www.w3.org/1999/xlink">
    <title>编组</title>
    <g id="页面-2" stroke="none" stroke-width="1" fill="none" fill-rule="evenodd">
        <g id="画板备份-9" transform="translate(-281, -735)" fill="#FFA900" fill-rule="nonzero">
            <g id="history" transform="translate(216, 638)">
                <g id="编组" transform="translate(65, 97)">
                    <path d="M4.33338013,15.7978321 C3.37567664,16.2937857 2.74290827,15.8491377 2.93102859,14.7717213 L3.70061176,10.2910371 L0.451260626,7.11009333 C-0.318322536,6.35761201 -0.0788966633,5.62223255 0.981417916,5.45121407 L5.47920395,4.80134384 L7.49722203,0.731104004 C7.97607377,-0.243701335 8.74565693,-0.243701335 9.24161053,0.731104004 L11.2596286,4.81844569 L15.7574146,5.46831592 C16.8348311,5.62223255 17.0742569,6.35761201 16.2875719,7.12719518 L13.0382208,10.2910371 L13.807804,14.7717213 C13.9959243,15.8320358 13.3631559,16.2937857 12.4054524,15.7978321 L8.36941628,13.677203 L4.33338013,15.7978321 Z" id="路径"></path>
                </g>
            </g>
        </g>
    </g>
</svg>