<?xml version="1.0" encoding="UTF-8"?>
<svg width="107px" height="15px" viewBox="0 0 107 15" version="1.1" xmlns="http://www.w3.org/2000/svg" xmlns:xlink="http://www.w3.org/1999/xlink">
    <title>编组 13备份</title>
    <g id="页面-2" stroke="none" stroke-width="1" fill="none" fill-rule="evenodd">
        <g id="编组-13备份" transform="translate(0.899685, 0.845886)" fill="#131313" fill-rule="nonzero">
            <path d="M5.84746864,14 C7.59145051,14 8.9507305,13.6540881 9.92530861,12.9622642 C10.8870633,12.2578616 11.3679407,11.3018868 11.3679407,10.0943396 C11.3679407,8.8490566 10.7716528,7.88050314 9.57907691,7.18867925 C8.98920069,6.8490566 7.79021315,6.40880503 5.9821143,5.86792453 C4.72542148,5.47798742 3.94319431,5.20125786 3.6354328,5.03773585 C2.994263,4.71069182 2.67367809,4.25157233 2.67367809,3.66037736 C2.67367809,3.00628931 2.95579281,2.5408805 3.52002224,2.26415094 C3.9688411,2.02515723 4.629246,1.90566038 5.50123694,1.90566038 C6.52710863,1.90566038 7.283689,2.08805031 7.77097806,2.45283019 C8.00767553,2.62116016 8.21024003,2.83904265 8.37867154,3.10647766 C8.48949722,3.28244632 8.61393577,3.58109416 8.7519872,4.00242118 C8.79819928,4.14773784 8.93354202,4.24590697 9.08602735,4.24528302 L10.6548897,4.24528302 C10.8481755,4.24296578 11.0030063,4.08441793 11.0007137,3.89113186 C11.0004863,3.87196033 10.9986839,3.85283989 10.995532,3.8339267 C10.9290014,3.44088307 10.8630449,3.14528941 10.7976622,2.94714572 C10.5230273,2.11485768 10.0591269,1.4595198 9.40596106,0.981132075 C8.50832334,0.327044025 7.24521882,0 5.61664751,0 C4.12913356,0 2.91091092,0.327044025 1.96197961,0.981132075 C0.936107918,1.64779874 0.423172072,2.58490566 0.423172072,3.79245283 C0.423172072,4.98742138 0.948931314,5.89308176 2.0004498,6.50943396 C2.39797508,6.73584906 3.44949356,7.11320755 5.15500525,7.64150943 C6.6296958,8.08176101 7.52092183,8.37735849 7.82868334,8.52830189 C8.68785088,8.94339623 9.11743465,9.50943396 9.11743465,10.2264151 C9.11743465,10.7672956 8.82249654,11.2138365 8.23262032,11.5660377 C7.6427441,11.8930818 6.84769354,12.0566038 5.84746864,12.0566038 C4.73183317,12.0566038 3.89831242,11.8616352 3.34690639,11.4716981 C3.07424885,11.2740155 2.84816764,11.0118333 2.66866275,10.6851514 C2.54874185,10.4669067 2.42394721,10.0899014 2.29427885,9.55413552 C2.25848971,9.39627811 2.11857704,9.28424023 1.95672001,9.28301887 L0.387857642,9.28301887 C0.19455908,9.28236661 0.0373292562,9.43853567 0.0366749949,9.63183422 C0.0366284047,9.64559911 0.0373938818,9.65935475 0.0387771474,9.67305137 C0.0716445696,9.97143472 0.105676675,10.2007939 0.140873464,10.361129 C0.397502709,11.5301753 0.978891298,12.4223775 1.88503923,13.0377358 C2.83397055,13.6792453 4.15478035,14 5.84746864,14 Z" id="路径备份"></path>
            <path d="M58.2846087,3.6779661 C59.9129847,3.6779661 61.1533492,4.21777847 62.0057023,5.2974032 C62.7944469,6.28915151 63.1888192,7.65751309 63.1888192,9.40248795 L56.2041377,9.40248795 C56.1865149,9.40234992 56.1689061,9.4035303 56.1514612,9.40603182 C55.9601188,9.43346962 55.8272478,9.61082603 55.8546893,9.80216793 C55.8754941,9.94718044 55.895504,10.0623476 55.9147189,10.1476695 C56.039777,10.7029766 56.2509035,11.1450405 56.5480984,11.473861 C56.9679141,11.9509045 57.5721943,12.1894262 58.3609389,12.1894262 C59.0224666,12.1894262 59.5631383,12.0387809 59.982954,11.7374903 C60.0940014,11.6542082 60.2507737,11.4883556 60.4532709,11.2399323 C60.4667629,11.2272037 60.4772332,11.2120513 60.4876263,11.1968209 L60.7596904,10.726035 C60.8222305,10.6178142 60.937736,10.5511585 61.062728,10.5511585 L62.5560395,10.5511585 C62.5951946,10.5508447 62.6341267,10.5570914 62.6712143,10.5696507 C62.8543009,10.631651 62.9524609,10.8303332 62.890017,11.0132696 C62.8414164,11.1549561 62.7972209,11.2697462 62.7574306,11.3576402 C62.5014528,11.9230758 62.1363815,12.413752 61.6622167,12.8296688 C60.7716986,13.5703416 59.6776335,13.940678 58.3800214,13.940678 C56.9170274,13.940678 55.752993,13.4950189 54.8879183,12.6037008 C53.9719568,11.6747214 53.513976,10.40679 53.513976,8.7999067 C53.513976,7.34366869 53.9465134,6.13222931 54.8115881,5.16558856 C55.6512195,4.17384025 56.808893,3.6779661 58.2846087,3.6779661 Z M58.3714346,5.43566813 C57.6514078,5.43566813 57.0892816,5.63404276 56.685056,6.03079202 C56.4125551,6.29825296 56.2012242,6.65877387 56.0510633,7.11235475 C56.0329479,7.16707474 56.0130852,7.23617087 55.9914751,7.31964313 C55.9845662,7.34839725 55.9805684,7.37780757 55.9803148,7.4073691 C55.978657,7.60066166 56.1340077,7.75870015 56.3273001,7.76037082 L60.5110497,7.76037082 C60.5348311,7.76019327 60.5585335,7.7576011 60.5817894,7.75262568 C60.7708115,7.71218571 60.8912612,7.52616992 60.8509798,7.33711385 C60.8237852,7.20863267 60.7977578,7.10618365 60.7728978,7.02976679 C60.4271687,5.96703435 59.626681,5.43566813 58.3714346,5.43566813 Z" id="形状结合备份"></path>
            <path d="M24.7598883,13.2940678 L24.7598883,8.47087363 L24.7598883,8.47087363 C24.7598883,7.64014172 25.0193061,6.97303882 25.5381417,6.46956494 C25.9810502,6.02902529 26.4935586,5.80875547 27.0756669,5.80875547 C27.5565389,5.80875547 28.0247565,5.87798313 28.4803195,6.01643844 L28.4803195,3.86408759 C28.1513017,3.70045857 27.7400296,3.61864407 27.246503,3.61864407 C26.6390857,3.61864407 26.12025,3.79485993 25.6899961,4.14729165 C25.3356693,4.39902859 25.0256334,4.776634 24.7598883,5.28010789 L24.7598883,4.23296786 C24.7598883,4.03966819 24.6031879,3.88296786 24.4098883,3.88296786 L22.9649458,3.88296786 C22.7716461,3.88296786 22.6149458,4.03966819 22.6149458,4.23296786 L22.6149458,13.2940678 C22.6149458,13.4873675 22.7716461,13.6440678 22.9649458,13.6440678 L24.4098883,13.6440678 C24.6031879,13.6440678 24.7598883,13.4873675 24.7598883,13.2940678 Z" id="路径备份-2"></path>
            <path d="M101.09579,3.6779661 C102.724166,3.6779661 103.96453,4.21777847 104.816883,5.2974032 C105.605628,6.28915151 106,7.65751309 106,9.40248795 L99.0153185,9.40248795 C98.9976958,9.40234992 98.9800869,9.4035303 98.9626421,9.40603182 C98.7712996,9.43346962 98.6384287,9.61082603 98.6658702,9.80216793 C98.686675,9.94718044 98.7066848,10.0623476 98.7258998,10.1476695 C98.8509578,10.7029766 99.0620843,11.1450405 99.3592793,11.473861 C99.779095,11.9509045 100.383375,12.1894262 101.17212,12.1894262 C101.833647,12.1894262 102.374319,12.0387809 102.794135,11.7374903 C102.905182,11.6542082 103.061954,11.4883556 103.264452,11.2399323 C103.277944,11.2272037 103.288414,11.2120513 103.298807,11.1968209 L103.570871,10.726035 C103.633411,10.6178142 103.748917,10.5511585 103.873909,10.5511585 L105.36722,10.5511585 C105.406375,10.5508447 105.445308,10.5570914 105.482395,10.5696507 C105.665482,10.631651 105.763642,10.8303332 105.701198,11.0132696 C105.652597,11.1549561 105.608402,11.2697462 105.568611,11.3576402 C105.312634,11.9230758 104.947562,12.413752 104.473398,12.8296688 C103.582879,13.5703416 102.488814,13.940678 101.191202,13.940678 C99.7282082,13.940678 98.5641738,13.4950189 97.6990991,12.6037008 C96.7831376,11.6747214 96.3251569,10.40679 96.3251569,8.7999067 C96.3251569,7.34366869 96.7576942,6.13222931 97.622769,5.16558856 C98.4624003,4.17384025 99.6200739,3.6779661 101.09579,3.6779661 Z M101.182615,5.43566813 C100.462589,5.43566813 99.9004625,5.63404276 99.4962369,6.03079202 C99.2237359,6.29825296 99.012405,6.65877387 98.8622442,7.11235475 C98.8441288,7.16707474 98.824266,7.23617087 98.8026559,7.31964313 C98.795747,7.34839725 98.7917492,7.37780757 98.7914957,7.4073691 C98.7898379,7.60066166 98.9451885,7.75870015 99.138481,7.76037082 L103.322231,7.76037082 C103.346012,7.76019327 103.369714,7.7576011 103.39297,7.75262568 C103.581992,7.71218571 103.702442,7.52616992 103.662161,7.33711385 C103.634966,7.20863267 103.608939,7.10618365 103.584079,7.02976679 C103.23835,5.96703435 102.437862,5.43566813 101.182615,5.43566813 Z" id="形状结合备份-2"></path>
            <path d="M16.5618478,3.6779661 C18.1902237,3.6779661 19.4305882,4.21777847 20.2829413,5.2974032 C21.0716859,6.28915151 21.4660582,7.65751309 21.4660582,9.40248795 L14.4813767,9.40248795 C14.463754,9.40234992 14.4461451,9.4035303 14.4287003,9.40603182 C14.2373578,9.43346962 14.1044869,9.61082603 14.1319284,9.80216793 C14.1527332,9.94718044 14.172743,10.0623476 14.1919579,10.1476695 C14.317016,10.7029766 14.5281425,11.1450405 14.8253375,11.473861 C15.2451531,11.9509045 15.8494333,12.1894262 16.6381779,12.1894262 C17.2997056,12.1894262 17.8403773,12.0387809 18.260193,11.7374903 C18.3712404,11.6542082 18.5280127,11.4883556 18.7305099,11.2399323 C18.744002,11.2272037 18.7544723,11.2120513 18.7648653,11.1968209 L19.0369294,10.726035 C19.0994695,10.6178142 19.214975,10.5511585 19.339967,10.5511585 L20.8332785,10.5511585 C20.8724336,10.5508447 20.9113657,10.5570914 20.9484533,10.5696507 C21.13154,10.631651 21.2296999,10.8303332 21.167256,11.0132696 C21.1186554,11.1549561 21.0744599,11.2697462 21.0346696,11.3576402 C20.7786918,11.9230758 20.4136205,12.413752 19.9394557,12.8296688 C19.0489376,13.5703416 17.9548725,13.940678 16.6572604,13.940678 C15.1942664,13.940678 14.030232,13.4950189 13.1651573,12.6037008 C12.2491958,11.6747214 11.7912151,10.40679 11.7912151,8.7999067 C11.7912151,7.34366869 12.2237524,6.13222931 13.0888272,5.16558856 C13.9284585,4.17384025 15.086132,3.6779661 16.5618478,3.6779661 Z M16.6486737,5.43566813 C15.9286468,5.43566813 15.3665206,5.63404276 14.9622951,6.03079202 C14.6897941,6.29825296 14.4784632,6.65877387 14.3283023,7.11235475 C14.3101869,7.16707474 14.2903242,7.23617087 14.2687141,7.31964313 C14.2618052,7.34839725 14.2578074,7.37780757 14.2575538,7.4073691 C14.255896,7.60066166 14.4112467,7.75870015 14.6045391,7.76037082 L18.7882887,7.76037082 C18.8120702,7.76019327 18.8357726,7.7576011 18.8590284,7.75262568 C19.0480505,7.71218571 19.1685002,7.52616992 19.1282188,7.33711385 C19.1010242,7.20863267 19.0749969,7.10618365 19.0501369,7.02976679 C18.7044077,5.96703435 17.90392,5.43566813 16.6486737,5.43566813 Z" id="形状结合备份-3"></path>
            <path d="M35.2035481,13.4772138 L38.4156211,4.98516218 L38.4156211,4.98516218 L38.6410867,4.38907817 C38.7094727,4.20827965 38.6183445,4.00627563 38.4375459,3.93788956 C38.3979784,3.92292335 38.3560254,3.91525424 38.313722,3.91525424 L36.667736,3.91525424 C36.5176888,3.91525424 36.3843347,4.01089646 36.3362191,4.15301983 L36.1148874,4.80678732 L36.1148874,4.80678732 L34.3446372,10.0357345 C34.2826519,10.2188262 34.0839777,10.3170023 33.900886,10.255017 C33.7976314,10.2200603 33.7165601,10.1389891 33.6816035,10.0357345 L31.928055,4.8561204 L31.928055,4.8561204 L31.6900216,4.15301983 C31.641906,4.01089646 31.5085519,3.91525424 31.3585047,3.91525424 L29.8449575,3.91525424 L29.8449575,3.91525424 L29.7125187,3.91525424 C29.5192191,3.91525424 29.3625187,4.07195457 29.3625187,4.26525424 C29.3625187,4.30755764 29.3701878,4.34951063 29.3851541,4.38907817 L29.4665719,4.60433012 L29.4665719,4.60433012 L32.8226927,13.4772138 C32.8741793,13.6133336 33.0045256,13.7033898 33.1500573,13.7033898 L34.8761834,13.7033898 C35.0217151,13.7033898 35.1520614,13.6133336 35.2035481,13.4772138 Z" id="路径备份-3"></path>
            <path d="M40.9269271,2.84745763 C41.3560532,2.84745763 41.7136583,2.71545628 41.9997424,2.45145359 C42.2988303,2.18745089 42.4483742,1.84173308 42.4483742,1.41430015 C42.4483742,1.01201033 42.3053322,0.672578292 42.0192481,0.396004041 C41.733164,0.132001347 41.369057,0 40.9269271,0 C40.5108048,0 40.1531997,0.132001347 39.8541118,0.396004041 C39.5680278,0.660006735 39.4249857,0.99943877 39.4249857,1.41430015 C39.4249857,1.82916152 39.5680278,2.17487934 39.8541118,2.45145359 C40.1531997,2.71545628 40.5108048,2.84745763 40.9269271,2.84745763 Z" id="路径备份-4"></path>
            <path d="M41.9041643,13.3533898 L41.9041643,4.26525424 C41.9041643,4.07195457 41.747464,3.91525424 41.5541643,3.91525424 L40.0773246,3.91525424 C39.8840249,3.91525424 39.7273246,4.07195457 39.7273246,4.26525424 L39.7273246,13.3533898 C39.7273246,13.5466895 39.8840249,13.7033898 40.0773246,13.7033898 L41.5541643,13.7033898 C41.747464,13.7033898 41.9041643,13.5466895 41.9041643,13.3533898 Z" id="路径备份-5"></path>
            <path d="M48.4309888,13.940678 C49.7199827,13.940678 50.7576228,13.6268336 51.543909,12.9991448 C52.0676928,12.5795268 52.4696639,12.0143102 52.7498223,11.3034951 C52.8213627,11.1219836 52.9010903,10.8529934 52.9890052,10.4965247 C53.0356221,10.3089301 52.9216106,10.1189002 52.7340835,10.0720134 C52.7069628,10.0652325 52.6791274,10.0617253 52.6511724,10.0615612 L51.1917645,10.0615612 C51.0279918,10.0632834 50.8872996,10.1783322 50.852788,10.3384369 C50.8108696,10.5406738 50.7708159,10.6934514 50.7326271,10.7967697 C50.3894549,11.7252074 49.6286872,12.1894262 48.4503237,12.1894262 C47.5995878,12.1894262 46.9615358,11.8944125 46.5361678,11.304385 C46.08502,10.7143575 45.8594461,9.87325455 45.8594461,8.78107604 C45.8594461,7.71400508 46.091465,6.89173275 46.5555028,6.31425906 C47.0066506,5.72423159 47.6447026,5.42921785 48.4696586,5.42921785 C49.1399355,5.42921785 49.6748679,5.57986316 50.074456,5.88115379 C50.3079418,6.06453817 50.4952176,6.29721361 50.6362834,6.57918011 C50.6841086,6.67477452 50.737077,6.81728382 50.7951886,7.00670802 C50.8390342,7.15383592 50.973973,7.2547731 51.127491,7.25579226 L52.6125026,7.25579226 C52.8058019,7.25612194 52.9627697,7.0996895 52.9630999,6.90639012 C52.9631485,6.87795614 52.9597319,6.84962219 52.9531367,6.82196278 C52.8733602,6.49480618 52.7987374,6.24687846 52.7292682,6.07817962 C52.4658744,5.43855474 52.0771996,4.92094352 51.5632439,4.52534598 C50.7898476,3.96042606 49.7586525,3.6779661 48.4696586,3.6779661 C46.9099761,3.6779661 45.6918769,4.18639403 44.815361,5.20324988 C44.0032949,6.11967553 43.5972618,7.31856114 43.5972618,8.7999067 C43.5972618,10.3189136 44.0097399,11.5429068 44.8346959,12.4718862 C45.6854319,13.4510807 46.8841962,13.940678 48.4309888,13.940678 Z" id="路径备份-6"></path>
            <path d="M69.5581336,13.6440678 L72.2602671,3.56081755 L72.3374709,3.56081755 L75.0203033,13.6440678 L77.4136215,13.6440678 L81.3896178,0.237288136 L78.841892,0.237288136 L76.2555643,10.4332004 L76.1783605,10.4332004 L73.5262544,0.497028043 C73.4853698,0.343852857 73.3466307,0.237288136 73.188093,0.237288136 L72.2892185,0.237288136 L71.3903439,0.237288136 C71.2318063,0.237288136 71.0930672,0.343852857 71.0521825,0.497028043 L68.4000765,10.4332004 L68.4000765,10.4332004 L68.3228727,10.4332004 L65.736545,0.237288136 L63.6570377,0.237288136 C63.463738,0.237288136 63.3070377,0.393988473 63.3070377,0.587288136 C63.3070377,0.620826662 63.3118583,0.65419108 63.3213516,0.686357987 L67.1455145,13.6440678 L67.1455145,13.6440678 L69.5581336,13.6440678 Z" id="路径备份-7"></path>
            <path d="M83.4962369,2.84745763 C83.925363,2.84745763 84.2829681,2.71545628 84.5690521,2.45145359 C84.86814,2.18745089 85.017684,1.84173308 85.017684,1.41430015 C85.017684,1.01201033 84.8746419,0.672578292 84.5885579,0.396004041 C84.3024738,0.132001347 83.9383668,0 83.4962369,0 C83.0801146,0 82.7225095,0.132001347 82.4234216,0.396004041 C82.1373375,0.660006735 81.9942955,0.99943877 81.9942955,1.41430015 C81.9942955,1.82916152 82.1373375,2.17487934 82.4234216,2.45145359 C82.7225095,2.71545628 83.0801146,2.84745763 83.4962369,2.84745763 Z" id="路径备份-8"></path>
            <path d="M84.5339418,13.3533898 L84.5339418,4.26525424 C84.5339418,4.07195457 84.3772415,3.91525424 84.1839418,3.91525424 L82.7071021,3.91525424 C82.5138024,3.91525424 82.3571021,4.07195457 82.3571021,4.26525424 L82.3571021,13.3533898 C82.3571021,13.5466895 82.5138024,13.7033898 82.7071021,13.7033898 L84.1839418,13.7033898 C84.3772415,13.7033898 84.5339418,13.5466895 84.5339418,13.3533898 Z" id="路径备份-9"></path>
            <path d="M90.4199915,13.940678 C93.3892841,13.940678 94.8739304,12.9049914 94.8739304,10.8336184 C94.8739304,9.95485409 94.4788743,9.2706733 93.6887621,8.78107604 C93.1790123,8.44212409 92.3506689,8.13455657 91.2037319,7.8583735 C90.2224635,7.61985176 89.5661606,7.43154512 89.2348233,7.29345358 C88.7123297,7.06748562 88.4510829,6.79757943 88.4510829,6.48373503 C88.4510829,6.10712175 88.6167516,5.83721557 88.948089,5.67401648 C89.2284514,5.51081739 89.6617387,5.42921785 90.247951,5.42921785 C90.9233695,5.42921785 91.4203755,5.52964806 91.7389691,5.73050847 C91.9130431,5.83768287 92.0623485,5.99568903 92.1868855,6.20452696 C92.2308318,6.27822122 92.2832027,6.39192152 92.3439981,6.54562787 C92.397513,6.67949304 92.5274769,6.76708399 92.6716395,6.76619499 L94.1304001,6.76619499 C94.3236899,6.76814764 94.4819798,6.61305313 94.4839506,6.41976352 C94.4841929,6.39600179 94.4820146,6.37227715 94.4775153,6.34894393 C94.4509049,6.21229326 94.4252254,6.10266368 94.4004767,6.02005521 C93.9327001,4.45866247 92.5612686,3.6779661 90.2861822,3.6779661 C89.050039,3.6779661 88.0687706,3.93531851 87.3423771,4.45002332 C86.5904962,4.92706681 86.2145557,5.62380138 86.2145557,6.54022703 C86.2145557,7.38133002 86.596868,8.04040326 87.3614927,8.51744674 C87.845755,8.81873737 88.6677266,9.10119733 89.8274074,9.36482662 C90.8723945,9.60334836 91.5223255,9.78537812 91.7772004,9.91091588 C92.3506689,10.1745452 92.6374032,10.5323278 92.6374032,10.9842637 C92.6374032,11.7877054 91.8727785,12.1894262 90.3435291,12.1894262 C89.6426231,12.1894262 89.1201295,12.0701653 88.7760484,11.8316436 C88.5832768,11.6709607 88.427171,11.4550366 88.3077311,11.1838713 C88.2677104,11.0930121 88.2229603,10.9564332 88.1734807,10.7741346 C88.1336229,10.6211322 87.9957336,10.514373 87.8376284,10.5134971 L86.3954447,10.5134971 C86.2021501,10.5120965 86.0443109,10.6676496 86.042901,10.8609441 C86.0427563,10.8807802 86.0442982,10.9005926 86.0479196,10.9201003 C86.0868233,11.1471396 86.1250792,11.3229943 86.1626871,11.4476644 C86.6640481,13.1096735 88.0831496,13.940678 90.4199915,13.940678 Z" id="路径备份-10"></path>
            <path d="M5.84746864,14 C7.59145051,14 8.9507305,13.6540881 9.92530861,12.9622642 C10.8870633,12.2578616 11.3679407,11.3018868 11.3679407,10.0943396 C11.3679407,8.8490566 10.7716528,7.88050314 9.57907691,7.18867925 L9.52434345,7.15784151 L9.52434345,7.15784151 L9.48602714,7.13698113 C9.47951927,7.13348428 9.47295049,7.12997736 9.46632079,7.12646038 L9.40500893,7.09453585 L9.40500893,7.09453585 L9.36230702,7.07295094 L9.36230702,7.07295094 L9.31814324,7.05112453 L9.31814324,7.05112453 L9.2725176,7.0290566 L9.2725176,7.0290566 L9.22543009,7.00674717 L9.22543009,7.00674717 L9.15205782,6.97283019 L9.15205782,6.97283019 L9.10131564,6.94991698 L9.10131564,6.94991698 L9.02246137,6.91509434 L9.02246137,6.91509434 L8.9403179,6.8797283 L8.9403179,6.8797283 L8.85488523,6.84381887 L8.85488523,6.84381887 L8.76616336,6.80736604 L8.76616336,6.80736604 L8.70518811,6.78276226 L8.70518811,6.78276226 L8.61098424,6.74540377 L8.61098424,6.74540377 L8.51349116,6.70750189 L8.51349116,6.70750189 L8.41270889,6.6690566 L8.41270889,6.6690566 L8.27321598,6.61695094 L8.27321598,6.61695094 L8.16475891,6.57723774 L8.16475891,6.57723774 L8.05301263,6.53698113 L8.05301263,6.53698113 L7.89890105,6.48246038 L7.89890105,6.48246038 L7.77947997,6.44093585 L7.77947997,6.44093585 L7.65676969,6.39886792 L7.65676969,6.39886792 L7.5731355,6.37052075 L7.5731355,6.37052075 L7.48803944,6.34193208 L7.48803944,6.34193208 L7.31346172,6.28403019 L7.31346172,6.28403019 L7.13303654,6.22516226 L7.13303654,6.22516226 L6.94676389,6.1653283 L6.94676389,6.1653283 L6.75464377,6.1045283 L6.75464377,6.1045283 L6.55667618,6.04276226 L6.55667618,6.04276226 L6.30099369,5.96419623 L6.30099369,5.96419623 L6.08986929,5.9002566 L6.08986929,5.9002566 L5.9821143,5.86792453 L5.9821143,5.86792453 L5.77014452,5.80181575 L5.77014452,5.80181575 L5.48918356,5.71303255 L5.48918356,5.71303255 L5.26302825,5.64043255 L5.26302825,5.64043255 L5.15502812,5.60534404 L5.15502812,5.60534404 L4.98255014,5.54865801 L4.98255014,5.54865801 L4.85133777,5.50492451 L4.85133777,5.50492451 L4.7261432,5.46262685 L4.7261432,5.46262685 L4.57811252,5.41177394 L4.57811252,5.41177394 L4.41288741,5.35371189 L4.41288741,5.35371189 L4.31025958,5.31679866 L4.31025958,5.31679866 L4.23723789,5.29005601 L4.23723789,5.29005601 L4.1676012,5.26412103 L4.1676012,5.26412103 L4.08001786,5.23079742 L4.08001786,5.23079742 L3.97900122,5.19116206 L3.97900122,5.19116206 L3.92290458,5.16845774 L3.92290458,5.16845774 L3.87019295,5.14656107 L3.87019295,5.14656107 L3.80517635,5.11862189 L3.80517635,5.11862189 L3.76036308,5.09860977 L3.76036308,5.09860977 L3.71893482,5.07940532 L3.71893482,5.07940532 L3.68089157,5.06100853 L3.68089157,5.06100853 L3.64623333,5.04341941 L3.64623333,5.04341941 L3.6354328,5.03773585 C2.994263,4.71069182 2.67367809,4.25157233 2.67367809,3.66037736 C2.67367809,3.00628931 2.95579281,2.5408805 3.52002224,2.26415094 C3.9688411,2.02515723 4.629246,1.90566038 5.50123694,1.90566038 C6.52710863,1.90566038 7.283689,2.08805031 7.77097806,2.45283019 C8.00767553,2.62116016 8.21024003,2.83904265 8.37867154,3.10647766 C8.40399977,3.14669375 8.43003902,3.1933175 8.45678928,3.24634892 L8.4769853,3.28732392 L8.4769853,3.28732392 L8.49744794,3.33070179 C8.50774592,3.35299144 8.51814388,3.37618218 8.52864183,3.40027399 L8.54977105,3.44965905 C8.55331481,3.45809013 8.55686967,3.46662134 8.56043565,3.47525266 L8.58196481,3.52824203 L8.58196481,3.52824203 L8.60376061,3.58363428 C8.60741546,3.59306656 8.61108142,3.60259896 8.61475849,3.61223148 L8.63695423,3.67122804 L8.63695423,3.67122804 L8.65941661,3.73262747 L8.65941661,3.73262747 L8.68214561,3.79642978 L8.68214561,3.79642978 L8.70514124,3.86263496 L8.70514124,3.86263496 L8.72840351,3.93124302 L8.72840351,3.93124302 L8.7519324,4.00225395 C8.7558761,4.01428934 8.75983091,4.02642486 8.76379683,4.03866049 C8.80375397,4.16168912 8.92022807,4.24525109 9.05184467,4.24528302 L10.7084108,4.24528302 C10.8753879,4.2452366 11.0107113,4.11240209 11.010664,3.94858882 C11.0106594,3.93275461 11.0093624,3.91694618 11.006787,3.90131485 L10.9936041,3.822564 L10.9936041,3.822564 L10.9804363,3.74636185 L10.9804363,3.74636185 L10.9672834,3.67270841 L10.9672834,3.67270841 L10.9475823,3.56700706 L10.9475823,3.56700706 L10.9344669,3.49972538 L10.9344669,3.49972538 L10.9213666,3.4349924 L10.9213666,3.4349924 L10.9082813,3.37280813 L10.9082813,3.37280813 L10.895211,3.31317256 L10.895211,3.31317256 L10.8821557,3.25608569 L10.8821557,3.25608569 L10.8691154,3.20154753 L10.8691154,3.20154753 L10.8560902,3.14955807 L10.8560902,3.14955807 L10.8430799,3.10011731 C10.8387457,3.08406184 10.8344139,3.06843116 10.8300847,3.05322526 L10.8171044,3.00888192 C10.8106181,2.98734742 10.8041373,2.96676868 10.7976622,2.94714572 C10.5230273,2.11485768 10.0591269,1.4595198 9.40596106,0.981132075 C8.50832334,0.327044025 7.24521882,0 5.61664751,0 C4.12913356,0 2.91091092,0.327044025 1.96197961,0.981132075 C0.936107918,1.64779874 0.423172072,2.58490566 0.423172072,3.79245283 C0.423172072,4.98742138 0.948931314,5.89308176 2.0004498,6.50943396 L2.02508611,6.5232 L2.02508611,6.5232 L2.051292,6.5373283 L2.051292,6.5373283 L2.09354381,6.5592 L2.09354381,6.5592 L2.12367366,6.57423396 L2.12367366,6.57423396 L2.15537309,6.58963019 L2.15537309,6.58963019 L2.20586521,6.61340377 L2.20586521,6.61340377 L2.2598889,6.63799245 L2.2598889,6.63799245 L2.29786667,6.65483774 L2.29786667,6.65483774 L2.33741402,6.67204528 L2.33741402,6.67204528 L2.39967802,6.69853585 L2.39967802,6.69853585 L2.46547359,6.72584151 L2.46547359,6.72584151 L2.53480071,6.75396226 L2.53480071,6.75396226 L2.6076594,6.78289811 L2.6076594,6.78289811 L2.65819384,6.80264151 L2.65819384,6.80264151 L2.76397147,6.84321509 L2.76397147,6.84321509 L2.84742485,6.87459623 L2.84742485,6.87459623 L2.99436174,6.92870943 L2.99436174,6.92870943 L3.11897437,6.97363019 L3.11897437,6.97363019 L3.24986534,7.02 L3.24986534,7.02 L3.38703464,7.06781887 L3.38703464,7.06781887 L3.56732518,7.12963019 L3.56732518,7.12963019 L3.71862074,7.18070943 L3.71862074,7.18070943 L3.95733595,7.26004528 L3.95733595,7.26004528 L4.16705618,7.32864906 L4.16705618,7.32864906 L4.43166953,7.41396226 L4.43166953,7.41396226 L4.71040913,7.50253585 L4.71040913,7.50253585 L5.00327498,7.59436981 L5.00327498,7.59436981 L5.15500525,7.64150943 L5.15500525,7.64150943 L5.45611333,7.73183585 L5.45611333,7.73183585 L5.74006757,7.81790943 L5.74006757,7.81790943 L6.00686794,7.89973019 L6.00686794,7.89973019 L6.32469132,7.99867925 L6.32469132,7.99867925 L6.61415833,8.09059811 L6.61415833,8.09059811 L6.76272058,8.13862642 L6.76272058,8.13862642 L6.92944269,8.19339623 L6.92944269,8.19339623 L7.08356195,8.24504151 L7.08356195,8.24504151 L7.17930656,8.27773585 L7.17930656,8.27773585 L7.29111054,8.31665094 L7.29111054,8.31665094 L7.41372273,8.36048491 L7.41372273,8.36048491 L7.50627239,8.39462642 L7.50627239,8.39462642 L7.57401069,8.42037736 L7.57401069,8.42037736 L7.6211386,8.43877925 L7.6211386,8.43877925 L7.6790747,8.4621 L7.6790747,8.4621 L7.73140955,8.48403208 L7.73140955,8.48403208 L7.77814313,8.50457547 L7.77814313,8.50457547 L7.81927546,8.52373019 L7.81927546,8.52373019 L7.82868334,8.52830189 C8.68785088,8.94339623 9.11743465,9.50943396 9.11743465,10.2264151 C9.11743465,10.7672956 8.82249654,11.2138365 8.23262032,11.5660377 C7.6427441,11.8930818 6.84769354,12.0566038 5.84746864,12.0566038 C4.73183317,12.0566038 3.89831242,11.8616352 3.34690639,11.4716981 C3.07424885,11.2740155 2.84816764,11.0118333 2.66866275,10.6851514 C2.65188578,10.6546189 2.63501343,10.6209792 2.61804568,10.5842321 L2.60104614,10.5464493 C2.59820758,10.5399795 2.59536637,10.5334235 2.59252252,10.5267811 L2.57542759,10.485891 C2.56686422,10.4649281 2.55827701,10.4431883 2.54966595,10.4206718 L2.53241204,10.3746029 L2.53241204,10.3746029 L2.51509453,10.3264625 L2.51509453,10.3264625 L2.49771344,10.2762506 L2.49771344,10.2762506 L2.48026874,10.2239672 C2.477356,10.2150806 2.4744406,10.2061078 2.47152255,10.1970486 L2.45398247,10.1416579 C2.45105382,10.1322535 2.44812253,10.1227628 2.44518858,10.1131858 L2.42755311,10.0546878 L2.42755311,10.0546878 L2.40985405,9.99411828 L2.40985405,9.99411828 L2.3920914,9.93147727 L2.3920914,9.93147727 L2.37426515,9.86676473 L2.37426515,9.86676473 L2.34740654,9.76581183 L2.34740654,9.76581183 L2.32942131,9.6959205 L2.32942131,9.6959205 L2.31137249,9.62395765 L2.31137249,9.62395765 L2.29326008,9.54992328 C2.29023604,9.53741159 2.28720936,9.52481359 2.28418002,9.51212928 C2.25224664,9.37793121 2.1302811,9.28301892 1.9898132,9.28301887 L0.332702324,9.28301887 C0.165725189,9.28302748 0.0303793616,9.41583135 0.0303793616,9.57964462 C0.0303793616,9.58993967 0.0309268126,9.60022771 0.0320080541,9.61046797 L0.0437099879,9.7172381 L0.0437099879,9.7172381 L0.0515660302,9.78517327 L0.0515660302,9.78517327 L0.0594658751,9.85051252 L0.0594658751,9.85051252 L0.0674095226,9.91325584 L0.0674095226,9.91325584 L0.0753969726,9.97340324 L0.0753969726,9.97340324 L0.0834282251,10.0309547 L0.0834282251,10.0309547 L0.0915032802,10.0859102 L0.0915032802,10.0859102 L0.0996221378,10.1382699 L0.0996221378,10.1382699 L0.107784798,10.1880336 L0.107784798,10.1880336 L0.115991261,10.2352013 L0.115991261,10.2352013 L0.124241526,10.2797731 L0.124241526,10.2797731 L0.132535594,10.3217491 L0.132535594,10.3217491 L0.140873464,10.361129 L0.140873464,10.361129 C0.397502709,11.5301753 0.978891298,12.4223775 1.88503923,13.0377358 C2.83397055,13.6792453 4.15478035,14 5.84746864,14 Z" id="路径备份-11"></path>
            <path d="M58.2846087,3.6779661 C59.8967009,3.6779661 61.1285031,4.2070362 61.9800153,5.2651764 L62.0057023,5.2974032 C62.786056,6.27860099 63.1803836,7.62844163 63.1886853,9.34692513 L63.1888192,9.40248795 L56.145316,9.40248795 C56.1318878,9.40249262 56.1184749,9.40337492 56.1051663,9.405129 C55.939676,9.42694077 55.823543,9.57623716 55.845779,9.73859143 L55.8583969,9.82775137 L55.8583969,9.82775137 L55.8667011,9.88315093 L55.8667011,9.88315093 L55.8749193,9.93531817 L55.8749193,9.93531817 L55.8870852,10.0075084 L55.8870852,10.0075084 L55.8950882,10.0515948 C55.8964148,10.0586732 55.8977379,10.0656169 55.8990574,10.0724259 L55.9069312,10.1116639 C55.9095415,10.1242045 55.9121374,10.1362063 55.9147189,10.1476695 C56.0364859,10.6883633 56.2398511,11.1216955 56.5248145,11.4476662 L56.5480984,11.473861 C56.9679141,11.9509045 57.5721943,12.1894262 58.3609389,12.1894262 C59.0224666,12.1894262 59.5631383,12.0387809 59.982954,11.7374903 C60.0050496,11.7209193 60.0289555,11.7010792 60.0546716,11.6779661 L60.0809912,11.6537714 C60.0899656,11.6453419 60.0991411,11.6365492 60.1085177,11.6273932 L60.137251,11.5988357 L60.137251,11.5988357 L60.1671912,11.5680989 L60.1671912,11.5680989 L60.1983383,11.5351827 C60.20363,11.529515 60.208972,11.5237566 60.2143644,11.5179073 L60.2473217,11.4817221 L60.2473217,11.4817221 L60.2814859,11.4433575 L60.2814859,11.4433575 L60.3168569,11.4028135 L60.3168569,11.4028135 L60.3534349,11.3600902 L60.3534349,11.3600902 L60.3912196,11.3151875 L60.3912196,11.3151875 L60.4302113,11.2681054 L60.4302113,11.2681054 L60.4704097,11.218844 L60.4704097,11.218844 C60.4770259,11.2108902 60.4831397,11.202558 60.4887858,11.1939246 L60.4969087,11.1807585 L60.7738794,10.701482 C60.8252355,10.6126142 60.9193801,10.5562183 61.022741,10.5514823 L61.0368897,10.5511585 L62.6274732,10.5511585 C62.659269,10.5511662 62.6908646,10.5560945 62.721095,10.5657615 C62.8798513,10.6165284 62.9665992,10.783942 62.9148491,10.9396894 L62.8932007,11.0039681 L62.8932007,11.0039681 L62.8721154,11.0648083 L62.8721154,11.0648083 L62.8515934,11.1222099 L62.8515934,11.1222099 L62.8316345,11.176173 C62.8217958,11.2022949 62.8121684,11.2271274 62.8027521,11.2506704 L62.7842011,11.2960372 C62.7750664,11.317861 62.7661429,11.3383953 62.7574306,11.3576402 C62.5014528,11.9230758 62.1363815,12.413752 61.6622167,12.8296688 C60.7716986,13.5703416 59.6776335,13.940678 58.3800214,13.940678 C56.9327585,13.940678 55.7780606,13.5045515 54.9159276,12.6322984 L54.8879183,12.6037008 C53.9719568,11.6747214 53.513976,10.40679 53.513976,8.7999067 C53.513976,7.34366869 53.9465134,6.13222931 54.8115881,5.16558856 C55.6512195,4.17384025 56.808893,3.6779661 58.2846087,3.6779661 Z M58.3714346,5.43566813 C57.6514078,5.43566813 57.0892816,5.63404276 56.685056,6.03079202 C56.4125551,6.29825296 56.2012242,6.65877387 56.0510633,7.11235475 L56.0401305,7.14644235 L56.0401305,7.14644235 L56.0287892,7.18389145 L56.0287892,7.18389145 L56.0170393,7.22470204 L56.0170393,7.22470204 L56.0048808,7.26887413 L56.0048808,7.26887413 L55.9858769,7.34143507 L55.9858769,7.34143507 L55.972697,7.3940109 L55.972697,7.3940109 C55.9670609,7.41684556 55.9642141,7.44025683 55.9642141,7.46375139 C55.9642141,7.62325379 56.092536,7.7533547 56.2534286,7.76009638 L56.2665435,7.76037082 L60.5687301,7.76037082 C60.5883053,7.76037082 60.6078336,7.75849138 60.6270399,7.75478041 C60.7908699,7.72312582 60.8975236,7.56717071 60.8652611,7.40644427 L60.853188,7.34759154 C60.8511884,7.33806294 60.849195,7.32867444 60.847208,7.31942604 L60.835361,7.26561676 C60.8333991,7.25692874 60.8314435,7.24838081 60.8294941,7.23997298 L60.8178733,7.19120715 L60.8178733,7.19120715 L60.8064033,7.14580361 L60.8064033,7.14580361 L60.795084,7.10376237 C60.7913361,7.09030901 60.7876133,7.07741603 60.7839156,7.06508343 L60.7728978,7.02976679 L60.7728978,7.02976679 C60.4271687,5.96703435 59.626681,5.43566813 58.3714346,5.43566813 Z" id="形状"></path>
            <path d="M24.7598883,13.3474576 L24.7598883,8.47087363 C24.7598883,7.65354062 25.0110053,6.99460084 25.5132392,6.49405428 L25.5381417,6.46956494 C25.9810502,6.02902529 26.4935586,5.80875547 27.0756669,5.80875547 C27.5565389,5.80875547 28.0247565,5.87798313 28.4803195,6.01643844 L28.4803195,3.86408759 C28.1513017,3.70045857 27.7400296,3.61864407 27.246503,3.61864407 C26.6390857,3.61864407 26.12025,3.79485993 25.6899961,4.14729165 C25.3356693,4.39902859 25.0256334,4.776634 24.7598883,5.28010789 L24.7598883,4.17957803 C24.7598883,4.01576475 24.6245266,3.88296786 24.4575494,3.88296786 L22.9172847,3.88296786 C22.7503075,3.88296786 22.6149458,4.01576475 22.6149458,4.17957803 L22.6149458,13.3474576 C22.6149458,13.5112709 22.7503075,13.6440678 22.9172847,13.6440678 L24.4575494,13.6440678 C24.6245266,13.6440678 24.7598883,13.5112709 24.7598883,13.3474576 Z" id="路径备份-12"></path>
            <path d="M101.09579,3.6779661 C102.707882,3.6779661 103.939684,4.2070362 104.791196,5.2651764 L104.816883,5.2974032 C105.597237,6.27860099 105.991564,7.62844163 105.999866,9.34692513 L106,9.40248795 L98.9564968,9.40248795 C98.9430687,9.40249262 98.9296558,9.40337492 98.9163472,9.405129 C98.7508568,9.42694077 98.6347238,9.57623716 98.6569598,9.73859143 L98.6695777,9.82775137 L98.6695777,9.82775137 L98.677882,9.88315093 L98.677882,9.88315093 L98.6861002,9.93531817 L98.6861002,9.93531817 L98.698266,10.0075084 L98.698266,10.0075084 L98.706269,10.0515948 C98.7075957,10.0586732 98.7089187,10.0656169 98.7102382,10.0724259 L98.718112,10.1116639 C98.7207223,10.1242045 98.7233182,10.1362063 98.7258998,10.1476695 C98.8476668,10.6883633 99.051032,11.1216955 99.3359953,11.4476662 L99.3592793,11.473861 C99.779095,11.9509045 100.383375,12.1894262 101.17212,12.1894262 C101.833647,12.1894262 102.374319,12.0387809 102.794135,11.7374903 C102.81623,11.7209193 102.840136,11.7010792 102.865852,11.6779661 L102.892172,11.6537714 C102.901146,11.6453419 102.910322,11.6365492 102.919699,11.6273932 L102.948432,11.5988357 L102.948432,11.5988357 L102.978372,11.5680989 L102.978372,11.5680989 L103.009519,11.5351827 C103.014811,11.529515 103.020153,11.5237566 103.025545,11.5179073 L103.058503,11.4817221 L103.058503,11.4817221 L103.092667,11.4433575 L103.092667,11.4433575 L103.128038,11.4028135 L103.128038,11.4028135 L103.164616,11.3600902 L103.164616,11.3600902 L103.2024,11.3151875 L103.2024,11.3151875 L103.241392,11.2681054 L103.241392,11.2681054 L103.281591,11.218844 L103.281591,11.218844 C103.288207,11.2108902 103.29432,11.202558 103.299967,11.1939246 L103.30809,11.1807585 L103.58506,10.701482 C103.636416,10.6126142 103.730561,10.5562183 103.833922,10.5514823 L103.848071,10.5511585 L105.438654,10.5511585 C105.47045,10.5511662 105.502045,10.5560945 105.532276,10.5657615 C105.691032,10.6165284 105.77778,10.783942 105.72603,10.9396894 L105.704382,11.0039681 L105.704382,11.0039681 L105.683296,11.0648083 L105.683296,11.0648083 L105.662774,11.1222099 L105.662774,11.1222099 L105.642815,11.176173 C105.632977,11.2022949 105.623349,11.2271274 105.613933,11.2506704 L105.595382,11.2960372 C105.586247,11.317861 105.577324,11.3383953 105.568611,11.3576402 C105.312634,11.9230758 104.947562,12.413752 104.473398,12.8296688 C103.582879,13.5703416 102.488814,13.940678 101.191202,13.940678 C99.7439393,13.940678 98.5892414,13.5045515 97.7271084,12.6322984 L97.6990991,12.6037008 C96.7831376,11.6747214 96.3251569,10.40679 96.3251569,8.7999067 C96.3251569,7.34366869 96.7576942,6.13222931 97.622769,5.16558856 C98.4624003,4.17384025 99.6200739,3.6779661 101.09579,3.6779661 Z M101.182615,5.43566813 C100.462589,5.43566813 99.9004625,5.63404276 99.4962369,6.03079202 C99.2237359,6.29825296 99.012405,6.65877387 98.8622442,7.11235475 L98.8513114,7.14644235 L98.8513114,7.14644235 L98.83997,7.18389145 L98.83997,7.18389145 L98.8282201,7.22470204 L98.8282201,7.22470204 L98.8160616,7.26887413 L98.8160616,7.26887413 L98.7970578,7.34143507 L98.7970578,7.34143507 L98.7838778,7.3940109 L98.7838778,7.3940109 C98.7782418,7.41684556 98.7753949,7.44025683 98.7753949,7.46375139 C98.7753949,7.62325379 98.9037168,7.7533547 99.0646095,7.76009638 L99.0777243,7.76037082 L103.379911,7.76037082 C103.399486,7.76037082 103.419014,7.75849138 103.438221,7.75478041 C103.602051,7.72312582 103.708704,7.56717071 103.676442,7.40644427 L103.664369,7.34759154 C103.662369,7.33806294 103.660376,7.32867444 103.658389,7.31942604 L103.646542,7.26561676 C103.64458,7.25692874 103.642624,7.24838081 103.640675,7.23997298 L103.629054,7.19120715 L103.629054,7.19120715 L103.617584,7.14580361 L103.617584,7.14580361 L103.606265,7.10376237 C103.602517,7.09030901 103.598794,7.07741603 103.595096,7.06508343 L103.584079,7.02976679 L103.584079,7.02976679 C103.23835,5.96703435 102.437862,5.43566813 101.182615,5.43566813 Z" id="形状"></path>
            <path d="M16.5618478,3.6779661 C18.17394,3.6779661 19.4057421,4.2070362 20.2572543,5.2651764 L20.2829413,5.2974032 C21.063295,6.27860099 21.4576227,7.62844163 21.4659243,9.34692513 L21.4660582,9.40248795 L14.422555,9.40248795 C14.4091269,9.40249262 14.3957139,9.40337492 14.3824054,9.405129 C14.216915,9.42694077 14.100782,9.57623716 14.123018,9.73859143 L14.1356359,9.82775137 L14.1356359,9.82775137 L14.1439402,9.88315093 L14.1439402,9.88315093 L14.1521584,9.93531817 L14.1521584,9.93531817 L14.1643242,10.0075084 L14.1643242,10.0075084 L14.1723272,10.0515948 C14.1736538,10.0586732 14.1749769,10.0656169 14.1762964,10.0724259 L14.1841702,10.1116639 C14.1867805,10.1242045 14.1893764,10.1362063 14.1919579,10.1476695 C14.313725,10.6883633 14.5170902,11.1216955 14.8020535,11.4476662 L14.8253375,11.473861 C15.2451531,11.9509045 15.8494333,12.1894262 16.6381779,12.1894262 C17.2997056,12.1894262 17.8403773,12.0387809 18.260193,11.7374903 C18.2822886,11.7209193 18.3061945,11.7010792 18.3319107,11.6779661 L18.3582303,11.6537714 C18.3672046,11.6453419 18.3763801,11.6365492 18.3857567,11.6273932 L18.4144901,11.5988357 L18.4144901,11.5988357 L18.4444302,11.5680989 L18.4444302,11.5680989 L18.4755773,11.5351827 C18.480869,11.529515 18.4862111,11.5237566 18.4916034,11.5179073 L18.5245607,11.4817221 L18.5245607,11.4817221 L18.5587249,11.4433575 L18.5587249,11.4433575 L18.594096,11.4028135 L18.594096,11.4028135 L18.6306739,11.3600902 L18.6306739,11.3600902 L18.6684586,11.3151875 L18.6684586,11.3151875 L18.7074503,11.2681054 L18.7074503,11.2681054 L18.7476488,11.218844 L18.7476488,11.218844 C18.754265,11.2108902 18.7603787,11.202558 18.7660248,11.1939246 L18.7741477,11.1807585 L19.0511184,10.701482 C19.1024745,10.6126142 19.1966191,10.5562183 19.2999801,10.5514823 L19.3141287,10.5511585 L20.9047122,10.5511585 C20.936508,10.5511662 20.9681036,10.5560945 20.998334,10.5657615 C21.1570904,10.6165284 21.2438382,10.783942 21.1920881,10.9396894 L21.1704397,11.0039681 L21.1704397,11.0039681 L21.1493545,11.0648083 L21.1493545,11.0648083 L21.1288324,11.1222099 L21.1288324,11.1222099 L21.1088735,11.176173 C21.0990348,11.2022949 21.0894074,11.2271274 21.0799911,11.2506704 L21.0614401,11.2960372 C21.0523054,11.317861 21.0433819,11.3383953 21.0346696,11.3576402 C20.7786918,11.9230758 20.4136205,12.413752 19.9394557,12.8296688 C19.0489376,13.5703416 17.9548725,13.940678 16.6572604,13.940678 C15.2099975,13.940678 14.0552996,13.5045515 13.1931666,12.6322984 L13.1651573,12.6037008 C12.2491958,11.6747214 11.7912151,10.40679 11.7912151,8.7999067 C11.7912151,7.34366869 12.2237524,6.13222931 13.0888272,5.16558856 C13.9284585,4.17384025 15.086132,3.6779661 16.5618478,3.6779661 Z M16.6486737,5.43566813 C15.9286468,5.43566813 15.3665206,5.63404276 14.9622951,6.03079202 C14.6897941,6.29825296 14.4784632,6.65877387 14.3283023,7.11235475 L14.3173696,7.14644235 L14.3173696,7.14644235 L14.3060282,7.18389145 L14.3060282,7.18389145 L14.2942783,7.22470204 L14.2942783,7.22470204 L14.2821198,7.26887413 L14.2821198,7.26887413 L14.2631159,7.34143507 L14.2631159,7.34143507 L14.249936,7.3940109 L14.249936,7.3940109 C14.2443,7.41684556 14.2414531,7.44025683 14.2414531,7.46375139 C14.2414531,7.62325379 14.369775,7.7533547 14.5306677,7.76009638 L14.5437825,7.76037082 L18.8459691,7.76037082 C18.8655443,7.76037082 18.8850726,7.75849138 18.9042789,7.75478041 C19.0681089,7.72312582 19.1747626,7.56717071 19.1425001,7.40644427 L19.130427,7.34759154 C19.1284274,7.33806294 19.1264341,7.32867444 19.124447,7.31942604 L19.1126001,7.26561676 C19.1106381,7.25692874 19.1086825,7.24838081 19.1067331,7.23997298 L19.0951123,7.19120715 L19.0951123,7.19120715 L19.0836423,7.14580361 L19.0836423,7.14580361 L19.0723231,7.10376237 C19.0685751,7.09030901 19.0648523,7.07741603 19.0611546,7.06508343 L19.0501369,7.02976679 L19.0501369,7.02976679 C18.7044077,5.96703435 17.90392,5.43566813 16.6486737,5.43566813 Z" id="形状"></path>
            <path d="M35.1911584,13.5099696 L38.6690858,4.31505433 C38.7271767,4.16147405 38.6473627,3.99077293 38.4908162,3.93378271 C38.4571548,3.92152838 38.4215375,3.91525424 38.3856333,3.91525424 L36.634876,3.91525424 C36.5046199,3.91525424 36.3890061,3.99709817 36.347949,4.1183721 L34.3000473,10.1674438 C34.2474157,10.3229066 34.0762877,10.4070762 33.9178224,10.3554418 C33.8272918,10.3259433 33.7562616,10.256259 33.7261934,10.1674438 L31.6782917,4.1183721 C31.6372346,3.99709817 31.5216208,3.91525424 31.3913648,3.91525424 L29.6406075,3.91525424 C29.4736303,3.91525424 29.3382686,4.04805113 29.3382686,4.21186441 C29.3382686,4.24708836 29.3446639,4.28203072 29.3571549,4.31505433 L32.8350824,13.5099696 C32.8790599,13.6262369 32.9921256,13.7033898 33.1185349,13.7033898 L34.9077058,13.7033898 C35.0341151,13.7033898 35.1471809,13.6262369 35.1911584,13.5099696 Z" id="路径备份-13"></path>
            <path d="M40.9269271,2.84745763 C41.3560532,2.84745763 41.7136583,2.71545628 41.9997424,2.45145359 C42.2988303,2.18745089 42.4483742,1.84173308 42.4483742,1.41430015 C42.4483742,1.01201033 42.3053322,0.672578292 42.0192481,0.396004041 C41.733164,0.132001347 41.369057,0 40.9269271,0 C40.5108048,0 40.1531997,0.132001347 39.8541118,0.396004041 C39.5680278,0.660006735 39.4249857,0.99943877 39.4249857,1.41430015 C39.4249857,1.82916152 39.5680278,2.17487934 39.8541118,2.45145359 C40.1531997,2.71545628 40.5108048,2.84745763 40.9269271,2.84745763 Z" id="路径备份-14"></path>
            <path d="M41.9041643,13.4067797 L41.9041643,4.21186441 C41.9041643,4.04805113 41.7688026,3.91525424 41.6018254,3.91525424 L40.0296634,3.91525424 C39.8626863,3.91525424 39.7273246,4.04805113 39.7273246,4.21186441 L39.7273246,13.4067797 C39.7273246,13.5705929 39.8626863,13.7033898 40.0296634,13.7033898 L41.6018254,13.7033898 C41.7688026,13.7033898 41.9041643,13.5705929 41.9041643,13.4067797 Z" id="路径备份-15"></path>
            <path d="M48.4309888,13.940678 C49.7199827,13.940678 50.7576228,13.6268336 51.543909,12.9991448 C52.0676928,12.5795268 52.4696639,12.0143102 52.7498223,11.3034951 L52.7646732,11.2648722 L52.7646732,11.2648722 L52.7797557,11.2237752 L52.7797557,11.2237752 L52.7950697,11.1802041 L52.7950697,11.1802041 L52.8106153,11.134159 L52.8106153,11.134159 L52.8263924,11.0856397 L52.8263924,11.0856397 L52.8424011,11.0346464 L52.8424011,11.0346464 L52.8586413,10.9811789 L52.8586413,10.9811789 L52.8751131,10.9252374 C52.8778777,10.9157076 52.8806519,10.9060748 52.8834358,10.8963388 L52.900255,10.8366861 L52.900255,10.8366861 L52.9173056,10.7745594 L52.9173056,10.7745594 L52.9345879,10.7099585 L52.9345879,10.7099585 L52.9609454,10.6084182 L52.9609454,10.6084182 L52.9788065,10.5376321 L52.9788065,10.5376321 L52.9968992,10.4643719 C52.9999339,10.4519557 53.0029783,10.4394364 53.0060323,10.426814 C53.0446385,10.2674393 52.9442732,10.1075176 52.781828,10.0696115 C52.7589007,10.0642615 52.7354145,10.0615597 52.7118477,10.0615612 L51.1568261,10.0615612 C51.0126656,10.0616858 50.8886473,10.1616465 50.8605822,10.3003696 L50.8544924,10.3301915 L50.8544924,10.3301915 L50.842391,10.3877617 L50.842391,10.3877617 L50.8303938,10.4425667 C50.828403,10.4514705 50.8264165,10.460259 50.8244343,10.4689323 L50.8125935,10.5195898 L50.8125935,10.5195898 L50.800857,10.5674821 L50.800857,10.5674821 L50.7892247,10.6126094 C50.7853646,10.627191 50.781522,10.6413117 50.7776967,10.6549716 L50.7662729,10.6945688 L50.7662729,10.6945688 L50.7549534,10.7314008 C50.7474418,10.7550339 50.7399997,10.7768235 50.7326271,10.7967697 C50.3894549,11.7252074 49.6286872,12.1894262 48.4503237,12.1894262 C47.5995878,12.1894262 46.9615358,11.8944125 46.5361678,11.304385 C46.08502,10.7143575 45.8594461,9.87325455 45.8594461,8.78107604 C45.8594461,7.71400508 46.091465,6.89173275 46.5555028,6.31425906 C47.0066506,5.72423159 47.6447026,5.42921785 48.4696586,5.42921785 C49.1399355,5.42921785 49.6748679,5.57986316 50.074456,5.88115379 C50.3079418,6.06453817 50.4952176,6.29721361 50.6362834,6.57918011 C50.6483898,6.60337877 50.6608258,6.6305837 50.6735914,6.66079489 L50.6890682,6.69849134 C50.6916741,6.70501459 50.6942931,6.71165808 50.6969253,6.71842183 L50.7128768,6.76044731 L50.7128768,6.76044731 L50.7291446,6.80535881 L50.7291446,6.80535881 L50.7457288,6.85315633 C50.7485192,6.86136309 50.7513228,6.8696901 50.7541396,6.87813735 L50.7711984,6.93026391 L50.7711984,6.93026391 L50.7885736,6.98527649 L50.7885736,6.98527649 L50.8062652,7.04317508 L50.8062652,7.04317508 C50.8442269,7.16927112 50.9622663,7.25581179 51.0962865,7.25579226 L52.6755782,7.25579226 C52.8425553,7.25577848 52.9779057,7.12297042 52.9778916,6.95915714 C52.9778897,6.93650237 52.9752421,6.9139224 52.9699737,6.89186508 L52.9522367,6.81827462 L52.9522367,6.81827462 L52.9346681,6.74727293 L52.9346681,6.74727293 L52.9172678,6.67886001 L52.9172678,6.67886001 L52.900036,6.61303587 L52.900036,6.61303587 L52.8829725,6.54980051 L52.8829725,6.54980051 L52.8660774,6.48915391 L52.8660774,6.48915391 L52.8493507,6.43109609 C52.846577,6.42163552 52.8438103,6.41228282 52.8410505,6.40303798 L52.8245765,6.34886332 L52.8245765,6.34886332 L52.8082708,6.29727743 L52.8082708,6.29727743 L52.7921335,6.24828032 L52.7921335,6.24828032 L52.7761645,6.20187199 C52.7735171,6.194353 52.7708767,6.18694187 52.7682432,6.17963861 L52.7525269,6.13711343 L52.7525269,6.13711343 L52.736979,6.09717703 C52.7344017,6.0907367 52.7318314,6.08440423 52.7292682,6.07817962 C52.4658744,5.43855474 52.0771996,4.92094352 51.5632439,4.52534598 C50.7898476,3.96042606 49.7586525,3.6779661 48.4696586,3.6779661 C46.9255729,3.6779661 45.716273,4.17627631 44.841759,5.17289674 L44.815361,5.20324988 C44.0032949,6.11967553 43.5972618,7.31856114 43.5972618,8.7999067 C43.5972618,10.3018461 44.0005228,11.515364 44.8070447,12.4404605 L44.8346959,12.4718862 C45.6854319,13.4510807 46.8841962,13.940678 48.4309888,13.940678 Z" id="路径备份-16"></path>
            <path d="M69.5581336,13.6440678 L72.2602671,3.56081755 L72.3374709,3.56081755 L75.0203033,13.6440678 L77.4136215,13.6440678 L81.3896178,0.237288136 L78.841892,0.237288136 L76.2555643,10.4332004 L76.1783605,10.4332004 L73.5160407,0.458762211 C73.4812147,0.3282859 73.3610435,0.237288136 73.2235631,0.237288136 L71.3548739,0.237288136 C71.2173935,0.237288136 71.0972222,0.3282859 71.0623962,0.458762211 L68.4000765,10.4332004 L68.3228727,10.4332004 L65.736545,0.237288136 L63.5911131,0.237288136 C63.4241359,0.237288136 63.2887742,0.370085032 63.2887742,0.533898305 C63.2887742,0.561808847 63.2927897,0.589579694 63.3007019,0.616389129 L67.1455145,13.6440678 L69.5581336,13.6440678 Z" id="路径备份-17"></path>
            <path d="M83.4962369,2.84745763 C83.925363,2.84745763 84.2829681,2.71545628 84.5690521,2.45145359 C84.86814,2.18745089 85.017684,1.84173308 85.017684,1.41430015 C85.017684,1.01201033 84.8746419,0.672578292 84.5885579,0.396004041 C84.3024738,0.132001347 83.9383668,0 83.4962369,0 C83.0801146,0 82.7225095,0.132001347 82.4234216,0.396004041 C82.1373375,0.660006735 81.9942955,0.99943877 81.9942955,1.41430015 C81.9942955,1.82916152 82.1373375,2.17487934 82.4234216,2.45145359 C82.7225095,2.71545628 83.0801146,2.84745763 83.4962369,2.84745763 Z" id="路径备份-18"></path>
            <path d="M84.5339418,13.4067797 L84.5339418,4.21186441 C84.5339418,4.04805113 84.3985801,3.91525424 84.231603,3.91525424 L82.659441,3.91525424 C82.4924638,3.91525424 82.3571021,4.04805113 82.3571021,4.21186441 L82.3571021,13.4067797 C82.3571021,13.5705929 82.4924638,13.7033898 82.659441,13.7033898 L84.231603,13.7033898 C84.3985801,13.7033898 84.5339418,13.5705929 84.5339418,13.4067797 Z" id="路径备份-19"></path>
            <path d="M90.4199915,13.940678 C93.3892841,13.940678 94.8739304,12.9049914 94.8739304,10.8336184 C94.8739304,9.95485409 94.4788743,9.2706733 93.6887621,8.78107604 C93.6409731,8.74929929 93.5903839,8.71779839 93.5369946,8.68657332 L93.4826719,8.6554402 C93.2340195,8.51575492 92.9286643,8.3816554 92.5666063,8.25314164 L92.4852156,8.22467497 C92.4440535,8.21048761 92.4021915,8.19636921 92.3596293,8.18231977 L92.2735717,8.15431283 C92.2445747,8.14500784 92.2152666,8.13573349 92.1856474,8.12648979 L92.0958562,8.09885064 C92.0656147,8.08966824 92.0350621,8.08051649 92.0041983,8.07139539 L91.9106737,8.04412403 L91.9106737,8.04412403 L91.8152823,8.01703656 L91.8152823,8.01703656 L91.7180241,7.99013298 L91.7180241,7.99013298 L91.6188992,7.9634133 L91.6188992,7.9634133 L91.5179075,7.93687751 C91.50092,7.9324702 91.4838547,7.92807056 91.4667116,7.92367858 L91.3629198,7.89741863 C91.3454656,7.89305729 91.3279336,7.88870362 91.3103238,7.88435761 L91.0262665,7.81490921 L91.0262665,7.81490921 L90.8148184,7.76218335 L90.8148184,7.76218335 L90.6934874,7.73140357 L90.6934874,7.73140357 L90.5381736,7.69136223 L90.5381736,7.69136223 L90.4632856,7.67176942 L90.4632856,7.67176942 L90.2841417,7.62403536 L90.2841417,7.62403536 L90.1821933,7.59625066 L90.1821933,7.59625066 L90.0843982,7.56910776 L90.0843982,7.56910776 L89.9604657,7.53391559 L89.9604657,7.53391559 L89.843917,7.4998644 L89.843917,7.4998644 L89.7613511,7.47507478 L89.7613511,7.47507478 L89.6829386,7.45092696 L89.6829386,7.45092696 L89.6086795,7.42742094 L89.6086795,7.42742094 L89.5385738,7.40455673 L89.5385738,7.40455673 L89.4726215,7.38233432 L89.4726215,7.38233432 L89.4108227,7.36075371 L89.4108227,7.36075371 L89.3531772,7.3398149 L89.3531772,7.3398149 L89.3170543,7.32621225 L89.3170543,7.32621225 L89.2827774,7.31289485 L89.2827774,7.31289485 L89.2503465,7.2998627 C89.2450952,7.29771444 89.2399208,7.29557807 89.2348233,7.29345358 C88.7123297,7.06748562 88.4510829,6.79757943 88.4510829,6.48373503 C88.4510829,6.10712175 88.6167516,5.83721557 88.948089,5.67401648 C89.2284514,5.51081739 89.6617387,5.42921785 90.247951,5.42921785 C90.9233695,5.42921785 91.4203755,5.52964806 91.7389691,5.73050847 C91.9130431,5.83768287 92.0623485,5.99568903 92.1868855,6.20452696 C92.2041108,6.2334123 92.2226304,6.26844394 92.2424443,6.30962187 L92.2597445,6.34642246 C92.2626808,6.35280676 92.2656434,6.35931649 92.2686324,6.36595166 L92.2868836,6.40726789 L92.2868836,6.40726789 L92.3057688,6.45159455 L92.3057688,6.45159455 L92.3252878,6.49893164 L92.3252878,6.49893164 L92.3454409,6.54927916 C92.3488525,6.55792129 92.3522906,6.56668884 92.3557551,6.57558183 C92.4005685,6.69039452 92.5129101,6.76621802 92.6382269,6.76619499 L94.1928222,6.76619499 C94.3597993,6.76623754 94.4951962,6.63347515 94.4952396,6.46966188 C94.4952443,6.45188898 94.4936207,6.43415163 94.4903701,6.41666715 L94.4787223,6.35515754 L94.4787223,6.35515754 L94.467192,6.29705739 L94.467192,6.29705739 L94.4557792,6.24236671 C94.4538868,6.23353571 94.4519993,6.22484678 94.4501168,6.21629991 L94.4388801,6.16672342 C94.4370171,6.15874479 94.435159,6.15090822 94.4333058,6.14321372 L94.4222453,6.09875142 L94.4222453,6.09875142 L94.4113023,6.05769858 L94.4113023,6.05769858 L94.4004767,6.02005521 L94.4004767,6.02005521 C93.9327001,4.45866247 92.5612686,3.6779661 90.2861822,3.6779661 C89.050039,3.6779661 88.0687706,3.93531851 87.3423771,4.45002332 C86.5904962,4.92706681 86.2145557,5.62380138 86.2145557,6.54022703 C86.2145557,7.38133002 86.596868,8.04040326 87.3614927,8.51744674 L87.3840831,8.53133909 L87.3840831,8.53133909 L87.4307026,8.55904357 L87.4307026,8.55904357 L87.4792404,8.58664108 C87.5947334,8.65091047 87.725893,8.71430629 87.872719,8.77682855 L87.9366036,8.80357032 L87.9366036,8.80357032 L88.0024066,8.83020513 L88.0024066,8.83020513 L88.0701279,8.85673297 C88.0815747,8.86114536 88.0931013,8.86555329 88.1047079,8.86995677 L88.1753068,8.89632416 C88.1991595,8.90509546 88.2233319,8.91384893 88.247824,8.92258458 L88.3222595,8.94873803 L88.3222595,8.94873803 L88.3986134,8.97478452 C88.4114989,8.97911668 88.4244643,8.98344439 88.4375097,8.98776765 L88.5167411,9.01365368 L88.5167411,9.01365368 L88.5978909,9.03943275 L88.5978909,9.03943275 L88.680959,9.06510485 C88.6949635,9.06937462 88.709048,9.07363993 88.7232124,9.07790079 L88.809158,9.10341244 L88.809158,9.10341244 L88.897022,9.12881712 C88.9266297,9.13726752 88.9565572,9.14570009 88.9868043,9.15411483 L89.078505,9.17930558 C89.0939483,9.18349513 89.1094716,9.18768021 89.1250747,9.19186084 L89.2196529,9.21689114 L89.2196529,9.21689114 L89.3161495,9.24181447 L89.3161495,9.24181447 L89.4145643,9.26663084 L89.4145643,9.26663084 L89.5148976,9.29134023 L89.5148976,9.29134023 L89.6171492,9.31594266 L89.6171492,9.31594266 L89.7213191,9.34043813 L89.7213191,9.34043813 L89.9934019,9.40301064 L89.9934019,9.40301064 L90.1524706,9.4402043 L90.1524706,9.4402043 L90.3415672,9.48530367 L90.3415672,9.48530367 L90.4498309,9.51162052 L90.4498309,9.51162052 L90.5541988,9.53738029 L90.5541988,9.53738029 L90.654671,9.56258298 L90.654671,9.56258298 L90.7825739,9.59532 L90.7825739,9.59532 L90.903551,9.62706666 L90.903551,9.62706666 L91.0176024,9.65782295 L91.0176024,9.65782295 L91.098596,9.68024024 L91.098596,9.68024024 L91.1756938,9.70210046 L91.1756938,9.70210046 L91.2488958,9.72340359 L91.2488958,9.72340359 L91.3182021,9.74414965 L91.3182021,9.74414965 L91.3836127,9.76433862 L91.3836127,9.76433862 L91.4451276,9.78397052 L91.4451276,9.78397052 L91.5027467,9.80304533 L91.5027467,9.80304533 L91.5564701,9.82156307 L91.5564701,9.82156307 L91.5901215,9.83359874 L91.5901215,9.83359874 L91.637352,9.85118801 L91.637352,9.85118801 L91.6806868,9.8682202 L91.6806868,9.8682202 L91.7201258,9.88469531 L91.7201258,9.88469531 L91.7442542,9.89536923 L91.7442542,9.89536923 L91.7666512,9.90579556 C91.7702397,9.90751265 91.7737561,9.90921942 91.7772004,9.91091588 C92.3506689,10.1745452 92.6374032,10.5323278 92.6374032,10.9842637 C92.6374032,11.7877054 91.8727785,12.1894262 90.3435291,12.1894262 C89.6426231,12.1894262 89.1201295,12.0701653 88.7760484,11.8316436 C88.5832768,11.6709607 88.427171,11.4550366 88.3077311,11.1838713 L88.2953549,11.1546848 L88.2953549,11.1546848 L88.2826843,11.1226524 L88.2826843,11.1226524 L88.2697193,11.087774 C88.267534,11.0817238 88.2653363,11.075555 88.2631264,11.0692676 L88.2497199,11.0301204 L88.2497199,11.0301204 L88.2360189,10.9881272 L88.2360189,10.9881272 L88.2220236,10.943288 C88.2196665,10.9355777 88.2172971,10.9277488 88.2149155,10.9198013 L88.2004786,10.8706932 L88.2004786,10.8706932 L88.1857472,10.8187393 C88.1832675,10.8098432 88.1807755,10.8008284 88.1782712,10.7916951 L88.1630983,10.7354723 L88.1630983,10.7354723 C88.1284981,10.6047377 88.0082012,10.5134896 87.8705231,10.5134971 L86.3356127,10.5134971 C86.1686356,10.5136117 86.0333686,10.6465014 86.0334852,10.8103146 C86.0334852,10.8260928 86.0347911,10.841845 86.0373771,10.8574179 L86.048457,10.9232335 L86.048457,10.9232335 L86.059502,10.9862891 L86.059502,10.9862891 L86.0705121,11.0465848 L86.0705121,11.0465848 L86.0814872,11.1041205 L86.0814872,11.1041205 L86.0924274,11.1588962 L86.0924274,11.1588962 L86.1033327,11.210912 L86.1033327,11.210912 L86.114203,11.2601678 L86.114203,11.2601678 L86.1250384,11.3066636 L86.1250384,11.3066636 L86.1358388,11.3503995 L86.1358388,11.3503995 L86.1466043,11.3913755 L86.1466043,11.3913755 L86.1573349,11.4295914 C86.1591204,11.4357308 86.1609045,11.4417551 86.1626871,11.4476644 C86.6640481,13.1096735 88.0831496,13.940678 90.4199915,13.940678 Z" id="路径备份-20"></path>
        </g>
    </g>
</svg>