<svg xmlns="http://www.w3.org/2000/svg" width="24" height="24"><defs><clipPath id="a"><path d="M1440 0v1255H0V0h1440Z"/></clipPath><clipPath id="b"><path d="M24 0v24H0V0h24Z"/></clipPath><clipPath id="c"><path d="M15.637 0A2.364 2.364 0 0 1 18 2.364l.001 11.892a4.493 4.493 0 0 0-1.8-.246L16.2 2.364a.564.564 0 0 0-.563-.564H2.364a.565.565 0 0 0-.564.564v15.138c0 .311.253.563.564.564h9.657a4.555 4.555 0 0 0 .19 1.8H2.364A2.364 2.364 0 0 1 0 17.502V2.364A2.364 2.364 0 0 1 2.364 0h13.273Z"/></clipPath><clipPath id="d"><path d="M2 0a2 2 0 1 1 0 4 2 2 0 0 1 0-4Z"/></clipPath><clipPath id="e"><path d="M17.382 0v1.8H0V0h17.382Z"/></clipPath><clipPath id="f"><path d="M.155 5.774c.48.513 2.019.885 3.84.885 1.822 0 3.352-.372 3.833-.885l.009.007c.103-.112.163-.056.163 0v.744C8 7.255 6.204 8 3.996 8 1.787 8 0 7.22 0 6.518v-.744c0-.05.052-.105.155 0ZM8 3.488v.945c0 .707-1.803 1.281-4.009 1.281C1.785 5.714 0 5.134 0 4.434v-.946c0-.049.052-.105.146 0 .472.483 2.026.84 3.845.84 1.82 0 3.365-.357 3.837-.84h.017c.095-.105.155-.049.155 0ZM3.991 0l.018.026C6.206.026 8 .63 8 1.373v.621C8 2.781 6.197 3.43 3.991 3.43 1.785 3.429 0 2.78 0 1.994v-.647C0 .603 1.785 0 3.991 0Z"/></clipPath></defs><g clip-path="url(#a)" transform="translate(-45 -474)"><g clip-path="url(#b)" transform="translate(45 474)"><g clip-path="url(#c)" transform="translate(3 2)"><path d="M0 0h18.001v19.866H0V0z"/></g><g clip-path="url(#d)" transform="translate(17.398 18.418)"><path d="M0 0h4v4H0V0z"/></g><g clip-path="url(#e)" transform="translate(3.308 7.033)"><path d="M0 0h17.382v1.8H0V0z"/></g><g clip-path="url(#f)" transform="translate(8 10)"><path d="M0 0h8v8H0V0z"/></g></g></g></svg>