<?xml version="1.0" encoding="UTF-8"?><svg version="1.1" width="16px" height="17px" viewBox="0 0 16.0 17.0" xmlns="http://www.w3.org/2000/svg" xmlns:xlink="http://www.w3.org/1999/xlink"><defs><clipPath id="i0"><path d="M1440,0 L1440,1194 L0,1194 L0,0 L1440,0 Z"></path></clipPath><clipPath id="i1"><path d="M5.335,0 C8.28144429,0 10.67,2.38855571 10.67,5.335 C10.67,8.28144429 8.28144429,10.67 5.335,10.67 C2.38855571,10.67 0,8.28144429 0,5.335 C0,2.38855571 2.38855571,0 5.335,0 Z M5.335,1.01619047 C2.9497469,1.01619047 1.01619047,2.9497469 1.01619047,5.335 C1.01619047,7.7202531 2.9497469,9.65380953 5.335,9.65380953 C7.7202531,9.65380953 9.65380953,7.7202531 9.65380953,5.335 C9.65380953,2.9497469 7.7202531,1.01619047 5.335,1.01619047 Z M5.58904762,4.31880953 C5.65642523,4.31880953 5.72104324,4.34557518 5.76868641,4.39321835 C5.81632959,4.44086152 5.84309524,4.50547952 5.84309524,4.57285714 L5.84309524,8.12952381 C5.84309524,8.19690143 5.81632959,8.26151944 5.76868641,8.30916261 C5.72104324,8.35680578 5.65642523,8.38357143 5.58904762,8.38357143 L5.08095238,8.38357143 C5.01357477,8.38357143 4.94895676,8.35680578 4.90131359,8.30916261 C4.85367041,8.26151944 4.82690476,8.19690143 4.82690476,8.12952381 L4.82690476,4.57285714 C4.82690476,4.50547952 4.85367041,4.44086152 4.90131359,4.39321835 C4.94895676,4.34557518 5.01357477,4.31880953 5.08095238,4.31880953 L5.58904762,4.31880953 Z M5.58904762,2.28642857 C5.65642523,2.28642857 5.72104324,2.31319422 5.76868641,2.36083739 C5.81632959,2.40848056 5.84309524,2.47309857 5.84309524,2.54047619 L5.84309524,3.04857143 C5.84309524,3.11594905 5.81632959,3.18056705 5.76868641,3.22821022 C5.72104324,3.27585339 5.65642523,3.30261904 5.58904762,3.30261904 L5.08095238,3.30261904 C5.01357477,3.30261904 4.94895676,3.27585339 4.90131359,3.22821022 C4.85367041,3.18056705 4.82690476,3.11594905 4.82690476,3.04857143 L4.82690476,2.54047619 C4.82690476,2.47309857 4.85367041,2.40848056 4.90131359,2.36083739 C4.94895676,2.31319422 5.01357477,2.28642857 5.08095238,2.28642857 L5.58904762,2.28642857 Z"></path></clipPath></defs><g transform="translate(-1230.0 -256.0)"><g clip-path="url(#i0)"><g transform="translate(1230.0 256.2000000000007)"><g transform="translate(2.999999999999127 3.0000000000000364)"><g clip-path="url(#i1)"><polygon points="0,0 10.67,0 10.67,10.67 0,10.67 0,0" stroke="none" fill="#000000"></polygon></g></g></g></g></g></svg>