<?xml version="1.0" encoding="UTF-8"?><svg version="1.1" width="16px" height="17px" viewBox="0 0 16.0 17.0" xmlns="http://www.w3.org/2000/svg" xmlns:xlink="http://www.w3.org/1999/xlink"><defs><clipPath id="i0"><path d="M1440,0 L1440,1194 L0,1194 L0,0 L1440,0 Z"></path></clipPath><clipPath id="i1"><path d="M5.33507797,0 C8.28147405,0 10.67,2.38852595 10.67,5.33492203 C10.67,7.49269657 9.37018798,9.43800273 7.37666424,10.2637473 C5.38314051,11.0894919 3.08849543,10.6330586 1.56271843,9.10728157 C0.0369414155,7.58150457 -0.419491869,5.28685949 0.406252699,3.29333576 C1.23199727,1.29981202 3.17730343,0 5.33507797,0 Z M5.33507797,0.889153668 C2.8797479,0.889153668 0.889309608,2.87959196 0.889309608,5.33492203 C0.889309608,7.7902521 2.8797479,9.78069039 5.33507797,9.78069039 C7.79040804,9.78069039 9.78084633,7.7902521 9.78084633,5.33492203 C9.78084633,2.87959196 7.79040804,0.889153668 5.33507797,0.889153668 Z"></path></clipPath><clipPath id="i2"><path d="M0.592769116,0 C0.948430585,0 1.14404438,0.160047661 1.17961053,0.480142984 L1.18553822,0.592769116 C1.18553822,0.948430585 1.02549056,1.14404438 0.705395246,1.17961053 L0.592769116,1.18553822 C0.237107646,1.18553822 0.0414938381,1.02549056 0.00592769116,0.705395246 L0,0.592769116 C0,0.237107646 0.160047661,0.0414938381 0.480142984,0.00592769116 L0.592769116,0 Z"></path></clipPath><clipPath id="i3"><path d="M0.0274903822,1.16965234 C0.327984363,0.345041388 1.18513822,-0.137028993 2.04586921,0.0344994806 C2.74580695,0.163778503 3.29903789,0.701804369 3.44776817,1.39786845 C3.63668158,2.26603805 3.15583274,3.14042371 2.32150686,3.44588574 C2.213152,3.49317482 2.14326443,3.60033575 2.14367612,3.71855953 L2.14367612,4.30540096 C2.14363924,4.55090788 1.94460621,4.74991101 1.69909928,4.74991101 C1.45359235,4.74991101 1.25455933,4.55090788 1.25452245,4.30540096 L1.25452245,3.11986272 C1.25452245,2.87432972 1.45356627,2.67528589 1.69909928,2.67528589 C1.98887681,2.67737238 2.26149154,2.53811568 2.4296465,2.30210873 C2.59780146,2.06610177 2.6403978,1.76295697 2.54379527,1.48974766 C2.46328544,1.22647305 2.25993023,1.01869707 1.99844768,0.932544692 C1.53772742,0.767739794 1.03042937,1.00615663 0.86329483,1.4660369 C0.790739864,1.69241457 0.553860752,1.82256793 0.323874935,1.76242146 C0.203934512,1.72601924 0.10424216,1.6418947 0.048187141,1.52978466 C-0.00786787832,1.41767462 -0.0153521,1.28744601 0.0274903822,1.16965234 Z"></path></clipPath></defs><g transform="translate(-1230.0 -222.0)"><g clip-path="url(#i0)"><g transform="translate(1230.0 222.40000000000055)"><g transform="translate(2.999999999999127 3.0000000000000364)"><g clip-path="url(#i1)"><polygon points="0,0 10.67,0 10.67,10.67 0,10.67 0,0" stroke="none" fill="#000000"></polygon></g><g transform="translate(4.739345013126444 7.2732770378232185)"><g clip-path="url(#i2)"><polygon points="0,0 1.18553822,0 1.18553822,1.18553822 0,1.18553822 0,0" stroke="none" fill="#000000"></polygon></g></g><g transform="translate(3.5855933122453765 2.2091316130167966)"><g clip-path="url(#i3)"><polygon points="2.49800181e-16,1.2490009e-16 3.48866662,1.2490009e-16 3.48866662,4.74991101 2.49800181e-16,4.74991101 2.49800181e-16,1.2490009e-16" stroke="none" fill="#000000"></polygon></g></g></g></g></g></g></svg>