<svg xmlns="http://www.w3.org/2000/svg" width="19" height="18"><defs><clipPath id="a"><path d="M1440 0v1024H0V0h1440Z"/></clipPath><clipPath id="b"><path d="M12.877 0c.981 0 1.888.54 2.378 1.417l3.377 6.035c.49.877.49 1.957 0 2.834l-3.377 6.035a2.732 2.732 0 0 1-2.378 1.417H6.123c-.981 0-1.888-.54-2.378-1.417L.368 10.286a2.912 2.912 0 0 1 0-2.834l3.377-6.035A2.732 2.732 0 0 1 6.123 0h6.754Zm0 1.47H6.123c-.472 0-.908.26-1.144.682L1.602 8.187a1.402 1.402 0 0 0 0 1.364l3.377 6.035c.236.422.672.682 1.144.682h6.754c.472 0 .908-.26 1.144-.682l3.377-6.035a1.402 1.402 0 0 0 0-1.364l-3.377-6.035a1.315 1.315 0 0 0-1.144-.682ZM9.452 5.381c1.837 0 3.326 1.536 3.326 3.43 0 1.895-1.49 3.43-3.326 3.43s-3.325-1.535-3.325-3.43c0-1.894 1.49-3.43 3.325-3.43Zm0 1.47c-1.049 0-1.9.878-1.9 1.96 0 1.083.851 1.96 1.9 1.96 1.05 0 1.9-.877 1.9-1.96 0-1.082-.85-1.96-1.9-1.96Z"/></clipPath></defs><g clip-path="url(#a)" transform="translate(-1352 -731)"><g clip-path="url(#b)" transform="translate(1352 731)"><path fill="currentColor" d="M0 0h19v17.738H0V0z"/></g></g></svg>