<?xml version="1.0" encoding="UTF-8"?>
<svg width="16px" height="16px" viewBox="0 0 16 16" version="1.1" xmlns="http://www.w3.org/2000/svg" xmlns:xlink="http://www.w3.org/1999/xlink">
    <title>icon-attach</title>
    <g id="页面-2" stroke="none" stroke-width="1" fill="none" fill-rule="evenodd">
        <g id="画板备份-4" transform="translate(-662.000000, -1809.000000)" fill="#000000" fill-rule="nonzero">
            <g id="history备份-4" transform="translate(216.000000, 1490.000000)">
                <g id="icon-attach" transform="translate(446.000000, 319.000000)">
                    <rect id="矩形" opacity="0" x="0" y="0" width="16" height="16"></rect>
                    <path d="M14.2165143,6.01728572 L6.73994286,13.4927429 C5.68414286,14.548 3.96651428,14.5485429 2.91071428,13.4927429 C1.85491428,12.4363714 1.85491428,10.7182 2.91071428,9.66294286 L4.84262856,7.73045714 L4.84262856,7.73102856 L10.3861714,2.18748572 C11.0167428,1.55802858 12.0402,1.55745714 12.6696571,2.1869143 C13.2991143,2.81637145 13.2991143,3.84148572 12.6696571,4.47094288 L12.2846,4.85654288 L12.2834857,4.85654288 L6.3538,10.7868286 C6.15068572,10.9899429 5.82031428,10.9905143 5.61608572,10.7874 C5.41297144,10.5831714 5.41297144,10.2522571 5.61608572,10.0491143 L10.3861714,5.27845714 L9.57814286,4.47042856 L4.80802858,9.24108572 C4.1596,9.88897144 4.1596,10.9447714 4.80802858,11.5948857 C5.12165716,11.9090571 5.54017144,12.0826 5.98548572,12.0826 C6.42968572,12.0826 6.8482,11.9090571 7.16182858,11.5948857 L7.93414286,10.8225714 L7.93414286,10.8225714 L13.4776571,5.27905716 C14.5535429,4.2037143 14.5535429,2.45428573 13.4776571,1.37894287 C12.404,0.304171453 10.654,0.304171453 9.57811428,1.37894287 L8.8046857,2.15182859 L8.8046857,2.15182859 L2.10268572,8.85491428 C0.600457141,10.3554857 0.600457141,12.7985429 2.10268572,14.3007714 C2.85268572,15.0513428 3.83928572,15.4268857 4.82477144,15.4268857 C5.81137144,15.4268857 6.79685716,15.0513143 7.54797144,14.3007714 L15.0245429,6.82531428 L14.2165143,6.01728572 Z" id="路径"></path>
                </g>
            </g>
        </g>
    </g>
</svg>