<svg xmlns="http://www.w3.org/2000/svg" width="16" height="16"><path fill="currentColor" fill-rule="nonzero" d="M8.884 14.91a1.35 1.35 0 0 1-.648-.165l-1.785-.981a1.353 1.353 0 0 1-.702-1.19V6.91a.265.265 0 0 0-.109-.214L1.516 3.41l-.061-.055a1.342 1.342 0 0 1 .981-2.265H13.55a1.353 1.353 0 0 1 .996 2.265l-.054.055-4.16 3.334a.273.273 0 0 0-.095.215v6.6a1.35 1.35 0 0 1-1.352 1.35ZM2.218 2.603l4.098 3.272c.32.249.508.629.513 1.033v5.666a.28.28 0 0 0 .135.243l1.785.971a.27.27 0 0 0 .407-.24V6.96a1.342 1.342 0 0 1 .499-1.05l4.112-3.306a.276.276 0 0 0 .026-.284.273.273 0 0 0-.244-.138H2.436a.27.27 0 0 0-.218.433v-.011ZM14.385 8h-2.952a.545.545 0 1 1 0-1.09h2.952a.545.545 0 1 1 0 1.09Zm0 2.015h-2.952a.545.545 0 1 1 0-1.091h2.952a.545.545 0 1 1 0 1.09Zm0 2h-2.952a.545.545 0 1 1 0-1.091h2.952a.545.545 0 1 1 0 1.09Z"/></svg>