<svg width="16" height="17" xmlns="http://www.w3.org/2000/svg"><defs><clipPath id="a"><path d="M1440 0v1194H0V0h1440Z"/></clipPath><clipPath id="b"><path d="M5.333 0c1.164 0 2.271.369 3.2 1.066a.41.41 0 0 1-.494.656 4.476 4.476 0 0 0-2.707-.9A4.518 4.518 0 0 0 .82 5.335a4.518 4.518 0 0 0 4.513 4.512 4.518 4.518 0 0 0 4.19-6.194.41.41 0 0 1 .761-.307 5.338 5.338 0 0 1-4.95 7.32A5.34 5.34 0 0 1 0 5.334 5.34 5.34 0 0 1 5.333 0Z"/></clipPath><clipPath id="c"><path d="M.473 0a.473.473 0 1 1 0 .946.473.473 0 0 1 0-.946Z"/></clipPath><clipPath id="d"><path d="M2.714.111a.328.328 0 0 1-.029.464A6.053 6.053 0 0 0 .978 3.13a6 6 0 0 0-.322 1.943v.04A5.981 5.981 0 0 0 2.758 9.64a.327.327 0 0 1 .036.462.318.318 0 0 1-.248.116.33.33 0 0 1-.213-.079A6.624 6.624 0 0 1 .502 7.614 6.633 6.633 0 0 1 0 5.115v-.042c0-.738.121-1.464.357-2.156A6.687 6.687 0 0 1 2.25.082a.328.328 0 0 1 .464.03Z"/></clipPath><clipPath id="e"><path d="M1.248.096a6.66 6.66 0 0 1-.722 10.058.328.328 0 1 1-.393-.526 5.974 5.974 0 0 0 1.813-2.192 5.937 5.937 0 0 0 .601-2.622A5.997 5.997 0 0 0 .784.561a.329.329 0 0 1 .464-.465Z"/></clipPath><clipPath id="f"><path d="M4.835 1.953c.58 0 1.157.068 1.716.2.895.209 1.736.58 2.499 1.101a.329.329 0 0 1-.186.599.32.32 0 0 1-.184-.058A6.766 6.766 0 0 0 4.835 2.61a6.813 6.813 0 0 0-3.637 1.047.328.328 0 1 1-.35-.556 7.436 7.436 0 0 1 3.985-1.148ZM.328 0l9.603.004a.329.329 0 0 1 0 .656L.328.656a.329.329 0 0 1 0-.656Z"/></clipPath></defs><g clip-path="url(#a)" transform="translate(-1230 -182)"><g clip-path="url(#b)" transform="translate(1232.667 185.267)"><path fill="currentColor" d="M0 0h10.667v10.667H0V0z"/></g><g clip-path="url(#c)" transform="translate(1241.314 187.233)"><path fill="currentColor" d="M0 0h.946v.946H0V0z"/></g><g clip-path="url(#d)" transform="translate(1235.582 185.645)"><path fill="currentColor" d="M0 0h2.873v10.218H0V0z"/></g><g clip-path="url(#e)" transform="translate(1237.366 185.629)"><path fill="currentColor" d="M0 0h3.205v10.22H0V0z"/></g><g clip-path="url(#f)" transform="translate(1232.992 189.528)"><path fill="currentColor" d="M0 0h10.26v3.853H0V0z"/></g></g></svg>