<?xml version="1.0" encoding="UTF-8"?><svg version="1.1" width="16px" height="16px" viewBox="0 0 16.0 16.0" xmlns="http://www.w3.org/2000/svg" xmlns:xlink="http://www.w3.org/1999/xlink"><defs><clipPath id="i0"><path d="M1440,0 L1440,1194 L0,1194 L0,0 L1440,0 Z"></path></clipPath><clipPath id="i1"><path d="M2.71758083,1.03397936 C2.87853492,1.11078444 2.98506013,1.26574215 2.99681604,1.44017097 C3.00857195,1.61459979 2.92376121,1.78183153 2.77450112,1.87853658 C1.31079433,2.83477573 0.660593882,4.61264993 1.17326988,6.25685981 C1.68594587,7.90106968 3.24079999,9.02452212 5.00236754,9.02355607 C6.76393508,9.02259002 8.31749363,7.89743292 8.82827463,6.25266178 C9.33905563,4.60789063 8.68680689,2.83073071 7.22199912,1.87609756 C7.0001823,1.72342679 6.94374962,1.42597257 7.09486126,1.20595938 C7.2459729,0.985946193 7.54941911,0.92375747 7.77849887,1.06585366 C9.16746062,1.97054993 10.0010871,3.49261693 10.0000012,5.12195122 C10.0000012,7.81609756 7.76149887,10 5.00000118,10 C2.23850136,10 1.18001117e-06,7.81609756 1.18001117e-06,5.12195122 C-0.00114365001,3.49421991 0.830798993,1.97340236 2.21750137,1.06829268 C2.36585183,0.970264434 2.55662674,0.957174271 2.71758083,1.03397936 Z M5.00000034,0 C5.27614237,0 5.50000034,0.218397685 5.50000034,0.487804882 L5.50000034,3.90243902 C5.50000034,4.17184622 5.27614237,4.3902439 5.00000034,4.3902439 C4.72385786,4.3902439 4.50000034,4.17184622 4.50000034,3.90243902 L4.50000034,0.487804882 C4.50000034,0.218397685 4.72385786,0 5.00000034,0 Z"></path></clipPath></defs><g transform="translate(-1230.0 -296.0)"><g clip-path="url(#i0)"><g transform="translate(1230.0 296.0000000000009)"><g transform="translate(2.999999999999476 3.0)"><g clip-path="url(#i1)"><polygon points="5.55055044e-13,0 10.0000022,0 10.0000022,10 5.55055044e-13,10 5.55055044e-13,0" stroke="none" fill="#D60000"></polygon></g></g></g></g></g></svg>