<svg width="20" height="20" xmlns="http://www.w3.org/2000/svg"><g fill="currentColor" fill-rule="nonzero"><path d="M10.018 18.754c-4.795 0-8.698-3.902-8.698-8.697 0-4.795 3.903-8.698 8.698-8.698 1.898 0 3.703.602 5.216 1.739a.67.67 0 0 1-.804 1.07 7.299 7.299 0 0 0-4.414-1.469c-4.059 0-7.36 3.301-7.36 7.36 0 4.058 3.301 7.359 7.36 7.359 4.058 0 7.359-3.3 7.359-7.36 0-.947-.178-1.87-.527-2.742a.67.67 0 0 1 1.242-.5 8.656 8.656 0 0 1 .625 3.24c0 4.798-3.9 8.698-8.697 8.698Z"/><path d="M15.422 5.338a.771.771 0 1 0 1.543 0 .771.771 0 0 0-1.543 0ZM10.227 18.64a.537.537 0 0 1-.348-.13 10.443 10.443 0 0 1-.9-.865 10.802 10.802 0 0 1-2.086-3.251 10.817 10.817 0 0 1-.819-4.079v-.068c0-1.203.197-2.387.582-3.516a10.905 10.905 0 0 1 3.088-4.62.535.535 0 1 1 .71.802A9.87 9.87 0 0 0 7.67 7.08a9.784 9.784 0 0 0-.526 3.17v.064a9.754 9.754 0 0 0 2.617 6.604c.256.277.529.539.81.78.225.19.252.529.059.753a.518.518 0 0 1-.404.19Z"/><path d="M9.52 18.615a.535.535 0 0 1-.32-.965 9.743 9.743 0 0 0 2.957-3.574 9.682 9.682 0 0 0 .98-4.275 9.779 9.779 0 0 0-2.875-6.936.536.536 0 0 1 .756-.76A10.862 10.862 0 0 1 9.84 18.507a.536.536 0 0 1-.32.108Z"/><path d="M16.307 14.592a.52.52 0 0 1-.301-.094 11.033 11.033 0 0 0-3.715-1.639 11.193 11.193 0 0 0-2.555-.295h-.004a11.098 11.098 0 0 0-5.927 1.707.535.535 0 1 1-.57-.906 12.125 12.125 0 0 1 6.497-1.87h.004c.946 0 1.887.109 2.8.323 1.458.342 2.83.948 4.073 1.797a.536.536 0 0 1-.302.977Zm1.74-5.207-15.66-.006a.536.536 0 0 1 0-1.07l15.66.005a.536.536 0 0 1 0 1.07Z"/></g></svg>