<svg width="20" height="20" xmlns="http://www.w3.org/2000/svg"><g fill="none" fill-rule="evenodd"><path d="M0 0h20v20H0z"/><path d="M4.049 15.12c-1.121 0-1.97 0-2.332-.004a.727.727 0 0 1-.692-.55.753.753 0 0 1 .332-.834c1.15-.694 1.762-2.352 2.074-3.62.338-1.37.397-2.58.404-2.712 0-1.592.604-3.088 1.696-4.213a5.673 5.673 0 0 1 8.192 0 6.02 6.02 0 0 1 1.697 4.211c.008.144.08 1.37.424 2.738.318 1.259.936 2.906 2.08 3.598.28.17.417.514.33.838a.725.725 0 0 1-.695.546h-.004c-.845-.006-4.434-.002-7.903 0l-5.603.002Zm-.54-1.486c1.573 0 3.881-.002 6.139-.004 2.249-.002 4.547-.004 6.118-.004a7.041 7.041 0 0 1-.4-.654c-.377-.698-.688-1.537-.928-2.492a16.712 16.712 0 0 1-.461-3.014c-.002-.017-.002-.034-.002-.05v-.018c-.002-2.466-1.953-4.474-4.35-4.474-2.395 0-4.345 2.006-4.35 4.472v.015c0 .017 0 .032-.002.049-.008.18-.074 1.498-.447 3.016-.235.955-.544 1.793-.917 2.494-.124.238-.26.458-.4.664Z" fill="currentColor" fill-rule="nonzero"/><path d="M10 18c-1.787 0-3.24-1.53-3.24-3.413 0-.404.312-.733.696-.733.383 0 .695.329.695.733 0 1.074.83 1.947 1.849 1.947 1.02 0 1.849-.873 1.849-1.947 0-.404.312-.733.695-.733.384 0 .696.329.696.733C13.24 16.469 11.787 18 10 18Zm1.268-15.198c-.383 0-.696-.329-.696-.733 0-.333-.256-.603-.572-.603-.316 0-.572.27-.572.603 0 .404-.313.733-.696.733-.384 0-.696-.329-.696-.733C8.036.928 8.916 0 10 0c1.083 0 1.964.928 1.964 2.069 0 .406-.312.733-.696.733Z" fill="currentColor" fill-rule="nonzero"/></g></svg>