<svg width="18" height="18" xmlns="http://www.w3.org/2000/svg"><path d="m17.253 16.011-2.592-2.592a7.915 7.915 0 0 0 1.773-4.995C16.434 4.032 12.861.45 8.46.45A7.978 7.978 0 0 0 .486 8.424a7.978 7.978 0 0 0 7.974 7.974 7.929 7.929 0 0 0 4.923-1.71l2.601 2.601c.18.18.405.261.639.261.234 0 .459-.09.639-.261a.916.916 0 0 0-.009-1.278ZM2.286 8.424A6.184 6.184 0 0 1 8.46 2.25a6.184 6.184 0 0 1 6.174 6.174 6.184 6.184 0 0 1-6.174 6.174 6.184 6.184 0 0 1-6.174-6.174Z" fill="currentColor" fill-rule="nonzero"/></svg>