<?xml version="1.0" encoding="UTF-8"?><svg version="1.1" width="16px" height="17px" viewBox="0 0 16.0 17.0" xmlns="http://www.w3.org/2000/svg" xmlns:xlink="http://www.w3.org/1999/xlink"><defs><clipPath id="i0"><path d="M1440,0 L1440,1194 L0,1194 L0,0 L1440,0 Z"></path></clipPath><clipPath id="i1"><path d="M6,10 C6.13808,10 6.2556,10.04832 6.35368,10.14664 C6.45112,10.24504 6.50024,10.36168 6.50024,10.5 L6.50024,11.5 C6.50024,11.6384 6.45112001,11.75664 6.35376,11.85336 C6.2556,11.95168 6.13808,12 6,12 C5.86184,12 5.74432,11.95168 5.64616,11.85336 C5.5488,11.75664 5.49968,11.63832 5.49968,11.5 L5.49968,10.5 C5.49968,10.3616 5.5488,10.24496 5.64616,10.14664 C5.74432,10.04832 5.86183999,10 6,10 Z M9.53528,8.82832 L10.242,9.53504 C10.34128,9.63504 10.39064,9.75168 10.39064,9.89 C10.39064,10.02504 10.34128,10.14336 10.242,10.24168 C10.14312,10.34168 10.02584,10.39 9.89048,10.39 C9.75248,10.39 9.63416,10.34168 9.5348,10.24168 L8.82816,9.53504 C8.73176,9.44 8.68392,9.32168 8.68392,9.18336 C8.68392,9.04496 8.73264,8.92664 8.83048,8.82832 C8.90855999,8.749664 8.99974719,8.7019328 9.10371392,8.68598656 L9.183,8.679 L9.26279616,8.68582528 C9.3652704,8.7013952 9.456112,8.74832 9.53528,8.82832 Z M2.82008,8.68 C2.95832,8.68 3.0764,8.72832 3.17424,8.82832 C3.27184,8.92672 3.32104,9.04504 3.32104,9.18336 C3.32104,9.32 3.2712,9.43664 3.17224,9.53496 L2.46552,10.24168 C2.36672,10.34168 2.24952,10.39 2.114,10.39 C1.97568,10.39 1.85768,10.34168 1.7604,10.24496 C1.66216,10.14664 1.61352,10.02832 1.61352,9.89 C1.61352,9.75 1.66136,9.63160001 1.758,9.53496 L2.46488,8.82832 C2.56368,8.72832 2.68240001,8.68 2.82008,8.68 Z M6,3 C6.54416,3 7.04616,3.13504 7.50568,3.4016 C7.96567999,3.67168001 8.32968,4.03496 8.59736,4.49496 C8.86552001,4.95336 8.99976,5.45496 8.99976,6 C8.99976,6.54504 8.86584,7.04664 8.59736,7.50664 C8.32904,7.96504 7.96488,8.32831999 7.50568,8.59832 C7.04671999,8.86664 6.54487999,9 6,9 C5.4552,9 4.95352,8.86664 4.49416,8.5984 C4.03495999,8.32831999 3.67111999,7.96495999 3.40248,7.50664 C3.13416,7.04664 3.00008,6.54504 3.00008,6 C3.00008,5.45496 3.13464,4.95336 3.40248,4.49496 C3.67032,4.03496 4.03416,3.67168 4.49416,3.40168 C4.95392,3.13496 5.45584,3 6,3 Z M6,3.999 C5.44792001,4 4.97704001,4.19503999 4.58592,4.58664 C4.19536,4.97664 3.99992,5.44832 3.99992,6 C3.99992,6.55168 4.19536001,7.02336 4.58592,7.41504 C4.97712,7.80488 5.44792,8 6,8 C6.55216,8 7.0232,7.80496001 7.4144,7.41496 C7.80456,7.02344 8,6.55176 8,6 C8,5.44832 7.80456,4.97664 7.4144,4.58664 C7.06666667,4.23855111 6.65584987,4.04576889 6.18105064,4.00722579 L6,3.999 Z M11.49984,5.5 C11.63784,5.5 11.75584,5.54832 11.8532,5.64664 C11.95136,5.74504 12,5.86168 12,6 C12,6.1384 11.95136,6.25664 11.8532,6.35336 C11.75584,6.45168 11.63784,6.5 11.49984,6.5 L10.49984,6.5 C10.36184,6.5 10.24416,6.45168 10.146,6.35336 C10.04864,6.25664 9.99944,6.13832 9.99944,6 C9.99944,5.8616 10.04864,5.74496 10.146,5.64664 C10.24416,5.54832 10.36184,5.5 10.49984,5.5 L11.49984,5.5 Z M1.50016,5.5 C1.63831999,5.5 1.75584,5.54832 1.854,5.64664 C1.95136,5.74504 2.00056,5.86168 2.00056,6 C2.00056,6.1384 1.95136,6.25664 1.854,6.35336 C1.75584,6.45168 1.63832,6.5 1.50016,6.5 L0.50016,6.5 C0.36216,6.5 0.24432,6.45168 0.146799996,6.35336 C0.0486399962,6.25664 0,6.13832 0,6 C0,5.8616 0.0486399962,5.74496 0.146799996,5.64664 C0.244399992,5.54832 0.36216,5.5 0.50016,5.5 L1.50016,5.5 Z M9.89048,1.61 C10.02584,1.61 10.1432,1.66000001 10.242,1.75832 C10.34128,1.85672 10.39064,1.97504 10.39064,2.11 C10.39064,2.24839999 10.34128,2.36664 10.242,2.46504 L9.53528,3.17168 C9.43928,3.26832 9.32216,3.31664 9.18376,3.31664 C9.04015999,3.31664 8.92159999,3.26832 8.82632,3.17504 C8.73112001,3.08 8.68392,2.96 8.68392,2.81664 C8.68392,2.67832 8.73176,2.56168 8.82816,2.46504 L9.5348,1.75832 C9.63416,1.66000001 9.7524,1.61 9.89048,1.61 Z M2.4652,1.75832 L3.17184,2.46504 C3.2712,2.56336 3.32024,2.68168 3.32024,2.81664 C3.32024,2.95504 3.27152,3.07336 3.17368,3.17 C3.07608,3.2684 2.9584,3.31664 2.82008,3.31664 C2.67936,3.31664 2.56072001,3.26832 2.46488,3.17336 L1.758,2.46664 C1.66136,2.37 1.61352,2.25168 1.61352,2.11 C1.61352,1.9716 1.66216,1.85496 1.76032,1.75664 C1.83333999,1.68416001 1.91797,1.63791501 2.014075,1.6193225 L2.113,1.61 L2.21149,1.61934875 C2.30622999,1.63802001 2.39079999,1.68458001 2.4652,1.75832 Z M6.00008,0 C6.138,0 6.25552,0.0500000038 6.3536,0.14664 C6.45104,0.24504 6.50016,0.36336 6.50016,0.5 L6.50016,1.5 C6.50016,1.6384 6.45104,1.75664 6.35368,1.85336 C6.25552,1.95168 6.138,2.00168 6,2.00168 C5.86184,2.00168 5.74432,1.95168 5.64616,1.85336 C5.5488,1.75664 5.49968,1.63832 5.49968,1.5 L5.49968,0.5 C5.49968,0.36336 5.5488,0.244960008 5.64616,0.14664 C5.7444,0.0500000038 5.86192,0 6.00008,0 Z"></path></clipPath></defs><g transform="translate(-1230.0 -148.0)"><g clip-path="url(#i0)"><g transform="translate(1230.0 148.80000000000018)"><g transform="translate(2.0 1.9999999999998987)"><g clip-path="url(#i1)"><polygon points="0,0 12,0 12,12 0,12 0,0" stroke="none" fill="#000000"></polygon></g></g></g></g></g></svg>